<?xml version="1.0" encoding="UTF-8"?><svg id="Layer_2" xmlns="http://www.w3.org/2000/svg" viewBox="0 0 288 288"><defs><style>.cls-1{fill:#fff;}</style></defs><path class="cls-1" d="m241.11,107.58c-8.81-3.98-18.25-4.84-27.65-3.94,6.79-5.59,11.84-13.23,13.88-21.96,3.61-15.42-1.62-31.73-11.66-43.67-10.95-13.03-27.89-19.46-44.48-21.07-16.59-1.61-37.27.57-50.01,12.38-9.71,9-12.35,21.8-12.49,34.62-16.9-16.11-41.43-23.51-63.6-11.87-27.36,14.37-32.44,54.73-18.07,79.78,5.71,9.95,14.14,18.05,24.14,23.46-16.22,10.02-25.69,27.11-28.35,45.52-1.28,7.1-1.63,14.42-1.09,21.55.9,11.99,4.74,24.47,14.53,32,3.55,4.04,7.83,7.41,12.92,9.73,12.93,5.87,28.03,4.86,41.12,0,13.05-4.84,26.76-13.65,32.29-26.87.9,1.24,1.84,2.43,2.82,3.58,11,13.59,26.01,23.79,43.17,27.33,5.56,1.72,11.21,2.66,13.81,2.96,6.95.8,14.13.45,20.98-1.18,12.57-1.38,24.22-7.45,30.95-18.5,2.94-4.83,4.12-9.77,3.91-14.59,1.65-7.95-.02-16.61-4.98-23.15-2.37-3.12-5.21-5.51-8.38-7.33,16.82-4.81,31.46-15.77,39.05-32.75,10.72-23.98,2.14-54.76-22.82-66.03Z"/><g><path class="cls-1" d="m215.71,204.35c-.09-.08-.24-.16-.54-.24.1.14.29.21.54.24Z"/><path class="cls-1" d="m212.98,260.24l.61-.45c-.43.2-.58.34-.61.45Z"/><path class="cls-1" d="m257.57,178.05c0,.07.02.08.03.13.37-.54.8-1.33,1.54-2.57-.53.81-1.03,1.64-1.57,2.44Z"/><path class="cls-1" d="m75.46,257.63c.28-.04.56-.07.84-.13-.38.07-.63.04-.84.13Z"/><path class="cls-1" d="m155.35,254.98c-.31.03-.74-.12-1.15-.26.48.27.89.44,1.15.26Z"/><path class="cls-1" d="m273.07,157.82l-.73,1.33c.25,0,.56-.46.73-1.33Z"/><path class="cls-1" d="m254.85,113.63c0,.06-.02.09,0,.18.09.01.06-.07,0-.18Z"/><path class="cls-1" d="m263.85,129.89c.21.33.49.7.77,1.08-.25-.5-.54-1.14-.77-1.08Z"/><path class="cls-1" d="m264.99,131.48c-.12-.17-.24-.35-.37-.52.17.31.28.57.37.52Z"/><path class="cls-1" d="m232.42,112.08c1.07.33,2.11.2,3.2.21l-1.6-.14-1.6-.07Z"/><path class="cls-1" d="m51.94,167.6l-.2.48c.32-.38.31-.47.2-.48Z"/><path class="cls-1" d="m235.24,107.73c.27.12.54.26.81.39-.28-.19-.54-.32-.81-.39Z"/><path class="cls-1" d="m265.88,183.6c-.16.77-.8,1.72-1.33,2.49-.56.76-1.04,1.35-.81,1.5.89-1.3,2.4-3.01,2.14-3.99Z"/><path class="cls-1" d="m27.95,150.97l-.73-.74c.33.37.55.59.73.74Z"/><path class="cls-1" d="m235.24,107.73l-.96-.42c.05.13.14.24.22.36.24-.01.49,0,.73.06Z"/><path class="cls-1" d="m62.28,57.44s-.02,0-.04,0c-.08.05-.14.09-.22.14l.26-.15Z"/><path class="cls-1" d="m68.56,57.95c-.43.05-.85.11-1.32.16.7.07,1.06-.02,1.32-.16Z"/><path class="cls-1" d="m235.62,112.29c.6.08,1.23.14,1.84.24-.63-.2-1.24-.22-1.84-.24Z"/><path class="cls-1" d="m131.05,35.08c-.16.13-.3.26-.44.39.21-.14.35-.27.44-.39Z"/><path class="cls-1" d="m160.19,257.51c.14.11.36.23.54.34.11-.1.11-.2-.54-.34Z"/><path class="cls-1" d="m118.92,254.81l-.02.02h0s.01-.02.01-.02Z"/><path class="cls-1" d="m120.05,252.62c-.2.13-.35.43-.45.72.1-.05-.04.14-.11.28-.08.15-.16.29-.23.42-.14.28-.26.54-.34.77.21-.21.4-.42.59-.64l.28-.34.13-.18c.09-.1-.07.03-.03-.03.1-.23.13-.55.16-1.01Z"/><path class="cls-1" d="m112.81,259.7c.13-.07.23-.12.38-.2-.15.06-.26.12-.38.2Z"/><path class="cls-1" d="m151.9,271.1s.03-.03.02-.05c-.03.01-.04.02-.06.03l.03.02Z"/><path class="cls-1" d="m139.41,264.38c-.15-.23-.39-.49-.67-.75.14.22.35.48.67.75Z"/><path class="cls-1" d="m81.35,275.32s.01-.02.01-.03c-.03,0-.04.01-.07.02.03,0,.04,0,.06,0Z"/><path class="cls-1" d="m14.87,181.57c-.63,1.68-1.1,3.47-1.63,5.29-.24.92-.44,1.85-.67,2.79-.23.94-.43,1.9-.59,2.86-.17.96-.36,1.96-.5,2.9-.12.93-.24,1.87-.36,2.81-.11.9-.22,1.81-.34,2.72-.12.98-.22,1.97-.3,2.96-.35,3.94-.46,7.88-.41,11.67.06,3.81.26,7.4.58,10.9,1.48,2.88,2.23,7.22,3.76,11.55l-1.34.91c.56,1.2,1.09,2.4,1.73,3.57.13,1.68-1.34-2.77-.88.12l1.43,1.07c-.22.25.7,2.66,1.36,4.28.65,1.61.85,2.51-1.24-.38,2.36,4.85,5.56,9.63,9.79,13.63,1.36,1.37,2.06,1.42,2.69,1.62.11.05.09-.02.11-.05.02-.03.02-.08.04-.09.05-.04.09-.07.12-.08.02-.03.1.02.16.09.03.04.06.08.09.13l.02.04.1.12c.07.09.14.18.21.27.11.44-.19.24-.53,0l-.13-.08h-.05s-.07,0-.11,0c-.08.02-.16.07-.24.18l.05.13c.11.13.21.27.32.4.22.27.44.54.66.78.44.5.88.96,1.32,1.37.87.84,1.75,1.52,2.59,2.1,1.7,1.15,3.31,1.86,4.92,2.46,3.21,1.17,6.44,2.05,11.16,4.17-.3-.04-.61-.06-.91-.11.91.12,2.16.45,3.19.74,1.04.24,1.87.42,1.92.33-.43-.92-.92-.84-1.67-.76-.74.05-1.75.1-3.08-.86.72-1.12,3.92.63,4.03-.42,1.06.54,1.98.75,2.87.82.9.06,1.77.05,2.76.21.81.34,1.73.61,2.69.84.97.2,1.98.33,2.96.48,1.97.23,3.83.42,5.12.91.84-.19,1.72-.63,2.81-1.07,1.1-.4,2.39-.86,4.12-1.04,2.61.69-.49,1.05,2.98.98l.43-.83c2.77-.37,2.38-.09,2.35.28,2.96-.59,2.22-1.48,5.95-1.97l-1.83,1.24c1.31-.49,2.25-.77,3.31-1.11,1.07-.31,2.27-.65,4.1-1.27.07.43-1.41.93-2.54,1.17,2.37.38,3.26-1.64,4.31-1.93-.4-.18-2.92.59-1.97-.55.89-.26,1.72-.87,2.51-1.35.79-.5,1.54-.9,2.33-.75l-1.59,1.47c3.35-2.08,1.54-1.64,5.69-3.31-.19.16,0,.27-.02.46,2.1-2.11,5.74-3.13,9.33-5.51l-.56.62c1.3-1.16,1.65-2.31,2.43-2.81-2.21,1.09-1.8.51-2.4.05,1.63-.43,2.42-1.43,3.26-2.69.43-.63.9-1.28,1.49-2.01.6-.72,1.38-1.43,2.41-2.24.25.36-.26,1.66-1.65,2.26-.47,2.15.06,3.13-2.15,5.63,1.44-1.47,3.15-3.16,3.11-2.43l-.3-1.32c.89-.86,1.67-1.42,2.32-2.11-.17-.9-2.59.86-.96-1.48.24-.31.45-.55.64-.74.05-.04.09-.09.14-.13.05-.05,0,.01.02,0,.05-.03.09-.05.14-.06.17-.05.31.01.42.1.22.18.32.47.22.18,1.03-1.9-.12-1.76,1.38-3.09-.08.3-.25.82-.41.86.59-.35,1.04-1.16,1.47-1.75.41-.59.75-.9.92,0-.04.64.05,1.3-.19,1.5l-.04-.32c-.19,1.26-.07.92.09.56.18-.36.34-.8.37.34-.04-.27-.03-.53.02-.79.03-.2.09-.39.15-.58.02-.03.03-.14.06-.09l.08.09.17.21c.23.31.46.69.61.96l-.09-1.43c.45-.41.75-.36.85-.2.11.18.04.52-.04.96-.15.88-.35,2.16.31,2.68.53.15.49.02.38-.2-.1-.21-.28-.5.13-.49.32.46.43.94.61,1.35.09.21.18.4.33.58.2.23.15.16,1.09.91.27.49.72,1.2,1.05,1.89.34.68.55,1.34.3,1.77,1.98,1.31,5.35,4.92,7.02,4.93-1.39-1.53-2.35-1.92-3.32-2.46-.97-.53-2.02-1.15-3.36-3.2l1.62.14c2.42,2.15,6.01,4.26,7.68,5.77-.27-.41-.29-.72.06-.73,1.99,1.16,3.43,1.64,4.79,2.18.67.28,1.36.53,2.1.88.75.34,1.52.81,2.48,1.36.06.52-.48.46-1.24.15-.75-.32-1.73-.89-2.58-1.32,2.18,2.01,2.58,1.57,6.5,3.74-.12.83-2.71-1.35-3.51-.93l2.3,1.01c.77.32,1.56.61,2.34.92-.04.03-.04.09-.06.14.59-.44,1.43-.02,2.55.55,1.1.59,2.46,1.39,3.99,1.67,3.46,1.16,5.63,1.22,7.38,1.05.22-.02.43-.05.64-.07l.31-.04c.11,0-.06-.05,0-.06l.08-.04c.1-.06.22-.1.31-.15.14-.04.39-.04.58-.07.82-.08,1.66-.15,2.66-.15.91.59,1.14.98.63,1.19-1.53-.98-1.34-.48-2.01-.31,2.31.51,4.76,2.46,3.35,2.68,3.8.47-1.18-.95,1.17-.84,1.68.4,3.36.75,5.07,1.06-.51-.75-2.26-1.2.45-1.24,1.12.09,1.97.2,2.93.32.93.11,1.94.27,3.43.38-.46.29.89,1.06-1.37.86,1.44.37,3.75.49,4.63-.14-1.64-.34-.28-.43,1.16-.63,1.45-.2,2.97-.51,1.75-.98,1.08.16,2.17.31,3.27.42-.74.04-.8.48-1.9.42.99.95,2.66-.45,3.77-.68,1.16.09,4.14-.27,4.45.04.49-.22,1.37-.41,2.19-.5.41-.05.88-.09.95-.01.17.05.3.15.38.27-.07-.01.21-.08.28-.12.11-.05.18-.09.22-.13.08-.09.05-.17-.01-.25-.13-.16-.4-.32-.19-.51.88-.1,1.76-.2,2.63-.36.88-.14,1.75-.29,2.62-.49.4.47,1.21,1.85.44,2.25,1.93-.98.35-1.71,3.36-2.52-.71.74.35.7,1.32.59.97-.09,1.87-.13.81.91,1.01.09,2.78-.37,4.6-1.11,1.82-.75,3.66-1.81,4.88-2.69.57-.86-.17-.5-1.11-.13-.94.37-2.06.83-2.17.39,3.58-2,4.95-3.92,6.11-5.45,1.11-1.62,2.02-2.92,4.2-4.83-.41.29-.8.61-1.23.88,2.2-2.86,1.95-2.55,2.74-4.57.05.35.37.46.9.34.51-.14,1.2-.52,2-1.12.82-.59,1.63-1.48,2.5-2.51.84-1.09,1.64-2.42,2.24-3.91-.14-.36-.73.37-1.36.95-.62.6-1.28,1.06-1.42.43.58-1.2,1.09-2.44,1.53-3.71.18-.24.2.24.12.77.51-1.75,1.33-3.27,1.88-4.6.54-1.32.83-2.4.27-3.01.68-1.16,1.28-2.51,1.8-3.69l-.71,1.46c-.13-.14-.21-.52-.31-.96-.02-.11-.04-.23-.06-.36l-.03-.19-.03-.1c-.04-.14-.08-.29-.12-.44,0-.38.02-.77.02-1.1.01-.48.02-.92,0-1.12-.05-2.09-.06-3.47.05-4.64.11-1.17.33-2.12.56-3.3-.39.8-1.21,2.57-1.7-.54.87-.09.83-1.8.48-3.48-.31-1.68-.92-3.27-.48-3.37-.41-1.26-.9-3.69-1.64-3.51l1.08-.26c-.38.09-.79-.13-1.23-.54-.21-.21-.46-.45-.7-.74-.14-.18-.2-.21-.28-.29-.08-.08-.15-.16-.24-.24-.65-.68-1.36-1.62-2.19-2.36,1.3.04.94-.34.42-.79-.51-.45-1.29-1.03-.25-1.11-.69-.13-1.27-.38-1.83-.67-.61-.31-1.18-.66-1.8-.95-.06-.02-.05-.03-.02-.04l.05-.04s.06-.05.09-.07c.05-.05.08-.1.09-.14.01-.1-.08-.2-.35-.3,1.43-.5,3.09.1,4.01.21-.06-.15-.1-.3-.12-.46,1.49.11,3.69-.74,5.08-1,.03-.25.08-.51.15-.78.1-.29.06-.49.43-.95l1.14-.04c.21-.49,2.01-1.81.58-1.48.42-.22.85-.46,1.27-.73-.32-.6.05-.96.77-1.45.73-.47,1.77-1.12,2.75-2.25.67-.24.73.12.33.65,1.18-.9,1.11.05,2.03-.13-.51.21.13-1.14.44-2.24.31-1.11.29-1.97-1.38-.94-.56-.26.9-1.97,2.03-2.8l1.46.27c.11-.7.22-1.38.28-2.1.68-.86,1.31-1.33,1.95-1.75.62-.42,1.22-.81,1.85-1.46-1.08,1.43-.89,4.74,2.22.92-.76,1.04-1.21,1.93-1.58,2.69-.39.74-.66,1.39-1.04,1.97.74-.72,1.18-1.03.45.51,2.39-3.16.38-1.44,2.73-4.51.36.42.77.48,1.41.12.62-.37,1.43-1.19,2.61-2.48l-2.16,1.62c-.03-.18,0-.37.06-.57-.67.71-.95.83-1.42.73.48-.62,1.56-4.35,2.39-4.55-1.74,1.14-1.1-.45-.34-2.09.76-1.66,1.51-3.47.51-2.67-.03-.26.25-.95.61-1.58.35-.64.75-1.22,1.05-1.22-.62,3.16,2.13-1.56,2.6-.81.22-1.18-1.81,1.89-1.49.29.38-.84.85-1.52,1.3-2.1.46-.58.94-1.05,1.28-1.48-.02.27-.07.54-.11.81.53-.85.99-1.73,1.49-2.61-.35-.62-1.84,2.37-1.18-.26.46-.59.98-3.25,1.35-3.06.35,1.45,1.57.81,1.04,3.14.27-.95.83-2.94,1.01-4.43.21-1.49.08-2.45-.67-1.34l.51-2.25c-.74,1.36-2.39,5.01-1.58.57l.2.08c-.03-1.08-.17-2.16-.27-3.22.27-.42.48-.84.73-1.27-.28,0-.47-.51-.32-1.65.35-.27.55-1.35.98-1.23.15-3.39-.49-3.12-.77-3.56-.08-1.86.11-2.57.77-1.71.06-1.3-.04-3.07-.16-4.75-.1-1.68-.26-3.25-.11-4.18-1.15-3.34-.08.74-1.2-1.12.67-1.65.17-4.55-.95-7.6-1.12-3.06-2.92-6.18-4.4-8.61-.7,2.15-.93-1.27-2.76-1.36.55.37.11-.91-.12-1.81-.22-.9-.2-1.44,1.37.54-.61-.82-1.19-1.66-1.85-2.44-.26-1.11.65-.2,1.47.63.8.83,1.58,1.57,1.21-.14-.48-.74-1.07-1.32-1.67-1.86-.59-.54-1.21-1-1.85-1.47-1.25-.96-2.51-1.94-3.72-3.61,1.82.14-2.52-1.95-.91-2.15.93.28,1.66,1.21,2.56,1.99-.11-.23-.24-.46-.35-.69-1.31-1.47-2.2-2.18-2.76-2.51-.57-.34-.83-.29-1.02-.13-.39.32-.52.99-2.32.07-.91-.7-1.54-1.19-1.95-1.59-.4-.4-.59-.7-.65-.93-.12-.48.25-.71.29-1.02-.49-.59-2.6-1.75-3.85-2.04,1.44.36,2.47,1.27,2.95,2,.48.74.38,1.34-.36,1.29-.48-1.1-1.92-2.07-3.45-2.64-1.51-.62-3.08-.81-3.73-.86,2.62,2.01,3.5,2.62,4.42,3.15.86.6,1.77,1.12,3.71,3.47.46.06.83-.14,1.41-.05.57.11,1.41.47,2.58,1.88-2.07-1.06-.32.6,0,1.16-.02-.99,2,1.49,2.92,2.11.24,1.1-2.56-.46-.42,2.33.55-.19,1.12-.39,1.67-.56.7,1.25-1.28.3.88,2.36-1.67-.69-.71,1.12-3.43-1.66,1.02,2.17,2.17,3.44,3.49,4.53.63.56,1.3,1.07,1.97,1.62.64.57,1.28,1.18,1.87,1.91-.27-.28-.49-.21-.76-.47.79.46,1.4,1.76,1.98,2.68.34,1.19-.03.82-.49.27-.48-.54-1.09-1.26-1.15-.88.63,1.12,1.15,2.3,1.69,3.47-.02.09-.04.12-.07.13.58.85,1.1,1.7.82,2.18-.89-.89-1.57-1.09-2.24-1.62l1.26,1.62,1.19,1.69c-.6-.24.07,3.39-1.1.83.63,1.82,1.23,3.66,1.67,5.55l-.98.69c.24.65.39.98.48.94.09-.04.12-.45.01-1.27.05.49.27,1.25.53,2.12.29.86.57,1.84.78,2.73.41,1.8.47,3.25-.63,2.77.53,2.23.64,3.79.64,5.46-.03,1.67-.09,3.46-.31,6.23-.15-2.19-.67-1.02-1.1.08-.48,1.1-.89,2.15-.67-.04-.97,2.4.04,3.18-.34,5.21-1.03,1.7-1.75.54-1.6-1.48-.02.81-.13,1.6-.19,2.41l-.19-.11c0,.72-.06,1.43-.1,2.15-1.31,1.84-1.18.04-2.16,2.04l.7.84-1.18,1.14c.64-.34.28.98-.45,2.48l-.17-.13-.82,1.84c.47-2.02-1.09,1.48-1.24.33-.48.7-.72,1.06-1.03,1.57-.29.53-.7,1.19-1.54,2.47l.85-.05c-.95,1.81-1.2,1.68-1.42,1.44-.22-.24-.45-.6-1.49.62l.72.33c-.5.35-.93.72-1.33,1.08-.42.35-.8.71-1.14,1.08-.35.37-.66.75-.96,1.13-.32.36-.61.72-.9,1.08-1.12,1.46-2.25,2.78-3.85,3.56,1.43-1.39.45-1.77.57-1.57-.5.55-1.16,1.09-1.86,1.67-.35.29-.72.59-1.09.9-.38.29-.77.58-1.17.88-.77.6-1.55,1.21-2.32,1.79-.77.6-1.34,1.17-2.22,1.86-.98-.12-1.64-.18-2.59-.01-.92.2-2.28.52-4.79,1.25-3.27,1.34-3.75,1.54-3.95,2.34-1.86.42-4.15,1.24-6.03,1.85-1.88.59-3.46,1.04-4.36.9.02.11.25.23.32.34.09.11.07.24.02.37-.08.26-.43.61-.32,1.06.31.16.64.31,1,.47-.14.05-.28.1-.41.15l1.63.07c.42.83,1.65,1.84,3.04,2.82,1.4.99,2.97,1.94,4.38,2.85,2.88,1.87,5.12,3.32,5.9,6.05-.21-.26-.48-.5-.75-.74.31.3.57.62.81.95l.18.25.12.15.25.29c-.18.36-.66-.07-1.07.08,1.04,1.96,1.73,4.12,2.17,6.32l.24-1.44c.42,1.37,1.35,2.24,1.07,3.99-.74-1.32-.66-.74-.54.22.12.96.19,2.34-.27,2.55-.07-.49-.22-.96-.32-1.44.13,1.96.05,1.96.85,1.82.08,1.32-.33,1.75-.68,2.12-.17.19-.33.37-.4.65-.03.1-.08.4-.11.73-.03.33-.03.71-.01,1.17.16-.83.37-1.84.41-2.26.25-.22.49-.01.65.41.04.12.08.19.09.38.01.18.02.37.01.57,0,.4-.06.81-.12,1.23-.11.42-.42,1.77-.55.31.05.42.09.95.1,1.18.02.3.02.61,0,.88-.01.57-.09,1.16-.17,1.7-.17,1.09-.43,2.02-.4,2.48-.53.98-.94.46-.99-.13-.26,2.07-.57,2.51-.78,2.93-.25.42-.41.84-1.24,2.9l-.33-.29-.42,1.58c-.64.46-1.38.83-2.03,1.23l.91-.29c-.4.62-.7,1.15-1.08,1.66-.37.52-.79,1.04-1.5,1.56l.02-.93c-.65.79-1.23,1.37-1.82,1.76-.56.42-1.08.72-1.6.99-.52.28-1,.58-1.56.95-.54.39-1.12.89-1.86,1.58-.29.04.12-.45.33-.7-1.26,1.4-2.07,1.43-2.77,1.54-.36.04-.73.07-1.17.26-.44.2-.96.55-1.71,1.17.13-.29-.34-.38-.28-.61-.45.35-.93.67-1.41.97l-.16-.86c-.28.54-.57,1.11-.89,1.65l-1.25-.57-.51.58c-1.09-.6-2.12-.42-3.27-.29-.57.08-1.16.18-1.77.16-.15,0-.31,0-.46-.02l-.23-.02c-.09,0-.42.02-.52,0-.3,0-.61-.02-.91,0h-.47c-.2.02-.2-.02-.31-.04.12.16.18.33.36.48.18.15.36.3.52.45-.15.07-.4.16-.49.21l-.27.16c-.18.1-.37.2-.57.29-.39.18-.78.34-1.2.47-.82.27-1.69.47-2.59.58-1.8.24-3.72.19-5.65,0-1.93-.19-3.89-.51-5.82-.83l-1.45-.23-1.4-.2c-.96-.13-1.97-.24-2.98-.3l.3-.82c-1.14.13-2.29.24-3.45.33-1.58-1.06,1.21-.49.76-1.05-1.77-.15-2.19.06-2.69.24-.49.17-1.07.31-3.05-.14-.07-.04-.08-.06-.18-.11-.09-.05-.18-.09-.26-.13-.15-.08-.27-.14-.37-.19-.19-.1-.28-.18-.28-.22,0-.09.34-.11.84-.02.33.07.43.06.61.09.17.02.36.05.54.07.37.04.72.09.98.07-.47-.07-.97-.16-1.48-.25-.15-.03-.21-.04-.43-.09-.26-.06-.48-.12-.72-.16l-.36-.06c-.36-.08-.28-.05-.38-.07l-.4-.06c-1.08-.15-2.2-.31-3.26-.58-.53-.12-1.06-.25-1.56-.38-.5-.16-.98-.32-1.43-.48-.45-.16-.87-.32-1.25-.49-.38-.18-.71-.36-1-.54-.1.09-.31.17-.2.27-2.52-.52-5.41-2.31-7.87-3.62.26-.32.88-.02,1.53.22-.86-.51-1.9-1.43-2.86-1.49l1.28-.14c-.9-.55-2.26-1.29-3.44-1.95-1.14-.72-2.06-1.4-2-1.89.02.42-.45.91-1.92-.24,0-.42-.28-.78-.73-1.14-.43-.37-1.02-.73-1.67-1.12-.66-.38-1.36-.82-2.01-1.31-.65-.49-1.26-1.03-1.67-1.69.46.04,2.14,1.41,1.69.99-.45-.61-1.01-1.04-1.62-1.39-.3-.18-.62-.33-.94-.48-.19-.1-.23-.06-.65-.38-.25-.17-.5-.34-.73-.52l.87.13c-1.56-1.49-3.09-2.93-4.57-4.43-1.44-1.58-2.89-3.1-4.26-4.64-.41-1.58-2.46-4.05-4.13-6.03-1.7-2-3.14-3.6-2.91-4.1-.19-.28-.32-.34-.42-.42-.11-.08-.19-.13-.25-.16-.12-.07-.16-.06-.14,0,.04.13.29.45.53.76.11.12.24.38.33.56.09.18.13.31.1.34-.02.05-.13-.07-.32-.2-.17-.06-.44-.18-.82-.38-.07-.13-.15-.24-.24-.36-.8.98-2.21,5.38-2.34,3.79l.29-.84c-.7,1.5-1.38,2.99-2.11,4.49l1.08-4.15c-.91,2.13-1.68,4.24-2.13,5.86-.46,1.64-.64,2.79-.53,3.25-.49.66-1,1.48-1.5,2.35-.25.44-.51.88-.76,1.32-.29.36-.57.71-.84,1.06-.55.69-1.07,1.32-1.55,1.83-.24.25-.46.49-.69.64-.24.17-.4.25-.74.44.26-.3.31-.43.44-.62.11-.18.23-.35.33-.56-.16.26-.37.46-.55.69-.06.06-.07.09-.17.18l-.2.2-.14.15c-.19.19-.39.38-.59.55-.38.36-.81.65-1.25.91-.43.26-.85.51-1.27.73-.44.2-.87.4-1.29.6-1.67.79-3.2,1.47-4.37,3.11-.3.05-.38-.14.1-.46-.82.52-1.68,1-2.53,1.5.1-.3.19-.61.28-.91-1.21,1.11-2.51,2.18-3.85,3.22l-.13-.42c-.75.33-1.62.69-2.53,1.13-.94.38-1.92.86-2.96,1.27-2.08.89-4.18,1.66-6.18,2.28l.54-.35c-4.2,1.78-4.29.63-7.41,1.6.1-.13.2-.19.31-.23-.96.14-1.92.27-2.88.34l.59-.47c-.5.27-1.15.39-1.8.36-.65-.03-1.3-.16-1.84-.3-1.07-.33-1.69-.67-1.07-.28-.59.21-1.39.43-2.09.61-.71.2-1.33.43-1.52.67-3.06-.3-.7-.59-2.49-1.25-1.07-.18-1.71-.14-2.45-.18-.75,0-1.56-.16-2.89-.74l.19-.39c-.63-.19-1.17-.27-1.78-.37-.6-.12-1.24-.32-2.12-.63l.59.02c-1.56-.16-2.17-.89-2.78-1.46-.61-.58-1.15-1-2.64-.9-.8-.98-2.74-2.35-2.06-2.92-.38-.26-.75-.52-1.1-.79-.18-.13-.35-.27-.52-.41l-.25-.21-.13-.1-.24-.23c-.32-.31-.61-.62-.95-.92-.41-.31-.82-.62-1.23-.93l-.15-.12-.06-.04-.12-.07-.24-.15c-.15-.1-.32-.19-.47-.31-1.21-.87-2.33-1.91-3.52-3.23.88-1.3-.55-.54-.95-2.86l-.58.51c-1.35-2.23-2.01-5.18-2.42-8.24-.42-3.07-.52-6.33-.96-9.55l.75-.24c-.32-.4-.62-.83-.93-1.26-.05-3.6.15-7.73.64-11.61.12-.97.26-1.92.4-2.85.08-.46.15-.92.23-1.37.09-.48.18-.95.26-1.42.17-.93.34-1.83.5-2.68.07-.41.15-.81.22-1.2.08-.36.16-.71.24-1.05-.01-.93-.09-2.12.03-3.42.06-1.32.38-2.71.95-4.05v.32c.63-2.44,1.4-4.95,2.54-7.33,1.08-2.41,2.51-4.71,4.24-6.79.07.45.56.16.38.76.02-.75.48-1.4,1.01-1.96.54-.56,1.19-.99,1.55-1.42l-1.29.67c.2-.81.78-1.55,1.43-2.09.68-.51,1.41-.84,1.87-.93l.06-.14s0-.04.04-.09l.2-.26.43-.57c.26-.36.59-.69.87-1.03l1.71-2c.34-.19.87-.49,1.04-.47l.34-.83.8-.35.91-.33,1.88-.68c1.02-.93,7.46-5.55,7.84-6.97.96-.24,5.84-3.15,2.74-.88l4.63-2.97-13.69-8.02,2.52,1.85c-.35.24-2.08-.4-3.95-1.29-.95-.45-1.9-.96-2.76-1.47-.85-.52-1.7-1.01-2.21-1.5,1.99.93,2.44.83,2.1.35-.14-.25-.52-.57-.83-.96-.32-.38-.66-.79-.91-1.13-1.33-.68-.97-.22-.5.31.47.54,1.05,1.15.27.86-.81-.41-1.78-.96-2.78-1.57-.93-.66-1.9-1.37-2.82-2.07l-.25-.2-.16-.13c-.1-.09-.2-.18-.3-.26-.19-.17-.38-.34-.53-.5-.32-.31-.53-.61-.62-.81.29.14.57.29.87.42-1.69-1.27-1.4-2.86-2.74-4.32-1.65-.97-2-2.41-2.81-1.31-1.82-1.97.11-1.35-.29-2.11-1.27-.6-2.88-4.01-2.45-4.71-.58-.07-1.04-.5-1.43-1.11-.35-.63-.63-1.43-.87-2.21-.21-.8-.41-1.56-.65-2.13-.22-.58-.5-.95-.93-.94.03-.77.1-1.55.19-2.32-.41.06-1.54-.03-2.15-1.74.02-1.75.87-1.53,1.19-2.12l-1.81-.75c-.17-4.94-.47-10.57.07-16.27.49-5.69,1.96-11.4,4.52-15.77.66-2.15,1.56-4.51,2.75-6.8,1.19-2.29,2.72-4.48,4.54-6.2-.09.17-.16.36-.23.54.61-.56,1.27-1.05,1.89-1.58.67-.46,1.3-.97,1.98-1.4-1.05.55-2.12,1.11-3.13,1.81.62-.92,1.08-1.68,1.89-2.36.58-.38,1.21-.71,1.83-1.1.63-.37,1.33-.68,2-1.05.7-.32,1.41-.65,2.14-.98.78-.29,1.58-.59,2.38-.92,3.21-1.2,6.52-2.31,9.85-3.14,1.01-.69,1.77-.82,2.32-.82.56,0,.94.2,1.31.4.74.37,1.4.98,3.52.3-.37.17-.51.43-.83.61.56-.06,1.09-.17,1.61-.19.52-.02,1.01-.04,1.48-.06.48-.03.95-.05,1.4-.08.46-.02.91.02,1.36.02.91.04,1.84-.04,2.84.04,1,.08,2.09.08,3.33.18-1.08,1.58,2.99.99,2.27,1.76l.65-.57c.84.86,3.11,1.99,2.55,2.34.78,0,1.54.08,2.33.12l-.18.77c.2.1.42.22.65.33.23.12.46.23.7.35.2.12.41.24.63.37.86.45,1.77,1.16,2.72,1.79.95.66,1.94,1.34,2.93,2.03,1,.7,1.99,1.33,3.01,2.32,2.02,1.8,3.96,3.6,5.64,5.28,1.68,1.7,3.11,3.3,4.04,4.65.84.66,1.7,1.35,2.59,2.06.85.69,1.73,1.4,2.62,2.13,1.72,1.43,3.53,2.95,5.42,4.52,0-4.33.05-8.9.16-13.77.13-4.8.2-9.87.49-14.48.1-1.13.13-2.34.28-3.42.17-1.06.34-2.12.51-3.17l.13-.79c.04-.26.11-.46.17-.69l.36-1.34.36-1.34c.06-.2.13-.5.17-.61l.11-.28c.55-1.54,1.23-2.92,1.91-4.18-.06-1.21,1-3.17,2.02-4.5.62-.28,1.25-.5,1.84-.74.5-.66.81-1.56,1.37-2.31.26-.38.54-.75.85-1.06.34-.29.73-.51,1.16-.64.05.09.04.19-.02.31.35-.3.71-.57,1.08-.83.4-.23.8-.45,1.19-.68.75-.5,1.52-.97,2.16-1.76.94-.5,2.05-.74,2.78-.82.74-.08,1.21.13,1.05.63-.17-.74.97-1.08,2.12-1.23,1.18-.11,2.39,0,2.39,0,0,0,.3-.1.91-.22.61-.12,1.5-.3,2.66-.53,2.35-.4,5.82-.86,10.26-.99,2.22-.08,4.68-.04,7.32.1,2.65.14,5.49.44,8.35.87,5.76.89,11.94,2.58,17.75,5.3,5.82,2.72,11.14,6.5,15.19,11.33,4.23,5.01,7.42,11.08,9.04,17.22.81,3.07,1.24,6.15,1.28,9.14-.02.74-.03,1.48-.05,2.22-.06.73-.12,1.46-.18,2.18-.11.71-.21,1.42-.31,2.13-.13.67-.27,1.33-.43,1.99-.18.66-.34,1.28-.6,1.99l-.17.52-.57,1.21c-.4.81-.71,1.63-1.25,2.4l-.74,1.17c-.27.39-.43.77-.79,1.16-.63.77-1.27,1.54-1.89,2.31-1.61,1.59-3.25,3.14-5.15,4.85-7.47,6.81-14.62,13.33-21.37,19.49,1.17-.08,2.32-.16,3.46-.24.23,0,.64-.06.97-.1l1.04-.12c.69-.08,1.37-.17,2.05-.25,2.84-.34,5.6-.66,8.29-.98,5.37-.63,10.43-1.22,15.16-1.77,2.17-.24,4.25-.48,6.26-.71.9-.06,1.78-.12,2.65-.18.87-.08,1.64-.08,2.39-.07.75,0,1.5-.03,2.17,0,.67.03,1.32.07,1.96.1,1.2.02,2.61.27,2.98.19,1.13-.48,3.95-.03,3.23-1.21,2.19.48,2.56,2.14,3.25,1.6-1.26-.81-.87-1.17-.44-1.57.43-.39.93-.85-.34-1.86.65.17,1.27.4,1.91.6.59-.34-2.73-.5-1.93-1.19l-1.02,1.11c-1.41-.75-2.17-1.27-2.58-1.89-.85.03-1.42.51-2.82.62-.66.07-1.44.13-2.35.03-.92-.07-1.98-.25-3.18-.55.53,0,1.01.04,1.5.07-4.36-.33-1.94-1.08-2.61-1.37.3.01.59.05.88.08-.94-.33-1.89-.57-2.73-.86,1.02.28,2.89.18,4.03.1,1.18-.11,1.75-.28.75-.37-1.99-.42-1.76-.31-1.49-.11.28.2.71.45-1.07.4-2.24-.03-.84-.76-.33-1.19-1.17-.06-2.35-.1-3.55-.1,1.04-.7,2.21.12,1.74-.65-1.66.18-3.46.41-5.37.71,1.11-.94-.3-.7-2.07-.39-1.73.31-3.86.7-2.76-.16.97-.18,1.53-.31,1.82-.41.25-.08.27-.13.24-.18-.08-.1-.38-.2.32-.45l-.29.03h-.14c-.06.02.04-.04.06-.06l.41-.36c.27-.24.56-.47.82-.73,1-.92,1.96-1.91,2.87-2.94.74-.55-.36.95.16.3.75-.55.91-.84.95-1.1.04-.25,0-.43.2-.69.49-.31,1.22-1.23,1.95-2.14.72-.91,1.43-1.75,2.01-1.71.74-.85,1.02-1.36,1.12-1.72.1-.36.02-.56-.08-.77-.21-.41-.35-.85.76-2.59.83-.19-1.14,2.84.24,1.51.41-1.07,1-2.7,1.41-4.19.15.49.74,1.26-.08,2.86,1.43-2.9,2.6-5.67,3.48-8.27.51-1.3.82-2.59,1.24-3.85.32-1.27.65-2.53.9-3.8.93-5.05,1.02-10.33-1.13-16.24.12-.95.34-.69.64-.05.3.64.61,1.69,1.02,2.24-1.64-4.34-2.35-7.45-3.12-10.49-.76-3.02-1.52-5.99-3.74-9.32l-.62.24c-.51-1.31-1.22-2.55-1.92-3.84-.78-1.24-1.56-2.5-2.53-3.71-.96-1.21-1.95-2.44-3.08-3.56-1.08-1.17-2.27-2.23-3.49-3.29-4.88-4.22-10.56-7.46-16.06-10.42l1.16,1.05c-.9-.1-1.98-.39-3.09-.7-1.1-.33-2.23-.69-3.22-.88-.18-.41,1.86-.8-1.59-1.78.62.47,1.94,1.22,1.42,1.36-4.61-2.63-12.49-5.19-21.37-6.27-8.77-1.13-18.48-1.06-27.21,0-5.83,1.12-11.84,2.76-17.8,5.4-5.94,2.68-11.78,6.48-16.7,11.67-2.45,2.58-4.55,5.51-6.27,8.54-.45.75-.85,1.52-1.23,2.3-.39.77-.77,1.55-1.09,2.33-.32.78-.69,1.56-.96,2.35l-.8,2.24-.26.81c-.04.13-.07.26-.08.4-.04.28-.05.57-.02.93-.01-.2.29.26.56.77.26.5.49,1.15.34,1.12-.22-.31-.43-.61-.63-.9-.64-1.15-.6-.87-.82-.81-.09.03-.23.03-.39-.12-.15-.16-.32-.46-.36-.94-.07.02-.15.02-.22.01h-.11s.05.01.05.01l.02.02-.14-.07-.58-.28c-.76-.38-1.52-.76-2.28-1.14-.78-.35-1.55-.69-2.31-1.03-.77-.35-1.53-.69-2.29-1.04-.78-.32-1.56-.6-2.34-.91-.78-.3-1.56-.59-2.34-.89-.79-.27-1.6-.49-2.39-.74-6.36-1.91-13.21-2.73-19.91-1.27l-.31-.75c-1.03-.1-1.68,0-2.33.15-.65.14-1.3.38-2.35.6l.02-.22c-1.26.13-2.59.35-3.89.61-1.29.35-2.57.75-3.77,1.13-1.22.35-2.32.81-3.3,1.19-.99.37-1.86.67-2.57.84l.15.87c-2.67,1.21-1.67,0-4.2,1.71l-.11-.43-1.41,1.13-1.38,1.25c-.22-.75-2.14.26-4.16,1.76-2.04,1.47-4.12,3.41-5.24,3.98-1.42,1.39-3.26,3.56-5.14,5.97-1.83,2.45-3.72,5.11-5.31,7.5-.64.24-1.83,1.91-3.1,4.04-1.23,2.14-2.5,4.74-3.44,6.77-1.45,4.11-2.75,9.2-3.54,14.6-.82,5.4-1.06,11.12-.93,16.52l.98-.24c.05.93.15,1.85.25,2.77-.22-.02-.3.36-.44-.05-.49,1.13-.21,2.75.14,4.35.36,1.6.84,3.18.72,4.36.6-1.57-.21-1.96-.46-3.56.16-2.34,1.35-.3,1.42,2.8l-.22-.02c.3.66.63,1.31.94,1.96-.72.39-.63,2.36-1.28,2.79,1.25,4.54,2.97,8.19,4.9,11.74.5.88,1,1.76,1.51,2.66.54.88,1.08,1.78,1.64,2.7,1.13,1.77,2.29,3.64,3.63,5.65-.64-.15.41,1.23,1.38,2.53.98,1.29,1.86,2.52.67,2.23,2.11,2.07,2.19,1.66,2.04.95-.14-.72-.48-1.75.77-1.11,1.01,1.24,2.47,2.15,2.26,2.75-.78-.31.24,1.58-.75.72.93.9,1.85,1.8,2.82,2.64.19.33-.57-.09-.95-.32.37.29.73.57,1.09.85l.52.43.26.21c.07.06.04.02.07.04.1.04.18.1.24.17.13.14.18.31.18.45.03.29-.22.41.45.51l.11.05c.4.01.52-.03.65-.08,0-.04-.02-.09.43-.1.16.03.31.05.41.07.17.24-.49.39-.97.45-.52.09-.9.06-.8.45-.2-.14-.43-.27-.66-.38.45.26.83.77.05.7-.69-.56-.37-.63-.72-.86-.02.01-.04.03-.04.07,0,.02,0,.04.01.07v.05s-.02.09.16-.08c-1,1.31-1.54,2.28-.6,1.84-.9,1.17-1.61,1.86-2.28,2.39-.67.52-1.29.88-1.89,1.43.14.17,2.19-1.77,1.42-.18-.74.68-1.46,1.55-2.23,2.48-.38.47-.77.96-1.16,1.47-.36.52-.73,1.06-1.11,1.6-.37.55-.74,1.1-1.11,1.65-.34.57-.68,1.14-1.01,1.71-.33.57-.66,1.13-.98,1.68-.3.56-.58,1.11-.86,1.65-.17-.14-.62.02-.52-.41-.37,2-.92,2.68-1.62,3.52-.69.84-1.65,1.79-2.45,4.36Z"/><path class="cls-1" d="m153.55,271.95c-.56-.26-1.1-.57-1.65-.85-.08.18-.24.35-1.11.19.93.22,1.83.48,2.76.66Z"/><path class="cls-1" d="m101.61,267.39c-.17.17-.34.33-.48.51.38-.23.46-.39.48-.51Z"/><path class="cls-1" d="m82.06,275.85c1.48-.52.08-.43-.71-.52,0,.18.07.38.71.52Z"/><path class="cls-1" d="m201.18,276.27c-.3.14-.47.29-.39.46.4-.23.46-.36.39-.46Z"/><path class="cls-1" d="m256.45,195.43c-.15.09-.29.18-.48.28.12-.02.29-.13.48-.28Z"/><path class="cls-1" d="m249.92,199.33c-.29.22-.64.53-1.12,1.02.55-.36.89-.71,1.12-1.02Z"/><path class="cls-1" d="m169.03,274.62c-.48-.11-.97-.17-1.42-.12.74.2,1.14.18,1.42.12Z"/><path class="cls-1" d="m247.66,201.4l-1.59.98c.02.05.03.1.07.16l1.52-1.14Z"/><path class="cls-1" d="m258.21,193.78c-.52.54-1.22,1.27-1.76,1.65.86-.48,1.38-1.04,1.76-1.65Z"/><path class="cls-1" d="m240.68,249.13c-.01.06-.04.13-.06.21-.29,1.59-.02.63.06-.21Z"/><path class="cls-1" d="m242.61,206.35s-.08.02-.11.02l-.03.29.15-.31Z"/><path class="cls-1" d="m263.74,187.59c-.2.31-.36.6-.44.87.2-.23.43-.49.73-.83-.15.02-.23,0-.29-.05Z"/><path class="cls-1" d="m243.24,220.24c-.48-.46-.77-.59-.93-.56.24.63.48,1.01.93.56Z"/></g></svg>