<?xml version="1.0" encoding="UTF-8"?><svg id="Layer_2" xmlns="http://www.w3.org/2000/svg" viewBox="0 0 288 288"><defs><style>.cls-1{fill:#fff;}</style></defs><path class="cls-1" d="m268.98,87.71c-5.48-13.29-17.45-23.65-31.71-27.46-11.17-2.99-23.03-1.54-33.24,3.32,2.87-10.08,3.29-20.61-3.21-29.66-8.63-12.02-25.56-16.91-39.81-18.69-15.62-1.95-32.13.74-44.53,10.63-7.84,6.25-13.22,14.67-15.19,23.94-18.31-15.16-47.88-12.73-64.14,5.79-21.14,24.08-14.63,58.75,8.08,79.46-20.24,17.6-28.13,46.56-18.97,71.8,5.19,14.3,14.75,26.74,27.2,35.88,12.99,9.54,30.97,16.67,47.11,10.68,11.14-4.14,18.59-13.01,24.11-22.94,7.34,25.83,27.62,47.84,58.16,44.7,9.47-.97,18.48-3.86,27.16-7.55,8.69-3.69,17.61-8.18,23.98-15.18,11.17-12.29,12.67-30.35,6.68-45.28-4.14-10.31-11.25-18.76-19.8-25.71,9.12.25,18.11-1.22,26.25-6.08,13.37-7.98,21.45-22.12,24.53-36.73,3.38-16.01,3.69-35.51-2.65-50.9Z"/><g><path class="cls-1" d="m211.49,179.67c-.34-.16-.71-.31-1.17-.47.57.27.93.41,1.17.47Z"/><path class="cls-1" d="m230.84,244.85l.25-.68c-.24.39-.28.57-.25.68Z"/><path class="cls-1" d="m255.52,163.73c-.01.07,0,.08,0,.14.42-.48,1.01-1.11,1.92-2.19-.62.71-1.29,1.37-1.93,2.05Z"/><path class="cls-1" d="m109.4,235.04l1.15-1.49c-.52.66-.89,1.06-1.15,1.49Z"/><path class="cls-1" d="m179.29,267.21c-.24.18-.66.26-1.07.34.52,0,.93-.06,1.07-.34Z"/><path class="cls-1" d="m274.31,147.37c-.33.37-.63.74-.97,1.1.25.06.65-.3.97-1.1Z"/><path class="cls-1" d="m275.32,100.84s-.07.06-.11.14c.06.06.09-.02.11-.14Z"/><path class="cls-1" d="m274.24,118.82c.05.38.14.83.21,1.28.02-.54.02-1.23-.21-1.28Z"/><path class="cls-1" d="m274.57,120.71c-.04-.2-.08-.4-.11-.61,0,.34.01.61.11.61Z"/><path class="cls-1" d="m259.62,85.19c.27.48.63.85,1,1.21.36.36.76.7,1.15,1.06l-1.04-1.17-1.11-1.1Z"/><path class="cls-1" d="m33.22,178.62l.2.26c-.04-.23-.12-.28-.2-.26Z"/><path class="cls-1" d="m264.66,83.91l.3.83c-.07-.33-.17-.59-.3-.83Z"/><path class="cls-1" d="m262.69,170.7c-.3.72-1.09,1.52-1.76,2.18-.69.64-1.27,1.12-1.07,1.31,1.11-1.1,2.91-2.48,2.83-3.49Z"/><path class="cls-1" d="m23.99,143.36l.53-.85c-.27.39-.43.65-.53.85Z"/><path class="cls-1" d="m264.66,83.91l-.41-.93c-.05.13-.06.27-.08.4.18.15.35.33.49.53Z"/><path class="cls-1" d="m51.67,56.85s-.02.01-.03.02c-.05.08-.08.13-.13.21l.16-.23Z"/><path class="cls-1" d="m57.36,54.7c-.35.23-.73.39-1.08.69.61-.27.92-.44,1.08-.69Z"/><path class="cls-1" d="m261.77,87.46c.42.44.78.91,1.15,1.39-.31-.55-.7-1-1.15-1.39Z"/><path class="cls-1" d="m126.11,32.08c-.17.13-.32.25-.47.39.22-.14.38-.26.47-.39Z"/><path class="cls-1" d="m184.54,267.09c.18.03.42.02.63.04.05-.14,0-.22-.63-.04Z"/><path class="cls-1" d="m128.94,256.23v-.02s-.02,0-.02,0c.01,0,.02.01.02.01Z"/><path class="cls-1" d="m131.56,258.61c-.55-.94-1.85-1.9-2.62-2.39.57.93,1.36,1.66,2.62,2.39Z"/><path class="cls-1" d="m126.06,251.12c.01.07.02.13.04.21,0-.08-.01-.15-.04-.21Z"/><path class="cls-1" d="m184.15,282.99s0-.04,0-.06c-.02.02-.03.04-.03.06h.04Z"/><path class="cls-1" d="m169.8,283c-.24-.15-.58-.28-.96-.4.23.15.54.29.96.4Z"/><path class="cls-1" d="m120.03,250.57s0-.02,0-.03c0,0,0,.02-.01.02,0,0,.01,0,.02,0Z"/><path class="cls-1" d="m13.74,208.87c1.12,3.41,2.67,6.72,4.46,10.13,1.8,3.38,3.88,6.74,6.15,9.93,4.53,6.41,9.88,12.05,14.7,16.7,2.94,1.1,6.15,3.76,9.75,5.98l-.52,1.51c1.06.57,2.15,1.08,3.24,1.58.97,1.18-2.46-1.26-.62.63l1.65-.07c-.04.32,1.9,1.57,3.13,2.47,1.27.85,1.8,1.44-1.13.43,4.08,2.35,8.4,4.41,13,6.05,1.5.59,2.08.4,2.65.29.58-.12,1.17-.17,2.84.51.3.3-.04.3-.43.29-.39-.02-.83-.05-.76.26,2.56,1,4.72,1.45,6.65,1.54,1.89.16,3.57-.11,5.16-.34,3.24-.61,6.2-1.24,11.48-1.67l-.87.32c1.75-.54,5.1-1.34,5.09-1.54-.85-.6-1.25-.3-1.88.14-.31.22-.69.47-1.19.64-.5.17-1.14.22-1.97.1.05-.67,1-.94,1.88-1.25.88-.33,1.7-.61,1.49-1.07,1.22-.02,2.14-.3,2.96-.73.83-.41,1.59-.86,2.56-1.22.88-.14,1.83-.38,2.78-.71.94-.37,1.92-.75,2.82-1.22,1.84-.88,3.52-1.82,4.9-2.16.59-.67,1.11-1.52,1.75-2.54.32-.5.73-1.02,1.15-1.57.21-.27.45-.55.71-.84.13-.14.27-.28.41-.43l.21-.21.08-.09c.66.07.74.33.84.46.08.14.18.19.61,0-.09-.26-.18-.53-.26-.81.7-.58.64-.24.77.15.29-.3.32-.74.41-1.16.09-.41.25-.84.65-1.01-.11.52-.2,1.01-.26,1.47.41-.99.65-1.13,1.22-1.93-.06.77-.25,1.04-.42,1.09.14.64.24.32.36-.28.12-.58.28-1.4.35-1.44.03-.54-.42-.04-.11-1.69.18-.18.41-.98.64-1.62.05-.14.11-.28.16-.42.01-.04.02-.05.03-.02l.02.05s.03.08.04.13c.05.2.07.53.05,1.06-.07.09-.15.2-.22.31-.07.12-.13.16-.22.59.03-.07.05-.14.07-.21.02-.02.03,0,.05,0,.03,0,.06,0,.08,0,.05-.01.1-.03.14-.05.08-.05.14-.11.19-.11.11,0,.19.24.42,1.29-.06,0-.11.33-.18.54.37-.27.63.36.83,1.13.23.78.41,1.67.69,2.37l-.25-.08c.4.28,1.15.19,1.3.58-.2-1.26.08-1.21.54-1.87-.03,1.22.49,1.43,1.24,1.91.28.12,1.02.8,1.58,1.43.6.67,1.18,1.51,1.7,2.64-.39.18-1.49-.53-1.85-1.92-1-.36-1.77-.46-2.56-.74-.1-.03-.21-.09-.29-.11-.07,0-.14,0-.21-.01-.14-.01-.27-.03-.4-.05-.26-.05-.52-.14-.77-.29.28.21.58.49.73.74.39.58.59,1.04.22.97l1.34-.12c.66.96,1.11,1.77,1.6,2.51.88-.02-.26-2.64,1.6-.7,2.06,2.19-.03,2,.67,2.06,1.46,1.51,1.97,1.64,2.38,1.83.41.19.69.45,1.9,2.04-.34-.23-1.02-.67-1.16-1,.77,1.22,2,2.49,2.97,3.65,1.02,1.12,1.84,2.09,1.67,2.91-.54-.06-.89.2-1.63-.66l.19-.12c-3.1-1.48,2.18,1.65.56,1.9.18-.36,1,.21,1.94,1.03.98.78,2.16,1.76,2.86,2.4l.06-1.06c1.63.43,2.34.7,2.6.94.28.22.08.43-.17.7-.49.54-1.16,1.31,1.62,2.87,3.7,1.63-1.15-1.01,1.24-.23,1.08.81,1.81,1.4,2.7,2.04.91.61,1.95,1.35,3.87,1.94.89.72,2.87,1.97,2.74,2.97,1.22.31,3.02.87,4.71,1.36.85.24,1.67.46,2.37.57.71.09,1.31.03,1.7-.14-.5-.18-.94-.32-1.34-.41-.39-.13-.75-.22-1.07-.29-.66-.13-1.21-.16-1.79-.21-.58-.05-1.18-.12-1.91-.34-.36-.11-.77-.24-1.2-.46-.43-.24-.9-.53-1.43-.9l1.59-.42c1.59.53,3.48.87,5.21,1.26.86.22,1.72.28,2.48.42.76.12,1.45.27,2,.44-.43-.26-.6-.53-.28-.69,1.17.07,2.14.14,3,.06.85-.1,1.6-.19,2.35-.28.74-.09,1.47-.16,2.29-.17.83.02,1.73-.04,2.84-.03.61.84-2,.9-3.93.8,1.45.42,2.22.49,3.18.37.96-.09,2.11-.23,4.37-.22.3.75-3.04.12-3.53.89,1.67-.18,3.37-.31,5-.55-.01.05.01.1.02.16.55-1.34,3.73-.32,6.6-1.27,3.45-.67,5.29-1.63,6.68-2.58,1.39-.96,2.34-1.97,3.95-3.02,1.06.02,1.44.23,1.14.67-1.75-.02-1.34.3-1.79.8,2.14-.8,5.16-.42,4.12.5,3.33-1.58-1.47-.2.51-1.32,1.57-.54,3.13-1.1,4.66-1.69-.79-.39-2.44.11-.27-1.29,1.91-.98,2.89-1.24,5.45-2.33-.24.46,1.21.55-.72,1.37,1.33-.31,3.29-1.17,3.76-2.11-1.52.39-.44-.28.71-1.04,1.15-.78,2.34-1.66,1.08-1.6,1-.29,2.01-.59,3.02-.92-.63.33-.49.76-1.48,1.13,1.25.47,2.13-1.45,3.02-2.09,1.06-.36,3.57-1.86,3.98-1.68.7-.77,2.85-2.07,3.54-1.97,1.11-1.1-.3-.59-.14-1.11,1.37-1.07,2.74-2.16,4.02-3.39.58.2,2,.96,1.54,1.7.59-.91.41-1.34.4-1.81-.04-.48.13-.93,1.14-2.12-.38,2.11,3.33-2.7,2.61.14.94-.44,2.13-1.84,3.3-3.42,1.07-1.64,2.1-3.48,2.58-4.88.02-1.01-.44-.34-.98.49-.52.84-1.3,1.78-1.61,1.49.24-.45.46-.87.65-1.27.17-.42.32-.81.45-1.19.27-.75.47-1.43.62-2.05.24-1.26.3-2.29.36-3.23.05-.94,0-1.83.14-2.78.15-.95.31-2.01.73-3.34l-.57,1.35c.34-3.46.27-3.08-.11-5.14.44.54,1.37-.29,2.07-2.06.37-.88.72-1.99.88-3.26.09-.63.18-1.3.21-1.99,0-.69-.01-1.4-.07-2.12-.56-.44-.92,3.23-1.81,2.3-.1-1.24-.17-2.47-.32-3.7.05-.27.29.12.45.59-.15-.83-.21-1.63-.18-2.39.03-.76.09-1.48.09-2.12.03-1.28.02-2.28-.72-2.62.25-1.2.54-2.45.74-3.71-.08.5-.21,1-.32,1.5-.16-.08-.34-.37-.52-.77-.2-.39-.43-.89-.65-1.4-.43-1.02-.85-2.07-1.1-2.4-.47-.85-.82-1.57-1.09-2.22-.29-.63-.5-1.18-.65-1.7-.3-1.04-.43-1.93-.57-3.03-.11.81-.31,2.67-1.76.13.79-.38.23-1.85-.5-3.22-.73-1.37-1.59-2.65-1.2-2.85-.17-.25-.34-.57-.52-.9-.06-.1-.07-.13-.08-.17l-.05-.13c-.04-.09-.08-.18-.12-.26-.17-.32-.38-.53-.74-.42l1.07-.37c-1.43.57-2.88-1.52-4.56-2.97,1.46.18,1.09-.18.58-.64-.51-.45-1.24-1.08-.04-1.03-1.18-.31-1.98-.91-2.76-1.49-.79-.58-1.56-1.15-2.84-1.64-.19-.15-.3-.26-.34-.33,0-.02-.03-.04,0-.04.07.01.13.02.19.03.14.03.27.05.39.08.52.11,1.07.27,1.58.42.72.22,1.38.44,1.85.57-.13-.12-.25-.24-.35-.36,1.82.46,4.2.4,5.9.5-.08-.35-.08-.75,0-1.15.33.11.65.21.96.33-.08-.28.9-.73-.13-.92l.8-.15c-.4-.57-.17-.74.32-.89.24-.07.54-.16.86-.28.15-.06.35-.14.48-.23.3-.16.61-.33.93-.54.71-.06.68.3.14.72,1.39-.56,1.06.31,2.01.38-.57.06.46-1.03,1.02-2.06.58-1.01.76-1.85-1.1-1.25-.47-.37,1.33-1.73,2.63-2.23l1.35.58.72-1.98c.86-.65,1.54-1.02,2.24-1.29.35-.14.69-.27,1.04-.41.34-.16.69-.36,1.05-.61-.65.62-1.11,1.69-.94,2.25.17.56,1.06.69,2.92-.91-1.84,1.79-2.55,3.01-3.49,4.04.86-.57,1.36-.78.33.59,1.5-1.31,1.64-1.66,1.81-1.98.16-.32.36-.59,1.77-1.89.52.95,1.64.6,4.39-1.53l-2.42,1.18c0-.18.06-.37.16-.55-.77.58-1.12.6-1.54.42.63-.48,2.34-3.96,3.19-3.97-1.91.78-.99-.65.05-2.1,1.01-1.49,2.1-3.08.96-2.51.06-.49,1.5-2.53,2.1-2.42-.58,1.45,0,1.19.79.65.81-.53,1.7-1.4,1.89-.97.39-1.12-2.04,1.54-1.49.03.96-1.54,2.28-2.28,3.08-3l-.23.77c.63-.73,1.28-1.46,1.89-2.21-.22-.65-2.2,1.91-1.11-.47.52-.49,1.53-2.91,1.85-2.65.1,1.45,1.39,1.09.47,3.2.96-1.67,3.28-7.21,1.37-5.41l.9-2.03c-.96,1.13-3.28,4.26-1.64.21l.18.12c.15-1.04.29-2.07.37-3.11l.99-1.04c-.27-.06-.34-.58.01-1.63.4-.17.85-1.14,1.24-.93.87-3.15.23-3.04.05-3.52.34-1.76.71-2.38,1.14-1.41.38-1.21.68-2.84,1.04-4.37.32-1.54.68-2.98,1.08-3.76-.04-3.3-.32.63-.78-1.36,1.14-1.25,1.67-3.93,1.8-6.94.17-3.02-.09-6.36-.23-9.02-1.63,1.45-.21-1.46-1.73-2.39.59,1.14,1.04-5.09,1.74-.45l-.32-2.85c.81-2.02.92,4.71,2.02,1.68-.05-.81-.22-1.55-.42-2.26-.22-.71-.5-1.38-.75-2.07-.48-1.38-.99-2.8-.93-4.74,1.36,1.1-.86-2.86.56-2.12.55.73.62,1.81.83,2.89l.14-.71c-.4-3.62-.86-4.08-1.36-4.07-.5,0-1.05.44-1.83-1.3-.5-2.11-.57-2.98-.33-3.4.22-.42.65-.36.89-.56.08-.73-.78-2.85-1.44-3.86,1.56,2.39.71,5.01-.32,4,.43-1.11-.09-2.68-.74-4.08-.72-1.39-1.66-2.58-2.11-3.03.23,1.59.42,2.62.6,3.38.15.77.29,1.27.43,1.76.13.49.28.96.38,1.69.08.73.13,1.71.12,3.17.56.66,1.75.27,1.92,3.75-.96-2-.62.27-.72.89.57-.76.7,2.28,1.07,3.27-.44.99-1.83-1.78-1.68,1.61l1.69.46c-.13,1.36-1.23-.44-.6,2.34-.99-1.44-1.23.55-1.89-3.18-.18,1.15-.26,2.15-.16,3.05.1.9.31,1.72.56,2.5.53,1.57,1.24,3.04,1.55,4.81-.11-.36-.32-.4-.44-.75.45.75.41,2.12.48,3.17-.41,2.32-.7-1.86-1.16-1.25-.02,1.25,0,2.49-.06,3.74-.06.07-.09.09-.12.09.17.99.28,1.94-.15,2.26-.46-1.14-.98-1.6-1.37-2.36.32,1.31.63,2.62.88,3.95-.5-.46-1.17,3.11-1.34.33-.03.95-.1,1.9-.17,2.86-.06.95-.14,1.9-.24,2.85l-1.15.33c0,1.37.21,1.45.57-.15-.24.95-.11,3.15-.2,4.97-.11,1.81-.38,3.21-1.34,2.48-.03,1.12-.1,2.07-.2,2.93-.13.85-.29,1.63-.47,2.43-.4,1.59-.88,3.27-1.63,5.9.28-2.14-.43-1.11-1.1-.16-.68.96-1.28,1.9-.65-.18-1.41,2.13-.59,3.07-1.32,4.97-1.33,1.44-1.81.19-1.3-1.75-.17.78-.42,1.53-.64,2.29l-.17-.14c-.14.69-.28,1.39-.47,2.07-1.63,1.53-1.14-.16-2.47,1.59l.53.94c-.44.31-.87.62-1.31.91.7-.19.07.96-.85,2.3l-.15-.16c-.36.55-.74,1.07-1.11,1.61.8-1.85-1.31,1.22-1.25.08-.58.58-.88.88-1.26,1.31-.38.45-.88,1-1.91,2.07l.83.13c-1.22,1.57-1.48,1.35-1.63,1.09-.17-.28-.33-.68-1.53.29l.63.47c-1.05.5-2,.95-2.77,1.55-.8.55-1.53,1.11-2.2,1.69-1.37,1.1-2.7,2.12-4.38,2.41,1.65-.95.82-1.54.89-1.33-.6.35-1.32.73-2.11,1.08l-.3.14-.15.07-.27.11c-.3.11-.6.22-.91.33-.61.23-1.22.46-1.87.63-1.26.41-2.59.71-3.8,1.03-.63.13-1.23.28-1.76.43-.55.14-1.06.28-1.47.45-1.5-.43-2.57-.75-3.98-.96-1.42-.21-3.23-.34-6.59-.52-4.03.15-4.4.24-4.07.91-1.73-.15-3.55-.17-5.16-.19-.02.11-.03.22-.05.33l-.03.16v.04s.05.05.08.07l.18.15c.48.4.91.77,1.24,1.07.65.59.91.97.33.82,1.09.5,1.6.98,2.2,1.55.6.58,1.32,1.28,2.63,2.05l-.38.12,1.38.16c.23.81,1.07,1.75,2.08,2.69,1.03.95,2.24,1.88,3.39,2.78,1.18.91,2.25,1.78,3.21,2.69.48.46.85.93,1.23,1.44.38.5.71,1.04.96,1.64l-.87-.7,1.87,1.75c-.08.41-.92-.27-1.46-.22.65.74,1.22,1.51,1.77,2.29l.84,1.17.41.61.28.43c.34.51.65,1.04.95,1.57.32.52.61,1.06.89,1.6-.07-.51-.13-1.03-.23-1.54.86,1.29,2.02,1.87,2.4,3.69-1.19-1.06-.9-.51-.43.41.47.92,1.11,2.24.78,2.63-.3-.44-.57-.88-.89-1.31.91,1.91.9,1.92,1.55,1.47.63,1.25.43,1.82.31,2.33-.11.51-.2.96.54,2.05-.17-.57-.29-1.16-.49-1.72.12-.32.44-.23.78.09.32.33.64.89.81,1.48-.03.31-.11,1.23-.47.37.49.99.69,2.35.96,3.52.17,1.2.32,2.24.55,2.69-.12,1.2-.7.87-.96.28.28,1.11.42,1.81.5,2.28.06.48.04.74.03,1,0,.26-.02.52.03,1,.06.48.13,1.18.25,2.33l-.43-.09c.15.52.34,1.06.45,1.59l-1.12,2.12.63-.72c-.01.75-.03,1.36-.08,1.99-.06.63-.11,1.31-.46,2.12l-.46-.8c-.16,1.02-.37,1.81-.59,2.47-.28.65-.57,1.17-.83,1.68-.25.52-.54,1.01-.79,1.62-.25.61-.42,1.35-.67,2.29-.22.18-.14-.44-.1-.75-.16.89-.38,1.47-.62,1.87-.24.41-.56.61-.83.83-.58.44-1.02.9-1.56,2.65-.05-.3-.49-.15-.56-.36-.19.51-.36,1.03-.61,1.51l-.6-.63c.06.58.12,1.18.16,1.8-.44.05-.85.12-1.3.15l-.12.73c-.59.02-1.08.18-1.53.42-.44.25-.86.57-1.29.91-.85.69-1.81,1.44-3.13,1.64l.98.64c-1.78,2.75-5.19,4.44-8.91,5.77-3.72,1.34-7.93,2.47-11.48,4.42l-.18-.86c-.91.72-1.83,1.42-2.76,2.11-1.9-.05.76-1.05.08-1.29-3.16,1.59-.96,1.73-4.8,3.18-2.16.03.52-.8,1.36-1.41-1.75.78-3.95,1.64-6.06,2.25-2.11.61-4.13.96-5.47.93-.04.12-.18.3-.04.33-2.44.81-5.65.53-8.27.68.07-.37.71-.45,1.36-.59-.95.06-2.2-.35-3.01.03l.99-.7c-.97-.14-2.41-.04-3.65-.09-1.22-.16-2.24-.36-2.38-.83.17.37-.02.99-1.69.7-.32-.75-1.42-.93-2.8-1.05-1.39-.05-2.95-.47-4.09-1.24.42-.18,2.26.45,1.76.24-.56-.4-1.17-.56-1.81-.63-.32-.03-.64-.04-.97-.04-.32-.04-.63-.07-.94-.11l.55-.32-2.97-1.08c-.99-.39-1.92-.91-2.89-1.36-.02-.41-.35-.78-.82-1.16-.44-.42-1.01-.83-1.57-1.2-1.11-.73-2.12-1.35-1.62-1.59-1.64-1.61,1.03,1.77-1.2-.12-.19-.94-2.13-1.61-1.44-2.14l.3.14c-.53-.42-.98-.93-1.46-1.42l1.46.37c-1.28-1.16-2.78-1.54-3.34-1.19-.42-.75-1.01-1.6-1.52-2.36-.51-.76-.92-1.45-.84-1.98l.55.37c-.82-.85-1.28-1.88-1.7-2.82-.2-.47-.38-.94-.54-1.4-.26-.73-.51-1.44-.76-2.13-.62-1.74-1.27-3.47-2.04-5.11-.19-.41-.39-.81-.6-1.2-.21-.4-.37-.93-.57-1.37-.39-.92-.81-1.79-1.28-2.59-.13-.72.03-.9.47.38l-2.19-6.44.91.7-4.13-9.43.24-.68c-.46-1.58-.98-3.27-1.56-5.11-.29-.91-.59-1.85-.9-2.83-.16-.48-.32-.97-.48-1.47-.08-.27-.16-.44-.25-.63l-.26-.57c-2.9,5.15-6.16,10.94-9.07,16.1l.76-1.69c-1.43,2.75-2.48,4.66-3.32,6.06-.84,1.4-1.5,2.46-2.12,3.24-.62.82-1.2,1.6-1.88,2.57-.71.85-1.5,1.96-2.56,3.4.11-.26.23-.48.38-.72-.67.82-1.41,1.51-2.12,2.27l-.53.56-.25.26-.13.12-.52.46.18-.72c-.98,2.22-4.98,2.3-3.61,2.31-.31.47-.79,1.01-1.18,1.55-.42.5-.76.99-.77,1.3-2.47,1.23-.84-.17-2.52.15-.45.16-.79.37-1.09.52-.3.15-.56.31-.85.47-.29.16-.6.32-1,.47-.41.12-.92.18-1.58.24l-.04-.44c-.29.08-.54.19-.8.28-.26.08-.51.15-.78.23-.55.14-1.13.4-2.01.43l.5-.23c-1.39.51-2.31.27-3.13,0-.41-.11-.8-.19-1.23-.12-.44.05-.94.19-1.58.61-.31-.12-.68-.2-1.08-.29-.4-.11-.81-.22-1.18-.32-.73-.22-1.27-.45-1.12-.88-3.85-.28-6.95-1.08-10.82-2.48,0-.79-.2-.86-.65-.97-.45-.1-1.15-.23-2.05-1.2l-.2.76c-2.63-1.34-5.14-3.4-7.51-5.66-2.39-2.26-4.65-4.67-7.07-6.8l.4-.67c-.51-.09-1-.2-1.5-.31-2.33-2.59-4.78-5.72-6.86-8.85-2.08-3.14-3.77-6.29-4.97-8.71-1.13-1.4-3.13-3.55-3.82-6.34l.19.24c-2.03-4.39-3.48-9.49-3.35-14.86.35.31.53-.23.78.35-.45-.59-.58-1.37-.47-2.14.1-.77.31-1.51.33-2.07l-.58,1.33c-.36-.75-.36-1.69-.21-2.51.15-.83.58-1.54.87-1.9l-.64-2.46c.08-.15.24-.38.37-.4l-.34-.47,1.19-1.12c-.06-.31-.03-1.25-.09-2.27.02-1-.05-2.09-.4-2.69.38-.16,1.12-2.29.92-.54.16-.72.42-1.4.66-2.1l.71-2.08c.49-1.38,1.14-2.7,1.68-4.05l-.82,1.14c-.39-.06-.45-.76-.32-1.59.14-.83.6-1.76,1.04-2.31-.22,1.9.92.59,1.75.15.14-1.26-1.05.64-1.16-.11.1-1.63,1.57-4.55,2.23-5.08l-.18.95c.19-.48.44-.86.71-1.17.3-.3.63-.53.95-.76.66-.46,1.32-.89,1.85-1.74.54-1.82,1.87-2.49.59-3.02.35-.56.61-.86.81-1,.05-.03.1-.06.14-.07.02,0,.04-.01.06-.02.09-.09.16-.16.23-.23.15-.1.21-.05.28-.03.26.12.24.62.91-.02.69-1.16,2.53-3.05,4.39-4.75,1.85-1.72,3.82-3.2,4.62-3.49,0-1.11,2.05-3.03,4.41-5.09-1.4-1.47-2.74-2.98-4.01-4.24-1.26-1.25-2.37-2.16-3.15-2.26l-2.47-3.71c-.27.04-.81,0-1.63-.38-.2-.09-.43-.2-.66-.34-.2-.12-.42-.27-.65-.45-.46-.35-.96-.8-1.53-1.39-.39-.65-.63-1.13-.76-1.51-.06-.3.03-.46.09-.63.14-.32.36-.52.4-.85l-1.95.07c-1.04-2.2-2.2-4.48-3.31-6.88-1.09-2.41-2.13-4.93-2.98-7.54-1.7-5.18-2.56-10.76-1.78-15.59-.15-2.15-.25-4.6,0-7.13.24-2.52.84-5.11,1.86-7.41v.59c.35-.75.71-1.5,1.14-2.21.38-.73.82-1.44,1.27-2.13-.79.94-1.49,1.94-2.21,2.96.3-1.06.3-2.01.84-2.95,1.55-2.35,3.59-4.89,5.91-7.39.29-.32.58-.63.86-.95l.89-.84c.6-.56,1.14-1.18,1.73-1.74,1.27-1.05,2.4-2.27,3.7-3.29,1.22-2.03,2.19-1.94,2.99-1.87.85.1,1.58.19,3.21-1.18-.25.29-.27.59-.48.87,3.74-2.32,6-3.27,10.38-5-.14.95.58.84,1.31.61.73-.21,1.49-.42,1.32.06l.34-.76c.52.21,1.37.32,2.05.45.67.19,1.17.4.99.66l2.03-.84.11.77c.65.03,1.47.19,2.38.27.45.05.93.09,1.4.16.46.11.93.23,1.38.34,1.85.4,3.36,1.27,3.72,2.19.19.03.39.06.58.09l.3.05h.08s.17.09.17.09l.34.17c.9.45,1.83.92,2.78,1.4,1.91,1.01,3.78,1.79,6,3.48,1.07.75,2.17,1.52,3.28,2.3,1.08.77,2.18,1.55,3.29,2.34,1.07.77,2.15,1.56,3.23,2.35.54.4,1.09.8,1.64,1.2.55.4,1.11.83,1.61,1.12,1.31-5.59,2.93-12.21,4.46-18.02.23-.68.46-1.35.69-2.02l.34-1.01c.12-.33.29-.61.43-.91.3-.6.6-1.19.89-1.79l.22-.44c.24-.44.21-.37.26-.44l.21-.32c.54-.86,1.15-1.67,1.76-2.43.13-1.25,1.58-3.09,2.85-4.4.67-.25,1.36-.45,2.03-.65.59-.7,1.1-1.59,1.72-2.33.59-.79,1.31-1.42,2.21-1.65.05.1.03.2-.04.31,1.5-1.22,3.33-1.6,4.61-3.15,2-.84,4.15-1.05,3.81-.03-.16-.75.93-1.1,2.08-1.16.57-.04,1.14-.05,1.58,0,.44.05.72.08.72.08,0,0,.16-.03.47-.1.31-.07.77-.17,1.39-.26,1.22-.2,3.02-.49,5.36-.64,2.33-.16,5.2-.23,8.5,0,.83.07,1.68.15,2.55.23.88.12,1.75.21,2.72.35,1.93.29,3.96.63,6,1.08,4.11.85,8.36,2.11,12.37,3.79,1.97.87,3.88,1.84,5.63,2.92,1.71,1.11,3.27,2.31,4.6,3.6,2.62,2.72,4.15,5.28,4.73,8.72.09.42.14.87.19,1.33l.03.27c.02.19.01.22.02.33l.02.57c0,.38-.03.78-.05,1.17l-.12,2.34c0,.38-.07.79-.15,1.21l-.23,1.25c-.16.84-.27,1.64-.48,2.52l-1.41,5.43c-1.87,7.17-3.74,14.34-5.6,21.46,7.52-3.44,16.76-7.74,24.57-11.26,1.9-.76,3.85-1.7,5.58-2.07.87-.23,1.82-.54,2.61-.71.75-.13,1.49-.26,2.24-.4l1.09-.19.5-.06,1-.13c.67-.05,1.33-.13,1.99-.16,5.3-.3,10.3.5,14.86,2.12,2.27.79,4.41,1.73,6.38,2.77,1.95,1.07,3.77,2.18,5.4,3.34,3.28,2.3,5.84,4.68,7.92,6.56,1.16.39,2.84,2.59,3.15,1.26.64.88.72,1.71.76,2.3.04.59.05.96.48,1-.36-1.41.17-1.42.76-1.41.59,0,1.24.01,1.05-1.57l.97,1.7c.65.15-1.64-2.17-.56-2.14-.49.03-.99.07-1.5.12-.53-1.46-.66-2.37-.56-3.07-1.27-1.01-3.24-.76-4.65-3.94l.65.7c-1.75-2.18-.36-1.92-.56-2.53.13.16.28.32.4.49-.34-.77-.7-1.53-1.06-2.31.42.87,1.4,1.65,2.03,2.17.66.5,1.1.64.57.02-1.91-2.99.34.89-1.48-1.01-1.12-1.17-.27-1.33.11-1.56-.65-.76-1.39-1.42-2.09-2.13.53-.39,1.36,1.45.99.1-1.03-.77-2.15-1.43-3.21-2.1.28-.85-.67-1.36-1.69-1.93-1.06-.54-2.2-1.1-2.49-2.23,2.47,1.27.13-.62.77-.79-1.93-1.23-3.9-2.42-5.98-3.37-.49-.5,1.85.36.88-.04-.97-.99-2.08-.61-2.72-.87-.19-.31-1.35-.87-2.45-1.33-1.09-.47-2.07-1-1.82-1.48-2.18-1.04-2.76-.85-3.3-.6-.54.26-1,.45-3.09-.24-.22-.38.64-.26,1.34-.16.69.11,1.23.2.34-.37l-2.29-.32-2.29-.2c.45-.26,1.03-.95,2.75-.53-3.08-.76-5.87-1.33-8.52-1.76-.66-.12-1.32-.21-1.96-.3-.65-.09-1.29-.18-1.93-.24-.32-.03-.64-.06-.95-.09-.3-.03-.69-.06-.85-.09-.41-.06-.82-.12-1.23-.18-1.37-.23-2.39-.38-3.45-.29-1.05.09-2.08.42-3.6,1.3.18-.74,1.09-.95,2.02-1.77-.28.17-.55.33-.8.49-.12.07-.24.13-.35.2l-.16.09c-.05.02-.12.08-.09,0,.3-1.23,1.03-2.78,1.64-3.98.61-1.24,1.14-2.1,1.06-2.94l-.64.07.08-.17c.03-.05.04-.13.08-.1.02-.38.03-.77.05-1.15.04-.77-.03-1.57-.08-2.37-.13-1.6-.4-3.25-.84-4.9-.87-3.3-2.4-6.59-4.39-9.53-3.98-5.87-9.51-10.3-14.84-13.81l1.09,1.16c-.92-.17-1.98-.61-3.07-1.05-1.09-.41-2.2-.89-3.17-1.18-.15-.42,1.93-.66-1.46-1.88.59.51,1.86,1.35,1.32,1.45-2.22-1.5-5.23-3-8.76-4.34-3.52-1.33-7.54-2.44-11.77-3.3-2.12-.42-4.26-.8-6.48-1.1-2.27-.31-4.57-.54-6.88-.68-4.62-.28-9.25-.2-13.63.17-5.36.84-10.84,2.15-16.21,4.24-5.36,2.1-10.61,4.95-15.34,8.58-4.7,3.63-8.91,8.05-12.24,13.09-.42.63-.81,1.28-1.21,1.92l-.11.16c-.07.11-.13.21-.19.32-.11.22-.18.45-.23.71,0,.08-.05,0-.08,0l-.11-.06c-.07-.04-.14-.08-.22-.11.12.05.29.6.37,1.04.08.44,0,.69-.24.35-.14-.37-.27-.74-.4-1.09l-.12-.31c-.04-.08-.13-.17-.19-.23-.13-.12-.26-.19-.4-.23-.2-.06-.01.03-1.13-.29-1.64-.45-3.28-.91-4.99-1.39-1.72-.4-3.45-1.05-5.33-1.82-7.16-.78-13.93-1.08-20.55-.14-6.57.94-13.02,3.13-18.36,7.29l-.6-.55c-.97.34-1.52.67-2.02,1.1-.49.45-.97.95-1.82,1.57l-.08-.21c-.54.32-1.08.67-1.62,1.03-.54.36-1.09.73-1.58,1.18-1.01.86-1.98,1.76-2.9,2.61-.95.82-1.68,1.77-2.43,2.52-.72.77-1.38,1.41-1.95,1.87l.52.71c-1.81,2.22-1.5.68-2.95,3.27l-.29-.33c-.47,1.09-.94,2.15-1.36,3.24-.51-.56-1.73,1.08-2.87,3.16-1.18,2.06-2.21,4.56-3.02,5.46-.66,1.77-1.53,4.35-2.27,7.21-.8,2.84-1.4,5.95-2.05,8.69-.44.45-1.01,2.4-1.34,4.8-.39,2.4-.52,5.25-.68,7.47.19,4.32.93,9.49,2.32,14.75,1.35,5.27,3.39,10.59,5.69,15.41l.79-.62c.42.81.87,1.62,1.34,2.4-.21.07-.13.45-.42.14.02,2.48,3.57,5.28,4.26,7.47-.05-1.67-.98-1.67-1.83-3-.78-2.18,1.1-.82,2.41,1.92l-.21.07c.52.48,1.08.92,1.63,1.37-.24.32-.15.91-.06,1.51.02.15.05.3.07.44.01.13.06.32,0,.36-.08.14-.19.27-.34.39.1.1.2.2.31.3.11.1.23.21.25.19.12.03.24.07.36.1.27.08.63.19,1.01.34.08.14.03.33-.08.53-.11.21-.31.45-.59.62-.08-.08-.14-.12-.19-.14-.03-.01-.05-.02-.07-.02,0,0-.03.01-.02,0,.27-.36.11-.16.08-.14-.38.41-.87,1.05-1.37,1.66-.98,1.22-1.96,2.31-1.98,1.12-1.44,2.46-1,2.47-.38,2.16.64-.3,1.53-.86,1.25.49-.88,1.27-1.43,2.83-2.05,2.77.1-.8-1.46.57-.88-.56-.69,1.04-1.24,2.16-1.83,3.26-.28.25-.05-.57.07-.98-1.58,3.5-3.23,6.42-4.78,9.35-.71,1.48-1.41,2.96-2.03,4.48-.55,1.55-.97,3.16-1.27,4.86.37.63.94-2.56,1.31-1.92-.53,3.41-1,4.82-1.62,6.18-.3.68-.61,1.35-.87,2.25-.21.91-.37,2.06-.42,3.67l-.53-1.43c.2,2.15.63,3.08-.19,6.44-.46.27-.59-.47-.63-1.5,0-.51-.02-1.09-.03-1.65.02-.56.04-1.09,0-1.52-.24,1.17-.33,3.28-.3,4.85.03,1.58.21,2.62.68,1.73.18,2.82-.54,3.84-.8,5.39.21.04.59-2.65.99-1-.32,1.92-.19,4.37-.07,6.93.04,1.28.29,2.57.44,3.85.2,1.27.3,2.53.59,3.68-.22,0-.47.39-.66,0,.98,1.75.98,2.61.91,3.71-.1,1.09-.13,2.38.8,4.88Z"/><path class="cls-1" d="m185.96,282.91c-.6.04-1.21.05-1.81.08.01.18-.02.45-.86.71.92-.23,1.79-.52,2.67-.79Z"/><path class="cls-1" d="m123.49,247.12c-.06.03-.11.06-.16.16.06.08.12-.02.16-.16Z"/><path class="cls-1" d="m120.37,251.14c.18-.49-.1-.5-.34-.56.06.19.15.4.34.56Z"/><path class="cls-1" d="m228.57,264.45c-.21.24-.31.44-.17.57.26-.36.27-.51.17-.57Z"/><path class="cls-1" d="m251.12,180.37c-.17.06-.32.12-.53.18.12,0,.3-.07.53-.18Z"/><path class="cls-1" d="m243.75,182.62c-.17.07-.36.15-.59.26-.11.06-.23.12-.36.19.04,0-.07.06-.14.11.07-.01.21-.06.15-.04.13-.06.26-.11.37-.17.22-.12.41-.24.56-.36Z"/><path class="cls-1" d="m200.72,277.53c-.44.17-.87.37-1.2.66.7-.23,1.01-.46,1.2-.66Z"/><path class="cls-1" d="m241.99,183.64l-.98.21s.05.09.09.15l.88-.36Z"/><path class="cls-1" d="m253.21,179.15c-.64.38-1.5.93-2.09,1.21.93-.31,1.57-.72,2.09-1.21Z"/><path class="cls-1" d="m248.66,221.68c.02.06.01.12.03.2.43,1.42.24.53-.03-.2Z"/><path class="cls-1" d="m239.52,185.75s-.09,0-.14,0c.01.07.03.14.05.21.03-.07.05-.13.09-.2Z"/><path class="cls-1" d="m259.85,174.2c-.25.26-.47.52-.59.77.24-.18.51-.4.86-.67-.15-.01-.22-.05-.27-.1Z"/><path class="cls-1" d="m241.23,195.12c-.54-.28-.84-.31-.99-.24.34.5.66.76.99.24Z"/></g></svg>