<?xml version="1.0" encoding="UTF-8"?><svg id="Layer_2" xmlns="http://www.w3.org/2000/svg" viewBox="0 0 288 288"><defs><style>.cls-1{fill:#fff;}</style></defs><path class="cls-1" d="m249.59,208.8c20.19-12.51,31.94-36.36,27.4-59.65-4.71-24.15-27.51-42.79-52.39-45.61,7.14-10.36,12.59-21.93,13.87-34.4,1.43-13.91-3.9-27.46-14.34-37.11-11.15-10.31-26.02-15.3-41.24-16.32-8.54-.57-17.11.17-25.53,1.5-7.42,1.17-15.08,2.76-20.96,7.57-8.97,7.33-9.94,18.73-8.53,29.55-22.64-12.98-52.36-13.78-74.85.47-24.96,15.82-40.13,49.24-28.92,77.13,5.44,13.52,18.94,24.37,34.01,23,2.24.27,4.48.4,6.72.38-.09.17-.18.35-.26.53-11.14,27.22-21.8,58.72-7.67,86.84,5.3,10.55,14.04,20.23,25.05,25.47,12.46,5.94,26.09,5.45,38.84.5,11.4-4.42,25.95-11.07,33.75-21.3,15.57,16.25,38.4,25.7,61.57,23.91,22.99-1.78,49.7-17.28,45.55-42.77-1.26-7.75-5.55-15.2-12.07-19.71Z"/><g><path class="cls-1" d="m185.85,262.36c.11-.07.2-.16.29-.31-.19.1-.27.21-.29.31Z"/><path class="cls-1" d="m120.36,261.12l.69-.49c-.49.23-.66.37-.69.49Z"/><path class="cls-1" d="m226.74,265.82s-.04.07-.07.12c.63-.16,1.48-.35,2.85-.76-.92.24-1.85.45-2.77.64Z"/><path class="cls-1" d="m69.74,170.05l-.31.9c.15-.4.29-.65.31-.9Z"/><path class="cls-1" d="m71.17,249.59c-.28-.08-.61-.36-.91-.65.31.42.61.71.91.65Z"/><path class="cls-1" d="m251.56,263.04l-1.44.39c.17.18.71.09,1.44-.39Z"/><path class="cls-1" d="m260.96,218.18c-.02.05-.05.08-.06.17.08.04.08-.05.06-.17Z"/><path class="cls-1" d="m262.25,236.34c.02.38.07.84.13,1.3.03-.54.1-1.23-.13-1.3Z"/><path class="cls-1" d="m262.42,238.26c-.01-.2-.03-.41-.04-.62-.04.34-.06.62.04.62Z"/><path class="cls-1" d="m250.84,199.09c-.92.66-1.38,1.67-2.06,2.51.76-.76,1.38-1.69,2.06-2.51Z"/><path class="cls-1" d="m52.27,68.19l-.03.34c.12-.21.1-.29.03-.34Z"/><path class="cls-1" d="m252.71,203.94l-.76.45c.31-.12.55-.28.76-.45Z"/><path class="cls-1" d="m228.9,275.6c-.62.45-1.69.67-2.57.85-.89.16-1.61.27-1.55.53,1.47-.36,3.66-.47,4.12-1.38Z"/><path class="cls-1" d="m69.44,36.17l.96-.26c-.46.1-.75.18-.96.26Z"/><path class="cls-1" d="m252.71,203.94l.88-.52c-.13-.03-.27-.03-.41-.03-.13.2-.28.39-.47.55Z"/><path class="cls-1" d="m164.34,26.91s-.03,0-.05,0c-.09.05-.16.08-.26.13l.31-.14Z"/><path class="cls-1" d="m171.56,27.17c-.49.08-.96.17-1.49.28.8,0,1.21-.12,1.49-.28Z"/><path class="cls-1" d="m248.78,201.6l-1.26,1.38c.51-.42.9-.9,1.26-1.38Z"/><path class="cls-1" d="m227.27,57.8c-.06-.2-.12-.38-.2-.55.05.25.12.43.2.55Z"/><path class="cls-1" d="m74.46,253.56c.09.15.23.33.35.49.14-.05.17-.15-.35-.49Z"/><path class="cls-1" d="m43.38,205.17v-.02s-.01,0-.01,0c0,0,.01.02.01.02Z"/><path class="cls-1" d="m43.85,208.57c.19-1.04-.11-2.56-.47-3.4-.07,1.06-.02,2.07.47,3.4Z"/><path class="cls-1" d="m44.5,198.06c-.04.13-.07.23-.12.38.06-.14.1-.25.12-.38Z"/><path class="cls-1" d="m61.71,263.06s.04-.02.04-.04c-.03,0-.05,0-.07,0l.02.03Z"/><path class="cls-1" d="m52.96,252c-.04-.27-.15-.61-.3-.95.03.26.12.58.3.95Z"/><path class="cls-1" d="m51.48,166.32s.01.02.02.02c0-.03,0-.04.02-.07-.01.02-.02.03-.03.04Z"/><path class="cls-1" d="m17.19,75.9c-3.12,6.17-5.7,13.79-7.04,21.68-1.4,7.89-1.41,16.04-.66,23.09,1.5,2.9,2.41,7.23,4.07,11.39l-1.31.94c.6,1.15,1.16,2.25,1.81,3.4.12.84-.27.15-.58-.37-.28-.51-.55-.9-.3.52l1.49,1.02c-.09.13.1.79.39,1.62.32.82.77,1.78,1.1,2.57.32.79.57,1.37.45,1.44-.14.07-.64-.36-1.68-1.76,2.49,4.68,5.67,8.94,9.46,12.67,1.26,1.24,1.89,1.33,2.48,1.49.6.16,1.18.39,2.61,1.71.36.84-1.3-.61-1.39,0,2.13,2.07,4.18,3.34,6.05,4.18.95.41,1.85.72,2.71.99.9.22,1.76.39,2.6.55.84.17,1.69.27,2.58.37.88.1,1.76.26,2.72.37.97.11,1.98.26,3.09.48,1.13.15,2.35.35,3.72.62l-.96.07c1.93-.12,5.53.02,5.57-.26-.72-.73-1.19-.53-1.94-.29-.73.23-1.78.61-3.4-.06.44-1.15,4.19-.41,4-1.4.8.2,1.51.15,2.16.1.16-.02.32-.04.48-.06,0-.02-.03-.05.04-.07l.27-.16c.09-.04.2-.08.34-.11.24-.02.61-.01.92,0,1.69.59,3.85.73,5.86.81l-7.22-12.07c-.24.43-.46.87-.67,1.31-.09.18-.18.36-.26.54-.17.34-.34.67-.52.97-.36.61-.73,1.14-1.15,1.54-.16,1.48.44,3.44-.62,6.34-1.75,1.71-.73-.85-2.16,1.86l.54.72c-.97,2.3-1.03,1.86-1.33,1.65-.95,2.5.2,2.42-1.33,5.45l-.09-2.02c-.27,1.23-.51,2.07-.84,3.02-.33.94-.73,1.99-1.27,3.66-.39-.2.05-1.55.48-2.48-1.64,1.47-.5,3.26-.92,4.2.4-.19,1.26-2.45,1.62-1.1-.64,1.61-.12,3.79-1.27,4.75-.06-.67-.15-1.36-.19-2.03-.42,3.66.39,2.12-.98,6.06,0-.23-.21-.17-.34-.3.33,2.81-1.37,5.94-2.09,9.86l-.07-.78c-.03,1.62.47,2.59.28,3.43.81-2.15.93-1.5,1.68-1.58-.9,1.33-.68,2.53-.42,3.93.12.7.26,1.46.28,2.33.01.44-.01.9-.07,1.4-.03.51-.11,1.05-.24,1.65-.4-.1-.91-1.33-.27-2.6-1.06-1.77-2.12-2.11-2.32-5.19.05,1.9-.05,4.1-.52,3.58l1.11.71c-.05.56-.13,1.06-.2,1.52-.04.47-.08.91-.12,1.33.72.54,1.38-2.15,1.7.47.19,2.93-1.32,1.47-.82,1.95.1,2.02.39,2.45.62,2.85.21.41.31.78.11,2.71-.1-.39-.3-1.14-.19-1.48-.23,1.39-.22,3.1-.22,4.57.04,1.48-.06,2.71-.74,3.19-.35-.39-.78-.44-.74-1.54l.22.03c-1.26-3.08.47,2.6-.89,1.72.38-.14.59.8.72,2,.17,1.2.34,2.67.4,3.59l.78-.7c1.75,2.77,1.31,2.73.59,2.79-.7.04-1.81.13-.91,3.08,1.48,3.63-.1-1.47,1.05.69.24,1.28.2,2.21.32,3.27.17,1.04.46,2.22,1.26,3.98,0,.56.08,1.41.05,2.18.02.75-.07,1.44-.49,1.71.66,1.02,1.3,2.71,1.96,4.27.69,1.54,1.48,2.9,2.23,3.25-1.23-3.92-2.79-3.17-3.57-8.02l1.41.83c.32.74.69,1.52,1.07,2.31.38.79.79,1.58,1.24,2.31.85,1.5,1.69,2.84,2.11,3.88-.08-.48.03-.77.35-.64,1.34,1.85,2.44,2.88,3.46,3.91.53.51,1.03,1.02,1.55,1.64.55.6,1.09,1.31,1.74,2.2-.3,1.01-1.85-1.08-3.01-2.56,1.17,2.7,1.72,2.45,4.48,5.95-.2.35-.71-.21-1.27-.86-.54-.65-1.14-1.38-1.6-1.34,1.13,1.23,2.3,2.41,3.51,3.56-.05.02-.07.07-.11.11.72-.19,1.36.5,2.15,1.47.81.95,1.78,2.19,3.09,3.02,1.41,1.16,2.62,1.96,3.7,2.49,1.07.56,2,.87,2.87,1.08.85.23,1.65.33,2.47.44.82.12,1.66.25,2.66.46.78.78.93,1.22.38,1.31-1.32-1.31-1.23-.76-1.95-.75,2.17,1.03,4.34,3.43,2.86,3.35,3.81,1.26-1.04-1.19,1.34-.59,1.65.71,3.33,1.36,5.06,1.89-.43-.82-2.15-1.51.61-1.17,2.26.45,3.3.85,6.26,1.41-.48.23.79,1.17-1.46.71.7.28,1.63.49,2.51.55.87.08,1.69.03,2.16-.27-1.62-.43-.25-.46,1.21-.54,1.46-.07,2.99-.33,1.81-.86,1.06.24,2.14.46,3.22.61-.74,0-.81.47-1.91.32.93,1.01,2.67-.31,3.77-.48.57.05,1.6.06,2.52.05.91-.02,1.72,0,1.87.17.98-.41,3.47-.62,4.03-.25,1.45-.52-.02-.66.35-1.07,1.68-.32,3.33-.75,4.96-1.22.42.45,1.3,1.77.6,2.21,1.74-1.11.21-1.71,2.98-2.67-.61.79.37.65,1.29.56.88-.09,1.64-.12.8.9,1.76.17,6-1.58,8.21-2.89,1.1-1.41-2.71.67-2.9-.21,3.19-1.53,4.62-2.96,5.85-4.2,1.23-1.25,2.25-2.3,4.64-3.37-.43.15-.87.3-1.3.43,2.61-1.99,2.35-1.72,3.6-3.32-.11.68,1.06.87,2.82.39,1.77-.46,4.15-1.58,6.31-3.44.03-.7-3.11,1.09-2.9-.15l1.39-1.17.17-.15s.15-.12.1-.09c.07-.06.14-.12.21-.19l.4-.39c.17-.03.07.28-.06.58.31-.39.69-.66,1.06-.85.35-.21.69-.33.98-.43.57-.22.89-.42.96-1.36.46.15.8.31,1.12.58.05.06.1.05.15.18-.05-.13-.1-.13-.15-.2-.09-.09-.19-.17-.29-.25.02-.21.12-.48.25-.77.03-.05.05-.11.08-.17.03-.04.06-.15.09-.11.07.03.14.06.22.1.15.08.32.18.47.27.31.19.61.39.73.41.81.41,1.45.88,1.86,1.42.41.55.66,1.11.9,1.74-.01-.29-.07-.8.03-1.14.11-.33.39-.48,1.22.07-.23.37-.31.64.09,1.16.35.47.9,1,1.51,1.45,1.2.92,2.45,1.75,2.16,2.1.96.67,2.46,2.2,2.95,1.68l-.74.81c.53-.58,1.66-.23,3.07.33.71.28,1.48.64,2.25,1.01.39.19.78.37,1.16.56.4.16.79.32,1.16.48-1.57,1.5,3.24,1.49,3.85,3.7.57-.53,1.95-.05,3.34.37,1.4.39,2.79.81,3.25.34,2.38.76,1.77,1.86,2.25,2.49l1.28-.15c.26.25.74.54,1.36.82.63.27,1.39.54,2.2.83,1.62.6,3.48,1.08,4.86,1.56.95-.24,1.88-.47,2.82-.78l.9.68c.47-.26,2.66-.16,1.37-.79l1.4.25c.25-1.34,2.02-.21,4.87-.62.64.22.46.54-.16.72,1.42.03.79.71,1.56,1.18-.51-.18.8-.77,1.72-1.39.92-.63,1.45-1.29-.41-1.62-.25-.55,1.9-.9,3.25-.77l.88,1.17,1.55-1.35c2.09-.33,3.07.32,4.82.22-1.71.29-3.72,2.85.98,2.17-2.43.53-3.6,1.3-4.89,1.67,1-.05,1.52.02,0,.68,3.75-.74,1.2-.83,4.87-1.47-.02.55.24.87.92,1.03.69.17,1.79.16,3.45,0-.87-.1-1.72-.18-2.57-.31.09-.15.24-.27.41-.36-.94.04-1.22-.09-1.48-.46.75-.09,3.94-2.1,4.66-1.63-1.98-.4-.48-1.08,1.14-1.73,1.62-.68,3.38-1.38,2.14-1.54.3-.42,2.63-1.22,3.04-.81-2.57,1.76,2.54.43,2.36,1.27.95-.68-2.52.06-1.23-.84,1.65-.69,3.12-.56,4.19-.66l-.62.49c.93-.23,1.87-.43,2.79-.71.19-.67-2.86.32-.63-1.03.35-.05,1.09-.4,1.74-.71.65-.33,1.22-.59,1.29-.38-.76,1.22.52,1.73-1.45,2.88.84-.43,2.58-1.39,3.75-2.25,1.17-.87,1.79-1.56.48-1.39.66-.35,1.28-.76,1.93-1.15-1.44.42-5.17,1.6-1.47-.76l.08.21c.72-.77,1.42-1.55,2.09-2.37.47-.1.95-.19,1.41-.32-.19-.2.04-.69.94-1.37.44.09,1.35-.51,1.56-.12,1.27-1.09,1.72-1.75,1.89-2.16.17-.41.05-.59.1-.86,1.26-1.35,1.89-1.73,1.75-.65.48-.44,1.02-.99,1.56-1.61.27-.31.56-.62.84-.94.27-.33.54-.67.81-1,.55-.65,1.05-1.31,1.51-1.89.47-.57.89-1.05,1.24-1.38,1.37-3.35-.56.52-.16-1.65,1.54-.88,3.11-3.56,3.92-6.86.86-3.3.88-7.06.7-9.97-.84.8-.85.39-.92-.31-.07-.71-.13-1.75-.92-2.19.33.57.49-.76.69-1.68.2-.91.45-1.39,1,1.09-.2-1.02-.34-2.03-.61-3.04.24-1.14.68.1,1.05,1.22.36,1.11.74,2.14,1.15.41-.24-1.8-1.05-3.22-1.81-4.62-.78-1.41-1.57-2.82-2.1-4.85.82.41.41-.29-.02-1.04-.43-.75-.92-1.51-.1-1.33.79.6,1.18,1.75,1.71,2.85l-.07-.79c-1.5-3.77-2.26-4.05-2.69-3.9-.49.17-.81.75-2.23-.72-1.34-1.91-1.78-2.73-1.76-3.24.01-.5.44-.61.56-.9-.31-.73-2.11-2.49-3.31-3.1,1.36.75,2.18,1.93,2.44,2.79.27.87.02,1.41-.69,1.16-.16-1.21-1.34-2.58-2.74-3.53-1.38-.98-2.92-1.53-3.58-1.68,2.28,2.52,2.96,3.34,3.72,4.11.36.4.73.77,1.14,1.42.42.64.92,1.54,1.47,2.95.78.42,1.83-.41,3.21,3.01-1.65-1.67-.48.45-.4,1.1.32-.93,1.38,2.08,1.97,3.01-.08.56-.65.2-1.06.15-.43-.05-.63.17-.21,1.84.58.03,1.17.08,1.76.13.14,1.43-1.26-.23-.15,2.51-.6-.67-.88-.47-1.17-.57-.32-.09-.55-.52-1.29-2.26.08,2.35.62,3.91,1.32,5.43.32.76.69,1.5,1.05,2.27.31.78.6,1.61.79,2.52-.11-.37-.34-.41-.46-.77.5.76.4,2.19.47,3.28-.3,1.2-.43.69-.56,0-.14-.71-.35-1.61-.57-1.31,0,.63-.01,1.26-.08,1.89-.07.63-.07,1.26-.19,1.89-.07.07-.1.08-.13.08.06,1.01.03,2-.47,2.24-.22-1.2-.75-1.73-1.03-2.5.19,1.3.26,2.63.28,4-.39-.52-1.86,2.71-1.39.03-.44,1.8-1.16,3.52-1.94,5.21l-1.19-.13c-.48,1.21-.32,1.37.59.07-.56.75-1.21,2.8-2.13,4.33-.87,1.56-1.86,2.58-2.31,1.49-1.12,1.9-2.12,3.05-3.29,4.16-1.16,1.13-2.5,2.23-4.59,3.96,1.43-1.59.27-1.15-.82-.76-1.1.4-2.11.82-.44-.52-1.17.48-1.72,1-2.2,1.57-.46.58-.86,1.17-1.7,1.72-1.88.44-1.58-.9-.05-2.17-.6.5-1.2,1.03-1.83,1.5l-.06-.21c-.52.47-1.03.97-1.57,1.42-2.21.3-.84-.79-2.94-.12l-.1,1.08c-.53.01-1.07,0-1.6-.01.68.22-.48.88-2.01,1.43l-.03-.22c-.61.25-1.21.51-1.83.74,1.71-1.08-1.78.27-1.1-.63-1.62.35-1.64.41-4.55,1.17l.64.55c-3.8,1.25-.34-.91-3.47-.48l.3.73c-2.35-.29-4.22-.02-6.03.3-1.79.37-3.46.59-5.16.17,1.96-.15,1.47-1.04,1.43-.83-2.92.35-7.61-.36-10.75.09-.9-1.31-1.12-1.63-4-2.75-2.17-.47-2.51-.44-3.39,0-.98-.52-2.49-.93-3.74-1.3-1.23-.43-2.2-.84-2.11-1.23-.7.42-1.79-.76-3.07-.76l-.1-.4-.12.78c-.72-.78-1.48-1.25-2.25-1.61-.76-.39-1.54-.63-2.33-.87-1.6-.44-3.16-1.07-4.5-2.64l.69.15c-.53-.17-1.05-.36-1.56-.58-.04-.42.62-.24.91-.58l-3.13-2.07-3.01-2.23.87,1.32c-.66-.44-1.35-.62-1.97-.97-.32-.17-.61-.33-.94-.59-.42-.33-.84-.7-1.28-1.23,2.01.88,1.33.35.09-.65-1.25-.97-2.89-2.54-3.02-3.24l1.97,1.44c-2.57-2.34-2.56-2.32-2.61-1.31-1.61-1.32-2.05-2.25-2.51-3.12-.45-.86-.94-1.66-2.43-2.56l2.07,2.1c.52,1.14-1.02.5-2.29-.79-.3-.46-1.26-1.89-.23-1.01-.34-.26-.71-.73-1.06-.58-1.99,2.66-4.85,5.48-5.65,6.71-1.37,1.15-1.21.19-.56-.84-.32.41-.6.79-.86,1.1-.27.29-.51.55-.73.78-.43.46-.77.81-1.05,1.09-.28.28-.5.49-.69.66-.09.09-.19.16-.27.22-.11.08-.22.16-.33.24-.22.15-.44.29-.81.61-.37.33-.9.82-1.77,1.62l-.18-.4c-.34.45-.68.91-1.05,1.34-.83.16-1.63.35-2.46.48l1.01.04c-1.3.88-1.98,1.67-3.74,2.34l.34-.92c-.92.63-1.71,1.03-2.43,1.31-.71.29-1.33.49-1.95.67-1.23.39-2.4.81-4.19,2.11-.32.01.21-.44.49-.68-1.62,1.28-2.44,1.32-3.24,1.38-.8.06-1.59.14-3.25,1.48.15-.3-.36-.38-.28-.61l-1.58,1.07-.18-.86c-.33.59-.6,1.14-.9,1.7l-1.29-.48c-.16.21-.32.42-.49.61-1.13-.52-2.17-.27-3.3-.04-1.12.27-2.33.52-3.61.14l.61,1.01c-2.8,1.71-6.48,1.75-10.04,1.13-3.6-.61-6.99-1.92-10.49-2.54l.4-.78c-1-.03-2.05,0-3.07-.11-1.15-1.26,1.15-.3.87-.91-1.49-.4-1.93-.23-2.4-.16-.47.06-1.02.16-2.69-.68-1.35-1.45.9-.21,1.8-.07-1.59-.62-3.55-1.53-5.26-2.66-1.7-1.14-3.2-2.39-3.94-3.44-.12.05-.34.05-.28.18-2.03-1.34-3.91-3.96-5.56-6.03.36-.19.81.28,1.28.74-.55-.78-1.13-1.95-1.92-2.38l1.18.35c-.26-.43-.64-.91-1.04-1.42-.39-.52-.8-1.07-1.18-1.58-.71-1.06-1.23-2-.95-2.42-.17.37-.79.63-1.61-.92.36-.75-.33-1.69-1.07-2.91-.38-.6-.81-1.25-1.18-1.93-.37-.67-.68-1.38-.7-2.12.22.1.44.65.72,1.05.25.42.42.74.31.48-.06-.35-.19-.67-.32-.97-.12-.31-.27-.6-.45-.87-.36-.55-.8-1.06-1.19-1.58l.63.19c-1.02-1.94-1.68-4.04-2.45-6.13.48-.6.25-2.13-.06-3.47-.31-1.35-.62-2.53-.09-2.36-.11-2.38-.45,2.06-.8-.94.5-.85-.47-2.72.41-2.64l.13.31c-.07-.7-.17-1.39-.17-2.1.27.44.56.87.89,1.29-.27-1.77-1.05-3.12-1.72-3.22.25-.88.22-1.92.35-2.87.13-.94.28-1.76.69-2.13l.16.66c.01-1.23.15-2.34.45-3.38.32-1.04.7-1.99,1.04-2.9.63-1.83,1.34-3.52.95-5.58.17-.26.37-.19.26.41l.3-1.51.38-1.51.46.85c.08-1.73.09-3.47.22-5.23l.4.17c1.04-3.26,2.29-8.5,3.69-12.81l-.02.7c.46-2.43.97-3.53,1.45-4.45.48-.92.91-1.68,1.32-3.47.06.16.06.29.04.42l1.17-3.07.13.83c-.01-2.61,3.7-6.05,2.4-4.93.07-.58.16-1.33.24-2.04.04-.36.07-.7.09-1.02v-.12s0-.06,0-.06h0s0-.01,0-.01c-10.7-4.38-2.96-1.21-5.35-2.19h.01s.02.01.02.01l.04.02.17.06c.44.17.86.36,1.25.54.78.38,1.46.77,2.02,1.14l-7.19-13.58c-.21.1-.33.2-.39.3-3.02-.02-.73-.56-2.55-1.01-.54-.05-.97-.04-1.36-.02-.1,0-.19.01-.29.02h-.14s-.27,0-.27,0c-.39-.01-.78-.02-1.18-.03-.4.04-.82.09-1.27.14-.19.02-.52.04-.8.05-.09,0-.18.02-.28.03-.38.02-.85.06-1.42-.11l.06-.43c-.54-.01-.98.11-1.48.13-.5,0-1.07.05-1.84-.09.17-.03.33-.05.49-.11-1.33.15-2.06-.33-2.67-.79-.31-.22-.62-.37-1.01-.45-.38-.1-.85-.07-1.54.15-.45-.35-1.15-.85-1.71-1.21-.55-.4-.88-.85-.61-1.18-1.58-.64-2.89-1.52-4.18-2.44-.63-.48-1.23-1.01-1.87-1.54-.57-.6-1.24-1.15-1.82-1.85.4-.66.27-.8-.04-1.06-.33-.24-.8-.66-1.01-1.79l-.56.53c-.37-.53-.66-1.12-.93-1.72-.14-.3-.28-.6-.4-.91-.1-.32-.2-.64-.3-.96-.1-.32-.2-.64-.3-.97-.08-.36-.16-.72-.24-1.09l-.24-1.09-.18-1.11c-.48-2.97-.66-5.97-1.07-8.91l.75-.23c-.31-.37-.65-.73-.93-1.12,0-3.22.35-6.94,1.05-10.46.69-3.52,1.76-6.83,2.66-9.33.21-1.76.37-4.63,1.9-7.06l-.04.31c1.81-4.59,4.45-9.33,8.34-13.16.03.46.55.21.31.8.17-1.54,2.06-2.4,2.86-3.2-.46.18-.89.39-1.34.59.51-1.64,2.61-2.71,3.55-2.8.39-.75.81-1.5,1.25-2.22.17-.04.43-.12.54-.04l.07-.59c.54-.03,1.09-.02,1.63-.02.32-.54,2.68-2.65,3-3.96.39.15,2.39-.87,1.05.24,1.24-.75,2.55-1.38,3.81-2.08,1.29-.65,2.65-1.18,3.95-1.78l-1.37.27c-.24-.31.18-.86.85-1.38.67-.5,1.63-.87,2.33-.97-1.45,1.23.28,1.06,1.17,1.31.95-.82-1.2-.25-.77-.87,1.17-1.12,4.24-2.24,5.09-2.18l-.78.57c.47-.22.9-.33,1.32-.37.42-.01.82.04,1.22.09.8.11,1.58.25,2.55-.02,1.65-.97,3.09-.57,2.5-1.82,2.59-.7,1.14.71,2,.7,1.16-.73,4.9-.74,5.39,0,.34-.49.96-.71,1.7-.78.75-.08,1.61-.01,2.44.15,1.67.29,3.19.55,3.52-.2l2.08,1.13c.11-.41.65-1.39,2.46-1.31,1.6.75,1.08,1.42,1.5,1.94l1.39-1.4c.82.26,1.63.62,2.47.92.84.31,1.7.59,2.57.89.43.17.86.34,1.3.5l.66.25,1.39.45c.95.36,1.88.7,2.84,1.13.97.47,1.94.94,2.92,1.42,1.97.97,3.94,1.86,5.98,2.91,2.07,1.1,4.15,2.22,6.24,3.33,2.03,1.09,4.07,2.19,6.1,3.28l3.02,1.64,1.51.82,1.32.6c-.41-3.99-.82-8.36-1.17-12.65-.35-4.33-.71-8.58-.74-12.43-.02-.7-.04-1.42-.06-2.14,0-.71-.09-1.5.02-2.1.06-.64.13-1.29.2-1.95.03-.32.07-.65.1-.98l.05-.34c.07-.46.12-.95.24-1.39.05-.22.09-.46.15-.69l.2-.65c.53-1.74,1.48-3.23,2.88-4.33l-.15.41c.94-.69,1.93-1.26,3.11-1.75-.91.24-1.77.52-2.6.88.49-.63.82-1.27,1.57-1.68,2.03-.84,4.79-1.52,8.25-2.13,3.41-.6,7.74-1.26,11.56-2.15,2.43-1.22,3.32-.88,4.17-.48.85.41,1.66.86,3.99.06-.4.19-.53.46-.89.67,2.53-.45,4.48-.72,6.42-.99,1.95-.27,3.88-.53,6.46-.84-.75,1.74,3.25.33,2.69,1.24l.51-.68c.52.31,1.42.6,2.12.88.7.3,1.21.58.98.8.77-.17,1.55-.35,2.32-.48v.79c1.41.32,3.61.77,5.56,1.44.97.33,1.86.75,2.58,1.16.69.46,1.19.93,1.38,1.42,3.36.74,7.35,2.65,10.95,5.33,1.8,1.34,3.49,2.92,4.92,4.49,1.46,1.59,2.66,3.32,3.68,4.98,1.15.56,2.36,2.57,3.18,4.18l-.1,2.11c.87,1.54,2.57,3.11,2.34,4.93-.11.01-.2-.04-.28-.14.57,1.78.33,3.54,1.24,5.22.08,2.06-.57,4.01-1.38,3.34.73.15.65,1.17.27,2.25-.36,1.08-.98,2.07-.98,2.07,0,0-.03.17-.1.5-.06.33-.18.82-.33,1.46-.29,1.27-.8,3.13-1.64,5.47-.41,1.17-.92,2.45-1.52,3.84-.28.7-.65,1.41-.98,2.16-.25.51-.5,1.02-.76,1.55-.42.86-.89,1.78-1.42,2.68-.52.91-1.04,1.82-1.58,2.76-.53.93-1.2,1.88-1.81,2.85-1.21,1.91-2.65,3.94-4.04,6-2.79,4.09-5.72,8.38-8.77,12.85,5.75.91,11.74,1.87,17.92,2.85,1.65.22,3.09.58,4.59.92,1.5.34,3.01.68,4.53,1.03.76.17,1.52.35,2.29.52l1.08.34c.14.03.45.17.73.28l.32.13c.56.23,1.12.46,1.69.69,4.5,1.92,8.97,4.58,12.99,7.89,4.02,3.31,7.62,7.26,10.3,11.64,2.71,4.38,4.53,9.05,5.45,13.9.93,4.9.98,9.89.32,14.63-.66,4.75-2.02,9.23-3.72,13.24-1.7,4.01-3.73,7.54-5.67,10.61-2.04,2.97-3.88,5.6-5.45,7.65-.16.6-.71,1.42-1.06,2.12-.37.67-.55,1.18.17,1.24-1.68,1.46-3.23.91-3.17,1.78,1.37-.62,1.45-.09,1.54.5.09.59.18,1.24,1.71.77l-1.54,1.25c-.05.67,1.89-2,2.03-.93l-.33-1.46c1.45-.67,2.26-1.03,3-.98.42-.68.52-1.54.92-2.4.39-.88.99-1.84,2.57-2.69l-.66.71c2.07-1.94,1.9-.55,2.5-.8l-.45.46,2.2-1.29c-.83.5-1.52,1.55-1.98,2.24-.45.7-.55,1.14.03.56,2.8-2.18-.85.43.88-1.57,1.07-1.23,1.3-.38,1.56-.03.66-.75,1.38-1.43,1.99-2.22.45.53-1.35,1.45-.02,1.01l1.88-3.35c.89.25,1.34-.71,1.84-1.78.49-1.08,1.08-2.2,2.15-2.54-1.14,2.53.61.1.81.75l1.73-2.94c.54-1,1.02-2.03,1.54-3.04.5-.48-.37,1.83.03.87,1-.95.63-2.05.88-2.69.32-.18.82-1.36,1.35-2.41.57-1.04.98-2.05,1.49-1.77,2.2-4.25-.63-2.27,1.07-6.28.79-.4-.71,3.39.44,1.69l.45-2.24c.16-.74.21-1.51.31-2.26.22.45.96,1.09.4,2.74,1.81-5.97,3.12-10.81,3.8-15.73.13-1.23.28-2.46.33-3.72,0-1.24-.05-2.51-.14-3.81-.03-.65-.13-1.3-.26-1.97-.13-.66-.27-1.33-.43-2.02-.17-.68-.33-1.38-.55-2.07-.26-.68-.54-1.38-.84-2.08.18-1.89.92,1,1.8,2.04-.98-2.06-1.58-3.87-2.13-5.5-.6-1.61-.99-3.12-1.39-4.61-.48-1.44-.93-2.87-1.51-4.37-.61-1.48-1.47-2.94-2.57-4.55l-.61.27c-2.35-4.92-6.29-9.54-10.95-13.48-4.65-3.99-10.02-7.24-15.35-10.2l1.11,1.04c-.89-.08-1.94-.4-3-.77-1.08-.33-2.2-.66-3.16-.89-.08-.21.38-.4.44-.67.03-.13-.04-.29-.33-.48-.14-.09-.34-.19-.61-.31-.12-.05-.38-.15-.18-.06.08.04,0,.01,0,.02h-.07c-.49.04,1.19.97.59,1.08-.24-.14-.48-.28-.73-.43-.22-.11-.03-.06,0-.06l-.08-.1c-.11-.13-.22-.23-.34-.34-.23-.21-.45-.41-.68-.57-.23-.15-.46-.29-.7-.41-.24-.1-.48-.19-.72-.28-.08,0,.03-.08.06-.12l.13-.16.26-.31c.17-.2.32-.4.47-.6.3-.4.57-.78.81-1.15l.19-.29s.21-.41.34-.67c.15-.29.29-.6.43-.9.58-1.2,1.12-2.42,1.64-3.64,1.03-2.45,1.98-4.9,2.77-7.33,1.46-5.73,2.47-11.72,2.43-18.34-.06-3.25-.39-6.5-.99-9.72-.61-3.22-1.54-6.37-2.69-9.44-2.35-6.11-5.78-11.77-10.01-16.58-4.26-4.86-9.06-8.66-14.15-11.72,3.08,1.9.88,2.4-1.16.67-2.44-3.05-5.43-4.41-8.43-5.48-3.03-1.03-6.08-1.79-9.36-3.71-3.28-.71-6.43-1.36-9.52-1.97-3.09-.58-6.13-1.07-9.16-1.41-6.07-.64-12.04-.54-17.77,1.02l-.3-.75c-1.78-.18-2.2.4-3.99.69l.02-.22c-4.35.23-9.17,1.81-11.86,1.99v.88c-2.63.65-1.51-.38-4.19.8l-.03-.44c-1.03.56-2.07,1.15-3.1,1.78-.07-.77-2.09-.19-4.44.94-2.36,1.08-4.94,2.82-6.25,3.33-.87.67-1.93,1.54-3.01,2.62-.53.54-1.1,1.12-1.68,1.71-.54.64-1.1,1.3-1.67,1.98-2.23,2.77-4.14,6.1-5.55,9.07-.29.21-.76.83-1.18,1.74-.22.45-.45.98-.69,1.56-.23.58-.42,1.2-.64,1.85-.1.31-.2.62-.3.94l-.08.16c-.05.09-.12.26-.15.26-.08.07-.15.12-.25.12.07.29.14.64.23,1.03,0,.03.03.09.01.09l-.07-.02-.15-.06c-.11-.05-.22-.1-.34-.15-.24-.12-.51-.25-.71-.41l-.15.98-.18-.02h-.04s-.02,0-.02,0l-.16-.04-.64-.18c.1-.2-.22-.41.2-.39-.84-.84-2.36-1.22-3.92-1.4-1.56-.21-3.12-.41-4.11-.94,1.16,1.13,1.81.54,3.3.9,2.03.95-.23,1.4-2.99.27l.1-.2c-.69.04-1.39.11-2.08.17-.08-.79-1.84-1.45-1.97-2.24-1.1-.18-2.17-.26-3.21-.3-1.04-.05-2.04-.09-3.02-.11-1.96-.03-3.85.14-5.73.21-1.88.11-3.76.37-5.74.49-1.98.19-4.05.44-6.33.58.81-1.01-6.47,1.28-4.92-.48-2.69.82-2.38,1.13-1.72,1.32.67.22,1.69.41.58,1.21-1.49.32-2.94,1.09-3.35.62.61-.52-1.44-.59-.26-1.01-1.2.29-2.36.72-3.53,1.12-.37,0,.35-.45.71-.66-3.51,1.46-6.7,2.47-9.82,3.53-1.53.6-3.05,1.2-4.54,1.89-1.46.75-2.87,1.65-4.25,2.7-.16.71,2.43-1.24,2.27-.52-2.71,2.16-4.04,2.81-5.41,3.39-1.33.61-2.7,1.14-4.94,3.44l.57-1.4c-1.31,1.69-1.58,2.72-4.47,4.52-.51-.12-.12-.75.55-1.51.68-.74,1.61-1.63,2.11-2.31-1.88,1.44-6.02,5.67-4.15,5.01-1.77,2.15-3.02,2.32-4.21,3.28.13.18,2.19-1.5,1.38-.04-2.96,2.38-6.63,6.93-9.21,10.75-.16-.15-.61-.07-.47-.46-.58,1.85-1.13,2.47-1.95,3.16-.8.69-1.77,1.52-2.9,3.85Z"/><path class="cls-1" d="m62.92,264.46l-1.21-1.4c-.14.13-.36.24-1.1-.25.74.58,1.54,1.1,2.31,1.65Z"/><path class="cls-1" d="m46.37,185.55c-.01-.22-.02-.44-.07-.64-.07.41-.01.56.07.64Z"/><path class="cls-1" d="m50.7,166.59c-.29,1.35.35.28.79-.27-.15-.09-.36-.13-.79.27Z"/><path class="cls-1" d="m108.95,277.71c-.3.12-.47.26-.4.44.4-.21.47-.34.4-.44Z"/><path class="cls-1" d="m214.53,277.77c-.17-.04-.32-.05-.52-.11.1.06.28.09.52.11Z"/><path class="cls-1" d="m207.37,276.46c-.35-.02-.8-.03-1.45.03.63.09,1.08.06,1.45-.03Z"/><path class="cls-1" d="m77.14,272.54c-.46-.21-.91-.41-1.37-.46.69.37,1.08.46,1.37.46Z"/><path class="cls-1" d="m204.44,276.59l-1.78-.22c-.02.06-.04.1-.05.17l1.83.05Z"/><path class="cls-1" d="m216.83,277.75c-.72.03-1.68.06-2.3.01.92.19,1.64.17,2.3-.01Z"/><path class="cls-1" d="m150.5,258s-.05.05-.07.09c-.05.1-.09.19-.12.25-.02.03-.03.06-.04.08-.02.03.08-.03.03.02-.06.09-.06.1,0,.05-.04,0,.14-.26.22-.48Z"/><path class="cls-1" d="m196.42,277.08c-.07-.02-.16-.05-.23-.08l-.57.14.8-.06Z"/><path class="cls-1" d="m224.78,276.98c-.34.09-.64.19-.88.34.29-.03.62-.07,1.05-.11-.12-.09-.16-.16-.17-.23Z"/><path class="cls-1" d="m162.95,262.36c.6.03.88-.05.98-.17-.49-.33-.88-.43-.98.17Z"/></g></svg>