<?xml version="1.0" encoding="UTF-8"?><svg id="Layer_2" xmlns="http://www.w3.org/2000/svg" viewBox="0 0 288 288"><defs><style>.cls-1{fill:#fff;}</style></defs><path class="cls-1" d="m238.27,134.76c-5.2-2.66-10.69-4.48-16.34-5.77,1.88-.58,3.75-1.18,5.6-1.85,10.45-3.75,21.08-8.43,29.4-15.81,16.47-14.63,15.95-38.36,11.11-57.91-4.51-18.21-16.06-35.86-36.44-38.79-18.27-2.63-37.42,6.43-48.92,20.08-10.06,11.92-15.21,26.35-18.45,41.27-3.56-13.43-9.92-26.32-19.03-36.18-12.4-13.42-31.45-21.05-49.92-20.43-18.81.64-35.65,10.08-46.16,25.23-10.28,14.82-13.49,34.23-6.47,50.99,4.98,11.88,14.09,21.49,25.32,27.51,0,0,0,0-.01,0-7.5.38-14.78,2.12-21.62,5.13-13.32,5.87-23.56,17.22-27.54,30.97-3.78,13.07-1.59,27.4,7.09,38.16,8.33,10.33,21.92,16.97,35.53,15.58,9.14-.93,17.1-4.77,24.29-9.89-3.6,16.19-3.32,33.07,5.91,47.71,5.48,8.7,13.44,14.99,23.29,18.42,5.46,1.9,11.44,3.61,16.91,3.3,2.13.46,4.2.78,6.01,1.01,6.28.78,12.78.25,18.47-1.96,5.64-1.51,11.21-3.8,16.01-5.95,3.07-1.38,6.03-3,8.82-4.83.57-.12,1.15-.37,1.74-.79,8.51-6.04,15.45-13.8,20.31-22.68,3-4.24,5.21-8.88,6.15-13.89,5.19,5.63,11.95,9.76,19.58,9.67,4.9.82,9.98.62,14.88-.81,13.41-3.92,22.43-15.12,24.59-28.42,4.09-25.23-5.78-56.65-30.09-69.07Z"/><g><path class="cls-1" d="m223.9,227.7c.1-.08.18-.18.26-.33-.17.12-.24.23-.26.33Z"/><path class="cls-1" d="m162.04,262.09l.77-.5c-.54.24-.72.38-.77.5Z"/><path class="cls-1" d="m261.53,213.26c0,.07.02.08.04.14.31-.61.79-1.42,1.37-2.83l-.66,1.37-.75,1.32Z"/><path class="cls-1" d="m46.88,200.88c.26.1.52.22.78.31-.35-.14-.56-.28-.78-.31Z"/><path class="cls-1" d="m103.33,252.6c-.3-.07-.65-.36-.98-.64.36.42.68.73.98.64Z"/><path class="cls-1" d="m274.08,189.3l-.56,1.51c.25-.03.5-.57.56-1.51Z"/><path class="cls-1" d="m252.69,142.23c0,.06-.02.09,0,.19.09.02.06-.07,0-.19Z"/><path class="cls-1" d="m262.26,159.91c.22.37.51.77.8,1.19-.26-.54-.57-1.24-.8-1.19Z"/><path class="cls-1" d="m263.46,161.66c-.13-.18-.27-.37-.4-.56.17.34.31.61.4.56Z"/><path class="cls-1" d="m228.62,138.42c1.2.46,2.37.46,3.59.6-1.19-.24-2.39-.43-3.59-.6Z"/><path class="cls-1" d="m54.33,95.97l.33.11c-.18-.17-.27-.17-.33-.11Z"/><path class="cls-1" d="m231.93,134.36l.87.48c-.3-.23-.58-.37-.87-.48Z"/><path class="cls-1" d="m270.18,218.31c-.15.89-.86,2-1.44,2.92-.64.89-1.16,1.59-.93,1.74,1-1.52,2.66-3.58,2.36-4.66Z"/><path class="cls-1" d="m28.86,66.89l.16-1.14c-.1.54-.14.88-.16,1.14Z"/><path class="cls-1" d="m231.93,134.36l-1.02-.53c.05.13.14.26.22.38.26.01.53.06.8.15Z"/><path class="cls-1" d="m135.11,44.68s-.02-.02-.03-.03c-.1-.04-.17-.07-.27-.11l.31.14Z"/><path class="cls-1" d="m139.35,50.64c-.37-.36-.74-.7-1.14-1.09.48.68.83.95,1.14,1.09Z"/><path class="cls-1" d="m232.21,139.01c.68.13,1.36.28,2.04.44-.69-.26-1.37-.37-2.04-.44Z"/><path class="cls-1" d="m198.32,34.52c-.19.17-.36.33-.52.5.25-.19.42-.35.52-.5Z"/><path class="cls-1" d="m107.23,256.43c.11.15.28.32.43.48.13-.07.15-.16-.43-.48Z"/><path class="cls-1" d="m77.39,214.95h0s-.01,0-.01,0c0,0,0,0,.01,0Z"/><path class="cls-1" d="m77.86,215.47c.23-.71-.05-.88-.47-.52-.09.48-.05.68.47.52Z"/><path class="cls-1" d="m74.9,216.21s.07,0,.12,0c-.03-.02-.06-.03-.12,0Z"/><path class="cls-1" d="m95.37,267.1s.04-.02.04-.05c-.03,0-.05,0-.07,0l.03.04Z"/><path class="cls-1" d="m84.63,254.75c-.05-.3-.18-.69-.35-1.08.04.29.15.65.35,1.08Z"/><path class="cls-1" d="m43.51,219.26s.02,0,.03-.02c-.04,0-.05-.01-.09-.02.03.02.04.03.06.04Z"/><path class="cls-1" d="m40.99,116.88s.07.02.11.03c.4.1.64.3.28.73l-.02.02h0s-.17.1-.17.1l-.67.34-1.34.68c-.43.21-.91.48-1.39.76l-1.42.81c-1.87,1.11-3.67,2.29-5.38,3.53-3.42,2.48-6.49,5.19-9.17,7.91-1.58,3.3-4.69,7.21-7.01,11.71l-1.6-.3c-.58,1.32-1.08,2.68-1.57,4.03-.57.7-.31-.09-.08-.72.23-.62.36-1.12-.61.15l.19,1.89c-.16.02-.55.64-.99,1.48-.4.86-.9,1.9-1.29,2.73-.37.84-.66,1.46-.8,1.41-.12-.04-.16-.79.25-2.6-2.03,5.32-3.19,11.01-3.58,16.74-.16,3.83,1.14,2.25.88,6.42-.42.88-.36-1.49-.89-1.13-.13,1.59,0,3.03.1,4.33.16,1.3.41,2.45.68,3.51.32,1.05.67,2,1.04,2.88.4.88.83,1.7,1.26,2.49.9,1.58,1.82,3.1,2.86,4.84.49.89,1.03,1.82,1.6,2.86.53,1.06,1.18,2.18,1.82,3.48l-.67-.75c1.27,1.55,3.39,4.63,3.62,4.52.17-1.04-.29-1.32-.94-1.81-.64-.49-1.59-1.13-2.04-2.9,1.22-.34,2.89,3.3,3.59,2.55.55,1.2,1.26,1.98,1.96,2.68.73.67,1.5,1.24,2.26,2.06.5.82,1.15,1.67,1.87,2.5.75.79,1.54,1.61,2.36,2.35,1.63,1.5,3.25,2.81,4.15,4.06,1.84.69,4.2.79,7.77,2.43,1.06,1.09.84,1.2.73,1.34-.1.13-.06.25,1.7,1.18l.86-.47c2.99,1.17,2.46,1.2,2.24,1.5,3.37,1,3.02-.11,7.2,1.15-.85.14-1.69.19-2.54.27,1.62.23,2.78.32,4.08.51.65.11,1.35.15,2.17.24.82.08,1.76.18,2.92.18-.05.22-.55.31-1.2.34-.65,0-1.45-.1-2.12-.21,1.21.67,2.32.61,3.26.35.94-.25,1.72-.58,2.4-.58-.41-.26-3.55-.47-2.01-1.19,1.11.1,2.29-.23,3.37-.47,1.1-.21,2.04-.43,2.88-.08-.76.33-1.49.7-2.3.98,2.29-.5,2.82-.86,3.48-1.1.33-.12.68-.2,1.27-.32.58-.1,1.38-.25,2.62-.47-.24.12-.07.27-.14.45.17-.1.35-.2.53-.3l.28-.14.14-.06.05-.04c.14-.11.29-.2.46-.28.33-.15.69-.25,1.05-.32.73-.15,1.41-.19,2.13-.52l-.37.38c.67-.58,1.45-1.67,1.79-1.8-.68-.05-.35-.46-.04-1.34.38.35.95-.17,1.82-1.02.85-.83,2.02-2.01,3.03-2.7.14-.1.27-.18.4-.25l.09-.05s.04-.02.04-.01l-.03.09c-.04.12-.08.25-.13.38-.18.24-.37.41-.48.45-.24.23-.58.57-.77.68-.13.08-.22.1-.28.04-1.07,1.28-1.83,2.3-2.54,3.21-.7.9-1.33,1.68-2,2.35.79-.72,1.72-1.48,1.05-.57l1.33-1.93c.26-.19.46-.31.6-.39.08-.05.16-.1.23-.14l.1-.06s.07-.06.05.01c.21-.26.41-.57.61-.91.12-.22.2-.4.29-.58.09-.18.19-.36.39-.6.1-.12.22-.26.37-.42.07-.07.17-.18.25-.24.02.02.04.05.06.1.08,1.15-1.56,2.7-1.01,2.18.06.73.38.59.56.56.18-.03.25.11-.12,1.51-.07-.14-.23-.36-.08-.68-.38,1.08-.44,1.99-.58,2.89-.15.89-.36,1.71-1.1,2.25-.31-.05-.74.16-.59-.38l.22-.12c-.48-.35-.43-.09-.41.26.01.37,0,.86-.64.97.38-.24.51.08.54.57.01.51-.05,1.06-.11,1.55.29-.1.58-.22.87-.35.08.1.16.19.23.28.07.07.14.32.2.45.12.31.22.58.3.81.16.46.23.75.23.94,0,.39-.3.36-.66.33-.36-.03-.8-.05-1.09.36-.28.41-.48,1.25-.17,2.96,1.12,4.26.04-1.66.98.91.27,2.9-.35,4.17,1.08,8.32,0,1.26.26,3.8-.55,4.32.32.62.64,1.42.95,2.3.33.88.71,1.81,1.07,2.71.72,1.8,1.64,3.36,2.39,3.84-.69-2.27-1.45-3.17-2.11-4.27-.34-.54-.68-1.11-.99-1.89-.29-.79-.51-1.8-.66-3.18l1.41,1.1c1.21,3.51,3.7,7.57,4.78,9.87-.1-.54,0-.86.34-.68,1.43,2.17,2.73,3.36,3.89,4.55,1.2,1.17,2.32,2.35,3.95,4.29-.09.54-.62.25-1.32-.39-.67-.66-1.52-1.64-2.21-2.49.74,1.52,1.33,2.18,2.09,2.98.78.78,1.72,1.72,3.55,3.56-.34.77-2.52-2.42-3.43-2.38,1.38,1.36,2.85,2.63,4.37,3.82-.05.02-.06.07-.1.12.74-.23,1.54.51,2.61,1.48,1.05.98,2.39,2.19,3.99,2.96,3.58,2.16,5.99,2.71,7.94,2.91.97.12,1.86.09,2.77.1.89,0,1.76-.03,2.83.06.95.67,1.18,1.08.63,1.25-1.6-1.11-1.4-.59-2.13-.47,2.4.69,5.07,2.88,3.51,2.96,4.22.78-1.3-1.05,1.32-.75,1.86.53,3.78,1.02,5.82,1.37-.63-.77-2.65-1.27.49-1.24,1.33.11,2.32.19,3.41.28.56.04,1.14.08,1.83.09.23,0,.48,0,.75.01.2-.01.39,0,.59.06-.13.14-.03.41-.05.61-.03.23-.11.28-.71.31.19.06.41.08.6.16.32.08.02.05.7.14.93.12,1.8.11,2.32-.13-1.7-.59-.24-.48,1.32-.42.77.04,1.6.05,2.08-.06.48-.1.58-.28-.06-.6,1.17.33,2.36.62,3.57.86-.83-.05-.95.39-2.17.17.98,1.08,3.03-.1,4.29-.22.65.09,1.81.13,2.86.15,1.05.02,1.98.03,2.15.2,1.15-.38,4.04-.7,4.7-.36,1.72-.63-.01-.67.42-1.1.98-.22,1.95-.5,2.92-.81l1.17-.4,1.09-.28c.44.45,1.33,1.78.55,2.22,1.94-1.11.3-1.75,3.36-2.7-1.4,1.62,4.27-.62,2.18,1.46,2.04.14,6.92-1.83,9.35-3.24,1.26-1.47-2.98.78-3.17-.11,1.81-.84,3.06-1.63,4.11-2.39,1.09-.78,1.88-1.52,2.6-2.22,1.43-1.4,2.6-2.59,5.24-4l-1.44.61c1.03-.83,1.64-1.35,1.78-1.55l-1.52.63c1.33-.38,1.98-.82,2.56-1.27.14-.11.28-.23.41-.36l.2-.2.11-.15c.15-.21.32-.45.53-.75-.1.72,1.18.73,3.06-.03,1.88-.76,4.37-2.31,6.51-4.55,0-.72-3.22,1.6-3.06.28.96-.94,1.88-1.9,2.79-2.89.26-.15.09.3-.19.76,2.27-2.78,5.63-4.04,5.32-5.67,1.18-.62,2.36-1.28,3.52-1.99-.48.27-.94.54-1.42.79-.05-.36.49-1.39,1.08-2.43.57-1.05,1.18-2.12,1.32-2.54.87-1.88,1.57-3.19,2.21-4.05.21-.27.44-.38.91-.84.21-.19.42-.38.63-.57.15-.09.29-.16.45-.24-.15.02-.35.04-.53.06,0-.06-.09,0-.15,0-.06.02-.12.04-.18.05-.12.03-.22.03-.31.02-.17-.03-.27-.17-.22-.48,0-.24.1-.55.34-1.04.69.55,1.32-.19,1.78-1.01.48-.82.79-1.78,1.03-1.26.27-.72.87-1.17.54-2.23l.48,1.58c-.29-.91-.32-1.88-.27-2.95v-.13s.04.02.06.02l.12.07c.08.05.17.12.27.19.2.16.41.32.63.49.46.36.97.74,1.46,1.04-.08,1.11.34,1.4.9,1.73.55.34,1.4.72,1.49,1.83.16-.3.44-.4.8-.37.23.04.17-.04.73.15.42.13.85.3,1.3.42,1.76.57,3.63.89,4.1.38,1.56.29,2.24.67,2.63,1.08.39.41.49.86.9,1.12.52-.12,1.19-.31,1.32-.47.09.09.18.15.38.25.09.05.19.09.29.14l.16.07c.09.03.19.05.29.08.8.22,1.77.41,2.81.56,2.09.3,4.45.39,6.25.44,1.06-.51,2.09-1.06,3.07-1.66.42.11.85.23,1.29.32.46-.39,3-1.26,1.28-1.28.56-.13,1.13-.24,1.67-.4-.28-1.35,2.19-1,5.03-2.94.78-.15.75.23.16.72,1.53-.75,1.18.2,2.24.17-.63.12.51-1.1,1.11-2.24.62-1.12.79-2-1.23-1.14-.52-.34,1.43-1.91,2.8-2.67.49.14,1,.28,1.51.41.24-.75.46-1.48.67-2.2,1.71-1.73,2.98-1.93,4.43-3.35-.66.78-1.01,2.04-.78,2.6.24.57,1.17.46,3.03-1.68-.91,1.17-1.51,2.14-2.02,2.95-.52.81-.92,1.51-1.42,2.14.9-.78,1.44-1.12.4.55,3.08-3.45.68-1.54,3.58-4.94.34.45.77.48,1.47.03.7-.45,1.69-1.37,2.96-2.96-.8.68-1.54,1.38-2.39,1.99-.02-.19.03-.41.12-.62-.79.81-1.12.95-1.59.88.27-.35.85-1.54,1.32-2.74.25-.59.51-1.16.76-1.6.23-.46.46-.78.7-.85-1.83,1.44-1.12-.38-.33-2.26.35-.97.74-1.96.89-2.6.12-.64.05-.9-.44-.4-.05-.28.18-1.09.5-1.83.33-.74.66-1.46.97-1.51-.17,1.77.32,1.28.94.39.31-.44.65-.98.94-1.36.27-.39.5-.62.65-.43.02-.69-.35-.06-.73.5-.41.55-.81,1.02-.72.12.53-2.02,1.53-3.35,2.08-4.47l.03.92c.37-1.05.77-2.13,1.03-3.13-.46-.59-1.31,2.87-1.21-.03.32-.72.4-3.59.82-3.46.57,1.44,1.68.55,1.55,3.07.05-.52.12-1.32.2-2.19.03-.44.06-.89.09-1.33,0-.44-.01-.87-.03-1.27-.08-1.58-.31-2.56-.89-1.28l.17-2.43c-.54,1.54-1.6,5.67-1.48.86l.21.05c-.18-1.13-.47-2.24-.76-3.34l.55-1.45c-.27.05-.53-.47-.53-1.7.32-.33.35-1.5.79-1.43-.33-3.58-.85-3.23-1.2-3.66-.32-1.96-.22-2.73.55-1.89-.06-.68-.16-1.49-.26-2.35-.1-.86-.22-1.77-.4-2.64-.32-1.75-.54-3.42-.48-4.4-1.47-3.44-.02.78-1.31-1.11.24-.88.2-2.08-.03-3.47-.26-1.38-.83-2.91-1.43-4.52-1.31-3.19-3.22-6.49-4.81-9.08-.34,1.12-.58.78-.95.13-.19-.32-.42-.73-.71-1.06-.31-.32-.7-.57-1.17-.6,1.16.84-2.01-5.51,1.25-1.29l-1.9-2.65c-.47-2.41,3.51,4.2,2.71.66-.52-.78-1.09-1.44-1.67-2.03-.63-.57-1.29-1.07-1.94-1.6-.65-.53-1.29-1.08-1.9-1.74-.59-.67-1.31-1.34-1.92-2.26,1.86.29-2.58-2.22-.91-2.31.93.38,1.69,1.39,2.61,2.26l-.36-.73c-2.68-3.23-3.49-3.3-3.88-3.03-.41.29-.57.99-2.42-.13-1.85-1.63-2.55-2.32-2.67-2.81-.13-.49.27-.7.32-1.01-.25-.32-.92-.83-1.69-1.32-.38-.24-.79-.48-1.18-.69-.4-.19-.8-.33-1.13-.44.38.12.74.26,1.07.43.31.19.6.4.85.61.51.43.89.88,1.14,1.28.48.8.38,1.41-.4,1.3-.24-.59-.73-1.16-1.36-1.7-.32-.26-.65-.54-1.03-.75-.39-.21-.79-.4-1.19-.58-1.62-.71-3.24-1.13-3.93-1.23,2.69,2.38,3.7,2.94,4.64,3.61.88.71,1.82,1.35,3.85,3.9.91.25,1.6-.75,4.17,2.22-1.11-.6-1.19-.45-.96-.08.12.19.32.43.51.66.18.24.34.49.43.64-.01-1.03,2.02,1.76,3.02,2.43.15.58-.54.41-.96.49-.21.04-.36.14-.3.41.05.28.34.7.84,1.51l1.7-.45c.73,1.35-1.32.23.93,2.52-1.72-.85-.76,1.17-3.53-2.01.5,1.21,1.06,2.16,1.69,2.95.31.4.65.75.97,1.09.31.36.63.68.96,1,1.3,1.27,2.87,2.27,4.01,3.92-.28-.31-.49-.24-.77-.54.77.54,1.48,1.91,2.11,2.9.87,2.48-1.61-1.5-1.7-.68l1,1.84.86,1.9c-.01.1-.03.13-.06.14.64.91,1.2,1.82.98,2.32-.98-.94-1.67-1.16-2.39-1.74.91,1.16,1.89,2.32,2.68,3.57-.66-.25.32,3.66-1.07.92l1.16,2.95.96,3.02-.92.79c.59,1.39.82,1.39.46-.38.23,1.05,1.14,3.28,1.79,5.19.35.95.5,1.83.49,2.41-.02.58-.25.87-.83.67.39,1.19.7,2.2.91,3.14.17.95.3,1.82.41,2.72.29,1.81.3,3.76.61,6.79-.54-2.33-.82-.99-1.09.28-.33,1.27-.58,2.49-.67.08-.32,1.4-.19,2.25.02,3.05.22.8.53,1.53.46,2.65-.73,2.04-1.67.94-1.79-1.28l.17,2.64-.21-.08c.1.77.24,1.57.31,2.34-.52,1.1-.81,1.16-1.05,1.24-.25.08-.39.2-.78,1.31l.8.75c-.32.48-.64.95-1,1.39.31-.22.4.02.34.53-.05.51-.23,1.29-.55,2.11l-.19-.12c-.22.67-.41,1.36-.7,2.01.4-2.12-1.05,1.63-1.23.46-.4.79-.69,1.14-.98,1.71-.28.57-.71,1.25-1.54,2.62.29-.02.57-.05.86-.08-1.04,1.89-1.3,1.75-1.51,1.5-.11-.13-.22-.28-.43-.24-.21.04-.52.27-1.11.87l.71.35c-2.08,1.42-3.5,2.82-4.88,4.18-.71.64-1.37,1.31-2.14,1.8-.38.25-.76.5-1.16.7-.42.18-.85.33-1.3.44,1.78-1.09.85-1.65.93-1.42-.64.41-1.4.85-2.24,1.28-.87.38-1.76.85-2.72,1.18-1.89.8-3.81,1.36-5.35,2.05-.66-.47-1.04-.79-1.67-1.02-.63-.24-1.5-.37-3.06-.65-2.27-.02-2.61-.01-3.45.54-.28-.09-.77-.21-1.2-.3-.24-.03-.51-.04-.77-.05-.2-.01-.41-.02-.62-.03-.65-.05-1.32-.09-1.93-.2-1.22-.18-2.18-.53-2.11-.93-.32.25-.76.07-1.26-.17-.25-.1-.52-.25-.8-.36-.15-.06-.27-.09-.46-.14-.35-.12-.52-.18-.77-.24l-.24-.51v.88c-.29-.28-.59-.55-.88-.8-.3-.28-.59-.55-.88-.82-.3-.26-.59-.52-.88-.77-.29-.27-.58-.53-.87-.78-1.16-.99-2.28-1.83-3.35-2.62-1.08-.8-2.09-1.56-3.15-2.58-1.06-1.02-2.15-2.3-3.5-4.27l.69.43-.45-.37c-.15-.1-.32-.32-.4-.18l-.2,1.7c-.3-.2-.18-1.78-.41-2.81-.97,4.52-2.38,9.8-3.83,14.33l1.24-2.15c-.41,1.49-.61,2.87-.95,4.07-.36,1.19-.81,2.26-1.78,3.35.41-1.2.45-1.66.32-1.55-.13.11-.48.73-.94,1.49-.43.7-.58.93-1.24,1.82-.13.19-.25.38-.36.55-.13.19-.17.22-.26.32-.15.16-.3.25-.42.25l.15-.42.08-.21c.02-.06.1-.22.14-.33.16-.43.41-.86.61-1.24-.24.37-.5.73-.65,1.05-.09.16-.17.31-.24.45-.04.09-.08.17-.12.25-.15.3-.23.51-.25.65-.05.29.14.35.52.46-.7,1.43-1.3,1.7-1.82,1.96-.52.27-.96.54-1.44,1.96.39-.56.81-1.11,1.18-1.68.71-.27.42,1.33-.4,2.47-.29.2-1.15.8-.6-.11-1.19,2.22-3.93,4.83-4.45,5.83-1.09.84-1.18.13-.84-.53-1.55,2.16-2.04,2.54-2.49,2.93-.46.39-.89.8-2.68,2.79l-.22-.39c-.34.53-.71,1.04-1.07,1.57-.86.32-1.75.6-2.61.87l1.08-.12c-.59.52-1.08.95-1.59,1.4l-.19.17c-.05.04-.17.14-.14.12,0,0,0,.02,0,.02l.16.28c.21.39.32.72.36.9l-2.1-.54c-.14.07-.31.16-.49.25l.22-.66,2.37.95-.03-.13s.02.1.03.13l-2.47-1.1c-1.86,1.37-3.18,1.8-4.45,2.26-.63.23-1.26.46-1.95.81-.72.35-1.41.77-2.45,1.47-.35.03.26-.47.58-.72-3.76,2.75-3.57.34-7.26,3.13.18-.3-.37-.38-.27-.61l-1.74,1.09-.15-.87-1.11,1.74-1.44-.47-.6.63c-.62-.24-1.23-.3-1.85-.27-.16,0-.28.01-.49.05-.28.06-.56.1-.84.18-.39.12-.78.25-1.19.37-1.06.32-2.27.64-3.57.26l.63.99c-2.85,1.78-6.92,1.69-10.81.73-1.02-.29-2.06-.58-3.1-.88l-.78-.22-.39-.11-.12-.03-.24-.05-.48-.09-1.44-.31c-.47-.03-.94-.02-1.41-.03-.29,0-.35-.01-.46-.02l-.31-.03c-.21-.01-.43-.04-.64-.06-.43-.03-.88-.09-1.34-.14-.91-.09-1.87-.2-2.88-.27l.31-.82c-1.12.12-2.29.17-3.51.18-1.61-1.18,1.28-.4.83-1-1.83-.26-2.32-.1-2.87.04-.52.13-1.21.21-3.34-.42-1.76-1.29.83-.35,2.08-.27-.5-.11-1.12-.26-1.62-.39-.51-.14-1.05-.26-1.59-.44-1.07-.33-2.16-.73-3.19-1.19-2.05-.91-3.82-2.07-4.77-3.05-.12.06-.34.08-.26.21-2.32-1.19-4.6-3.77-6.43-5.9.36-.21.83.3,1.38.74-.65-.77-1.3-1.99-2.14-2.42l1.23.36c-.59-.87-1.65-2.01-2.4-3.13-.77-1.11-1.29-2.19-1.04-2.59-.14.38-.84.65-1.63-1.08.18-.38.09-.84-.15-1.36-.22-.53-.56-1.14-.97-1.8-.78-1.32-1.67-2.94-1.73-4.51.2.13.48.72.68,1.21.21.48.38.84.28.55-.12-1.54-1.12-2.65-1.8-3.9l.61.28c-.84-2.23-1.39-4.6-1.91-7,.31-.3.43-.88.43-1.57,0-.35-.03-.72-.04-1.1-.03-.55-.06-1.11-.09-1.65-.07-1.4-.09-2.77.02-3.73.09-.95.22-1.51.45-1.35.23-2.59-.01-1.43-.26-.48-.25.96-.5,1.71-.34-1.39.34-.95.57-2.49.71-3.7.16-1.23.33-2.23.79-2.42v.66c.22-1.57.56-3.27.83-4.9.14.77.27,1.58.38,2.45.67-4.41.23-6.6-.56-5.94.67-2.26,1.17-4.68,1.67-6.85.5-2.22,1-4.11,1.72-5.73v1.05c.18-1.09.41-2.2.66-3.32.35-1.28.3-1.85.45-2.74-3.06,1.83-5.93,3.21-9.19,5.1-3.23,1.87-6.87,4.28-10.56,7.38-.61.27-.47-.06.93-.99-1.17.77-2.36,1.57-3.46,2.22l-1.69,1.03-1.63.84,1.64-1.57-2.77,1.74c-.9.51-1.78.95-2.66,1.42-.88.44-1.75.76-2.61,1.14l-.88.38-.64.29-.03-.44c-.88.17-1.69.31-2.66.46-.47.09-.97.13-1.48.2-.48.04-.98.09-1.48.13-2,.15-4.15.08-6.11-.18l.61-.12c-1.08.02-1.88-.15-2.51-.26-.62-.18-1.08-.37-1.5-.55-.42-.17-.78-.41-1.25-.59-.23-.09-.49-.18-.79-.27-.29-.11-.63-.21-1.02-.31.15-.06.27-.06.38-.04-.9-.34-1.77-.77-2.64-1.19l.76-.1c-.29-.01-.59-.08-.88-.19-.29-.13-.57-.29-.84-.48-.27-.19-.53-.39-.77-.6-.23-.23-.44-.46-.62-.68-.75-.84-1.06-1.52-.77-.81-.59-.19-1.41-.47-2.12-.73-.7-.27-1.36-.46-1.67-.38-2.39-2.16-.25-.92-1.36-2.56-.79-.81-1.33-1.21-1.93-1.71-.31-.24-.6-.53-.9-.92-.3-.39-.67-.86-.98-1.56l.39-.19c-.41-.56-.83-.97-1.2-1.49-.4-.51-.85-1.07-1.28-1.96l.44.44c-1.13-1.23-1.19-2.33-1.34-3.24-.11-.94-.31-1.7-1.54-2.71-.03-.7-.17-1.7-.26-2.51-.03-.82.03-1.45.47-1.45-.51-1.97-.83-3.79-.9-5.64-.08-1.85-.06-3.73.23-5.82,1.52-.34.07-.93,1.57-3.14l-.79-.05c.83-2.89,2.58-5.71,4.64-8.26,2.05-2.58,4.46-4.85,6.69-7.2l.66.43c.12-.49.22-1.01.38-1.5,1.38-1.09,2.92-2.18,4.56-3.17.83-.49,1.67-.97,2.53-1.41l1.3-.64c.43-.22.98-.43,1.46-.65l.74-.32.18-.08.37-.14.81-.31c1.06-.44,2.16-.8,3.26-1.15,1.08-.37,2.26-.62,3.37-.93.6-.12,1.19-.24,1.78-.36.59-.12,1.15-.25,1.81-.32,1.28-.16,2.43-.38,3.9-.42.69-.04,1.38-.08,2.05-.12.74-.02,1.47-.04,2.19-.07,3.06-.08,5.95-.16,8.63-.24,3.15-.29,7.11-.65,11.52-1.05,4.42-.36,9.34-.68,14.93-.71-.14-.1-.29-.2-.44-.3l.78.38-.22.04c.1,0,.2-.01.31-.02-.86-.49-1.72-.98-2.58-1.47-.9-.48-1.81-.96-2.72-1.44-1.87-1.01-3.76-2.02-5.66-3.04-1.97-1.08-3.96-2.17-5.95-3.26-2-1.12-4-2.24-6.02-3.37-4-2.26-7.86-4.5-11.48-6.65-.97-.56-1.7-1.06-2.53-1.59-.81-.53-1.62-1.06-2.43-1.59-.45-.26-.69-.54-1.04-.81l-.97-.82c-.64-.55-1.31-1.1-1.93-1.66.97.42.11-.57,1.57.35-.93-.44-1.62-1.02-2.31-1.65-.69-.63-1.35-1.31-1.98-2.02-.54-.66-1.28-1.7-1.32-1.85-.19-.33-.37-.63-.54-.89.13.51.28.96.45,1.49-1.66-.82-2.42-3.18-2.4-4.15-.67-.57-1.38-1.14-2.03-1.75-.01-.19-.04-.47.05-.56l-.58-.2c.06-.55.16-1.12.26-1.67-.23-.23-.79-1.06-1.39-1.94-.65-.87-1.23-1.77-1.9-2.1.17-.33-.21-2.65.46-.98-.85-2.9-1.35-5.9-1.52-8.94-.07.48-.17.97-.23,1.46-.38.14-.75-.47-.99-1.32-.12-.42-.22-.91-.27-1.37-.03-.47.01-.93.09-1.3.65,1.9,1.09.11,1.63-.68-.44-1.24-.65,1.09-1.09.44-.63-1.58-.6-5.07-.14-5.89l.2,1c-.02-1.11.3-1.88.74-2.61.44-.74.81-1.45,1.05-2.49-.2-2.02.8-3.25-.58-3.23.56-2.83,1.14-.79,1.56-1.62-.05-.71.28-2.01.88-3.08.58-1.08,1.25-1.99,1.68-2.06-.26-.55-.14-1.24.17-1.98.32-.73.89-1.48,1.41-2.2.52-.72,1.13-1.35,1.47-1.93.34-.57.51-1.05.28-1.4l2.11-1.33c-.3-.33-.77-1.27.33-2.88,1.55-1.05,1.84-.19,2.52-.29-.12-.65-.24-1.32-.35-1.99,2.16-1.53,4.38-3.21,6.82-4.77,2.44-1.55,5.03-3.03,7.76-4.28,5.48-2.45,11.59-3.92,17.15-3.54,4.83-.74,11.44-.99,17.21.77l-.69.03c.93.34,1.88.63,2.8.99.91.38,1.84.72,2.74,1.13-.62-.37-1.28-.68-1.92-1.02-.64-.35-1.3-.68-1.97-.97,1.32.12,2.36.21,3.58.59,3.01,1.4,6.38,3.25,9.7,5.39,3.34,2.14,6.62,4.54,9.74,6.92,2.45,1.11,2.76,2.02,2.96,2.97.21.95.33,1.85,2.4,3.4-.4-.23-.69-.2-1.08-.38.94.95,1.78,1.81,2.53,2.66.39.41.75.82,1.1,1.24.19.23.28.3.72.89.35.47.68.92.99,1.4,1.25,1.91,2.54,3.7,3.72,5.86.3.52.61,1.04.93,1.58.32.53.6,1.17.91,1.76.3.6.61,1.21.93,1.84.16.31.32.62.48.94.16.34.31.73.46,1.1-.74.43,0,2.73.81,4.88.2.51.41,1.1.59,1.65.19.54.36,1.04.49,1.47.26.86.38,1.46.17,1.56.23-.03.46-.07.68-.14.39,2.06,1.21,5.44,1.85,8.23.65,2.82,1.15,5.22.9,5.27.8,1.72,1.57,3.3,2.3,4.74l.06,3c.68,2.39,1.56,5.45,2.52,8.8.45,1.57.92,3.2,1.39,4.84.45,1.6.9,3.22,1.34,4.81.16-.56.32-1.11.48-1.66.08-.27.16-.53.24-.8.08-.32.16-.63.24-.94.32-1.22.62-2.32.91-3.22.57-1.81,1.12-3.07,1.49-2.93.29-1.59.6-3.23.91-4.93.32-1.65.65-3.35.99-5.1.69-3.48,1.42-7.02,2.18-10.62.76-3.49,1.55-7.11,2.36-10.81.81-3.47,1.6-7.11,2.56-10.15.23-.8.47-1.59.7-2.39l.78-2.21c.54-1.44,1.01-3,1.64-4.32.61-1.36,1.2-2.75,1.83-4.09.31-.66.67-1.33,1.01-1.96l.49-.89c1.35-2.34,2.81-4.52,4.28-6.46.17-.72.62-1.71,1.29-2.67.33-.48.69-.98,1.05-1.47.37-.44.74-.88,1.09-1.29.72-.38,1.48-.7,2.24-1.01.34-.42.63-.91.94-1.39.33-.47.66-.95.98-1.41.65-.95,1.49-1.71,2.47-2.12.05.09.03.21-.05.34.81-.79,1.8-1.3,2.66-1.94.9-.6,1.76-1.2,2.45-2.13,1.11-.55,2.24-1.05,3.08-1.18.84-.13,1.34,0,1.19.55-.21-.71.97-1.29,2.24-1.48.63-.11,1.26-.18,1.73-.22.48-.01.8,0,.8,0,0,0,.39-.11,1.14-.33.74-.26,1.86-.46,3.27-.8,2.83-.53,6.97-1.11,11.74-.47,1.23.09,2.35.42,3.57.65.6.14,1.17.38,1.77.55.3.1.61.17.9.29.29.13.58.26.88.39,2.37,1,4.75,2.39,7.01,4.38,4.53,3.93,8.64,10.21,11.33,17.84.32.96.64,1.93.96,2.9.27.99.55,1.99.83,3,.25,1.08.51,2.17.76,3.25.22,1.09.43,2.18.65,3.27.79,4.36,1.26,8.73,1.3,12.94.05,4.21-.34,8.24-1.21,11.9-.87,3.66-2.22,6.92-4.01,9.75-.39.75-.94,1.38-1.43,2.05l-.74,1-.85.91c-1.02,1.22-2.45,2.5-3.84,3.67-2.82,2.35-5.93,4.43-9.11,6.29-3.16,1.87-6.4,3.51-9.47,5.04-1.54.74-3.08,1.52-4.49,2.15-1.42.65-2.77,1.29-4.06,1.92l-29.01,14.21,29.63,2.68c3.4.31,6.25.64,8.64.9,1.31-.35,4.42.44,3.65-.85,2.4.72,2.8,2.44,3.56,1.97-1.37-.97-.95-1.28-.46-1.65.48-.37,1.02-.77-.34-1.92.69.25,1.38.52,2.06.79.64-.29-2.95-.76-2.07-1.39l-1.14,1.02c-1.53-.9-2.33-1.51-2.75-2.18-1.8-.07-3.34,1.33-6.9-.53l1.08.21c-3.13-.81-1.69-1.39-2.29-1.79l.7.19c-.75-.42-1.51-.81-2.28-1.21l-7.08-3.64,6.92-.5.29-.02c-.09,0-.18.02-.28.04l-7.04,1.29,7.2,2.81c1.98.77,5.27.63,3.56.24-3.75-1.39.91.58-2.01,0-1.81-.36-1.14-.96-.96-1.37l-.32-.07-3.12-.68,3.05-1.06,2.87-1c.1.65-2.13.66-.62.88,1.27-.67,2.55-1.31,3.8-2,1.32,1.28,4.05-2.34,6.41-1.64-2.7,1.5.46.42.21,1.09,2.32-.97,4.63-2,6.89-3.13.75-.1-1.59,1.31-.58.74,1.5-.19,1.94-1.39,2.63-1.72.39.04,1.66-.6,2.84-1.18,1.19-.56,2.3-1.06,2.49-.54,2.43-1.05,2.7-1.67,2.92-2.24.21-.6.4-1.11,2.52-2.3.46.08-.3.68-.9,1.17-.6.49-1.07.85.02.52,1.33-1.06,2.63-2.14,3.87-3.31-.14.55-.07,1.47-1.69,2.56,5.76-3.85,10.33-7.57,13.87-12,3.53-4.42,6.15-9.64,6.88-16.4.54-.88.62-.52.59.25-.02.38-.05.87-.07,1.35-.03.48-.07.95-.02,1.32.51-5,1.26-8.34,1.92-11.59.17-.82.34-1.62.51-2.43.13-.81.25-1.63.35-2.48.23-1.72.24-3.52.08-5.59l-.66-.09c.13-1.45.14-2.92.14-4.44-.04-1.5-.17-3.02-.32-4.57-.21-1.53-.42-3.09-.72-4.64-.16-.77-.32-1.55-.48-2.33-.16-.77-.34-1.56-.57-2.38-1.67-6.48-4.22-12.94-7.38-19.13l.44,1.65c-.75-.67-1.53-1.64-2.29-2.67-.76-1.03-1.63-2.06-2.37-2.91.04-.24.55-.1.75-.3.17-.18.13-.76-1.27-2.29.17.41.48.98.65,1.43.16.46.21.79-.06.67-.68-1.34-1.63-2.78-2.71-4.35-1.18-1.52-2.46-3.18-4.11-4.77-3.19-3.23-7.42-6.45-12.44-8.86-4.98-2.46-10.79-3.89-16.29-4.44-5.54-.56-11.02-.27-16,.5-6.68,1.39-13.13,3.81-19.17,7.04-6.06,3.2-11.69,7.3-16.68,12.19-.64.59-1.25,1.22-1.84,1.87l-1.78,1.94c-1.09,1.31-2.2,2.59-3.2,3.95-2.06,2.68-3.92,5.48-5.57,8.34-.42.71-.84,1.43-1.21,2.15l-.41.76c-.07.13-.14.26-.2.4-.12.28-.21.58-.29.94.04-.2.26.26.42.77.16.5.23,1.16.06,1.14-.35-.63-.51-1.02-.61-1.13-.09-.12-.12.04-.14.35-.02.38-.05.75-.07,1.13-.03.33-.07.75-.14-.01-.04-.36-.08-.87-.11-1.54-.09.22-.23-.15-.34-.56-.12-.42-.19-.89-.25-1.21-.03-.16-.05-.3-.1-.4-.01-.04-.06-.12-.06-.12l-.66-.96c-.24-.35-.49-.7-.75-1.04-2.03-2.76-4.38-5.34-7.13-7.57l.39-.72c-1.22-1.79-2.02-1.86-3.68-3.37l.19-.12c-3.67-3.94-9.32-7.05-11.69-8.86l-.62.63c-2.65-1.54-1.04-1.4-4.01-2.54l.29-.34c-1.21-.35-2.44-.63-3.64-.93.5-.63-1.46-1.57-3.81-2.49-1.18-.44-2.47-.84-3.58-1.25-1.11-.4-2.09-.72-2.62-1.08-.97-.25-2.16-.52-3.5-.76-.67-.13-1.37-.26-2.1-.4-.73-.11-1.49-.23-2.27-.35-3.09-.52-6.45-.86-9.43-1.28-.52-.44-2.66-.77-5.27-.96-2.61-.18-5.72-.12-8.16-.07-4.7.55-10.36,1.78-16.06,3.87-5.71,2.07-11.43,4.99-16.46,8.31l.74.69c-.86.58-1.66,1.23-2.47,1.87-.09-.2-.5-.04-.18-.4-.65.14-1.33.5-2,.99-.65.51-1.31,1.14-1.96,1.79-.32.32-.64.64-.96.96-.3.33-.6.65-.9.95-.59.6-1.17,1.1-1.75,1.41,1.77-.45,1.66-1.42,3-2.61,2.26-1.28.97.92-1.78,2.96l-.1-.2c-.45.65-.87,1.33-1.26,2.02-.73-.35-2.45.97-3.2.68-3.35,3.96-5.52,7.76-7.46,11.68-1.93,3.93-3.61,7.96-5.45,12.91-.11-.32-.33-.04-.55.55-.22.59-.48,1.48-.74,2.33-.28.85-.52,1.67-.74,2.14-.23.46-.47.56-.71-.06-.46,3.23-.09,3.01.41,2.41.51-.61,1.17-1.6,1.36-.08-.43,1.71-.26,3.61-.88,3.83-.22-.88-1.13,1.29-1.03-.16-.23,1.41-.27,2.85-.4,4.27-.16.4-.27-.56-.31-1.05,0,4.41-.27,8.29-.13,12.14,0,1.92.24,3.82.49,5.73.39,1.89.78,3.81,1.62,5.67.34.21.15-.56-.04-1.34-.19-.78-.29-1.57.02-1.35.72,1.88,1.28,3.22,1.56,4.33.33,1.1.54,1.95.7,2.8.17.85.32,1.7.71,2.7.19.51.42,1.06.73,1.69.33.62.73,1.3,1.23,2.08l-1.35-1.04c.77.97,1.4,1.6,2.05,2.44.32.42.63.9.96,1.5.34.59.7,1.31,1.09,2.22-.38,1.07-2.39-2.45-3.63-3.97.32.6.79,1.43,1.31,2.29.54.84,1.14,1.71,1.68,2.44,1.13,1.42,2.02,2.24,1.76,1.16,1.02,1.26,1.61,2.18,2,3.03.2.43.38.81.56,1.19l.13.28.07.14.04.07s0,0-.01.01c-.04.03-.06.04-.08.07.05-.03.08-.09.14-.12l.04-.03s.02,0,.01-.03l-.05-.1c-.06-.14-.12-.28-.17-.4-.2-.51-.23-.86.52-.26.07.11.15.23.23.35l-.02.04v.12c0,.08.01.15.03.21.02.13.07.24.12.34.11.2.28.36.4.49-.33-.02-.83-.05-1.01-.07.96.12.75.18.22.11-.5-.05-1.33-.21-1.09-.16Z"/><path class="cls-1" d="m96.94,268.55c-.54-.46-1.05-.97-1.57-1.45-.12.14-.36.27-1.24-.24.92.6,1.86,1.16,2.81,1.69Z"/><path class="cls-1" d="m68.85,219.28c-.22.13-.44.25-.63.4.46-.15.59-.28.63-.4Z"/><path class="cls-1" d="m43.97,220.08c1.81.3.3-.33-.46-.82-.09.15-.13.38.46.82Z"/><path class="cls-1" d="m148.65,279.28c-.35.12-.56.26-.48.44.47-.21.56-.34.48-.44Z"/><path class="cls-1" d="m258.94,231.63c-.18.09-.35.17-.59.27.13-.02.34-.11.59-.27Z"/><path class="cls-1" d="m250.84,234.95c-.38.18-.87.4-1.55.79.72-.25,1.2-.51,1.55-.79Z"/><path class="cls-1" d="m114.04,275.32c-.51-.15-.99-.23-1.5-.23.8.27,1.19.26,1.5.23Z"/><path class="cls-1" d="m247.71,236.58l-2.07.59c0,.06,0,.11.01.17l2.06-.77Z"/><path class="cls-1" d="m261.17,229.93c-.69.53-1.6,1.28-2.23,1.7,1-.51,1.69-1.07,2.23-1.7Z"/><path class="cls-1" d="m194.92,255.88c-.04.05-.09.1-.14.16-.86,1.35-.27.56.14-.16Z"/><path class="cls-1" d="m238.63,240.19c-.09,0-.2,0-.3,0l-.64.3.94-.29Z"/><path class="cls-1" d="m267.82,222.98c-.23.36-.4.71-.52,1.01.25-.25.49-.58.81-.98-.16.04-.24.02-.3-.02Z"/><path class="cls-1" d="m210.93,235.82c-.08-.59-.16-.95-.25-1.13-.13.35-.13.7.25,1.13Z"/></g></svg>