<?xml version="1.0" encoding="UTF-8"?><svg id="Layer_2" xmlns="http://www.w3.org/2000/svg" viewBox="0 0 288 288"><defs><style>.cls-1{fill:#fff;}</style></defs><path class="cls-1" d="m243.95,87.46c-9.99-7.03-22.11-10.65-34.15-10.11,2.49-3.48,5.02-6.94,6.78-10.88,2.69-6.02,3.29-12.62,2.13-19.11-2.33-13.01-11.62-23.81-23.66-28.59-25.66-10.18-50,4.9-66.37,24.4-6.24-19.17-26.41-31.3-46.88-26.5-13.15,3.09-25.1,11.9-33.63,22.3-8.83,10.76-12.95,23.43-10.85,37.38,2.09,13.84,9.25,26.35,17.07,37.85-15.91,3.42-29.03,16.41-33.93,32.23-6.44,20.8,1.92,43.35,15.83,58.93.63.7,1.32,1.14,2.02,1.36,8.34,8.25,19.61,12.29,31.47,12.55,14.37.31,28-5.09,40.99-10.97,3.01,14.18,6.78,28.57,14.53,40.85,9.1,14.44,23.25,23.41,39.99,25.71,17.35,2.38,35.72-1.17,52.37-6.16,7.61-2.28,14.55-5.89,19.29-12.53,2.05-2.87,3.58-6.1,4.62-9.5.74-1.01,1.08-2.33.92-3.65.54-2.72.79-5.49.75-8.23-.18-12.13-5.85-22.47-13.86-30.8,5.84-.5,11.61-2.29,16.86-5.23,12.45-6.95,20.35-20.09,23.7-33.79,6.81-27.84-2.14-60.75-25.98-77.52Z"/><g><path class="cls-1" d="m246.39,193.22c0-.12-.02-.26-.09-.41-.02.21.02.33.09.41Z"/><path class="cls-1" d="m233.06,248.74l.12-.68c-.16.41-.17.58-.12.68Z"/><path class="cls-1" d="m267.38,159.69c.02.06.04.07.07.11.18-.63.28-1.5.51-2.91-.2.93-.32,1.88-.58,2.8Z"/><path class="cls-1" d="m124.61,222.62l.27.87c-.11-.4-.15-.66-.27-.87Z"/><path class="cls-1" d="m182.5,267.33c-.26.18-.7.27-1.14.35.55,0,1-.07,1.14-.35Z"/><path class="cls-1" d="m276.48,136.63c-.14.46-.25.92-.42,1.37.25-.05.47-.54.42-1.37Z"/><path class="cls-1" d="m256.24,95.1c0,.06-.03.09-.02.18.09.02.07-.07.02-.18Z"/><path class="cls-1" d="m264.28,111.1c.21.31.54.64.79,1.01-.22-.49-.57-1.07-.79-1.01Z"/><path class="cls-1" d="m265.44,112.6c-.12-.16-.25-.32-.37-.49.15.3.28.54.37.49Z"/><path class="cls-1" d="m234.62,90.17c.96.57,2.02.64,3.07.88-1.01-.35-2.06-.61-3.07-.88Z"/><path class="cls-1" d="m28.77,164.98l.24.21c-.09-.21-.17-.24-.24-.21Z"/><path class="cls-1" d="m238.29,86.52l.7.53c-.23-.24-.46-.4-.7-.53Z"/><path class="cls-1" d="m277.14,161.87c.27,1.48-.97,4.16-.44,4.25.22-1.47,1.06-3.46.44-4.25Z"/><path class="cls-1" d="m15.17,131.68l.49-.92c-.25.43-.4.7-.49.92Z"/><path class="cls-1" d="m238.29,86.52l-.82-.61c.02.13.08.26.13.4.23.04.47.11.69.22Z"/><path class="cls-1" d="m54.84,47.65s-.01.02-.02.03c-.02.09-.04.16-.06.26l.08-.29Z"/><path class="cls-1" d="m59.74,43.21c-.27.38-.53.75-.81,1.17.55-.51.74-.87.81-1.17Z"/><path class="cls-1" d="m237.69,91.05c.59.18,1.18.37,1.75.6-.57-.32-1.16-.47-1.75-.6Z"/><path class="cls-1" d="m117.11,43.22l-.17-.4c-.06-.11-.13-.2-.2-.3-.14-.19-.27-.38-.4-.56.32.54.6.88.77,1.25Z"/><path class="cls-1" d="m188.04,267.17c.18.03.43.03.65.04.05-.14,0-.22-.65-.04Z"/><path class="cls-1" d="m129.6,265.53l-.02-.02h0s.03.02.03.02Z"/><path class="cls-1" d="m132.67,267.33c-.74-.8-2.19-1.5-3.07-1.8.78.78,1.67,1.36,3.07,1.8Z"/><path class="cls-1" d="m124.66,259.86c.07.12.13.22.21.36-.07-.14-.13-.25-.21-.36Z"/><path class="cls-1" d="m187.33,283.06s0-.04,0-.06c-.02.02-.03.03-.03.06h.04Z"/><path class="cls-1" d="m173.97,283.62c-.24-.12-.56-.21-.92-.28.22.12.53.22.92.28Z"/><path class="cls-1" d="m107.84,230.75s.02,0,.03,0c-.01-.03-.02-.04-.03-.06,0,.02,0,.04,0,.06Z"/><path class="cls-1" d="m15.82,198.14c.84,1.45,1.83,2.89,2.8,4.38,1.05,1.44,2.1,2.93,3.25,4.38,1.19,1.42,2.34,2.91,3.65,4.28.64.7,1.28,1.4,1.93,2.1,1.62,1.78,4.15,3.73,7.38,4.68l-4.78-2.87c3.25,3,6.86,5.58,10.53,7.66,3.66,2.09,7.38,3.68,10.87,4.91,3.34-.09,7.66.91,12.1,1.16l.3,1.58c1.27-.04,2.52-.08,3.77-.2,1.5.55-2.89.13-.23.86l1.45-.89c.14.31,2.52.4,4.1.54,1.56.07,2.36.3-.78.95,4.9-.07,9.68-.69,14.24-1.65,3.04-.61,1.47-1.62,4.81-2.07.77.26-1.09.6-.69,1.06,5.04-.73,7.5-2.42,9.78-4.06,1.61-1.01,1.03-1.24,1.35-1.65.19-.36.56-.65.9-.61l-.16.29c.31-.57.85-.74.95-1.03.25-.93.02-.61-.2-.21-.25.42-.45.9-.62.48.28-1.51.97-1.17,1.31-2.37.37.28.94-.52,1.58-1.01.05,0,.07.08.1.14-.17,1.09-.09,1.73-.03,2.39.06.64.1,1.28-.26,1.91.23.07.66.06,1.1.24.22.09.44.22.63.42.14,0,.47.85.68,1.56-.36,2.46-1.1-.25-.58,2.83l.87.26c.64,2.46.34,2.15-.04,2.17.4,1.31.83,1.77,1.24,2.33.41.56.77,1.21,1.15,2.92-.45-.52-.92-1.04-1.35-1.57,1.15,2.32,1.37,3.35,2.71,6.72-.44.1-.98-1.26-1.25-2.3-.32,2.26,1.75,2.93,2.06,3.95.18-.42-.68-2.77.49-1.94.57,1.7,2.49,3.02,2.24,4.56-.51-.48-1-.97-1.5-1.45,1.05,1.58,1.51,1.91,1.88,2.36.38.45.65,1.02,1.58,2.97-.16-.18-.27.01-.46,0,1.07.97,1.91,2.3,2.75,3.86.44.78.9,1.6,1.37,2.45.48.85,1.06,1.69,1.66,2.54l-.64-.51c1.2,1.21,2.32,1.49,2.86,2.21-1.18-2.08-.57-1.73-.14-2.34.48,1.57,1.51,2.27,2.76,3.03,1.28.75,2.7,1.61,4.26,3.56-.35.26-1.59-.19-2.25-1.47-1.04-.17-1.8-.12-2.62-.26-.83-.14-1.72-.47-2.95-1.5,1.45,1.35,3.23,2.86,2.48,2.89l1.28-.37c.81.85,1.47,1.51,2.11,2.14.87-.21-.84-2.51,1.43-1.02,2.47,1.73.39,1.97,1.08,1.89,1.73,1.19,2.27,1.2,2.73,1.27.46.08.81.25,2.29,1.58-.39-.14-1.11-.46-1.32-.75.97,1.09,2.49,1.99,3.69,2.89,1.25.84,2.23,1.64,2.25,2.48-.53.06-.82.39-1.71-.29l.15-.16c-3.31-.78,2.45,1.15.95,1.74.19-.78,3.73,1.36,5.4,2.2l-.17-1.05c1.66.06,2.42.11,2.73.27.31.16.16.41-.01.73-.35.62-.84,1.56,2.13,2.47,3.9.68-1.32-.7,1.15-.52.61.24,1.11.49,1.58.74.48.23.92.44,1.4.67.97.45,2.12.87,4.04,1.07.96.6,3.05,1.4,3.09,2.4,1.23.03,2.94.33,4.56.55,1.61.21,3.11.26,3.79-.16-1.92-.57-2.9-.35-3.98-.29-1.09.05-2.22.15-4.47-.9l1.44-.73c3.14.49,7.14.35,9.26.73-.43-.2-.61-.46-.33-.65,4.41-.2,5.62-1.22,9.81-1.09.6.86-1.87.81-3.67.94,2.75.61,2.86,0,7.07-.03.29.76-2.84.14-3.28.93,1.56-.19,3.12-.35,4.66-.59-.01.05,0,.1.01.16.55-1.33,3.55-.23,6.32-1.02,6.63-1.01,7.29-2.98,10.61-4.72,1.02.13,1.38.39,1.05.79-1.7-.21-1.32.16-1.8.61,2.14-.59,5.02.15,3.93.94,3.36-1.19-1.39-.36.62-1.25,1.58-.34,3.14-.72,4.7-1.09-.72-.49-2.39-.21-.11-1.31,1.96-.73,2.97-.85,5.6-1.58-.29.42,1.11.71-.87,1.25.67-.07,1.5-.23,2.24-.5.79-.29,1.48-.66,1.79-1.11-1.62.22-.41-.32.87-.96,1.28-.66,2.59-1.47,1.3-1.49,1.06-.2,2.13-.44,3.2-.71-.68.29-.58.73-1.64,1.04,1.25.56,2.35-1.35,3.31-1.96,1.13-.32,3.8-1.87,4.22-1.72.75-.81,2.99-2.24,3.69-2.23,1.12-1.23-.33-.58-.18-1.13,1.38-1.2,2.7-2.5,3.88-3.92.61.13,2.12.68,1.72,1.51.51-1.03.28-1.45.22-1.91-.07-.47.01-.98.9-2.3-.06,1.06.7.29,1.4-.43.69-.71,1.35-1.37,1.22.15.77-.59,1.77-2,2.58-3.67.82-1.66,1.44-3.56,1.77-5.03l-1.31,2.6c.28-.41.49-.76.68-1.11.3-.89.22-1.08,0-.86-.22.22-.63.85-1.23,1.57l1.21-2.4c-.42.93-1.03,2.31-1.45,2.04.28-.85.47-1.62.6-2.3l-1.08,2.13c1.16-1.77,1.59-3.46,1.71-4.9.12-1.45-.07-2.67-.37-3.71l-.07,1.95c-.26-2.42-.74-3.97-.34-7.2l-.32,1.42c-.13-1.74-.24-2.49-.36-3.08-.12-.58-.3-.98-.71-1.95.53.44,1.3-.53,1.65-2.42.42-1.88.36-4.67-.5-7.48-.33-.17-.35.68-.47,1.48-.13.8-.32,1.53-.83,1.17-.29-1.21-.69-2.39-1.07-3.57,0-.28.3.05.56.48-1.26-3.07-.83-6.4-2.39-6.78.02-.63-.02-1.24-.04-1.88v-.24c-.02-.09-.01-.16.01-.17.04-.06.07-.16.1-.24l.18-.49c-.12.24-.2.56-.34.79-.51.11-1.7-1.64-2.17-1.97-.9-.86-1.4-1.52-1.61-1.99-.2-.49-.15-.81-.01-1.13-.43.1-1.08.73-2.51-.8.94.21.95-.1.7-.53-.13-.21-.34-.45-.54-.68l-.14-.17-.07-.08s.07,0,.1-.02c.16,0,.32-.01.47-.01.38,0,.71.03,1.01.16.63-.09,2.4.05,1.55-.42l1.27.69c-1.85-.93.73-1.43,2.33-2.38.55.87.97.67,1.5.38.27-.15.57-.33.9-.39.09-.02.15-.01.27-.03.15-.03.3-.05.44-.06.29-.01.58.03.86.15-.03-.76,1.24-1.62,2.48-2.52,1.27-.86,2.41-1.87,2.32-2.5,2.04-1.6,2.62-.47,3.45-.54.22-.39.42-.79.61-1.2.71-.2,2.06-1.1,3.41-2.29.7-.57,1.4-1.22,2.06-1.86.67-.62,1.31-1.23,1.85-1.75.25-.99.52-1.94.69-2.93l1.04-.5c.02-.53,1.09-2.51-.05-1.6l.84-1.18c-.54-.41-.34-.88.11-1.6.41-.73,1.13-1.7,1.53-3.1.49-.48.7-.18.57.46.67-1.27,1-.4,1.77-.91-.39.38-.32-1.05-.53-2.17-.19-1.11-.58-1.88-1.63-.31-.62-.02-.03-2.12.67-3.28l1.43-.31c-.19-.66-.38-1.32-.61-1.98.56-2.03,1.54-2.66,2.18-4.27-.45,1.67,1.05,4.54,2.38,0-.53,2.42-.28,3.79-.49,5.11.38-.92.66-1.35.62.28.47-1.84.36-2.2.3-2.54-.07-.34-.08-.67.36-2.46.49.25.89.14,1.32-.41.42-.55.91-1.56,1.4-3.1-.43.73-.83,1.46-1.32,2.18-.1-.14-.15-.33-.16-.52-.35.86-.58,1.07-1.03,1.15.08-.35.09-1.47.03-2.54-.04-1.07,0-2.1.38-2.33-1.19,1.6-1.19-.02-1.08-1.74.03-.43.06-.87.08-1.27,0-.4-.01-.77-.04-1.05-.06-.55-.2-.76-.53-.24-.26-.45,0-2.86.58-3.05.41,3.03,1.55-2.06,2.18-1.53-.12-.57-.35,0-.62.51-.28.51-.57.97-.68.21.1-1.76.81-3,1.23-3.98l.15.76.67-2.74c-.51-.46-1.09,2.62-1.21.09.26-.66-.05-3.19.39-3.11.75,1.21,1.73.33,1.92,2.54-.04-.92-.09-2.83-.26-4.21-.15-1.39-.52-2.22-.96-1.05-.01-.72-.06-1.43-.1-2.15-.33,1.39-1.07,5.12-1.37.88l.22.03-1.02-2.89.47-1.33c-.27.06-.54-.38-.68-1.45.29-.32.27-1.36.72-1.33-.48-3.16-.99-2.81-1.36-3.16-.42-1.71-.34-2.41.46-1.72-.18-1.21-.49-2.86-.8-4.41-.37-1.54-.66-3-.61-3.89-1.35-3.02-.04.71-1.26-.92.26-.82.15-1.87-.11-3.1-.14-.61-.32-1.26-.54-1.93-.12-.33-.23-.68-.35-1.03-.14-.34-.3-.68-.47-1.03-.65-1.38-1.4-2.81-2.13-4.18-.83-1.33-1.65-2.61-2.33-3.77-.78,2.1-.8-1.24-2.68-1.25,1.07.72-1.63-4.96,1.28-1.24l-1.69-2.34c-.31-2.19,3.15,3.68,2.59.48-1.78-2.83-4.6-3.43-6.45-6.83,1.76.21-2.28-1.97-.67-2.09.84.34,1.53,1.19,2.26,2.03l-.24-.69c-4.64-5.68-2.45-.67-5.55-2.9-3.27-2.85-1.88-3.02-1.69-3.6-.18-.32-.71-.83-1.32-1.32-.63-.48-1.4-.89-1.95-1.13.65.28,1.19.64,1.61,1.04.4.42.67.87.83,1.26.31.79.12,1.36-.57,1.22-.13-.57-.48-1.15-.97-1.67-.52-.49-1.17-.94-1.84-1.33-1.34-.78-2.72-1.29-3.34-1.43,2.02,2.45,2.81,3.09,3.59,3.73.78.62,1.43,1.38,2.98,3.83.83.24,1.69-.78,3.61,2.13-1.87-1.19-.39.56-.14,1.13.04-.47.49-.08,1.04.5.27.29.58.63.87.94.26.32.52.61.73.77.12,1.09-2.45-.59-.63,2.26l1.68-.47c.61,1.22-1.29.26.72,2.29-1.6-.72-.81,1.11-3.28-1.72.4,1.1.89,1.95,1.44,2.66.56.71,1.08,1.34,1.7,1.88,1.19,1.11,2.66,1.96,3.7,3.4-.26-.27-.47-.2-.73-.46.72.45,1.35,1.68,1.92,2.55.76,2.22-1.51-1.29-1.62-.54l.89,1.63c.31.54.59,1.09.83,1.66-.02.09-.04.12-.07.13.59.8,1.1,1.6.87,2.07-.92-.8-1.58-.97-2.26-1.46l2.58,3.07c-.61-.2.27,3.29-1.04.89.72,1.73,1.41,3.49,2.11,5.24l-.92.78c.54,1.23.76,1.21.46-.38.14.96,1.16,2.87,1.88,4.53.61,1.68.88,3.07-.27,2.78.44,1.03.77,1.91,1.04,2.74.21.83.38,1.6.53,2.4.15.8.31,1.63.49,2.59.16.96.29,2.06.53,3.4-1.28-4.03-.96,4.76-1.72.46-.27,2.53.8,3.01,1.02,5.03-.46,1.88-1.54,1-1.94-.98l.5,2.34-.22-.05c.23.68.37,1.37.53,2.06-.73,2.13-1.13.39-1.42,2.59l.93.57c-.21.49-.44.97-.71,1.44.52-.51.53.81.39,2.44l-.21-.06-.08,1.98c-.16-1.01-.27-.57-.41-.01-.16.56-.4,1.23-.64.74-.39,1.62-.37,1.66-.83,4.64.26-.11.52-.23.76-.36-.44,3.96-.97-.07-1.87,2.94l.79.03c-1.28,2-1.72,3.85-2.19,5.59-.21.88-.43,1.71-.75,2.5-.29.79-.69,1.53-1.26,2.18.72-1.79-.32-1.74-.12-1.61-.26.67-.6,1.42-.97,2.22-.41.78-.84,1.62-1.27,2.46-.91,1.65-1.83,3.31-2.37,4.77-1.56.15-1.92.2-4.24,2.04-1.43,1.55-1.56,1.85-1.66,2.78-.46.27-.95.66-1.45,1.08-.52.39-1.04.83-1.53,1.21-.98.75-1.84,1.25-2.09.95-.03.84-1.61.84-2.3,1.9l-.37-.17.52.58c-.51.03-.96.12-1.39.23-.23.06-.39.11-.64.21-.29.11-.58.23-.85.35-1.11.49-2.15,1-3.17,1.48-1.06.45-2.12.84-3.42,1.11-1.28.28-2.77.44-4.88.4l.83-.35-2.28.68c-.95-.21-.15-.55-.64-.93-3.07.42-6.23.78-9.15,1.04v.46s-.01.07.02.12l.16.18.33.36,1.31,1.44c-.18-.48-.35-.93-.49-1.37,1.87,1.89,4.29,3.41,5.35,5.36-2.55-2-1.94-1.3-.73.04,1.21,1.32,2.87,3.2,2.53,3.48l-2.25-2.14c2.61,2.91,2.58,2.89,3.43,2.7,1.62,1.77,1.72,2.4,1.8,3.04.05.32.12.63.4,1.07.25.44.81,1,1.52,1.82-.45-.83-1.12-1.63-1.68-2.44-.01-.39.49-.17,1.1.32.62.49,1.37,1.24,1.79,2.02.1.4.47,1.65-.37.46.51.69,1.06,1.49,1.47,2.33.28.55.57,1.11.78,1.66.48,1.08.81,2.06,1.12,2.44.17,1.16-.47.97-.87.48,1.05,1.98,1.12,2.49,1.21,2.98.1.5.21.97.94,3.1h-.44s.74,1.43.74,1.43c-.24.76-.45,1.51-.72,2.23.18-.27.34-.54.5-.81.17,1.43.55,2.35.24,4.04l-.62-.69c.17,3.02-.75,4.06-1.11,5.92l-.34,1.81,1.32.11s.13-.03.45.1c.09.04-.11-.05-.19-.07.17.05.36.15.46.23l-2.32.89c-.24.89-.68,1.21-1.04,1.66-.38.46-.66,1.05-.81,2.51-.1-.28-.5-.07-.61-.27-.1.51-.21,1.01-.34,1.52l-.7-.53c.17.55.34,1.12.47,1.69-.42.1-.84.19-1.25.27v.7c-1.12.12-1.73.74-2.44,1.4-.68.66-1.47,1.37-2.65,1.51l.97.64c-1.35,2.59-4.54,4.06-8.08,4.87-1.78.43-3.61.69-5.74,1.15-2.05.43-4.06.96-5.98,1.72l-.07-.87c-1,.62-2.01,1.2-3.03,1.8-1.91-.25.89-.97.23-1.28-3.38,1.28-1.16,1.6-5.2,2.72-2.21-.17.6-.75,1.52-1.28-3.71,1.26-9.32,2.66-12.09,2.46-.05.12-.2.3-.05.33-2.52.7-5.93.6-8.71.73.06-.4.74-.49,1.43-.59-1-.02-2.37-.24-3.22.18l1.03-.78c-1.06-.01-2.59.07-3.93.13-1.33,0-2.45-.1-2.66-.55.24.34.09,1.01-1.71.83-.87-1.35-4.98.1-7.57-1.14.38-.21,2.39.01,1.83-.08-1.31-.54-2.61-.23-3.92-.08l.49-.44c-1.08-.1-2.12-.32-3.2-.46-1.05-.24-2.12-.42-3.16-.7-.2-.81-1.63-1.26-2.86-1.77-1.26-.44-2.34-.9-1.92-1.22-1.98-1.1,1.42,1.41-1.2.2-.42-.81-2.39-1.11-1.85-1.76l.31.07c-.59-.31-1.16-.65-1.72-1.02.51,0,.99.02,1.5-.02-1.5-.77-3.03-.79-3.48-.34-.51-.71-1.31-1.3-1.95-1.92-.63-.63-1.16-1.2-1.18-1.73l.6.24c-.95-.65-1.58-1.52-2.17-2.3-.56-.82-.97-1.68-1.41-2.46-.4-.82-.78-1.58-1.29-2.25-.48-.7-1.06-1.31-1.89-1.81-.06-.28.13-.38.46.07-.54-.75-1.01-1.57-1.53-2.34l.91.2c-.57-.52-1.12-1.11-1.66-1.72-.56-.59-1.09-1.21-1.62-1.84l.41-.15c-.71-1.44-1.63-3.28-2.59-5.22-.93-1.99-1.91-4.12-2.69-6.12l.41.53c-1.12-2.07-1.38-3.2-1.56-4.17-.18-.98-.29-1.8-1.01-3.41.14.09.22.19.28.3-.31-1-.6-2.01-.88-3.03l.59.56c-.1-.13-.18-.26-.26-.41l-.11-.22c-.05-.16-.11-.32-.17-.48-.2-.63-.36-1.3-.5-1.98-.28-1.37-.48-2.79-.62-4.03-.24-2.51-.27-4.21-.3-2.51-.97-2.35-2.31-6.31-2.9-6.47-1.43-6.36.1-2.16-.5-6.67-.32-1.56-.61-2.62-.9-3.51-2.21,1.19-3.95,2.26-7.93,3.74l.29-.6c-2.91,1.38-4.77,2.58-8.69,4.34l1.18-.74c-3.22,1.93-5.19,2.32-7.11,2.9-.48.15-.95.29-1.43.43-.18.06-.35.12-.53.18-.12.05-.24.1-.35.16-.47.25-.93.66-1.43,1.33-1.51.17-4.05,1.23-4.17.36-3.91,1.74-7.02,2.7-10.99,3.57-.41-.66-.61-.63-1.03-.49-.42.12-1.07.42-2.28.05l.22.75c-2.81.23-5.81-.3-8.69-1.12-2.9-.79-5.61-1.92-8.29-2.76l.13-.77-1.34.35c-1.74-.87-3.54-1.95-5.16-3.15-1.62-1.2-3.05-2.52-4.2-3.72l-6.8,4.35c.03-.09.12-.33.36-.65.12-.16.27-.34.45-.53l.3-.29c1.4-1.26,2.8-2.51,4.19-3.75l-.08-.1c-.44-.54-.85-1.04-1.23-1.52-.8-.92-1.41-1.8-1.99-2.56-.36-.29-.76-.61-1.2-.96-.42-.37-.87-.78-1.32-1.23-.94-.88-1.78-2-2.4-3.29l.25.2c-2.88-4-5.45-8.73-6.44-13.95.39.23.48-.34.82.17-1.09-.97-.88-2.94-1-4.01-.1.46-.23.93-.3,1.4-.53-.64-.68-1.54-.69-2.36,0-.41.04-.81.11-1.15.09-.34.21-.63.32-.83l-1.11-2.19c.05-.16.17-.4.29-.44l-.42-.37.94-1.27c-.31-.56-.49-3.5-1.44-4.52.36-.21.83-2.28.85-.64l.27-2.03c.07-.68.28-1.33.4-1.99.16-.66.23-1.33.46-1.97l.59-1.93-.67,1.13c-.78-.01-.65-2.6.17-3.69.03,1.79.99.47,1.73.03-.03-1.17-.94.66-1.15-.02-.05-.76.25-1.83.55-2.81.33-.97.81-1.79,1.11-2.06l-.1.9c.15-.46.36-.82.6-1.12.26-.29.56-.52.86-.75.6-.45,1.17-.89,1.68-1.66.38-1.75,1.63-2.38.36-2.89,1.29-2.14,1.26-.22,1.86-.74.14-.61.8-1.56,1.61-2.22.81-.66,1.64-1.17,2.04-1.05-.18-1.13,1.15-2.13,2.48-2.86.64-.41,1.32-.68,1.77-1.02.46-.32.71-.69.6-1.08l1.07-.1.53-.05s.18-.06.28-.1l.35-.14.59-.17c-.04-.2-.03-.66.46-1.19.5-.52,1.4-1.17,3.06-1.91,1.77-.47,2.87-.38,3.53-.27.68.12,1.03.33,1.86.33.37-.64.67-1.26.9-1.88,1.9-.38,3.86-.78,5.86-1.18,1.94-.41,3.92-.82,5.95-1.25-.17-.4-.32-.79-.51-1.21-.29-.47-.59-.95-.89-1.43-.61-.97-1.23-1.95-1.85-2.94-1.3-2.03-2.62-4.09-3.96-6.17-1.36-2.1-2.74-4.22-4.06-6.37-.65-1.08-1.3-2.16-1.95-3.24-.32-.55-.64-1.09-.93-1.65l-.59-1.08c-2.34-4.42-4.22-8.93-5-13.16-1.76-4.16-3.69-9.59-3.36-14.42l.22.54c.04-.8.2-1.59.29-2.38.17-.78.27-1.56.47-2.32-.39,1.09-.76,2.21-1.03,3.38-.17-1.06-.37-1.91-.26-2.93.64-2.62,1.73-5.51,3.1-8.44,1.34-2.95,3.08-5.91,4.77-8.93.6-2.34,1.46-2.7,2.32-2.97.85-.28,1.71-.46,2.76-2.54-.14.4-.06.67-.15,1.05,1.43-1.94,2.6-3.42,3.81-4.86,1.21-1.45,2.42-2.91,4.09-4.76.31.91.93.44,1.52-.11.6-.53,1.15-1.17,1.23-.64l-.07-.85c.57-.1,1.42-.41,2.11-.63.69-.22,1.24-.29,1.21.02.45-.59.91-1.22,1.4-1.78l.5.61c1.21-.6,3.1-1.53,4.92-2.14,1.82-.55,3.58-.79,4.35-.13,2.71-1.24,6.62-1.75,10.59-1.1,3.98.64,7.93,2.42,10.95,4.59.31,0,.66.09,1.04.21.36.15.74.37,1.13.61.39.24.79.5,1.18.77.37.29.71.61,1.04.89.23.66.53,1.24.68,1.92.33.27.72.52,1.12.75.43.29.7.21,1.52,1.34.68.86,1.33,1.71,1.92,2.59.29.44.57.89.84,1.35.13.24.27.44.37.73.09.31.19.62.28.93-.08.07-.2-.04-.36-.31,1.04,2.39,1.96,4.87,2.91,7.26.95,2.44,1.94,4.76,3.02,6.37.76,2.05,1.45,4.11,2,5.97.34-.22.65-.4.91-.52.25-.09.51-.31.67-.33.33-.09.38.2,0,1.02.34-1.54,2.09-3.45,3.86-5.09,1.73-1.61,3.64-3.11,3.64-3.11,0,0,.48-.53,1.39-1.54.92-.99,2.26-2.58,4.04-4.41,1.78-1.78,3.95-4.04,6.53-6.57.32-.3.64-.6,1.1-.97.21-.17.42-.34.64-.52.33-.26.66-.54,1.01-.82.35-.28.7-.57,1.07-.87.38-.27.77-.55,1.17-.83,3.14-2.36,7.07-4.82,11.56-6.77,4.49-1.93,9.52-3.39,14.71-3.42.65,0,1.3.02,1.95.03.33.01.66-.03.98.02l.98.13c.66.07,1.32.15,1.98.22.66.09,1.32.3,1.98.44.66.17,1.34.24,2,.47.66.23,1.33.46,2,.69.68.22,1.37.43,1.93.7.6.24,1.18.53,1.77.83,2.34,1.18,4.52,2.78,6.43,4.64.98.91,1.83,1.95,2.67,2.98.78,1.08,1.55,2.17,2.16,3.33,1.26,2.31,2.2,4.75,2.7,7.26.52,2.53.63,5.01.37,7.32-.06.58-.16,1.14-.26,1.71l-.09.42-.04.21-.02.1v.05s-.05.13-.05.13l-.35,1.03c-.13.35-.2.66-.42,1.09-1.41,3.2-3.73,6.36-5.86,9.56-4.29,6.38-8.26,12.16-11.48,17.17,7.11-.36,13.92-.71,20.35-1.03,1.54-.07,3.06-.14,4.56-.21,1.36.02,2.69.04,4,.06.67-.02,1.23.09,1.83.15.58.07,1.16.13,1.74.2.57.07,1.14.11,1.68.22.27.05.54.09.81.15l.38.08.19.02c4.09.51,7.59,1.36,10.43,1.95.6-.1,1.56.09,2.32.14.75.07,1.3.01,1.07-.65,2.03.89,2.07,2.6,2.85,2.2-1.08-1.02-.63-1.31-.12-1.62.5-.31,1.06-.65.05-1.89l1.72.94c.63-.22-2.54-.99-1.62-1.52l-1.22.9c-1.21-1.01-1.82-1.66-2.08-2.36-.78-.14-1.61.15-2.56.15-.47,0-.99-.05-1.55-.23-.57-.18-1.18-.52-1.91-1.02l.91.28c-2.62-1.02-1.26-1.5-1.73-1.93.2.07.39.16.59.25-.66-.53-1.35-1-2.04-1.51,1.58,1.03,4.84,1.2,3.32.65-3.1-1.69.72.64-1.78-.16-1.54-.48-.87-1.04-.65-1.42-.93-.34-1.89-.58-2.83-.88.28-.59,1.87.63.91-.38-.63-.09-1.27-.15-1.9-.2-.65-.06-1.36-.14-2.07-.16-.05-.85-1.1-.93-2.46-.93-1.3-.05-3.02.04-3.15-.84,1.58,0,1.59-.13,1.38-.31-.22-.18-.67-.42-.24-.61-2.09-.23-4.21-.37-6.35-.35-.26-.2,2.3-.38,1.26-.33-.5-.41-2.44.33-3.09.33.01-.03-.02-.06-.11-.08-.04-.01-.09-.02-.15-.03h-.09s.1-.14.1-.14c.13-.16.28-.35.44-.54.3-.38.64-.81.95-1.21.66-.81,1.34-1.54,1.99-1.74,1.59-1.76,1.3-1.93,1.07-2.15-.26-.2-.47-.43.83-2.19,1.01-.5-1.3,2.55.34.98.52-1.05,1.02-2.15,1.43-3.32.19.35.85.71.11,1.86.67-1.05,1.27-2.04,1.79-2.95.13-.21.26-.47.39-.72.13-.25.26-.45.41-.81.3-.65.57-1.29.84-1.93,1.03-2.56,1.81-5.06,2.27-7.61.48-2.55.63-5.13.38-7.82-.3-2.68-.99-5.5-2.35-8.36.01-.97.26-.73.63-.11.34.63.77,1.65,1.23,2.18-2.02-4.25-3.18-7.25-4.39-10.22-1.25-2.91-2.58-5.77-5.52-8.65l-.56.36c-.8-1.19-1.79-2.28-2.81-3.38-1.07-1.04-2.2-2.1-3.46-3.02-2.49-1.88-5.3-3.54-8.35-4.8-5.9-2.4-12.33-3.81-18.75-4.49.51.16,1.01.3,1.5.52-.89.21-2.04.43-3.21.54-1.17.14-2.39.17-3.4.41-.34-.3,1.43-1.53-2.23-.92.78.16,2.33.26,1.9.62-1.35-.09-2.91-.12-4.62-.09-1.68.15-3.52.39-5.48.68-1.89.45-3.95.89-5.99,1.54-1.01.36-2.04.72-3.09,1.09-.52.19-1.06.37-1.57.59-.51.23-1.02.46-1.53.69-1.03.47-2.07.94-3.11,1.42-1,.54-2.01,1.09-3.02,1.64-2.06,1.06-3.93,2.37-5.89,3.58-.96.62-1.85,1.31-2.78,1.95-.9.67-1.86,1.28-2.7,1.98-.86.68-1.72,1.35-2.56,2.02.01-.02.03-.04.05-.06.01-.01-.03,0-.04.01l-.1.04-.19.08c-.21.27-.44.55-.68.82l-.35.4-.17.19s-.06.1-.08.05l-.05-.13c-.09-.3-.22-.6-.34-.9-.14-.3-.23-.52-.48-.9l-.16-.26-1.16-1.35-1.27-1.45-.64-.72-.69-.67c-.93-.89-1.85-1.79-2.81-2.65l-3.01-2.4c-4.14-3.04-8.72-5.44-13.52-7.1-4.79-1.71-9.85-2.44-14.76-2.53,1.94-.02,2.46.48,2.15.79-.31.29-1.44.59-2.86.39-.97-.34-1.93-.64-2.87-.75-.94-.11-1.85-.14-2.75-.12-1.81-.02-3.49.46-5.17.87-3.33.89-6.32,2.13-10.24,2.69-6.28,3.03-11.95,6.01-17.05,9.63-2.55,1.79-4.93,3.76-7.09,5.94-2.16,2.17-4.09,4.58-5.66,7.26l-.74-.31c-.73.58-1.08,1.1-1.38,1.65-.3.55-.58,1.13-1.15,1.96l-.15-.17c-1.52,1.85-2.93,4.12-4.02,6.29-.57,1.07-1.05,2.12-1.5,3.04-.47.91-.85,1.72-1.22,2.33l.72.52c-.57,1.32-.84,1.61-1.09,1.93-.24.32-.46.66-.75,2.14l-.38-.23c-.1,1.2-.23,2.38-.28,3.57-.34-.19-.66.21-.95.96-.15.37-.29.83-.43,1.34-.12.52-.23,1.09-.33,1.69-.45,2.38-.59,5.12-1.02,6.26-.07,1.91.08,4.67.35,7.61.3,2.93.79,6.08,1.15,8.76-.16.29-.17.91-.1,1.75.07.84.21,1.91.45,3.05.42,2.31,1.18,4.9,1.7,6.94,1.46,3.81,3.53,8.22,5.92,12.6.3.55.6,1.1.9,1.65l.46.82.13.22.02.03c.06.09.11.19.16.28.1.19.18.38.19.52l1.29.23.3.35c-.31-.09-.45-.1-.62-.18-.47-.08-.53-.06-.64-.05-.08.04.24.43-.4.2,1.07.49.36.01.5-.01.4.1.9.28,1.1.43.21.14.1.3-.41.23l-.22-.13c.08.13.15.29.19.45-.77-.48-1.29-.64-1.87-1.18-.04.05-.07.1-.1.18l-.02.06s.05-.02.09-.03c.06-.03-.06.05-.1.07l-.17.11c-.45.31-.9.62-1.34.92-.88.6-1.66,1.29-2.47,1.93-.81.63-1.55,1.32-2.29,2.01-2.97,2.75-5.74,5.64-8.93,9.27-.02-.67-1.08.73-2.06,2.02-1.03,1.26-1.89,2.51-1.97,1.26-1.41,2.62-1,2.57-.35,2.23.66-.34,1.57-.94,1.29.43-.93,1.3-1.34,2.99-1.98,2.96.07-.83-1.44.69-.91-.51-.64,1.13-1.15,2.32-1.7,3.5-.27.28-.08-.57.03-1.01-.73,1.86-1.38,3.62-2.11,5.27-.34.84-.67,1.67-.99,2.48-.17.41-.33.81-.5,1.21-.14.41-.28.82-.43,1.22-1.17,3.23-2.09,6.52-2.02,10.11.24.29.35-.4.46-1.1.09-.7.29-1.38.5-1.09,0,1.79.02,3.06-.12,4.07-.06.5-.14.94-.23,1.35-.06.41-.14.78-.22,1.15-.28,1.47-.76,2.96-.15,6.2l-.81-1.32c.64,2.12,1.24,2.97,1.12,6.45-.4.36-.67-.35-.92-1.35-.12-.5-.24-1.08-.36-1.64-.09-.56-.19-1.1-.31-1.52.02,2.46,1.23,8.42,1.71,6.46.83,2.71.2,3.9.38,5.44.11,0,.08-.67.15-1.16.08-.49.21-.78.57-.02.26,1.89.67,4.32,1.45,6.72.68,2.44,1.68,4.86,2.53,7.02-.22.05-.38.47-.65.15,2.62,2.89.59,3.42,3.27,7.85Z"/><path class="cls-1" d="m189.06,283.02l-1.72.03c.02.19-.04.42-.81.71l2.54-.74Z"/><path class="cls-1" d="m116.66,249.32c-.17-.16-.33-.32-.52-.44.24.36.39.43.52.44Z"/><path class="cls-1" d="m107.39,231.46c.61,1.29.45.01.45-.71-.18.02-.37.12-.45.71Z"/><path class="cls-1" d="m232.64,268.19c-.23.25-.34.45-.19.58.29-.37.3-.52.19-.58Z"/><path class="cls-1" d="m273.21,175.74c-.1.14-.18.27-.32.44.1-.07.2-.22.32-.44Z"/><path class="cls-1" d="m268.95,181.73c-.16.31-.35.73-.6,1.34.37-.53.52-.97.6-1.34Z"/><path class="cls-1" d="m203.5,278.65c-.44.13-.87.28-1.22.54.69-.15,1.01-.36,1.22-.54Z"/><path class="cls-1" d="m267.77,184.48c-.32.52-.69,1-1.04,1.5.04.04.07.08.13.12.31-.54.64-1.07.91-1.62Z"/><path class="cls-1" d="m274.12,173.62c-.26.67-.59,1.58-.91,2.12.58-.76.81-1.44.91-2.12Z"/><path class="cls-1" d="m246.15,223.11c.03.05.04.12.07.19.74,1.3.35.46-.07-.19Z"/><path class="cls-1" d="m264.39,192c-.06.05-.12.12-.18.18l-.16.58.34-.76Z"/><path class="cls-1" d="m276.7,166.12c-.05.34-.08.66-.05.93.11-.27.21-.58.33-.99-.13.07-.21.08-.28.06Z"/><path class="cls-1" d="m239.62,207.33c-.26-.21-.48-.35-.72-.45-.31.05-.27.15.72.45Z"/></g></svg>