<?xml version="1.0" encoding="UTF-8"?><svg id="Layer_1" xmlns="http://www.w3.org/2000/svg" viewBox="0 0 175.6 414.75"><defs><style>.cls-1{fill:#72f18f;}</style></defs><g><path class="cls-1" d="m68.51,235.02c.67.39.24-.09.22-.49l-.22.49Z"/><path class="cls-1" d="m68.74,234.53l.16-.35c-.13.08-.17.21-.16.35Z"/><path class="cls-1" d="m69.72,231.28c.41.85-.46,1.63.31,2.23.62-.67.55-1.84-.31-2.23Z"/><polygon class="cls-1" points="69 232.32 69.44 232.5 68.82 231.7 69 232.32"/><polygon class="cls-1" points="68.5 232.74 68.68 232.67 68.37 231.51 68.5 232.74"/><path class="cls-1" d="m70.72,228.87l-.07.77c-.8.53-.71-.69-1.25-.33-.25.95,1.2.66.69,1.76.61.04.49-1.84,1.35-1.4.54-.86-.52-.2-.72-.79Z"/><path class="cls-1" d="m97.84,190.11c.06,0,.09,0,.14,0-.1-.05-.18-.07-.14,0Z"/><path class="cls-1" d="m104.78,180.5c.17-.09.31-.21.43-.33-.11,0-.22,0-.32.04l-.1.29Z"/><path class="cls-1" d="m92.85,196.76c-.21.04-.39.1-.55.16.16.04.34.01.55-.16Z"/><path class="cls-1" d="m102.16,158.9c-.04-.06-.09-.14-.18-.22,0,0-.02,0-.03,0l.12.26.09-.05Z"/><path class="cls-1" d="m108.77,167.8c.05-.18.06-.35.03-.52-.08.29-.08.43-.03.52Z"/><path class="cls-1" d="m89.28,199.89c.06-.05.11-.08.15-.12-.07.01-.16.04-.25.09l.09.04s0,0,0,0Z"/><path class="cls-1" d="m101.56,183.15c.15-.1.28-.19.35-.29-.15.08-.26.18-.35.29Z"/><path class="cls-1" d="m76.72,219.01c.2-.12.26-.3.26-.49-.2.03-.32.15-.26.49Z"/><path class="cls-1" d="m79.37,215.41s0,.02-.01.02c.1.05.09.03.01-.02Z"/><path class="cls-1" d="m81.33,213.28s-.01.04-.02.05c.08.03.11.03.02-.05Z"/><path class="cls-1" d="m76.98,218.52c.53-.08,1.56.54.78-.62l-.2-.03c.41-.05.25-.7.41-.99-.12-.05-.22-.08-.33-.1-.11.13-.27.28-.55.51-.47.17-.12.75-.12,1.23Z"/><path class="cls-1" d="m97.96,190.32c-.19-.15-.34.15,0,0h0Z"/><path class="cls-1" d="m95.61,193.69c.11-.07.22-.14.33-.23-.13.05-.25.09-.33.23Z"/><path class="cls-1" d="m83.8,203.44s.06-.01.09-.01c-.08-.12-.11-.06-.09.01Z"/><path class="cls-1" d="m96.22,193.23c-.09.08-.19.15-.28.23.12-.04.23-.09.28-.23Z"/><path class="cls-1" d="m87.74,200.89s.05,0,.07-.01c-.02,0-.05,0-.07.01Z"/><path class="cls-1" d="m65.87,211.13c-.04-.34.34-.45.51-.72-.7-.86-.33,1.37-.87.23-.06.3,0,.55.07.8l.89-.24c-.18-.65-.36.33-.61-.06Z"/><path class="cls-1" d="m98.54,160.74l.14-.05c-.34-.17-.39-.31-.84-.06.17.68,1.25.74,1.26,1.7.04-.15.21-.29.39-.39-.58-.1-.8-.67-.95-1.19Z"/><path class="cls-1" d="m99.49,161.94s.03,0,.05.01c.08.03.15.04.22.05.07-.08.16-.14.25-.17-.16-.03-.36.02-.53.11Z"/><path class="cls-1" d="m68.95,200.91c.07-.12.13-.22.19-.32-.21.12-.24.22-.19.32Z"/><path class="cls-1" d="m118.56,171.56c.03.18.07.36.12.51.03-.25-.03-.4-.12-.51Z"/><path class="cls-1" d="m103.92,154.45c.11-.08.21-.18.31-.31.04-.11.08-.2.13-.33l-.45.64Z"/><path class="cls-1" d="m93.63,178.95c-.51-.82-.07.19-.81.19l.05.68c.4-.21.55-.6.76-.87Z"/><path class="cls-1" d="m65.51,211.45s.05.01.08.02c0-.01,0-.02-.01-.04l-.07.02Z"/><path class="cls-1" d="m85.91,189.07c-.08.04-.15.08-.21.13.07-.01.14-.05.21-.13Z"/><path class="cls-1" d="m101.53,160.01l.56-.69c.19-.23.37-.44.59-.76-.18.13-.37.27-.53.35.22.47-.92.57-.62,1.11Z"/><path class="cls-1" d="m99.33,173.73l.53.27c.39-2.17,3.14-2.57,2.89-4.85,3.04-.43-.35-2.31,2.4-2.78l-.26-.12c1.01-1.13,2.04-2.28,3.07-3.43.28-.19.47-.27.59-.31.27-.12.3-.02.48-.97.05-.29.1-.56.15-.83l-.11,1.07c.02.12.03.21.03.27,0,.22,0,.36.02.46.02.19.08.23.16.32.09.08.16.21.18.41v.15s-.02.18-.03.27l-.21,1.05c-.11.52-.21,1.04-.37,1.55.17.86,1.14.6,1.4,1.4-.09.3-.26.99-.73.86-.09-.65-.6-.44-.73-.68-.22.96-1.12,1.98-.87,3l.84-.49c.14.41-.21.87-.35,1.16-.26-.23-1.06-.05-1.11-.36.77,2.3-1.13,1.1-1.2,2.76.55.41.87,1.2,1.07,2.09.18.89.26,1.9.35,2.74l-.66.47c.47-.84-.86-.45-.25-1.46-.81.68-.73,1.76-1.4,2.46.38.02.74.28.68.68-.46.41-1.06.1-1.46.62l-.03-.77c-.66.11-.27.78-.43,1.16-.55-.19-1.16.57-1.59.08.17,1.15-.37,1.17-.52,2.22,1.05-.47.46.63.9.81l.47-1.05c-1.22,1.09.22-.48-.65-.92.78-.37.74,1.74,1.31.61-.45,1.51-.97,1.54-1.26,3.25.42-.86.39.52.93.28-.7.99-.45.04-1.17-.03-.18.26-.44.39-.54.45-.12.1-.14.18-.06.59-.92.47-.37-.64-1.01-.57-.02-.09,0-.19.06-.27.02-.06.09-.12.14-.17.06-.04.11-.08.17-.14l.1-.09.16-.18c.4-.5.61-1.04-.33-1.54.31-.44,0-1.44.48-2.03-.61.39-1.69.75-1.8,1.68l.93.74c-.18.26-.12.54-.07.79.08.22.18.37.08.41-.1-.15-.28-.27-.42-.34-.16-.07-.24-.13-.39.08.06,0,.11,0,.15-.01.03,0,.06,0,.08,0,.05,0,.09.02.15.11-.05.08-.09.14-.12.21-.05.09-.09.18-.12.27-.06.18-.08.36-.11.55-.05.38-.11.79-.45,1.26.9-.43,1.29-.3,2.3-.55.4.77-.38.52-.7.96-.02-.14.05-.23-.18-.24l-.14.68c-1.12.56-.71-.98-1.7-.61-.96-.05-.43.91-1.09.97.08.03.16.07.22.09-.1.07-.17.11-.23.13.02.01.03.02.05.04-.4.51-.95.92-.68,1.51-.24-.17-.37.43-.4.72-.11.42-.29,1.54-1.35,1.13,0-.02.02-.02.03-.03-.69.43-1.37.6-1.45.23l-1.15.65-.42-.71c-.77.94-.37,1.22-.45,2.38-.96.18-1.85,1.45-2.09,2.05-.09.04-.21.13-.36.32l.59-.08c-.73.58-.37.83-.84,1.23.15-.03.19,0-.15.12-.09.06-.18.12-.31.18-.03-.09.08-.17.21-.22l-.26-.13c-1.13-.17-.55,1.12-1.35,1.42.04-.07.1-.2.17-.25-.48.13-1.73-.3-1.41.35-.14,0-.17.21-.17.45l-.33.13c.13-.06.23-.1.33-.12,0,.31.04.65-.09.54-.32.21-.64.44-.96.66-.24.06-.39.34-.5.59l-.37-.12c-.28.32-.42.18-.44.08-1.89.13-1.27,1.97-3.12,2.37.17.61.82.33,1.07.52.12.48-.26,1.39-.37,1.92-1.06-.08-3.04,1.07-3.62.05-.98.92.79.17.61.92l-.14.08c.41-.25.93-.24,1.42-.13.5.35-.16,1.3-.53,1.44l-.46-.76c-.61,1.09.5,1.76.66,2.89-.86.49-1.1-.43-1.81-.78l-.49.91-.49-.42c-.3.62.07,1.11-.71,1.65-.07-.91-1.31.72-1.39-.51-.48.29.42,1.16-.42.86.34.7.55-.17.87-.24.9.44-.29,1.19-.45,1.83-.45-.26-.24-.69-.95-.3.22.35.2.89-.43.95.52.35-.34.76-.6,1.09.35-.33,1.1-.63,1.4-.06.03.44-.02.77-.52,1.4l.54-.3c.43,1.09-1.18.61-1.44,1.58-.12-.54.01-.75-.2-1.3.03.56-.08,1.49-.1,2.27l-1.19.28c.37.31-.45.8.12,1.09-.85.71-.33-1.07-.7-1.39-.97.98.5,1.39-.95,2.07l-.36-.62c-.25.35-.23,1.28-.53,1.21.2.08.2-.15.29-.39,1.09.76.14,2.13,1.44,2.46l.28-.48c-.06.88.58,1.72-.09,2.15-.58.32-.73-.6-.95-1-.37.72,1.13,1.06.78,1.91.33-.4.76-.17,1.01.2.17-.49.83-1.39.23-1.4l-.19.13c-.31-.16-.32-.47-.44-.66.26-.68.69-.1.98-.15.62-1.02-1.21-.57-.77-1.59l.29-.04c-.15-.65.2-1.4-.47-1.89,1-.07.28-1.31.99-1.57,1.72.79-.99,1.66-.35,2.68.61-.36.67.67,1,1.06-.07-.67.02-1.3.03-1.97.3-.02,1.37-.05.91-.66l-.1.11c.13-.74-.63-.94-.12-1.37.19,0,.37.32.46.42.41-.42-.13-.62-.08-1.05.45-.4.51.64.95.34-.27-.94.7-.8.96-1.3-.52-.19-.52-.87-.57-1.45-.04-.58-.1-1.04-.87-.78l.26-1.59c.72-.03.63,1.67,1.61,1.87-.23.29-.48.57-.67.89,1.15.59.67-2.4,2.29-2.11.4-.43.14-.46,1.38-.89l-1.05-.6c.59-.28,1.21,0,1.4.11.16-.31.38-.52.62-.73.08.18.13.37.04.57.78.1.67-.15.5-.5-.08-.37.18-.62.42-.89l.12.54c.06-.23.15-.52,0-.68.1-.11.18-.23.22-.38-.21-.06-.91-.37-1.48-.17,1.26-.69,1.83-1.64,3.32-1.8.22.27.2.92.33.84.5-.3.53-1.16.13-1.48.07-.12.13-.2.2-.26.29.13.61.26.84.11.12.03.26.03.43-.08-.52-.81.6-1.25.48-1.73-.26.11-.48.34-.69.6-.1-.78-.29-1.6.32-1.49-.21,1.05,1.34.07.58,1.17,1.48.23-.24-.96.77-1.31l.79-.08c.39.57-.52.94-.24,1.03l.26-.36c.02.66-1.4,1.55-1.57,2.8l1.7-1.12c1.31-2.33,4.33-3.75,5.03-6.32-.02.02-.04.05-.06.08-.01-.08-.08-.19-.23-.4l.19.07v-.68c.8.17,1.59-.34,2.52-.47q-.65,0-1.03-.36c-.37-.59-.5-.86.23-1.15.32.37-.04.65.63.6-.37,0-.4-.43-.19-.68.53-.03,1.1-.43,1.43-.06-.06.23-.29.2-.44.23-.06.23.89-.17.71.51l.49-.6c.6.03.19.68.5.77.75-1.07.52-2.34,1.17-3.35.13.23.83,1.07.63.82.89-.33.67-2.13,1.37-2.87.1.34-.27.5-.4.81,1.3-.86,2.43-1.73,3.6-2.52.58-.41,1.16-.81,1.79-1.18l.48-.28.24-.13.32-.2c.47-.24.94-.76,1.29-.99l-.43-1.3,1.07-.19c2.45-2.17,3.19-4.68,4.37-7.48.4-.86.96-.12,1.46-.37,1.09-1.83.19-2.85.77-4.75.2.39.89,1.22,1.29.44-.23-.28-.64-.57-.25-1l.21.39c.65-.27.4-.91.99-1.8.65-1.74.44-3.71-.35-5.46.52-1.51,1.13.48,1.44.25-.72.99-.04.82.26,1.17-.13-.68-.1-1.43.74-1.55.16-.85.29-1.24-.04-2.18.17.48-.34.74-.6.27.44-.62.44-2.44,1.41-2.17.07-.4.13-1.32.2-2.07.06-.78.17-1.56.21-2.37.01-.81.03-1.62.04-2.44,0-.41.03-.83.01-1.23l-.12-1.15c-.08-.77-.17-1.54-.25-2.31l-.47-2.07-.24-1.04-.31-1.13c-.21-.75-.42-1.49-.63-2.23-.64-.38.06.97-.35.85-.86-.58-.06-1.53-.74-1.97.16-.09.33-.17.5-.24-.21-.91-.61-1.49-1.04-1.87-.43-.39-.87-.59-1.22-.91.43-.77-.06-2.14.51-1.46-.14-.29.12-1.86.33-3.39.21-1.52.38-2.99.13-2.82-.36,1.93-.73,3.81-1.13,5.63-.15.41-.35-.9-.41-.48.09-1.58.15-3.61.02-4.09.25-1.57.53-.02.71.69.6-1.93-.33-3.79.46-4.7-.54-1.28-.21,1.35-.67,1.21l-.27-1.85.12,1.82c-.47-.47-.92,1.03-1.06-1.75-.28.31-.56.66-.82,1.05.14-1.09.09-1.45-.02-1.68-.03-.06-.06-.11-.09-.16l-.05-.08-.03.05c-.04.05-.07.06-.08-.08l.26-1.36c-.08-.04-.11-.15-.13-.41-.03-.28-.03-.67-.02-1.22.38-1.92.1.83.39-1.06l-.08-1.17c-.18,1.36-.45,2.28-.42,3.35-.25,1.18-.5,2.31-.74,3.13-.12.41-.23.78-.38.92-.07.08-.14.13-.21.14-.07,0-.15-.02-.25-.18-.05-3.71.65-2.22.8-5.39-.07-.33-.17-.59-.28-.67-.11-.08-.22.01-.33.24-.21.49-.48,1.33-.7,2.44-.55,3.68-.93,6.73-1.28,7.61-.92,1.68-.94,4.23-1.77,6.72.23-2.38-.68.12-.96-.6l.29-2.61c-.28,1.37-.62,1.76-.61.55.1.81-.18,2.19-.54,3.61-.18.76-.39,1.38-.58,2-.19.62-.37,1.24-.5,1.72l.36.77c-.41,1.41-.84,3.21-1.44,3.94-.32.83-.36,1.27-.31,1.73.04.45.15.93.1,1.63-.71-.04-1.2-.58-1.56-1.35.24-.05.42-.26.61-.51.18-.26.36-.59.6-.8.33-1.17.52-2.6.82-4.08.29-1.48.7-2.99,1.28-4.11-.01-2-.19-1.45-.45-.32-.26,1.17-.58,2.5-.96,2.74-.03-.17,0-.3.04-.42-.05.11-.1.19-.16.25.16-.6.39-1.37.56-2.21.17-.84.27-1.86.2-2.7-.17.57-.26,1.09-.3,1.58-.05.46-.05.89-.07,1.28-.04.79-.12,1.42-.71,1.92-.23.98-.61,1.35-1.04,1.59-.42.24-.87.4-1.13.78-.16,1.53.67,2.77-.66,4.33-.04-.49-.07-1-.09-1.53-.72,1.11-.65,1.61-.55,2.05.05.22.1.44.07.71-.03.25-.19.67-.36.86.18-.15.29.07.42.24.07.09.14.16.23.17.04,0,.09,0,.15-.04.05-.03.11-.08.21-.24,0,.24,0,.38-.05.56-.04.17-.11.35-.21.51-.19.34-.48.64-.8.85,0,.23.22.22.43.43.98-.26.28-1.37,1.39-1.36-.16-.31-.25-.76-.36-1.18.87-.69,1.44-.13,1.42.6.11-.24.15-.53.37-.56.55.5.32.6.03.75-.29.14-.66.36-.25.86l.26-.55c.84.47-.09,1.57-.59,2.09-.82.37-1.4.82-1.97.44.14-.33.29-.66.41-1-.74.1-.58,1.23-.98,1.69-.1-.03-.19-.03-.27,0,.07.01.12.04.18.08-.11.08-.24.12-.43.09-.36.39-.56,1.25-1.05,1.49l.5.35-.21-.27c.34-.36,1.06-.62,1.16-.05-.41,1.12-1.44.53-2.01.38-.54-.8.7-.81.83-1.44-.92-.35-.78.79-2,1.23-.45-1,.87-.97.33-1.77-.71.57-.33,1.22-1.16,1.76-.27-.4.32-1.12-.18-1.47l-.62.26c.94-1.14-1.11-.64-.53-1.66-.67.13.12,1.11-.87,1.26.47.14,1.48.21,1.28,1.02l-.78.43c-.59-.07-.21-1.37-.88-1.24l-.34.88c.24.18.64-.03.77.45-.59.16.28,1.41.2,2.16-.35.34-.66.58-1.04.47-.19,1.51-1.31,2.63-1.49,4.05.11-.99-.77-.69-1.42-.66.54-.74-.14-1.4-.63-1.78-.31.47.15,1.4.57,1.42-.92.4.03.91-.99,1.06-.6.16-.49-.83-.88-.95-.72.7.64.99-.27,1.63-.05-.13-.01-.23-.2-.29-.55.29-.66,1.06-.41,1.47-1.33-.37-1.12,1.4-1.91.5-.74,1.28.63.28.74.78,0,.79-1.06,1.32-1.43,1.45.22-.28.2-.75.57-.88l-.82-.33c-1.66.96.64,2.1-1.05,2.96.26-.97-.28-.64-.43-1.37-.02.35-1.11,1.25-.07,1.02-.49.45-.9.72-1.31.99-.13.67-.36,1.31-.15,1.92-.64.69-1.53.89-2.1,1.04-.18.5-.42.93-.71,1.33-.16.22-.26.35-.48.63-.09.12-.24.27-.32.43l-.26.4c-.54.79-1.09,1.61-1.3,2.67l.12-.11c-.89,1.34,1.31-.11.51,1.33-.81-.66-1.05.58-1.76.83-.67.81-.91,1.68-1.11,2.54-.19.86-.39,1.69-1.08,2.42-.19-.1-.38-.31-.26-.65-.89,1.2-1.1,2.37-1.61,3.56l-.1-.1c-1.55,1.66-1.18,3.82-1.63,5.92-.07-.2-.43-.36-.52-.53-.53.97-1.17,2.61-.49,3.59-1.32.97.07.9-1.29,2.24-.2.05-.12-.2-.13-.32-.53.71-.57,1.29-.9,2.07.23,1.93,1.41,2.64.58,4.6-1.39-.18-.06-1.33-1.13-1.61.15.46.34.87-.1,1.38-.46-.45-.32-.14-.77-.48-.45.37,1.08,2.05.95,2.01.26.07.43-.05.47-.46.75.64-.32,2.03-.16,3.08.07-.32.54-1.28,1.11-.79-.55,1.27.73,1.94,1.11,2.94-.81,1.11-1.01-1.08-2-1.01-.38.15-1.23.52-1.52-.06-.38,1.08.3,2.01.37,3.03l-.27-.07c-.07,1.41.91,3.02.23,4.11l.38-.58c.13.24-.02.93.5,1.37-.45-.09-.95.76-1.29.35,1.38.77.55,3.22,1.89,4.02-.39.33-.96,0-1.28-.15.2-.86.51-1.12-.03-1.63-.05.72-.46,1.22-.78,1.08.84.81,1.06,2.55,1.94,2.97-.49.49-.77.98-1.51.74.33,2.24,2.4-.93,2.24,1.55-.8,1.08-.93-1.16-1.27.38l-.1-.3c-2.01,1.02,1.33.87,1.21,2.14-1.07.12-.72-.93-1.52-.08.22,1.19,1.77,1.76,1.38,2.91l-.44-.2c.04.75-.2,2.19-.13,2.94-.21.03-.18-.08-.23-.22-.43,1.37.53.58-.23,1.7l.51.33c.38-.56.92-1.64.33-2.36.59.73,1.37-1.08,2.27-.7l-.36-.15c1.62-1.8,1.89-4.14,2.64-6.42-1-1.53.6-2.45-.01-4.06-1.22-.35-.23-.31-.36-1.68.09.73.93.17,1.15-.26-.29-.29-.37-.62-.45-.95.45-.23,1.62-1.79.86-2.5.51-.76.37.24.61.44.67-.25-.41-.71.05-.93,0,0,.13.03.18.12.12-1.23.53-1.92.86-3.17-1.19-.28-.25-1.32-.59-1.95.36.25.57-.64.85-.96l-.78-.84c-.63-.81.71-.84.47-1.78l-.26.17c-.23-.71.79-2.24,1.58-2.71-.54-3.15.37-5.34,1.54-7.41,1.18-2.08,2.6-4.06,3.37-7.04-.2-.5-.68.06-1.08-.43.09-.64.19-.76.38-1.3-.49.36-.08.43-.37.24v.95c-.09,0-.09-.1-.29-.08,0,.32.1.73-.09,1.06-.1-.61-.89-1.07-.3-1.66.1.1.1.2.1.41.29-.55-.1-.74.29-1.08.39-.46.08-.43.47-.35.35-.49.74-.97,1.12-1.44-.64-1.22.73-1.82.93-2.03.66.5-.23,1.16.33,1.87l.79-.34-.58-.29.51-.74.09.1c-.19-.2-.37-.4-.08-.52.1,0,.29,0,.29.1l-.05-.72c.45.61.42-.41,1.08,0,1.23-1.66.19-2.82,1.99-3.91-.46.09-.8-1.08-.41-1.51.32-.19.51-.18.67.15.03-.32-.08-.42-.13-.57.29.11.61-.04.81-.14.21-.12.37-.29.51-.49.27-.39.54-.87,1.1-1.26l.23.26c-.03-.62.03-1.24.6-1.72l.44.53c.93-.38-.68-1.43.3-1.93-.56-.47-1.26-.22-1.85-.58.71.28,1.52-.47.95-.62.44-.97.48-.52.67-.47l.06-.75c.51-.52.87.46,1.01.93-.15-1.02.76-1.2,1.36-1.68l.04.45.78-.65c.03-.87.62-1.58,1.44-2l.29,1.09c.78-.09-.03-.45-.04-.68.32-1.02.93-.71,1.67-.71.34-1.8,3.27-1.15,3.16-3.12Zm-14.95,29.8h.2c-.13.35-.17.59-.2,0Zm6.67-5.45c-.54.96-.59.4-.82.25.94-.46,1.18-1.06,2.06-1.4-.23-.05-.42-.23-.56-.32.3-.19.71-.26,1.12.03.29,1.02-2.5,1.31-1.8,1.44Zm-10.59,16.52c-.03-.07-.06-.15-.09-.23h0s.08.23.08.23Zm2.74-4.19c.2.1.37.09.53.04-.25-.12-.46-.21-.53-.04Zm8.13-5.87c.44.15.75-.29.99-.61-.17.08-.49.2-.99.61Zm23.68-61.05c.19.1.63.17.6-1.03-.28.27-.14-1.46-.5-.78,0-.09,0-.1,0-.15-.06,1.01-.12,1.82-.1,1.97Zm-13.7,20.06c-.27-.3-.46-.75-.78-.82.02-.01.05-.03.08-.05-.15-.03-.28-.05-.31-.15-.21.14-.45.27-.48.47.93.89.75,1.42,1.48.55Z"/><path class="cls-1" d="m104.6,148.12c-.08.24-.16.38-.21.54.06-.14.12-.3.21-.54Z"/><path class="cls-1" d="m99.86,162.95c.05.07.34-.06.67-.24-.17-.05-.38,0-.67.24Z"/><path class="cls-1" d="m68.3,226.32v-.33s-.6.46-.6.46c.03,1.12.63,1.36,1.16,1.78-.37-1.07.17-1.48.42-2.64l-.97.74Z"/><path class="cls-1" d="m72.51,227.31c.19-.03.68-.09.77-.2l-.32-.27-.45.46Z"/><path class="cls-1" d="m79.36,218.86l-.79.49c.12.42,1.2-.02.79-.49Z"/><path class="cls-1" d="m71.45,218.42l.09.66c.54-.22.83-.76.49-1.1-.11.67-.3,0-.58.44Z"/><path class="cls-1" d="m80.85,217.08c-.42-.7.83-.45.39-1.06.02.31-.96.53-.39,1.06Z"/><path class="cls-1" d="m74.72,212.94c-.78-.23-.58.61-1.09,1.01.32-.43,1.35-.54,1.09-1.01Z"/><path class="cls-1" d="m82.4,212.04c.37.42.08.67-.31.89-.03-.22-.15-.47-.08-.67-.18.82-.28.79-.48,1.39.68-.16,1.45-.61,1.89-.07-.09-.66-.28-1.58-1.02-1.55Z"/><path class="cls-1" d="m75.62,211.74c-.5.26-1.1.17-1.47.68.37.16.94.35,1.34-.26l.33.61c.8-.21-.83-.34-.2-1.03Z"/><path class="cls-1" d="m85.31,211.21h-.42c-.13.82-.9,1.25-.56,2.09.49-.61.98-1.54.98-2.09Z"/><path class="cls-1" d="m78.17,210.62l-.6-.68c-.58.44.26.17.24.5-.24.06-.51.23-.47.46.44-.7.57.44.83-.28Z"/><path class="cls-1" d="m79.06,208.24l.36-.94-1.2-.16c-.5,1.03.37.43.85,1.1Z"/><path class="cls-1" d="m80.26,207.84l.2.05.04-1.9c-.2.97-.29.94-.24,1.85Z"/><path class="cls-1" d="m96.23,201.39c-.13-.39-1.04-.25-.51-.14.09.34,1.21.05.51.14Z"/><path class="cls-1" d="m89.12,197.95c.48-.02,1.08-1.26,1.33-1.81-.38.56-1.74,1.48-1.33,1.81Z"/><path class="cls-1" d="m90.55,195.92s-.06.13-.1.22c.06-.09.09-.16.1-.22Z"/><path class="cls-1" d="m103.53,179.32c.02-.05.02-.11-.01-.18,0,.06,0,.12.01.18Z"/><path class="cls-1" d="m103.47,179.86c-.29.22-.43.92-.14,1.24.11-.56.25-1.03.2-1.78-.08.22-.48.32-.06.54Z"/><path class="cls-1" d="m105.94,175.77c.11.33-.16.58.22.67.21-.05.09-.7-.22-.67Z"/><path class="cls-1" d="m114.8,131.19c-.14-1.27-.34-1.4-.5.14.25.85.25-.4.5-.14Z"/><polygon class="cls-1" points="113.98 130.61 114.05 129.83 114.06 128.26 113.98 130.61"/><path class="cls-1" d="m113.27,125.68c.05-.25.11-.49.16-.58-.09.07-.2.09-.16.58Z"/><path class="cls-1" d="m113.48,125.08s-.03,0-.05.01c.01,0,.03,0,.05-.01Z"/><path class="cls-1" d="m113.49,125.87l.13-.89c-.03.08-.08.08-.13.11.04.03.05.26,0,.79Z"/><path class="cls-1" d="m112.88,124.03l-.05,3.78c.22-.39.18-.92.17-1.74-.02-.8-.01-1.93.3-3.05-.14.3-.28.64-.42,1.01Z"/><path class="cls-1" d="m111.15,124.45c-.31.56-.78,3.02-1.16,4.84-.38,1.81-.66,3.01-.83,1.95-.46,1.95-.63,3.03-.69,3.82-.06.79-.01,1.27.03,1.78.08.99.1,2.17-.65,5.05,1.47-2.85.69-8.23,2.31-11.71-.37.18-.23-.68.08-1.93.3-1.24.74-2.81.92-3.8Z"/><path class="cls-1" d="m111,130.63c.24-2.5-.51-.19-.79,1.82.1-.23.21.07.32.08.12,0,.25-.28.47-1.9Z"/><path class="cls-1" d="m107.66,137.4c-.17.17-.35.36-.54.58l-.07,1.2.61-1.77Z"/><path class="cls-1" d="m105.87,142.63l.3-2.65c-.1.99-.78,3.08-.3,2.65Z"/><path class="cls-1" d="m103.08,147.75c-.57.78-.26,3.2.5.92l-.23.37c-.04-.4-.8.12-.26-1.29Z"/><path class="cls-1" d="m99.04,158.77c.22-.24.31-.65.05-.77l-.32.88.27-.11Z"/><path class="cls-1" d="m101.73,160.7c.85.25.48-.75,1.08-1.08-.56.47-.6.33-1.08,1.08Z"/><path class="cls-1" d="m97.48,158.83c-.12-.4.29-.55.47-.69-.44-.21-.72.34-.47.69Z"/><path class="cls-1" d="m96.8,160.11c-.45,0-.31-.35-.63-.33-.69.23-1.08.76-.97,1.33.37.11,1.24.56,1.39,1.03.45-.97-.39-2.35.83-1.97l-.59-1.56c-.68.46.4,1.11-.02,1.48Z"/><path class="cls-1" d="m100.23,160.25l-.72.13c.44.21.23.59.17.91.91.55.41-.76.56-1.04Z"/><polygon class="cls-1" points="93.51 164.77 92.88 165.81 93.19 165.57 93.51 164.77"/><polygon class="cls-1" points="92.75 165.1 92.5 164.91 92.29 165.96 92.75 165.1"/><polygon class="cls-1" points="91.63 165.76 91.76 165.69 92.05 165 91.63 165.76"/><path class="cls-1" d="m89.76,167.43l.47.15c.13-.3.91-.4.43-.77-.04.33-.53.74-.9.63Z"/><path class="cls-1" d="m92.35,181.19c-.08-.35-.36-.43-.64-.52l.34.75c.04-.1.11-.29.3-.24Z"/><path class="cls-1" d="m90.51,181.42l.1,1.21c.74-.65.3-1.2.78-1.93-.45.09-.33.88-.8,1.07l-.09-.35Z"/><path class="cls-1" d="m81.29,195.11c-.48-.29-.49-.08-.56-.82-.03.95-.45,1.59-.76,2.55.38-.03.68.9.68.48.02-.39.07-.77.12-1.16l.28.3c.7-.55-.37-.71.24-1.36Z"/><path class="cls-1" d="m66.5,239.22c-.26-.12-.51.01-.76.15.27.72.71-.29.76-.15Z"/></g><g><path class="cls-1" d="m68.3,174.71c-.05.16-.06.3-.1.44.1-.17.18-.35.1-.44Z"/><path class="cls-1" d="m70.81,226.05c-.04.71-.05,1.42-.03,2.11.08-.22.15-.49.19-.85l-.16-1.26Z"/><path class="cls-1" d="m67.94,142.42c.15-.73.28-1.4.39-2.01-.17.37-.32.97-.39,2.01Z"/><path class="cls-1" d="m79.79,282.82c.16.79.32,1.57.52,2.26-.23-1.32-.39-1.96-.52-2.26Z"/><path class="cls-1" d="m69.69,123.9c-.04.28-.08.52-.1.77.06-.24.14-.57.21-.94l-.11.13s0,.02,0,.04Z"/><path class="cls-1" d="m70.95,209.24c-.03.7-.06,1.33-.02,1.86.03-.64.04-1.26.02-1.86Z"/><path class="cls-1" d="m87.39,35.75c-.43.79-.67,1.5-.83,2.15.36-.47.66-1.13.83-2.15Z"/><path class="cls-1" d="m80.85,53.27s.02-.07.03-.11c-.14.07-.14.13-.03.11Z"/><path class="cls-1" d="m77.19,64.63c.01-.07.02-.14.04-.21-.12.11-.15.17-.04.21Z"/><path class="cls-1" d="m86.57,37.9c-.94,1.29-2.2,1.29-1.71,3.64l.31-.31c-.72,1.01-.88,2.85-1.34,4.16.17-.09.32-.21.48-.36.27-.64.64-1.49,1.23-2.78.88-1.47.67-2.73,1.03-4.35Z"/><path class="cls-1" d="m68.06,174.51c.25-.17.14-1.41,0,0h0Z"/><path class="cls-1" d="m67.51,158.62c-.03.52-.06,1.03-.1,1.56.07-.5.13-.99.1-1.56Z"/><path class="cls-1" d="m74.4,99.26c-.04.1-.07.18-.11.27.12.11.14-.12.11-.27Z"/><path class="cls-1" d="m67.35,161.62c.02-.48.04-.96.06-1.44-.06.44-.11.9-.06,1.44Z"/><path class="cls-1" d="m70.85,116.87c-.02.08-.05.17-.07.24.03-.05.05-.14.07-.24Z"/><path class="cls-1" d="m7.67,307.23c-.09-1.32.33-2.07.52-3.29-.34-1.42-.44,0-.52,1.29-.08,1.27-.08,2.4-.39.36-.06,1.24.04,2.21.13,3.12l.87-1.73c-.24-2.42-.33,1.6-.61.25Z"/><path class="cls-1" d="m30.98,269.98c.63-.07,1.2-.13,1.72-.19-.85-.03-1.36.05-1.72.19Z"/><path class="cls-1" d="m68.82,281.01c-.18-.57-.36-1.12-.53-1.57.19.88.36,1.31.53,1.57Z"/><path class="cls-1" d="m91.75,377.72c1.3.51-.42-.68-.87-2.77-.43-.5-.88-.99-1.3-1.51.63,1.66,1.52,3.04,2.17,4.28Z"/><path class="cls-1" d="m7.35,308.84s.05,0,.08.02c0-.06-.01-.09-.02-.16l-.06.13Z"/><path class="cls-1" d="m70.34,325.36c-.07-.31-.13-.59-.19-.89.01.19.07.47.19.89Z"/><path class="cls-1" d="m106.28,405.21l-.16.85c4.71,5.6,7.5,13.57,11.94,17.56,2.88,8.5,4.52,3.96,7.2,11.71l.1-.38c3.68,6.16,7.38,12.43,10.95,18.73l9.05-6.32c-11.65-14.94-20.97-31.82-29.24-47.34l.38-.13c-8.14-17.69-15.04-35.73-20.9-54.1-5.82-18.38-10.65-37.07-14.22-56.18-1.07-3.49-1.5-1.18-2.52-4.18-.21-1.35-.82-4.37-.34-4.47.74,2.54.9,1.01,1.25,1.86-.44-2.14-.74-4.64-1.08-7.06-.35-2.42-.77-4.77-1.35-6.66l-.11,3.33c-.53-1.45-.69-3.85-.88-5.21.41.52.79-1.56,1.12-.41-1.42-3.95-1.47-5.57-1.38-7.04.09-1.47.31-2.79-.47-6.18-1.51-1.19-3.68-9.69-5.21-15.32,0-1.01.02-2.03.05-3.04.37,3.99.95-.17,1.41,4.77-.09-4.15-.96-7.93-1.13-11.85-.26.79-.74.63-1.01-.93,0-2.42.65-2.68.51-5.43l.63,2.67c.36-1.86-.42-3.38-.64-5.06.52-.59.37-4.69,1.04-4-1-3.64-.66-4.97-1.31-8.92-.4,4.16-.79-1.03-1.23-.54l.44,4.66c.06-6.6.2,2.13,1.16,1.58-.25,3.12-1.84-4.15-1.37,1.02-.45-3.08-.52-4.96-.67-6.85-.13-1.89-.35-3.8-.83-6.96.3,3.83-.65-.71-.87,1.36-.19-4.87.3-1.22.87-2.75-.1-2.65.39-3.63-.36-6.05.23-4.3.73.63,1.09-1.55.63,1.57-.47,11.95,1.58,10.7.11,2.23,1.05,4.91,1.15,8.12.16-2.82.61-6.84.05-10.28l-1.19-.13c-.11-2.63-.93-3.15-.89-5.05.37,1,.81-.83.69-2.95-.16.61-.11,1.45-.32,1.22-.14-3.92-.99-4.46-1.23-9.14-.3,3.86-.61,4.67-1.08,8.3-.85-.96-.16-2.55-.29-4.68.12.32.15.76.3.13l-.43-2.27c.37-4.83,1.2.59,1.61-3.38.71-2.74-.39-3.76.02-5.86-.08.14-.16.28-.22.41.02-.47.05-.8.08-1.05-.02.02-.04.03-.06.03-.07-2.56.04-5.3-.57-6.04.28-.26-.04-2.24-.19-3.08-.2-1.43-.81-4.88.26-6.97,0,.06,0,.11,0,.16.28-3.18.73-5.64,1.03-4.94.18-1.7.32-3.41.54-5.11l.77.6c.11-4.67-.39-4.24-1-7.51.78-3.3.88-9.17.86-11.41.07-.36.14-.93.19-1.86l-.53,1.91c.43-3.63-.04-3.24.21-5.64-.12.49-.19.55.1-.77.07-.4.15-.84.24-1.37.07.13-.01.67-.12,1.2l.32-.4c1.23-2.79.08-4.51.8-7.57-.02.3-.03.8-.07,1.12.45-1.71,1.97-4.03,1.38-4.86.15-.39.1-1.02.02-1.64l.31-1.26c-.12.52-.22.91-.31,1.24-.11-.83-.28-1.63-.1-1.7.28-1.47.59-2.93.89-4.4.26-.82.35-1.97.4-2.92l.46-.69c.24-1.62.45-1.59.5-1.38,1.11-2.68,1.38-4.85,1.64-7.09.31-2.23.62-4.52,1.76-7.4-.3-1.27-1.08,1.15-1.42,1.28-.24-1.03.21-4.54.33-6.32,1.33-2.5,4.22-10.39,4.93-8.8,1.4-4.83-1.08,1.33-.79-1.21l.19-.55c-.58,1.65-1.3,2.86-1.97,3.7-.67.22.28-4.17.86-5.42l.55,1.15c1.03-4.55-.48-3.98-.47-7.04,1.43-3.47,1.54-1.18,2.51-1.7l1.01-3.78.61.2c.61-2.47.26-3.21,1.67-6.44-.28,2.59,2.33-4.75,1.92-1.17.84-1.75-.09-2.71,1.07-3.33-.14-1.5-.98,1.49-1.49,2.35-1.23.39,1.09-4.16,1.7-6.43.55,0,0,1.67,1.31-.76-.16-.67.26-2.39,1.3-3.65-.58-.25,1.08-2.93,1.77-4.33-.84,1.54-2.24,3.7-2.31,2.42.29-1.37.63-2.51,2.05-5.3l-1.18,1.83c.15-1.44.78-2.39,1.53-3.42.76-1.03,1.62-2.14,2.34-3.85-.37,1.56-.79,2.45-.93,3.89.42-1.73,1.55-4.89,2.51-7.48.74-.8,1.52-1.56,2.3-2.32-.23-.57,1.73-3.06,1.17-3.37,2.25-3.19-.84,3.12-.6,3.68,2.73-4.03.89-3.98,4.16-7.47l-.28,1.63c.83-1.3,2.14-4.14,2.49-4.15-.18-.11-.51.6-1.01,1.43-.67-1.53,3.1-6.53,1.67-6.78l-1.26,1.76c.8-1.46,1.34-2.81,1.9-4.03.59-1.21,1.23-2.27,2.16-3.18,1.49-1.35-.07,1.65-.46,2.78,1.88-2.48.27-2.91,2.57-5.88-1.34,1.46-1.49.89-1.08-.29-1.34,1.72-4.2,5.29-3.27,4.95l.56-.57c.17.36-.42,1.39-.61,1.98-1.62,2.48-1.26.82-1.8,1.18-2.89,4.03.89,1.07-1.61,4.82l-.52.37c-.82,2.04-2.5,4.93-2.1,5.84-1.72,1.28-2.16,4.61-3.65,6.24-1.84-.52,3.73-6.66,4.24-9.31-1.55,1.83-.08-1.62.07-2.71l-1.58,3.43-.79,1.71-.73,1.74c-.51.39-2.4,1.87-2.45,3.39l.32-.49c-1.25,2.7-.14,2.38-1.55,4.53-.33.28-.25-.56-.27-.8-1.22,2.04-.51,1.95-1.07,3.44-1.22,2.04-.16-1.4-1.24.27-.54,2.79-2,3.86-2.97,6.04,1.31-.5-2.39,9.25.48,4.92-.5,1.84-1.06,3.64-1.5,5.5-.58.72-.57-.33-.6-1.42,0-1.08-.02-2.2-.75-1.65l1.81-4.16c-.76.08-1.49,2.36-2.35,4.88-.8,2.55-1.69,5.35-2.93,6.49-.91,2.25-.5,1.76-2.68,5.87l1.39-.35c-1.06,2.15-1.93,2.67-2.16,2.71-.36,1.36-.78,2.54-1.23,3.76-.06-.38-.06-.89.14-1.72-1.19,1.51-1.11,2.08-.97,2.79-.02,1.01-.51,2.41-.93,3.84l-.04-1.42c-.16.91-.36,2.02-.18,2.18-.17.6-.31,1.17-.4,1.73.31-.33,1.26-1.07,2.16-3.03-1,2.58-1.77,4.92-2.52,7.16-.73,2.25-1.49,4.39-2.58,6.56-.29-.26-.19-2.28-.38-1.71-.81,2.25-.77,4.91-.24,4.82-.09.53-.18.93-.26,1.28-.39.37-.83.84-1.15,1.92-.17.23-.36.62-.59,1.4.75.99-.67,5.32-.46,6.37.32-1.03.59-2.31.84-3.61.21,2,.56,3.8-.25,5.14.16-3.58-1.76,3.49-.89-1.78-1.97,3.42.44,2.09-.75,5.89l-.95,2.43c-.6-.51.45-4.14.08-3.61l-.25,1.77c-.08-.92.26-3.03.68-5.42.44-2.39.91-5.07.98-7.18l-2.14,8.07c-1.34,10.43-4.26,23.24-3.79,32.26l.03-.38c.05.16.16.25.41.41l-.22.38.32,1.8c-.84,1.91-1.42,5.6-2.21,8.72.6-1.95.6-1.95,1.14-2.09.64.46.91.8.39,3.72-.49-.01-.31-1.83-.89.31.34-1.1.59-.07.54,1.22-.46,1.63-.78,4.39-1.26,4.39-.08-.78.15-1.39.27-1.9-.07-.78-.7,3.09-.91.77l-.08,3.02c-.53,1.73-.56-1.22-.87-.54-.01,2.52.22,4.44.45,6.3.26,1.86.53,3.65.58,5.92-.25-.23-1.34-.33-1.02-.27-.54,3.48.88,7.54.81,11.5-.3-.59-.12-2.07-.24-3.28-.81,12.13-.82,22.07-1.55,33.5l1.21,2.93-.65,3c-.23,12.03,1.16,21.19,2.57,32.5.4,3.53-.58,2.2-.72,3.9.7,7.78,2.2,9.52,3.38,16.85-.48-.97-1.66-2.57-1.28.61.4.55.96.87,1.04,2.89l-.48-.97c-.23,1.9.45,3.6.81,7.42,1.03,6.68,2.87,12.92,5.09,18.15.97,5.88-1.3-.39-1.33.77-.36-4.21-.73-2.84-1.27-3.68.7,2.14,1.4,4.75.81,6.03.6,3.05.85,4.43,1.99,7.34-.57-1.46-.41-2.85.23-1.5.11,1.27.56,3.48.85,5.35.31,1.87.47,3.39-.06,3.32,1.6,7.19,3.44,14.77,5.36,22.47,1.99,7.68,4.12,15.47,6.48,23.01,1.26,2.4-.39-1.99.38-.7,1.76,3.5.59,3.02,2.03,5.81l-.91-1.05c1.3,4.43,3.85,8.74,5.78,12.78-.84-.49.76,3.62-.85.26.84,2.01-.88,5.46.23,6.86l1.6-3.21c.28.03,1.17,2.96,1.23,2.61.18,1.96.47,4.36.94,5.59-.38.84-1.44-2.32-2.07-4.02-1.12.12,1.54,5.99-.34,3.87,1.56,3.59.32-.72,1.54,1.32.33,1.09.66,2.18,1.02,3.26-.22-.86-.43-1.72-.62-2.59,1.32,2.54,2.49,3.12,3.34,6.87.81,1.08,1.66,2.15,2.5,3.22-.64.7.98,2.7,1.59,4.64l-1-.95c1.07,2.47,1.41,3.46,1.8,5.14-1.32-1.08-.84-2.3-1.77-2.6l.99,2.81c.44-.21,1.57,1.35.96-.71.98,1.06,1.8,1.86,2.71,3.17.93,1.3,2,3.11,3.44,6.22.59,3.17-2.11-2.68-2.29-1.16,1.36,3.32,2.89,5.01,4.21,6.36,1.32,1.36,2.52,2.35,3.47,4.2,2.2,4.84,2.76,4.19,5.47,8.84-.67-.6-.34.3.17,1.48.53,1.17,1.25,2.63,1.27,3.2l-1.61-1.52c1,1.32,1.63,2.78,1.03,2.58.26-.34,1.29,1.09,2.62,2.93,1.35,1.82,2.87,4.13,4.09,5.56l.18-.9c1.83,2.28,4.43,5.36,6.15,7.92,1.43,1.79,2.13,2.37,2.81,2.8.67.43,1.31.72,2.68,1.87.74,1.89.07,2.17-.9,2.11-.5-1.18-1.94-2.69-3.03-4.4-3.9-4.3-7.7-7.21-10.58-12.28-2.7-1.25,2.26,3.21,3.45,5.82-.13-.01-.27-.17-.4-.34.14.21.26.4.36.61-.67-.81-1.55-1.88-2.37-2.75-.83-.87-1.57-1.58-2.07-1.59,2.04,2.87,2.73,1.23,4.62,5.22,2.18,2.4,2.8,5.22,3.86,6.89,1.71,1.31,2.78.69,5.61,4.48l6.97-4.87c-.07-.13-.17-.31-.27-.5l.48.37-7.36,5.14-1.61-.95c.44.56.81,1,1.12,1.35l8.39-5.86c-2.03-2.94-1.95-.81-4.39-4.95.9,1.69-1.7-1.13.15,2-1.32-1.29-3.46-4.62-4.78-7.27-.52-.58-.34.02-.67.06,1.17,3.1,3.2,4.09,3.83,6.84l1.99,1.46c1.26,2.79.76,3.45-.52,2.04.44.66.9,1.2,1.1,1.77l-2.13,1.49s-.05-.09-.07-.14c.15-.25.31-.29.48-.2l1.27-.89c-.68-.5-1.22-3.57-2.52-3.79l1.19,1.78c-.33,1.28-3.27-3.87-4.66-6.25-1.24-2.9-2.61-5.41-2.14-5.95l2.44,3.42c-.67-2.14-3.07-4.4-4.33-6.49,0-.19-.07-.42-.18-.69.01.14,0,.23-.06.27-.24-.46-.41-.89-.48-1.32-1.09-1.84-3.09-4.3-3.95-6.11l-.39.53.43.05c1.01,1.68,2.08,4.14.92,3.12-2.68-3.54-2.15-4.91-2.25-6.09,1.33.38,2.25,3.68,3.7,5.42.07-1.64-2.27-3.88-4.14-8.08,1.81,1.02,2.76,4.51,4.08,4.88-1.78-3.22-2.9-3.66-4.69-7.09.66.18,2.66,3.36,3.04,2.84l-1.05-2.26c3.23,5.16.51-1.57,3.21,2.35-.82-2.13-2.34-2.23-3.45-5.28.09.99.73,3.58-1.2,1.18l-1.54-3.1c-.33-1.48,2.79,2.51,1.97.38l-2.16-2.9c-.19.26.57,1.82-.35,1.1-.8-1.95-2.76-2.32-4.42-4.19-.98-1.69-1.72-3.05-1.77-3.83-3.29-3.77-6.4-9.17-9.36-12.71,2.06,2.39.84-.62.32-2.44,1.87,3.03,2.7,2.58,3.11,2.07-1.15-1.82-2.7-2.58-2.44-1.47-1.44-3.33-1.78-1.86-2.76-4.94-.7-1.95,1.31.45,1.28-.34-1.82-3.43-1.55-.36-3.33-4.2.22.15.43.47.43.09-.89-2.11-2.42-4.06-3.07-4.28.01-2.72-3.18-6.03-1.89-6.14-2.64-4.79-.26,1.03-1.08.23-1.44-1.8-2.84-5.74-3.17-7,.55,1.23,1.41,2.2,1.78,3.46l.26-1.39c-.6-1.59-1.08-2.59-1.52-3.29-.45-.7-.87-1.09-1.29-1.48-.82-.78-1.69-1.54-2.5-4.72,1.61,2.97.99.81,2.13,2.13-.55-.85-2.16-5.66-1.65-2.58-.85-2.44-1.44-4.14-2.02-5.83-1.14-1.86-2.24-3.97-3.21-4.97-1.18-3.26-1.49-5.89-1.72-7.58-3.06-6.7-4.26-13.56-7.74-20.74l.16.56c-2.12-5.78-.01,2.93-2.35-3.01,1.28.41-.82-3.81-1.2-5.94-1.4-3.73-3.14-6.76-4.96-9.64-1.82-2.89-3.75-5.61-5.76-8.83.2-.08.71.16,1.61,1.33-3.16-4.89-6.58-8.32-10.64-11.82l.26.06c-3.05-3.09-6.65-5.36-10.48-7.05-.96-.47-1.9-.77-2.96-1.18l-1.14-.45-.59-.23-.64-.02-1.26-.04h-.93s-.87-.02-.87-.02l-.9.07c-.6.05-1.2.11-1.8.16-.61.08-1.22.22-1.83.34-.61.11-1.23.24-1.84.45.77-.36.9-.76,1.52-1-.33.04-.66.07-1.01.14-.35.08-.7.17-1.07.26-.73.19-1.5.35-2.25.68-1.53.55-3.05,1.36-4.41,2.28-2.75,1.86-4.55,4.31-5.26,5.93-1.07,1.01-1.73,1.76-2.12,2.39-.41.62-.68,1.09-.9,1.61-.23.53-.47,1.09-.92,1.91-.21.41-.44.89-.75,1.46-.32.57-.68,1.23-1.08,2.03-.31.32.08-.72.21-1.18-1.57,3.18-2.09,5.61-2.88,8.95-.36,3.79-.1,6.14.11,8.6.22,2.45.33,5,.36,9.21-.69.26-.82-1.04-.92-2.43-.08-1.39-.08-2.85-.64-2.96.12.86.26,1.65.32,2.53.09.88.11,1.83,0,3.02-.61-1.39-.36-.29-.9-1.25-.16.92.32,2.74.86,4.29.28.78.55,1.49.75,2,.22.51.35.83.32.83.29.06.31-.57.12-2.23.52.94.76,2.99,1.15,5.32.36,2.32.85,4.94,1.65,6.91-.45-1.33-1.08-5.51-.1-4.11.49,2.71,1.27,4.43,2.18,5.85.43.73.93,1.32,1.43,2.05.23.41.68.86.93,1.13.3.31.58.66.9,1.01,1.11,2.24.37,1.66-.71.63-.28-.25-.55-.55-.82-.83-.31-.31-.6-.61-.85-.86-.59-.71-.88-1.01-1.03-.66.02.15.03.33.05.53.01.21.06.44.12.64.04.19.11.43.11.57,0,.14,0,.28,0,.39-.03.23-.11.38-.27.36-.08,0-.19-.06-.32-.16-.06-.05-.14-.12-.21-.19-.1-.11-.22-.26-.35-.43.18.31.35.62.53.92.15.25.3.5.44.74.3.48.63.92.94,1.35.63.86,1.32,1.62,1.99,2.35,1.38,1.45,2.82,2.73,4.35,4.17l-.28.11c2.1,2.09,4.65,3.87,7.22,5.35,2.57,1.49,5.14,2.69,7.41,3.89-.8-.44-1.58-.89-2.32-1.39.91.35,3.73,1.57,5.49,1.5-.15.2.69.65,1.39,1.05.71.38,1.38.65.43.7.42-.12.96-.18,1.6-.21.32-.02.66-.03,1.02-.03.36-.02.76-.08,1.16-.12.81-.1,1.69-.1,2.58-.35.89-.2,1.83-.35,2.71-.72.44-.17.88-.33,1.32-.5.43-.17.83-.42,1.23-.63.39-.22.77-.44,1.15-.66.35-.24.67-.51.98-.76,1.28-.95,2.03-2.07,2.38-2.79,1.36-.94.95.44.76,1.05-.81.64-1.45,1.21-2.09,1.59-.64.38-1.17.7-1.66.99-.49.29-.95.49-1.38.76-.44.25-.83.59-1.31.88,1.62-.65,3.01-1.27,3.9-1.76.92-.44,1.45-.6,1.33-.31,1.12-1.48,3.08-3.68,4.16-6.12,1.13-2.4,1.59-4.75,1.35-5.64.24-.54.48-1.08.7-1.57.23-.49.33-.97.49-1.33.29-.74.58-1.1.91-.64.06-.66.01-1.21-.05-1.68-.05-.46-.11-.84-.17-1.13-.1-.59-.27-.86-.4-.94-.27-.15-.43.46-.7,1-.24.55-.48,1.02-.67.7-.1-.16-.18-.52-.25-1.16-.07-.32-.15-.71-.25-1.18-.12-.46-.14-1.04-.36-1.66-.38-2.4.2-1.4.69-.49.24.44.44.85.47.71.03-.07,0-.27-.1-.67-.05-.2-.11-.45-.19-.75-.04-.15-.09-.32-.14-.5-.07-.24-.06-.25-.08-.32.04-.02.27.58.43.94.02-.34.02-.66.02-.95.06-.13.11-.09.13-.23,0-.51-.08-.93-.2-1.26-.23-.68-.63-1.05-1.07-1.41-.93-.7-2-1.3-3.42-3.52.24-.6.92.07,1.36.5.41.43.67.53-.08-1.32-1.59-2.07-3.26-3.1-4.89-3.98-1.69-.83-3.28-1.64-5.81-2.44.3-.08.63-.17.94-.22-.84-.23-1.93-.48-3.21-.44-1.26.03-2.63.38-3.84,1.05-1.21.66-2.18,1.56-2.91,2.46-.19.22-.37.44-.52.66-.14.21-.28.4-.41.6-.12.16-.24.32-.35.47-.15.21-.28.43-.4.64-.27.06.03-.45.43-1.04-1.19,1.32-1.53,2.62-1.64,3.33-.11.75-.04,1.09,0,1.38.04.29.09.53.1,1.02.01.45.04,1.15.08,2.36l.72,1.1c0-.52-.02-1.19-.07-1.98-.05-.79-.11-1.72-.03-2.74.07-1.02.41-2.11.88-3,.13-.22.25-.43.37-.65.12-.18.3-.44.34-.52.02-.07.16-.31.24-.48.09-.19.18-.37.27-.55-.63,1.47.29.58,1.46-.16.3-.18.62-.35.91-.49.31-.12.59-.22.82-.27.48-.08.73.04.59.39l.25-.58c3.5-1.1,6.9,1.04,9.49,4.05,1.29,1.52,2.41,3.3,3.18,5.17.38.93.67,1.89.81,2.81l.03.17.05.27c.05.24.12.46.18.69l.18.74.18.71c.06.23.05.48.08.72.99,2.31.69,4.63-.07,6.65-.83,2.04-2.01,3.87-3.61,6.05.14.74-.05.95-.65,1.4-.29.25-.74.47-1.35.81-.58.39-1.4.73-2.45,1.27,1.11-.58,1.05-.84.58-.87-.24-.03-.57.04-.95.05-.38,0-.78.05-1.13.11-.35.32-.81.44-1.29.61-.24.08-.49.15-.75.23-.26.03-.53.05-.79.08-.11-.05-.3-.12-.54-.18-.24-.06-.53-.12-.86-.26-.66-.27-1.42-.44-2.33-.84-1.77-.68-3.63-1.49-4.81-1.65-2.44-1.71.79,0,1.47-.03-.79-1.04-2.35-.58-3-1.46,0,0,.11-.09.4,0-1.94-1.1-3.38-2.21-4.72-3.47-1.34-1.26-2.63-2.62-4.14-4.44-.58.25-1.46-.55-2.33-1.66-.45-.54-.86-1.18-1.29-1.75-.41-.59-.81-1.13-1.19-1.52.35.21.07-.48-.29-1.26-.07-.15-.08-.21-.12-.39-.07-.22-.13-.45-.2-.67-.15-.45-.25-.9-.31-1.24-.57-.68-1.11-1.42-1.64-2.17-.72-1.15-.82-2.08-.85-3.1-.05-1.03-.03-2.14-.51-3.79l-.08.85c-.4-1.2-.61-3.48-.58-5.76.03-2.28.33-4.55.67-5.76-.3-2.86-.32-5.57-.14-8.15.21-2.57.63-4.98,1.25-7.24.6-2.27,1.48-4.34,2.51-6.22,1.02-1.88,2.27-3.55,3.71-4.88,2.89-2.67,6.31-4.05,10.43-3.85.5-.03,1.03.05,1.57.11.35.05.43.03.65.17l.18.1.42.2c.28.13.56.26.85.39.57.26,1.11.59,1.68.88,1.15.57,2.24,1.3,3.42,1.97,1.11.76,2.3,1.5,3.43,2.38,1.42.64-.49-1.17.78-.86,1,.66,1.55,1.17,2.1,1.62.27.23.53.46.83.72.29.28.61.59,1,.97-1.16-1.61-1.24-1.07-.81-1.16-.94-.64-1.82-1.35-2.78-1.93-.07-.17.24.03.1-.3-.48-.3-1.01-.62-1.57-.96-.57-.33-1.17-.67-1.74-1.11,1.88.89,2.92.53,4.93,2.65-.25-.04-.54-.29-1.19-.68.91.76,1.4,1.14,1.87,1.44.46.31.86.59,1.41,1.31,1.42,1.68,1.24,1.1,1.15,1.58,1.42,1.77,2.79,3.57,4,5.5,2.94,2.08,4.31,6.32,4.73,7.33-1.06-.25-2.53-3.8-4.17-4.68.29.78.6,1.54.85,2.34l.62-.22.85,1.52.8,1.55-.21-.11c.42.23.87.47,1.1,1.37,0,.18,0,.56-.22.24l1.5,2.04c-1.25-1,.82,2.07-.04,2.08,1.62,3.75,2.88,6.08,4.02,8.34,1.12,2.28,2.1,4.49,2.89,8.16-.08-1.26,1.96,1.79,2.6,4.02.27,1.32.22,1.69-.34,1l1.39,2.73c.14,3.99,2.09,7.27,3.69,12.75l-.42-.16c1.12,1.84,2.23,3.86,3.34,6.88l-.86-.28c.55,1.92,1.16,2.48,1.83,3.07.33.3.67.61,1.01,1.1.15.2.42.71.34.52.15.37.3.81.45,1.33.17-.07.26-.29.3-.59.02-.15.03-.32.04-.5,0-.09,0-.18,0-.28v-.14s0-.07,0-.07v-.04s.04.09.04.06c.12-.08.03-.6.04-.93,0-.35.04-.64.16-.8-.07.31,0,.81.13,1.37.04.22-.02.2.09.58.08.29.17.59.26.86.37,1.1.78,1.89.84,1.29,1.83,3.9,1.07,2.78,1.04,3.19l1.41,2.13c1.16,2.77-.49,1.27-1.32.4.93,1.13,1.54,2.47,2.12,3.87.59,1.39,1.1,2.87,1.72,4.33l-.84-1.03c.56,1.28,1.1,2.58,1.69,3.83,1.72,2.18,3.46,5.56,4.85,8.78l-1.98-1.69c.71,2.41.89.97,1.33,1.47,2.22,3.22,2.06,4.24,2.57,6.3,3.85,4.96,4.7,11.55,8.62,15.41ZM73.68,100.61l-.24.53c.05-1.29.03-2.03.24-.53Zm-4.83,33.18c.03-4.06.37-2.74.66-3.01-.7,3.93-.53,6.17-1.18,9.64.24-.55.51-.63.68-.8-.18,1.39-.49,2.77-1.01,3.21-.86-1.82,1.57-10.73.84-9.04Zm9.99-75.36c.03.16.05.33.06.52v.02s-.06-.54-.06-.54Zm-4.64,19.72c-.27.23-.5.69-.72,1.26.34-.3.63-.6.72-1.26Zm-8.58,39.33c-.52.87-.67,2.99-.77,4.54.14-.71.42-1.98.77-4.54Zm28.01,249.91c-.56-1.09-1.72-3.12-1.28-1.05.67.83.76,2.86,1.55,3.48.02.12.02.14.03.21-.11-1.26-.19-2.3-.29-2.65Zm35.11,64.53c.45-.02,1.28.51,1.24-.13.04.09.1.21.15.31-.04-.33-.08-.6.11-.45-.44-.86-.89-1.78-1.34-2.3-1.27.4-2.51-1.23-.16,2.57Z"/><path class="cls-1" d="m110.71,1.33c-.19.34-.39.68-.56,1.02l1.66-1.68c1.9-3.4,1.56-3.91,1.62-5.06-.8,1.59-1.54,2.79-2.42,4.05-.44.63-.9,1.28-1.41,2-.48.74-1,1.57-1.58,2.53.9-.96,1.75-1.96,2.69-2.87Z"/><path class="cls-1" d="m106.04.55c-.36.24-1.27.84-1.63,1.31v.71s1.63-2.03,1.63-2.03Z"/><path class="cls-1" d="m82.83,41.64l1.7-3.4c.12-1.25-2.04,2.63-1.7,3.4Z"/><path class="cls-1" d="m95.59,29.05l.43-1.94c-1.04,1.43-2,3.58-1.73,4.12.75-2.22.48-.42,1.3-2.18Z"/><path class="cls-1" d="m79.24,51.17c.32,1.36-1.51,3.49-1.07,4.46.11-1.01,1.71-4.04,1.07-4.46Z"/><path class="cls-1" d="m87.06,51.12c1.1-.85,1.09-2.91,2.11-5.02-.73,1.8-2.31,4.12-2.11,5.02Z"/><path class="cls-1" d="m75.44,71.14c-.48-.33-.04-1.85.55-3.54.01.62.16,1.07.03,1.86.34-2.98.54-3.14.95-5.49-.52,1.08-1.1,2.47-1.61,3.51-.49,1.05-.92,1.76-1.2,1.48.04,1.85.22,4.15,1.28,2.18Z"/><path class="cls-1" d="m85.31,56.46c.79-1.79,1.67-2.71,2.41-4.91-.49.25-1.3.79-2.1,3.39l-.3-1.13c-1.25,2.25,1.11-.67-.01,2.65Z"/><path class="cls-1" d="m71.32,81.34l.57-1.09c.15-2.82,1.24-6.23.88-7.95-.21.82-.41,1.69-.6,2.56-.17.88-.32,1.75-.44,2.58-.25,1.65-.41,3.09-.41,3.91Z"/><path class="cls-1" d="m81.32,65.21l.76.61c.89-2.57-.35.1-.27-.89.35-.71.75-1.8.75-2.4-.75,3.01-.75-.02-1.24,2.68Z"/><path class="cls-1" d="m79.86,74.09c-.17,1.16-.37,2.3-.51,3.46.52-.8,1.09-1.59,1.64-2.38.72-4.02-.49-.33-1.13-1.08Z"/><path class="cls-1" d="m78.21,78.1l-.26.34.06,5.4c.19-3.15.32-3.32.2-5.73Z"/><path class="cls-1" d="m62.37,140.35c.33.63,1.09-2.43.54-1.14-.27-.62-1.12,3.48-.54,1.14Z"/><path class="cls-1" d="m70.77,128.48c-.23.72-.33,2.32-.38,3.99-.04,1.68.03,3.45.06,4.52,0-2.56.88-8.81.32-8.51Z"/><path class="cls-1" d="m70.47,137.87c0-.17-.02-.5-.03-.88,0,.39,0,.67.03.88Z"/><path class="cls-1" d="m72.6,227.51c.03.23.08.45.16.64-.05-.22-.1-.41-.16-.64Z"/><path class="cls-1" d="m72.21,225.4c.02-1.45-.44-4.3-.89-4.77.37,2.26.65,4.26,1.29,6.88-.12-.99.07-2.24-.39-2.11Z"/><path class="cls-1" d="m74.03,245.92c-.38-1.03-.4-2.51-.74-2.1-.11.62.56,2.84.74,2.1Z"/><path class="cls-1" d="m96.87,384.37c.56,1.96,1.18,3,1.49,2.28-.87-2.1-.71-.82-1.49-2.28Z"/><polygon class="cls-1" points="99.49 389 99.34 389.36 99.46 390.75 99.49 389"/><path class="cls-1" d="m104.45,402.12c-.13-.06-.37-.34-.59-.66.41.68.78,1.26.59.66Z"/><path class="cls-1" d="m103.66,401.11c.06.11.14.24.21.35-.07-.11-.14-.24-.21-.35Z"/><path class="cls-1" d="m103.43,400.2l-.34-.02c.14.19.34.57.56.93-.19-.33-.31-.72-.23-.91Z"/><path class="cls-1" d="m106.18,405.97l-.38-2.79c-1.58-2.33.97,3.05-1.04.97l1.42,1.82Z"/><path class="cls-1" d="m110.59,414.2c.98,2.39,3.89,5,3.71,6.75,4.06,6.04.65-2.27,5.08,4.71-1.71-3.51-2.62-4.13-3.48-4.66-.87-.53-1.67-.97-3.06-4.17,1.04,3.26-1.51-1.75-2.25-2.63Z"/><path class="cls-1" d="m111.54,412.32c-.66-.13.81,2.76,1.6,3.48-.39-.86-.56-2.6-1.6-3.48Z"/><polygon class="cls-1" points="120.32 408.52 117.67 404.56 118.41 405.92 120.32 408.52"/><polygon class="cls-1" points="119.04 405.73 119.24 405.46 116.89 402.62 119.04 405.73"/><polygon class="cls-1" points="116.8 401.26 117.04 401.77 118.71 404.04 116.8 401.26"/><path class="cls-1" d="m112,392.6l.05.98c.69.99,1.48,3.31,1.88,2.82-.71-.8-1.89-3-1.93-3.79Z"/><path class="cls-1" d="m86.64,368.44c.64.68.65.09.67-.5-.43-.32-.84-.65-1.26-.98.2.37.6,1.11.59,1.48Z"/><path class="cls-1" d="m85.4,362.5c-.77-.99-1.44-2.05-2.16-3.09.35,1.01.67,1.78.97,2.42.32.63.62,1.14.93,1.62.61.97,1.21,1.87,2,3.52-.37-1.53-1.79-3.28-2.36-5.18l.62.7Z"/><path class="cls-1" d="m58.88,297.58c.62-.04.18-.68,1.82,1.26-2.15-2.72-3.75-5.2-6.38-8.06.17.71-2.2-.99-1.1,0,1.06.95,2.03,2,3.03,3.05-.23-.1-.47-.18-.7-.27,1.48,2.66,1.74,1.16,3.34,4.02Z"/><path class="cls-1" d="m51.02,317.2c.57,0,.13-.52-.38-1.04-.81-.27-1.14-.31-1.2-.23-.05.07.18.23.47.43.6.38,1.39.98,1.1.84Z"/></g><g><path class="cls-1" d="m87.13,330.67c-.17.72.08.23.33.12l-.33-.12Z"/><path class="cls-1" d="m87.47,330.79l.24.09c-.07-.11-.15-.12-.24-.09Z"/><path class="cls-1" d="m89.68,331.09c-.44.6-1.12-.11-1.36.77.56.46,1.36.18,1.36-.77Z"/><polygon class="cls-1" points="88.87 330.6 88.85 331.07 89.21 330.31 88.87 330.6"/><polygon class="cls-1" points="88.52 330.2 88.6 330.37 89.21 329.83 88.52 330.2"/><path class="cls-1" d="m91.42,331.14l-.48.21c-.57-.55.17-.9-.21-1.27-.61.11,0,1.35-.82,1.28.15.59,1.26-.22,1.29.73.73.18-.06-.55.23-.95Z"/><path class="cls-1" d="m108.36,309.63s.07-.02.1-.03c-.1-.01-.18-.01-.1.03Z"/><path class="cls-1" d="m109.61,302.33c.12-.08.19-.17.24-.27-.1.01-.19.04-.27.07l.03.19Z"/><path class="cls-1" d="m108.13,314.63c-.15.05-.26.1-.35.15.14.01.27-.02.35-.15Z"/><path class="cls-1" d="m104.61,278.04c0-.08-.03-.18-.07-.3,0,0-.01,0-.02,0l.02.32h.07Z"/><path class="cls-1" d="m109,293.96c0-.12-.02-.23-.08-.33-.02.19.01.29.08.33Z"/><path class="cls-1" d="m106.82,317.04s.05-.06.07-.09c-.05.01-.11.03-.16.07l.09.03h0Z"/><path class="cls-1" d="m107.87,304.4c.09-.08.16-.15.17-.23-.1.07-.14.15-.17.23Z"/><path class="cls-1" d="m99.35,329.63c.18.02.26-.11.31-.26-.15-.08-.26-.03-.31.26Z"/><path class="cls-1" d="m102.04,327.94s0,.01-.01.01c.08.08.07.06.01-.01Z"/><path class="cls-1" d="m103.73,326.83s0,.03-.01.04c.07.05.09.05.01-.04Z"/><path class="cls-1" d="m99.66,329.37c.4.2,1.05,1.21.72-.11l-.14-.12c.33.16.33-.44.51-.59-.08-.1-.16-.17-.24-.23-.11.04-.26.09-.51.13-.38-.1-.23.53-.34.92Z"/><path class="cls-1" d="m108.58,309.74c-.24-.06-.18.15,0,0h0Z"/><path class="cls-1" d="m108.65,312.24c.04-.06.09-.13.12-.2-.07.05-.14.1-.12.2Z"/><path class="cls-1" d="m103.92,319.38s.04,0,.07,0c-.1-.1-.1-.06-.07,0Z"/><path class="cls-1" d="m108.86,311.86c-.02.07-.06.13-.09.19.07-.04.13-.09.09-.19Z"/><path class="cls-1" d="m106.04,317.77s.04,0,.05-.01c-.02,0-.04,0-.05.01Z"/><path class="cls-1" d="m80.54,310.99c-.08-.23.28-.28.42-.46-.78-.6-.18.9-.83.12-.03.2.06.37.15.54l.85-.13c-.25-.44-.32.2-.6-.07Z"/><path class="cls-1" d="m101.29,278.68s.07,0,.12,0c-.31-.22-.34-.35-.73-.28.18.6,1.09.94,1.16,1.72.02-.11.15-.18.3-.21-.49-.24-.71-.76-.86-1.23Z"/><path class="cls-1" d="m102.15,279.91s.02.01.04.02c.07.04.13.08.19.1.05-.04.12-.06.2-.06-.14-.07-.3-.09-.43-.07Z"/><path class="cls-1" d="m82.55,304.4c.05-.07.1-.14.15-.2-.19.06-.21.12-.15.2Z"/><path class="cls-1" d="m119.42,294.91c.08.1.16.2.25.28-.04-.15-.13-.23-.25-.28Z"/><path class="cls-1" d="m106.47,275.5c.09.02.17,0,.25-.03.05-.05.09-.1.14-.15l-.4.18Z"/><path class="cls-1" d="m100.93,292.03c-.66-.68,0,.13-.6.05l.25.51c.26-.11.27-.38.36-.56Z"/><path class="cls-1" d="m80.23,311.2s.05.01.08.02c0,0-.01-.02-.02-.03h-.06Z"/><path class="cls-1" d="m96.87,298.75c-.06.02-.12.03-.17.05.06,0,.12-.01.17-.05Z"/><path class="cls-1" d="m103.96,278.82l1.03-.82-.39.03c.06.55-.77.15-.65.78Z"/><path class="cls-1" d="m104.06,289.03l.48.31c-.19-1.53,1.84-1.16,1.19-2.92,2.23.54-.67-1.86,1.4-1.33l-.22-.18.13-.09h.03s.07-.02.07-.02c.04,0,.09-.01.13-.02.08,0,.19-.02.27,0,.17.02.31.08.4.13.2.09.2.2.61-.5.05-.07.1-.13.15-.19l-.29.66c-.18.82-.17.74-.05.94.01.03.03.03.04.08v.06s.05.26.05.26l.06.52c.09.69.14,1.38.19,2.07.1,1.38.11,2.78.01,4.17.36.53,1.24.23,1.68.7-.04.2-.02.65-.5.63-.25-.39-.69-.19-.88-.33.02.63-.57,1.41-.01,2l.66-.43c.26.24.05.57,0,.77-.32-.1-1.03.13-1.17-.05,1.47,1.29-.73.86-.22,1.88,1.3.32,2.28,1.71,3.09,2.69l-.41.39c.1-.58-.97-.14-.79-.84-.48.54,0,1.18-.29,1.7.35-.05.78.05.89.31-.25.32-.92.22-1.06.6l-.34-.46c-.55.16.06.51.09.76-.57-.03-.78.52-1.37.29.65.68.17.76.52,1.41.72-.44.68.32,1.15.37l-.06-.71c-.59.84-.02-.32-.98-.46.53-.34,1.4.94,1.42.18.26.99-.2,1.07.35,2.18-.04-.6.58.27.93.04-.14.72-.37.09-1.02.15-.09.38-.65.37-.07.91-.46.52-.66-.29-1.13-.1-.56-.39,1.27-1.45-.83-1.82.05-.32-.64-.88-.49-1.3-.36.32-1.16.68-.81,1.26l1.14.33c-.07.36.68.65.5.88-.29-.23-.84-.12-.83.19.19-.03.18-.16.37-.07-.08.55.69.87.69,1.58.47-.43.83-.44,1.48-.81.76.38,0,.4.02.73-.09-.08-.1-.15-.28-.11l.29.44c-.58.56-1.12-.45-1.69-.04-.79.14.19.64-.28.79.08,0,.16.01.22.02-.04.06-.07.1-.1.12.02,0,.03,0,.06.01,0,.39-.2.74.33,1.06-.28-.07-.05.33.08.52.15.28.63,1.04-.4.94,0-.01,0-.01,0-.02-.28.39-.74.57-1,.34l-.54.55-.69-.42c-.09.68.38.84.9,1.63-.66.19-.72,1.1-.62,1.54-.06.03-.09.1-.13.24.14-.02.28-.05.42-.08-.3.44.09.6-.1.9.1-.02.15,0-.07.09-.04.04-.09.09-.16.14-.06-.06,0-.12.07-.16l-.26-.09c-.95-.12.05.81-.45,1.04,0-.05,0-.15.02-.18-.31.1-1.47-.3-.96.2-.11,0-.05.15.04.32l-.21.07c.08-.04.14-.06.21-.07.12.23.28.49.13.4l-.5.43c-.17.02-.18.22-.19.39l-.33-.13c-.11.21-.27.08-.32,0-1.4-.19-.35,1.36-1.71,1.24.28.51.71.45.95.64.21.4.11,1.03.13,1.44-.81-.24-2.19-.03-2.75-1.01-.58.37.6.39.58.91l-.09.02c.27-.05.67.12,1.06.35.44.42.03.98-.24.98l-.43-.76c-.34.66.58,1.61.71,2.56-.69.06-.86-.76-1.41-1.32l-.36.51-.36-.53c-.21.35.05.92-.52.98,0-.7-.98-.14-.96-1.08-.34-.05.21,1.06-.34.39.17.69.39.17.62.29.61.79-.31.72-.48,1.11-.27-.44-.09-.64-.6-.74.11.38.03.79-.39.45.29.58-.36.31-.58.36.28.01.83.28.92.85-.08.32-.19.51-.66.63l.43.14c0,1.04-.91-.33-1.31.17.08-.44.21-.52.21-1.03-.11.4-.4,1.02-.7,1.43l-.77-.73c.1.47-.51.14-.31.75-.69-.22.21-.89.1-1.36-.8-.18-.21,1.24-1.16.48l.05-.63c-.23.01-.57.46-.68.17.06.21.14.1.28.06.22,1.27-.8,1.14-.4,2.41h.35c-.43.37-.61,1.37-1.11.98-.39-.37.04-.91.13-1.3-.48.03-.08,1.5-.7,1.49.35.16.38.63.26,1,.37.03,1.16.13.91-.39l-.15-.09c-.04-.34.12-.52.17-.71.46-.12.35.53.51.76.84,0-.25-1.31.45-1.45l.16.23c.24-.42.74-.59.58-1.41.55.72.63-.58,1.1-.21.68,1.75-1.15.3-1.23,1.37.48.28.05.92,0,1.38.33-.36.65-.73.94-1.13.17.21.82.99.8.26h-.11c.39-.37,0-1.06.47-.95.12.14.11.46.12.59.43.03.15-.51.32-.75.41,0,.11.8.49.86.13-.86.72-.14,1.07-.35-.58-.92.75-1.95-.4-2.46.16-.33.3-.69.42-1.05.51.35.18,1.62.81,2.31-.22.12-.46.19-.68.29.34.57.62.24.91-.17.29-.39.61-.78,1.2-.26.38-.16.2-.24,1.21-.1l-.75-.93c.46.01.93.48,1.07.65.15-.2.34-.29.56-.38.05.18.08.36,0,.49.63.37.57.11.45-.24-.04-.34.19-.45.41-.59l.07.49c.07-.17.15-.38.03-.57.08-.07.14-.16.17-.27-.18-.13-.72-.55-1.2-.61,1.01-.17,1.37-.84,2.64-.6.21.27.23.82.33.78.45-.13.34-.91-.04-1.25.04-.09.08-.14.12-.19.26.16.54.33.72.23.11.05.23.06.35,0-.57-.77.33-.96.12-1.39-.18.07-.35.22-.48.4-.22-.66-.55-1.35-.03-1.19.05.85,1.14.19.74,1.04,1.3.33-.41-.83.34-1.04l.64-.02c.48.5-.21.76.05.85l.14-.29c.18.58-.82,1.23-.83,2.27.44-.26.9-.51,1.31-.81.32-.98,1.04-1.73,1.58-2.58.58-.82.99-1.71.76-2.76,0,.02-.01.04-.02.06-.04-.06-.14-.14-.35-.3l.18.04-.28-.52c.74.07,1.16-.42,1.87-.64-.54.09-.53.09-1-.14-.56-.4-.79-.59-.34-.89.43.23.27.49.79.36-.3.05-.52-.27-.47-.48.41-.09.7-.46,1.14-.24.05.18-.15.19-.25.23.05.18.65-.26.81.27.05-.17.08-.35.11-.52.5-.09.49.47.77.49.08-.94-.74-1.82-.72-2.63.22.14,1.21.59.93.46.55-.42-.6-1.64-.44-2.26.26.21.05.39.12.63,1.17-1.72,1.67-3.27,3.21-4.83l-.95-.77.84-.29c.59-.88.81-1.76.83-2.64.05-.88-.05-1.77-.09-2.72.02-.59.83-.23,1.18-.46.32-1.28-.93-1.75-1.03-2.97.32.2,1.25.59,1.36.07-.31-.13-.81-.24-.58-.56l.33.2c.53-.26.08-.6.34-1.21.08-1.12-.69-2.24-1.88-3.16.16-.96,1.2.14,1.45-.04-.44.67.18.49.56.65-.3-.38-.48-.83.33-.99-.04-.51,0-.75-.54-1.26.27.26-.17.47-.53.23.28-.41-.01-1.47.99-1.42-.13-1.21-.14-2.5-.2-3.8-.02-.65-.05-1.31-.1-1.97l-.08-1.07c-.04-.49-.12-1.04-.19-1.54-.59-.55-.12.57-.53.28-.78-.76.23-.87-.38-1.46l.57.12c-.04-.61-.35-1.14-.71-1.56-.39-.41-.84-.72-1.15-1.04.59-.23.3-1.19.8-.57-.09-.22.45-.96.93-1.7.48-.74.89-1.48.6-1.5-.7.91-1.41,1.77-2.13,2.59-.23.16-.22-.64-.35-.44.36-.82.73-1.88.65-2.19.5-.75.58.19.68.64.96-.81.2-2.16,1.21-2.35-.42-.9-.43.64-.92.39l-.03-1.1-.13,1.03c-.45-.43-1.15.21-.9-1.35-.35.06-.7.15-1.04.27.62-1.08-.04-.84-.01-1.54l.47-.38c-.18-.61-.14-1.04-.02-1.88.63-.6.02.84.58.09l-.02-1.1c-.34.64-.72.69-.8,1.59-.8.52-1.4,1.27-1.72-.3.35-1.99.67-.38,1.13-1.89-.07-.72-.29-.91-.57-.74-1.03,1.43-1.94,3.41-2.4,3.63-.8.12-1.08,1.23-1.99,1.89.48-1-.47-.42-.54-1.02l.56-1.07c-.37.45-.63.36-.44-.26-.05.5-.44.97-.9,1.42-.44.47-.96.93-1.3,1.4l.09.72c-.51.63-1.13,1.58-1.64,1.75-.7.77-.44,1.29-.75,2.42-.42-.42-.62-1.15-.71-1.98.3.2.59-.26.97-.28.42-.65.81-1.53,1.27-2.31.45-.78.98-1.47,1.53-1.67.33-1.18.13-.99-.22-.53-.35.46-.8,1.14-1.08,1,.01-.13.05-.19.1-.24-.05.03-.1.05-.14.04.41-.53,1.12-1.33,1.32-2.44-.8.75-.6,2.33-1.5,2.13-.62.97-1.29-.08-1.78.12-.38.99-.1,2.36-1.18,2.82.06-.41.13-.83.21-1.25-1.26.86-.18,1.72-1.22,2.5.39-.18.04,1.1.68.61-.13.73-.7,1.29-1.32,1.52-.05.23.14.28.28.56.42.04.52-.26.66-.52.13-.26.29-.5.67-.24-.02-.4-.02-.81,0-1.23.64-.07.89.73.75,1.31.11-.13.18-.35.32-.25.25.72.09.68-.11.63-.2-.05-.45-.06-.29.59l.23-.34c.41.85-.28,1.34-.63,1.56-.57-.08-1.03.12-1.47-.4l.42-.77c-.62-.18-.59.96-.92,1.22-.08-.05-.16-.07-.24-.07.06.03.11.06.15.11-.09.04-.2.02-.36-.05-.28.2-.36.84-.75.89l.45.41-.21-.27c.25-.19.82-.2.95.29-.22.76-1.13.03-1.61-.23-.55-.79.5-.48.55-.94-.8-.52-.61.4-1.54.51-.5-.93.6-.61.09-1.39-.57.29-.15.93-.78,1.2-.28-.39.13-.87-.32-1.27l-.49.09c.67-.78-1.01-.76-.62-1.52-.56-.02.21.97-.62.91.42.2,1.28.46,1.21,1.1l-.61.21c-.52-.16-.35-1.19-.91-1.2l-.18.69c.23.19.54.09.71.51-.48.03.44,1.22.49,1.81-.24.22-.46.36-.8.2.07,1.17-.56,1.97-.39,3.07-.14-.77-.8-.65-1.35-.7.28-.53-.44-1.15-.93-1.51-.16.35.44,1.15.8,1.22-.68.22.24.73-.59.74-.47.06-.62-.72-.97-.85-.46.48.78.86.15,1.27-.07-.11-.06-.18-.24-.25-.4.17-.32.77.02,1.12-1.22-.41-.56,1.01-1.47.23-.28.95.61.27.84.67.21.62-.54.93-.83,1,.11-.2-.03-.56.24-.63l-.79-.33c-1.16.61,1.12,1.68-.12,2.17-.03-.71-.41-.51-.73-1.07.07.26-.63.85.2.77-.31.3-.58.47-.86.63.07.49.06.96.41,1.43-.37.45-1.1.51-1.56.57-.06.69-.47,1.13-.85,1.61-.37.49-.73.99-.75,1.72l.09-.06c-.6.82,1.18.12.68,1.02-.85-.59-.9.24-1.54.31-1.09.92-.24,2.34-1.35,3.14-.19-.09-.4-.26-.33-.49-.65.72-.75,1.48-1.12,2.22l-.1-.08c-1.21.98-.66,2.47-.86,3.83-.09-.14-.45-.28-.55-.41-.47.58-.88,1.64-.1,2.36-1.17.55.16.6-1.04,1.4-.19.02-.14-.14-.16-.22-.46.43-.45.82-.69,1.32.38,1.3,1.66,1.82,1.03,3.07-1.38-.16-.2-.88-1.28-1.1.2.32.43.59.05.91-.5-.31-.33-.1-.8-.35-.41.24,1.23,1.39,1.1,1.35.26.05.42-.02.43-.29.81.44-.19,1.31.12,2.01.03-.21.39-.83,1.01-.5-.39.82.92,1.26,1.41,1.89-.69.71-1.11-.69-2.09-.65-.36.09-1.16.34-1.51-.04-.27.72.51,1.32.66,1.98l-.27-.04c.02.46.3.95.51,1.4.24.46.4.89.12,1.26l.32-.39c.16.15.08.6.64.86-.46-.04-.87.54-1.25.3,1.46.41.88,2.04,2.26,2.43-.36.24-.96.08-1.29.02.13-.57.42-.76-.16-1.04.02.47-.36.82-.69.76.88.45,1.37,1.53,2.28,1.7-.43.36-.65.7-1.41.64.58,1.37,2.28-.86,2.39.7-.67.78-1.05-.61-1.22.4l-.13-.17c-1.88.92,1.43.37,1.43,1.16-1.05.23-.8-.48-1.51.17.35.72,1.99.82,1.77,1.58l-.47-.05c.16.45.1,1.39.26,1.84-.2.06-.18-.01-.26-.09-.25.94.59.25,0,1.1l.54.1c.3-.43.7-1.2.03-1.53.67.33,1.21-.92,2.14-.86l-.37-.02c.68-.69,1.01-1.37,1.21-2.07.2-.69.39-1.41.61-2.11-1.15-.78.32-1.49-.5-2.37-1.24-.1-.25-.17-.49-.96.15.42.94.03,1.11-.23-.32-.15-.44-.34-.55-.53.43-.17,1.43-1.13.59-1.52.4-.46.4.13.66.23.64-.17-.5-.4-.07-.54,0,0,.13.01.2.06-.06-.73.36-1.14.56-1.87-1.21-.16-.39-.77-.8-1.15.38.15.49-.38.74-.56l-.86-.51c-.74-.5.61-.49.28-1.06l-.24.09c-.3-.43.6-1.32,1.31-1.56-.94-1.94-.16-3.23.68-4.42.41-.6.94-1.16,1.4-1.79.45-.64.8-1.35.94-2.26-.27-.35-.63-.05-1.08-.42-.01-.41.09-.46.2-.78-.42.16-.03.26-.33.1.04.21.07.4.12.61-.09,0-.11-.08-.29-.09.05.21.21.49.08.68-.19-.41-1.02-.82-.54-1.12.1.08.11.14.15.28.2-.32-.19-.49.14-.66.32-.24.03-.27.41-.16l.86-.78c-.79-.91.41-1.1.56-1.21.69.43-.04.74.59,1.29l.68-.1-.58-.28.37-.41.1.08c-.21-.16-.41-.32-.15-.36.09.02.27.04.28.11l-.18-.5c.51.48.32-.21,1,.17.9-.89-.22-1.84,1.2-2.3-.4-.02-.92-.88-.64-1.11.25-.08.43-.04.63.21-.05-.19-.1-.38-.13-.57,1.33.13.93-.7,1.69-1.16l.27.21c-.19-.46-.3-.9.03-1.21l.53.43c.68-.19-1-1.13-.3-1.39-.61-.41-1.14-.3-1.74-.62.68.27,1.16-.19.64-.36.11-.67.26-.33.44-.28l-.16-.54c.28-.33.86.44,1.12.8-.42-.77.29-.81.65-1.09l.16.34.45-.4c-.23-.64.02-1.13.59-1.32l.54.85c.61.05-.15-.34-.22-.51-.02-.71.57-.39,1.17-.27-.21-1.31,2.28-.29,1.66-1.79Zm.34,30.48l.16.03c0,.24.06.42-.16-.03Zm2.97-3.85c.04.71-.26.31-.52.22.51-.37.4-.8.93-1.1-.21-.02-.44-.13-.6-.18.14-.15.43-.23.89-.07.73.68-1.32,1.09-.7,1.13Zm-4.38,11.99c-.02-.07-.04-.15-.06-.22h0s.05.22.05.22Zm2.1-2.81c.18.12.31.14.44.13-.22-.14-.41-.26-.44-.13Zm5.28-4.37c.42.09.52-.28.58-.55-.1.08-.33.2-.58.55Zm5.86-41.49c.18.13.63.36.81-.3-.34.03.1-.86-.39-.64.01-.04.02-.05.03-.08-.23.53-.44.94-.44,1.03Zm-12.46,2.73c-.24-.31-.43-.72-.7-.88.02,0,.04,0,.06-.01-.13-.07-.23-.12-.26-.21-.17.04-.35.08-.35.24.85.97.76,1.33,1.26.86Z"/><path class="cls-1" d="m108.05,271.68c-.09.09-.17.13-.23.2.06-.04.13-.11.23-.2Z"/><path class="cls-1" d="m102.53,280.83c.05.07.27.04.53,0-.14-.09-.31-.11-.53,0Z"/><path class="cls-1" d="m91.82,327.92l.14-.17-.41-.29c-.47.51-.4,1.07-.42,1.73.41-.67.79-.43,1.4-.79l-.71-.48Z"/><path class="cls-1" d="m93.08,332.03c.1.15.37.53.48.54v-.4s-.48-.14-.48-.14Z"/><path class="cls-1" d="m101.41,330.81l-.76.03c-.03.41.96.55.76-.03Z"/><path class="cls-1" d="m95.99,325.93l-.08.51c.36.21.66.03.52-.43-.2.38-.18-.2-.43-.09Z"/><path class="cls-1" d="m103.04,329.93c-.25-.77.76-.1.47-.79-.03.28-.86.12-.47.79Z"/><path class="cls-1" d="m98.73,323.98c-.53-.54-.42.14-.79.15.23-.13.96.34.79-.15Z"/><path class="cls-1" d="m104.57,326.05c.33.44.1.59-.22.68-.03-.2-.14-.44-.09-.59-.11.65-.2.61-.35,1.07.55.05,1.2-.16,1.59.41-.08-.6-.3-1.42-.92-1.57Z"/><path class="cls-1" d="m99.32,323.46c-.34-.02-.75-.36-.98-.15.25.3.64.71.9.41l.24.62c.56.19-.58-.64-.16-.88Z"/><path class="cls-1" d="m106.97,325.89l-.36-.07c0,.72-.62.97-.32,1.75.46-.41.73-1.22.67-1.69Z"/><path class="cls-1" d="m101.13,323.64l-.51-.75c-.37.14.21.22.23.48-.16-.03-.34,0-.31.19.28-.37.47.57.59.08Z"/><path class="cls-1" d="m101.49,322.06c.04-.2.09-.39.11-.6-.31-.15-.62-.32-.93-.49-.19.6.35.44.82,1.1Z"/><path class="cls-1" d="m102.35,322.11l.16.09c-.12-.5-.25-1-.39-1.48.08.7,0,.66.23,1.39Z"/><path class="cls-1" d="m113.07,317.51c-.29-.27-.97-.03-.48-.03.23.24,1.02-.15.48.03Z"/><path class="cls-1" d="m105.82,315.67c.36-.03.22-.92.13-1.3-.01.4-.59,1.08-.13,1.3Z"/><path class="cls-1" d="m105.92,314.22s.02.09.03.16c0-.06,0-.11-.03-.16Z"/><path class="cls-1" d="m108,301.81s-.03-.07-.09-.11c.03.04.06.07.09.11Z"/><path class="cls-1" d="m108.17,302.15c-.17.17-.02.61.38.76-.13-.35-.19-.65-.55-1.1.02.15-.3.26.17.33Z"/><path class="cls-1" d="m108.8,299.3c.23.18.08.38.46.37.18-.07-.18-.44-.46-.37Z"/><path class="cls-1" d="m117.88,272.29c.02-.74-.17-.88-.56-.11.15.55.33-.12.56.11Z"/><polygon class="cls-1" points="117.07 271.67 117.26 271.28 117.49 270.43 117.07 271.67"/><path class="cls-1" d="m116.75,267.05c.07-.1.16-.14.22-.12-.11-.11-.2-.17-.22.12Z"/><path class="cls-1" d="m117.02,266.98s-.03-.05-.05-.06l.05.06Z"/><path class="cls-1" d="m116.96,267.48l.21-.37s-.1-.07-.16-.13c.04.08.04.24-.06.5Z"/><path class="cls-1" d="m116.52,265.77l-.38,1.97c.46.11.08-1.47.86-2.09-.16.03-.32.07-.48.12Z"/><path class="cls-1" d="m114.93,265.76c-.22-.02-.72.63-1.11,1.1-.4.47-.7.77-.66.14-.93.93-.96,1.45-1.05,2-.08.54-.2,1.08-1.05,1.87,1.29-.22,1.48-3.31,2.75-3.47-.44-.46.73-1.08,1.12-1.63Z"/><path class="cls-1" d="m114.26,268.24c.38-.85-.28-.47-.66.17.17-.05.11.85.66-.17Z"/><path class="cls-1" d="m111.57,268.52c-.12-.07-.25-.14-.39-.21l-.21.53.6-.32Z"/><path class="cls-1" d="m109.75,269.47l.59-1.09c-.22.41-.93.84-.59,1.09Z"/><path class="cls-1" d="m107.18,270.37c-.5.1-.74,1.93.14.95l-.21.08c.05-.29-.52-.48.07-1.03Z"/><path class="cls-1" d="m102.16,276.76c.28-.21.5-.64.31-.85l-.59.9.28-.06Z"/><path class="cls-1" d="m104.03,279.53c.59.58.41-.46.87-.49-.43.17-.45.02-.87.49Z"/><path class="cls-1" d="m100.61,276.58c0-.46.49-.6.71-.73-.36-.31-.87.32-.71.73Z"/><path class="cls-1" d="m99.78,277.7c-.38-.1-.28-.37-.56-.43-.59.03-.92.38-.77.9.33.17,1.11.74,1.27,1.17.29-.69-.47-2.04.59-1.42-.08-.25-.2-.47-.25-.74-.04-.29-.07-.58-.09-.89-.23.12-.34.27-.38.42-.02.13.05.24.1.38.12.26.27.51.09.61Z"/><path class="cls-1" d="m102.88,278.6c-.21-.03-.43-.05-.65-.06.36.31.14.61.06.89.77.72.4-.57.59-.83Z"/><polygon class="cls-1" points="97.47 280.93 97.09 281.67 97.32 281.52 97.47 280.93"/><polygon class="cls-1" points="96.86 281.07 96.62 280.88 96.61 281.7 96.86 281.07"/><polygon class="cls-1" points="96.01 281.44 96.12 281.4 96.25 280.87 96.01 281.44"/><path class="cls-1" d="m94.77,282.59l.43.17c.04-.23.68-.22.2-.58.04.27-.29.55-.63.41Z"/><path class="cls-1" d="m100.54,293.54c-.17-.27-.42-.36-.68-.45l.51.59c0-.07,0-.2.18-.14Z"/><path class="cls-1" d="m99.06,293.5l.42.89c.44-.39-.07-.84.12-1.33-.35.02-.02.61-.37.7l-.17-.26Z"/><path class="cls-1" d="m93.57,302.08c-.49-.26-.47-.12-.65-.62.11.62-.18.99-.33,1.58.36.04.75.67.7.41l-.05-.74.31.24c.57-.26-.45-.52.02-.86Z"/><path class="cls-1" d="m84.09,328.89c-.28-.03-.51.09-.73.22.37.4.66-.3.73-.22Z"/></g></svg>