<?xml version="1.0" encoding="UTF-8"?><svg id="Layer_1" xmlns="http://www.w3.org/2000/svg" viewBox="0 0 175.6 414.75"><defs><style>.cls-1{fill:#84f39d;}</style></defs><g><path class="cls-1" d="m110.24,61.15c-.02.11-.02.2-.03.29.08-.13.13-.25.03-.29Z"/><path class="cls-1" d="m115.81,93.69c-.04.46-.04.91-.03,1.35.08-.15.15-.33.19-.56l-.16-.8Z"/><path class="cls-1" d="m104.02,41.36c-.01-.49-.05-.92-.1-1.32-.07.27-.06.67.1,1.32Z"/><path class="cls-1" d="m113.82,249.12c-.06-.08-.14-.16-.26-.19,0,.01-.02.03-.03.06l.22.38.06-.25Z"/><path class="cls-1" d="m121.17,130.4c.04.52.09,1.03.17,1.48-.02-.86-.09-1.28-.17-1.48Z"/><path class="cls-1" d="m100.86,29.92c.05.17.09.33.13.48-.01-.16-.04-.38-.08-.61l-.06.11s0,0,0,.02Z"/><path class="cls-1" d="m115.7,82.87c0,.45,0,.86.05,1.2.02-.42,0-.81-.05-1.2Z"/><path class="cls-1" d="m109.97,61.07c.22-.16-.06-.91,0,0h0Z"/><path class="cls-1" d="m106.94,51.31c.06.33.11.65.17.99-.02-.32-.04-.64-.17-.99Z"/><path class="cls-1" d="m97.08,14.3c0,.07,0,.13,0,.19.15,0,.08-.12,0-.19Z"/><path class="cls-1" d="m107.29,53.2c-.07-.3-.13-.6-.18-.9.01.29.04.58.18.9Z"/><path class="cls-1" d="m99.83,25.48c0,.06,0,.11.01.16,0-.04,0-.1-.01-.16Z"/><path class="cls-1" d="m78.5,399.72c.19-.76.68-1.05,1.06-1.69-.18-1.85-1.31,3.13-1.12.63-.27.68-.38,1.25-.47,1.79l1.15-.65c.25-1.45-.62.79-.62-.08Z"/><path class="cls-1" d="m111.24,258.41l.1-.32c-.39.19-.49-.03-.81,1.2.47,1.12,1.48-.46,1.93,1.46-.03-.37.05-.9.18-1.4-.58.71-1.04-.09-1.4-.95Z"/><path class="cls-1" d="m112.64,259.36s.03-.03.05-.05c.09-.07.16-.16.23-.25.03-.27.08-.53.16-.73-.17.19-.33.58-.44,1.03Z"/><path class="cls-1" d="m86.34,376.06c.13-.31.25-.59.35-.85-.29.37-.37.63-.35.85Z"/><path class="cls-1" d="m110.6,128.6c-.1-.36-.21-.71-.31-1,.07.55.19.83.31,1Z"/><path class="cls-1" d="m113.67,240.5c.09-.28.15-.57.21-.89,0-.19,0-.35.01-.57l-.22,1.46Z"/><path class="cls-1" d="m115.14,301.43c-.83-.79,0,.51-.73,1.72l.31,1.27c.32-1.07.32-2.11.42-2.99Z"/><path class="cls-1" d="m77.88,400.5s.05.02.07.04c0-.03,0-.05.01-.09l-.09.05Z"/><path class="cls-1" d="m108.78,336.9c-.09.17-.18.33-.26.49.08-.09.17-.24.26-.49Z"/><path class="cls-1" d="m113.7,252.34l.47-4.53-.35,1.3c.4.67-.62,2.55-.12,3.23Z"/><path class="cls-1" d="m118.11,282.02l.61-.34c-.69-4.66,1.58-9.68.26-13.46,2.53-5.32-1.41-3.79.85-8.68l-.3.14c.96-8.3,2.05-16.83,2.95-25.24.11-1.05.22-2.1.33-3.15.11-1.04.21-2.09.3-3.19.18-2.17.29-4.32.35-6.44.1-4.24,0-8.35-.29-12.28l.4.03c.1-6.35-.02-12.56,0-18.65.02-6.16.03-12.38-.08-18.62-.11-6.24-.33-12.53-.78-18.86l-.35-4.62-.27-4.55c-.16-3.05-.27-6.13-.37-9.25-.47-2.31-1.29-.87-1.83-2.85,0-.87-.16-2.85.33-2.88.36,1.68.74.7.96,1.27-.19-2.81.16-6.53-.64-9.03l-.47,2.17c-.34-.97-.27-2.53-.32-3.43.35.35.93-1.01,1.15-.25-2.07-5.25.3-4.29-.9-8.81-1.45-.72-3.28-6-4.69-9.51l.11-1.95c.31,2.53.97-.17,1.3,2.97.05-2.66-.83-5.01-.92-7.52-.27.52-.73.46-1-.52,0-1.55.64-1.76.49-3.51l.64,1.67c.36-1.22-.43-2.13-.65-3.2.51-.42.28-3.04.96-2.66-1.07-2.25-.75-3.14-1.58-5.61-.23,2.72-.82-.58-1.25-.22l.63,2.93c-.2-4.23.28,1.35,1.19.91-.18,2.02-1.92-2.49-1.34.78-1.01-3.86-.69-4.76-2.06-8.66.53,2.4-.68-.37-.79.97-.49-3.06.22-.81.69-1.85-.28-1.67.16-2.37-.78-3.8-.17-2.76.78.29.93-1.14.84.91.36,7.69,2.33,6.64.23,1.42,1.27,3.04,1.51,5.1.04-1.82.36-4.49-.44-6.64l-1.19.06c-.28-1.68-1.13-1.9-1.21-3.13.44.59.76-.65.44-1.99-.1.41.02.95-.2.83-.5-2.49-1.36-2.7-2.08-5.63.12,2.5-.16,3.07-.28,5.43-.92-.48-.39-1.59-.71-2.92.15.18.21.46.31.04l-.63-1.36c-.19-3.1,1.26.17,1.2-2.41.37-1.86-.82-2.31-.68-3.71-.06.1-.12.21-.16.3-.04-.3-.06-.51-.07-.67-.02.01-.03.03-.05.03-.44-1.59-.72-3.33-1.42-3.66.24-.23-.36-1.39-.67-1.87-.44-.84-1.61-2.82-.92-4.37.02.03.02.07.03.1-.34-2.01-.39-3.64.03-3.28l-.51-3.27.87.16c-.93-2.87-1.31-2.47-2.62-4.27-.07-2.2-1.39-5.75-2.08-7.03-.03-.24-.12-.59-.32-1.15l.03,1.29c-.59-2.26-.91-1.88-1.34-3.36.02.33-.02.38-.13-.48-.06-.26-.12-.53-.19-.87.1.05.19.39.24.73l.18-.34c.3-2.03-1.25-2.62-1.55-4.62.08.17.23.46.28.66-.12-1.13.51-3.01-.29-3.26.01-.27-.24-.61-.52-.93l-.13-.83c.07.33.1.6.12.82-.37-.42-.79-.8-.65-.92l-.73-2.78c-.05-.55-.37-1.23-.66-1.76l.17-.57c-.38-.98-.19-1.05-.06-.96-.03-3.83-2.35-5.14-2.68-9.18-.78-.52-.47,1.09-.72,1.31-.6-.44-1.73-2.42-2.39-3.37.16-1.91-1.09-7.16.26-6.75-1.05-3.07-.29,1.19-1.22-.2l-.09-.36c.27,1.09.21,2.05.03,2.78-.48.44-1.63-2.17-1.79-3.04l1.02.27c-1.35-2.67-2.33-1.63-3.79-3.04-.53-2.33.68-1.34,1.22-2.08l-1.09-2.23.6-.23c-.74-1.44-1.43-1.58-2-3.76,1.16,1.29-.66-3.35.91-1.56-.26-1.24-1.55-1.12-.99-2.03-.96-.55.1,1.17.13,1.84-.73.83-1.44-2.37-2.27-3.66.42-.32.95.7.57-1.07-.5-.19-1.22-1.1-1.2-2.21-.58.28-.95-1.79-1.42-2.74.44,1.1.69,2.8-.13,2.36-.61-.68-1.03-1.31-1.93-3.09l.39,1.34c-1.64-1.06-.79-2.84-2.3-4.7.85.64,1.18,1.18,2.03,1.69-.83-.83-2.35-2.37-3.52-3.69l-.23-2.18c-.54.03-1.07-1.92-1.63-1.61-.8-2.34,1.62,1.33,2.18,1.28-1.17-2.82-2.13-1.56-2.7-4.65l1,.59c-.43-.89-1.69-2.48-1.48-2.73-.19.1.12.5.42,1.04-1.43.07-2.98-3.6-3.97-2.64l.58,1.24c-1.23-1.72-2.73-2.6-3.09-4.24-.21-1.29,1.21.33,1.86.82-.87-1.78-2.05-.71-3.06-2.85.4,1.19-.13,1.21-.78.72.57,1.24,1.7,3.86,1.96,3.15l-.12-.5c.36-.05.83.54,1.16.78.89,1.64-.12,1.05-.16,1.5,1.29,2.82,1.29-.41,2.61,2.1l-.05.45c.95,1.04,2,2.87,2.9,2.81-.18,1.51,1.86,2.63,2.13,4.04-.73.6-1.35-.44-1.96-1.77-.6-1.34-1.16-2.93-2.01-3.39.37,1.49-1.2-.32-1.88-.67l2.97,3.76c-.04.45-.15,2.16.9,2.55l-.16-.34c1.16,1.51,1.56.66,2.19,2.17-.01.3-.53.04-.71,0,.64,1.36,1.02.82,1.69,1.58.63,1.35-1.04-.22-.58.94,1.51,1.08,1.23,2.38,1.94,3.62.33-.52,1.33.56,2.12,1.46.8.9,1.45,1.54,1.21-.13.72.99,1.43,1.99,2.12,3.01-.07,1.24-2.35-1.69-2.79-.41-.36-.87-.74-1.73-1.12-2.58-.51.49.31,1.72,1.14,3.16.83,1.44,1.69,3.08,1.34,4.23.5,1.43.54,1.01.96,3.93l.94-.89c.28,1.49-.15,2.18-.33,2.32.39.79.64,1.54.89,2.33-.24-.14-.5-.37-.75-.84-.21,1.29.14,1.51.61,1.76.5.47.8,1.34,1.12,2.21l-.71-.62c.3.49.67,1.1.89,1.08.14.36.3.69.49.99.1-.31.53-1.13.34-2.49.82,3.39,2.01,5.85,2.11,8.97-.36.01-1.19-.99-1.11-.63.36,1.44,1.46,2.75,1.9,2.45.14.3.24.54.32.75-.18.37-.36.8-.18,1.48-.05.19-.05.47.09.96,1.07.15,1.53,2.99,2.15,3.43-.13-.66-.4-1.44-.7-2.21.98.92,2.01,1.69,1.83,2.73-1.29-1.9-.16,2.55-1.5-.52-.37,2.6,1.22.87,1.6,3.36l.06,1.67c-.73-.02-1.14-2.35-1.27-1.91l.43,1.03c-.82-.89-1.86-4.96-3.44-7.13l1.33,5c2.88,5.9,4.39,13.91,7.33,18.81l-.08-.22c.09.07.23.08.5.09l-.1.29.8.91c-.29,1.38.21,3.65.23,5.69.09-1.31.09-1.31.55-1.56.73.06,1.07.17,1.29,2.03-.47.14-.74-.96-.77.45.05-.74.55-.22.81.54-.04,1.09.33,2.78-.14,2.93-.25-.43-.18-.85-.2-1.18-.25-.43.06,2-.68.72l.59,1.78c-.14,1.16-.8-.55-.95-.06,1.07,2.94,2.54,4.23,3.49,6.92-.28-.07-1.35.14-1.04.1.18,2.18,2.16,4.29,2.77,6.7-.39-.29-.46-1.22-.77-1.92,1.17,7.49,2.24,13.6,2.29,20.75l1.38,1.66-.47,1.95c.34,7.5,1.75,13.13,2.98,20.2.35,2.21-.61,1.43-.79,2.51.49,4.88,1.92,5.95,2.79,10.51-.42-.58-1.51-1.49-1.31.44.36.32.91.49.85,1.74l-.41-.58c-.38,1.18.23,2.2.24,4.55.4,4.11,1.43,8.04,2.84,11.45.07,3.73-1.22-.33-1.43.39.28-2.64-.29-1.81-.71-2.36.39,1.36.67,3.03-.09,3.79.14,1.93.14,2.81.77,4.71-.31-.96.08-1.8.48-.91-.21,1.6.29,5.66-.72,5.48.31,4.62.64,9.52.98,14.5.26,4.87.36,9.86.45,14.75.54,1.65.18-1.26.56-.35.7,2.4-.32,1.9.22,3.83l-.55-.79c-.06,2.86.95,5.92,1.46,8.71-.62-.46-.52,2.29-.88-.03.1,1.37-2.68,3.02-2.11,4.08l2.59-1.54c.25.08.09,1.99.27,1.8-.51,1.19-1.12,2.66-1.11,3.49-.66.4-.51-1.68-.5-2.82-1.09-.17-.7,3.85-1.7,2.19.18,2.46.56-.36.97,1.12l-.23,2.17.36-1.67c.33,1.81,1.17,2.41.59,4.81l1.11,2.46c-.86.27-.13,1.81-.3,3.07l-.57-.78c.06,1.68-.08,2.34-.37,3.39-.78-.93.15-1.52-.57-1.92l-.22,1.85c.49-.02.89,1.15,1.16-.18.94,1.69,1.72,2.62,1.69,6.89-.82,1.93-.76-2.06-1.58-1.25-.31,4.41,2.2,5.38,2.07,7.97-.4,3.27.38,3.1.29,6.43-.51-1.08-.73,2.29-1.32,2.85l-.51-1.33c.13,1.01-.17,1.95-.57,1.62.39-.06.5.99.51,2.4.01,1.41-.05,3.13.03,4.31l.69-.35c.06,1.83.26,4.37-.07,6.27-.04,2.87.6,2.27,1.12,4.53-.7,1.16-1.38.97-2.06.5.4-.73.32-2.04.63-3.28-.25-3.66-1.39-6.58-.77-10.15-1.45-1.7-.02,2.44-.73,4.14-.09-.06-.11-.19-.11-.32-.02.16-.04.29-.08.43-.08-1.31-.16-3.43-.94-3.85-.02,2.17,1.45,1.7.54,4.32.27,2.03-1.12,3.53-1.33,4.73.48,1.37,1.74,1.54,1.21,4.77l-.76-1.5c-.34,3.68,1.15,1.84.8,5.25.21-1.19.77,1.24,1-1.04.38,1.16.24,3.65-.19,5.48.09.5.29.13.59.25.8-1.99-.3-3.29.74-4.9l-.83-1.51c.52-1.88,1.3-2,1.58-.8,0-.54-.08-1.02.12-1.4,1.47-.2-.72,2.24.45,3.02l.02-1.36c.99-.5.54,3.22.32,4.95-.62,1.93-.95,3.71-1.64,3.78l-.05-2.66c-.67,1.32,0,3.4-.17,4.93-.1.09-.19.23-.25.41.07-.07.13-.11.2-.11-.06.32-.18.6-.36.84-.17,1.34.06,3.36-.28,4.59l.62-.1-.32-.2c.15-1.23.68-2.87,1.04-1.89.15,2.82-1.07,3.27-1.66,3.88-.87-.73.28-2.71.1-4.16-1,.76-.37,2.82-1.26,5.62-.89-1.24.35-3.32-.52-4.05-.4,2.29.26,2.97-.25,5.37-.43-.36-.24-2.73-.85-2.63l-.44,1.53c.33-3.83-1.32.54-1.26-2.46-.55,1.37.62,2.05-.22,3.98.49-.51,1.46-2.03,1.65-.07l-.52,2.14c-.58.85-.84-2.37-1.39-1l.11,2.3c.31-.05.57-1.11.91-.39-.46,1.27.93,2.27,1.21,3.86-.16,1.23-.33,2.19-.72,2.59.55,3.19.06,7.11.56,10.07-.36-2.02-1.03-.05-1.63,1.06.14-2.25-.79-2.38-1.41-2.3-.06,1.37.79,2.38,1.19,1.73-.66,2.23.47,1.65-.42,3.57-.49,1.25-.84-.76-1.25-.36-.35,2.44,1.06.81.5,3.45-.11-.16-.11-.41-.31-.22-.38,1.39-.15,2.98.27,3.35-1.43,1.33-.5,4.29-1.64,3.81-.22,3.49.73-.41,1.03.33.31,1.49-.54,4.05-.86,4.83.11-.86-.08-1.69.23-2.49l-.94.6c-1.28,4.21,1.42,3.03.02,7.09-.08-2.22-.5-.82-.91-1.98.1.68-.67,3.92.29,2.04-.33,1.56-.65,2.63-.97,3.7.09,1.45.09,3.02.5,3.92-.42,2.18-1.23,3.88-1.73,4.64-.09,4.19-2.66,7.95-3.16,13.39l.13-.37c-.95,3.88,1.41-1.48.59,2.53-.91-.72-1.12,2.27-1.88,3.41-.69,2.32-.89,4.3-1.21,6.17-.08.47-.16.93-.26,1.39-.11.49-.23.99-.37,1.48-.28.99-.63,1.98-1.12,2.98-.19-.1-.35-.45-.13-1.27-1.29,3.13-1.94,5.79-2.95,8.69l-.08-.17c-1.16,2.21-1.87,4.45-2.46,6.77-.3,1.16-.56,2.33-.84,3.53-.14.6-.29,1.21-.44,1.82-.16.64-.32,1.29-.49,1.95,0-.46-.33-.68-.36-1.05-1.07,2.57-2.28,6.63-1.84,8.6-1.75,2.67-.21,2.06-2.19,5.44-.23.16-.06-.41-.02-.66-.84,1.68-1.12,2.93-1.83,4.56-.18.98-.27,1.75-.36,2.51-.11.82-.2,1.55-.3,2.3-.22,1.48-.59,3-1.71,5.27-1.39-.27.84-3.02-.14-3.53-.15,1.03-.22,1.95-1.04,3.12-.19-.98-.25-.29-.51-1.02-.74.86-.25,4.52-.36,4.45.23.15.5-.13.83-1.07.35,1.41-1.76,4.61-2.35,6.97.32-.71,1.49-2.91,1.75-1.8-1.49,2.9-.66,4.4-1.04,6.71-1.74,2.5-.21-2.48-1.34-2.34-.52.33-1.7,1.12-1.56-.17-1.22,2.37-1.21,4.44-1.99,6.67l-.22-.17c-1.25,3.03-1.7,6.69-3.53,8.86.34-.38.67-.76.98-1.14-.08.55-.99,1.98-.95,3.05-.35-.3-1.78,1.39-1.67.44.56,1.99-2.93,7.03-2.55,9.18-.75.59-.91-.33-1.07-.73,1.14-1.77,1.74-2.25,1.77-3.5-.84,1.54-1.79,2.46-1.95,2.06-.02.49-.14,1.1-.31,1.76-.03.14-.12.38-.19.6-.07.22-.15.45-.21.67-.13.44-.23.88-.31,1.29-.3,1.65-.32,2.75-.07,3.28-.44.46-.76.68-1.12.85-.35.15-.65.13-.86-.23-.5.92-.75,1.54-.6,1.75.13.23.55.14.93.07.38-.06.73-.12.77.13.04.27-.26.77-1.22,2.14-.58.54-.81.68-.89.54-.08-.13.02-.51.11-.83.1-.32.19-.59.09-.57-.1.03-.42.31-1.07,1.36.1-.27.22-.57.35-.84-.91.55-1.24.92-1.39,1.28-.14.36-.05.71.09,1.09.28.75.77,1.64.08,3.05-1.14-.07.23-2.31-1.37-.66-.48,1.35-.49,2.42-.62,3.46-.13,1.03-.37,2.07-1.31,3.02l-.11-.6c-.4.64-1.17,1.5-1.97,2.14-.68.53-2.21,1.12-3.1,1.67-.18-.14.09-.25.4-.48-.83.31-1.37.62-1.72.88-.35.25-.5.45-.63.61-.12.15-.23.31-.49.56-.13.11-.32.34-.55.6-.24.32-.56.76-.77,1.56l-.23.87,1.93,1.62s.11.07.19.11l.9-.3c-.26-.14-.57-.3-.92-.47l-1.44-.69.26-1.06c.19-.79.66-1.37,1.1-1.77.45-.4.89-.66,1.31-.92.84-.5,1.6-.93,2.13-1.47-.66.67.12.66,1,.63.86,0,1.88-.19,1.76.43.04-.17.07-.34.1-.51.08-.03.16-.05.24-.1,2.33-.97,4.35-3.21,5.88-5.63.78-1.21,1.49-2.48,2.2-3.69.36-.6.71-1.2,1.08-1.77.2-.32.33-.49.51-.71.18-.22.37-.44.59-.68.27-.83.75-1.58,1.28-2.38.52-.76,1.11-1.74,1.49-2.52.41-.81.76-1.59,1.05-2.31.13-.34.27-.68.41-1.04.13-.37.27-.75.42-1.16-.77-1.17.15-.78,1.62-3.89-.76,1.66.71.66,1.43-.27.05-.74.35-1.51.65-2.28.7-.4,3.74-3.69,3.73-5.51,1.33-1.71.13.63.13,1.15.97-.46.36-1.77,1.07-2.2,0,0,.1.09.06.32,1.43-2.93,2.55-4.55,4.07-7.57-1-.75.92-3.21,1.08-4.75.18.6,1.15-1.56,1.72-2.35l-.16-1.99c-.05-1.92,1.42-2.07,1.88-4.33l-.41.43c.28-1.68,2.56-5.45,3.78-6.7.43-1.88.92-3.58,1.47-5.24.56-1.73,1.09-3.38,1.61-4.98,1.01-3.15,1.97-6.03,3.01-8.86,1.04-2.84,2.1-5.55,3.33-8.46,1.24-3.04,2.49-6.36,3.61-10.26-.02-1.12-.83.54-1.09-.42.38-1.6.55-1.95.99-3.38-.72,1.16-.27,1.08-.54.82l-.39,2.29c-.12.08-.08-.17-.31-.02-.13.77-.19,1.7-.56,2.62.15-1.44-.58-2.1.35-3.84.07.18.03.43-.06.94.57-1.5.18-1.71.78-2.78.64-1.34.27-1.08.7-1.14l1.84-4.23c-.35-2.51,1.42-4.89,1.73-5.69.33.34.16,1.21-.02,2.01-.18.83-.39,1.73-.17,2.38l1.04-1.43-.59-.28.42-1.12.43-1.21.08.17c-.17-.36-.33-.72.04-1.29.11-.08.34-.28.31,0,.03-.61.05-1.22.05-1.82.44,1.15.52-1.47,1.21-1.07.75-2.77.77-4.5.89-6.11.06-.8.14-1.57.33-2.39.19-.78.49-1.62,1.03-2.63-.54.62-.81-1.68-.26-3.07.41-.76.64-.93.78-.32l.16-2.01c.91-1.05,1.35-2.28,1.67-3.75.16-.74.29-1.52.43-2.39.07-.4.14-.81.21-1.25.08-.39.17-.8.28-1.22l.31.23c-.21-1.33-.33-2.75.1-4.66l.62.46c.84-2.28-1.13-2.02-.28-4.56-.72-.1-1.36,1.48-2.08,1.63.83-.5,1.4-3.29.77-2.72.13-2.66.32-1.81.53-2l-.19-1.61c.34-1.84,1.04-.44,1.34.31-.49-1.84.36-3.63.79-5.58l.2.85.53-2.57c-.3-1.78,0-4.16.59-6.33l.75,1.66c.71-1.49-.22-.85-.33-1.28-.15-2.5.56-2.92,1.26-4.14-.51-4,2.5-7.54,1.44-11.03ZM96.94,15.32l-.02.39c-.41-.72-.71-1.12.02-.39Zm5.84,20.63c-1.05-2.39-.39-1.72-.19-1.98.43,2.52,1.06,3.82,1.33,6.07.09-.4.33-.53.45-.68.18.88.2,1.8-.2,2.22-1.2-.84-1.14-6.85-1.39-5.63Zm-19.59-44.05c.1.06.21.13.31.21h0s-.32-.21-.32-.21Zm5.26,11.55c-.13.24-.14.57-.08.96.16-.31.29-.59.08-.96Zm6.73,24.26c-.22.67.26,1.91.62,2.8-.08-.44-.19-1.25-.62-2.8Zm19.55,157.08c-.15-.77-.56-2.21-.85-.89.34.63-.26,1.85.27,2.39-.02.08-.03.09-.05.13.33-.77.61-1.4.63-1.63Zm.3,74.97c-.38-.18-.75-.78-1.09-.45.02-.06.04-.14.05-.21-.15.18-.28.33-.35.17-.14.6-.29,1.23-.22,1.67,1.26.33,1.35,1.63,1.61-1.18Z"/><path class="cls-1" d="m111.98,234.34c0,.29-.03.52-.03.7.02-.19.02-.41.03-.7Z"/><path class="cls-1" d="m113.44,260.82c.08.06.27-.64.5-1.5-.18.16-.35.58-.5,1.5Z"/><path class="cls-1" d="m86.39-.52c-.56.08-.87-.86-1.13-1.94.29.29.62.43.87.86-1.04-1.58-1.02-1.73-1.79-3.02.18,1.52.72,3.68-.01,3.7.86.84,2.06,1.85,2.07.4Z"/><path class="cls-1" d="m87.31,6.36l.03-.8c-1.06-1.45-1.57-3.62-2.69-4.24.78,1.93,1.95,4.24,2.66,5.04Z"/><path class="cls-1" d="m91.49-1.26l1.14,1.96.32-1.98c-1.24-2.34-.57.08-1.46.02Z"/><path class="cls-1" d="m91.88,1.53l-.08.29,2.39,2.71c-1.2-1.7-1.16-1.84-2.31-3Z"/><path class="cls-1" d="m98.22,41.78c.47.26.45-1.73.24-.82-.4-.28-.24,2.34-.24.82Z"/><path class="cls-1" d="m103.15,32.22c-.03,1,1.34,3.88,1.93,5.15-.57-1.54-1.49-5.51-1.93-5.15Z"/><path class="cls-1" d="m105.32,37.89c-.05-.1-.14-.29-.24-.52.09.24.17.4.24.52Z"/><path class="cls-1" d="m117.6,94.5c.03.14.08.28.15.4-.05-.14-.1-.26-.15-.4Z"/><path class="cls-1" d="m117.21,93.17c.01-.94-.45-2.73-.91-3,.38,1.42.66,2.69,1.3,4.33-.13-.63.07-1.45-.39-1.33Z"/><path class="cls-1" d="m118.66,106.22c-.33-.64-.33-1.58-.67-1.3-.12.4.47,1.78.67,1.3Z"/><path class="cls-1" d="m111.67,195.52c-.18,1.28-.02,2.03.54,1.67-.03-1.43-.35-.64-.54-1.67Z"/><polygon class="cls-1" points="112.36 198.83 112.08 199.01 111.67 199.85 112.36 198.83"/><path class="cls-1" d="m111.7,207.55c-.09-.06-.19-.28-.25-.52.09.49.17.9.25.52Z"/><path class="cls-1" d="m111.4,206.79c0,.08.02.17.04.25-.01-.08-.03-.17-.04-.25Z"/><path class="cls-1" d="m111.57,206.22l-.3-.09c.05.14.09.41.13.67-.02-.23.01-.48.17-.57Z"/><path class="cls-1" d="m111.63,210.15l.84-1.66c-.44-1.71-.41,1.96-1.35.28l.51,1.38Z"/><path class="cls-1" d="m111.88,215.84c-.28,1.55,1.02,3.81-.03,4.66.37,4.39,1.75-.96,1.91,4.08.73-4.74-1.83-2.48-1.17-6.68-.67,2.03-.47-1.37-.72-2.06Z"/><path class="cls-1" d="m113.59,215.1c-.51-.26-.56,1.73-.24,2.35.07-.57.78-1.57.24-2.35Z"/><polygon class="cls-1" points="112.09 224.4 111.63 225.7 111.93 226.07 112.09 224.4"/><path class="cls-1" d="m111.54,229.43c-.16-.46-.32-.92-.48-1.36.21.41-.02,2.44.48,1.36Z"/><path class="cls-1" d="m110.2,236.6c-.31,1.24.95,2.49.88-.18l-.1.6c-.2-.17-.8,1.21-.78-.41Z"/><path class="cls-1" d="m110.84,253.5c.11-.86.03-1.9-.27-1.74l.06,2.39.21-.65Z"/><path class="cls-1" d="m114.17,253.46c.9-.72.14-2.23.55-3.78-.32,1.77-.42,1.55-.55,3.78Z"/><path class="cls-1" d="m109.42,256.09c-.28-.67.03-1.63.14-2.22-.5.25-.53,1.88-.14,2.22Z"/><path class="cls-1" d="m109.35,259.88c-.41.74-.44-.21-.73.35-.53,1.62-.65,3.36-.29,4.34.39-.4,1.41-.9,1.75-.18-.03-2.67-1.43-4.17-.13-5.34l-1.23-2.34c-.43,2.09.85,1.72.62,3.18Z"/><path class="cls-1" d="m112.58,254.8l-.61,1.37c.49-.24.47.84.56,1.61,1.08-.27.04-2.17.06-2.98Z"/><polygon class="cls-1" points="108.5 274.59 108.41 277.61 108.58 276.64 108.5 274.59"/><polygon class="cls-1" points="107.95 276.47 107.64 276.52 107.94 278.87 107.95 276.47"/><polygon class="cls-1" points="107.25 279.57 107.34 279.22 107.27 277.43 107.25 279.57"/><path class="cls-1" d="m106.33,285.78l.5-.5c-.03-.77.65-2.23.03-2.15.13.68-.13,2.24-.53,2.65Z"/><path class="cls-1" d="m114.68,308.06c-.2-.59-.51-.31-.83-.02l.61.98c0-.26.01-.78.22-.96Z"/><path class="cls-1" d="m112.87,311.48l.49,2.35c.55-2.52-.06-2.99.17-5.25-.42.9-.03,2.33-.46,3.48l-.2-.58Z"/><path class="cls-1" d="m102.94,355.86c-.47-.36-.54.16-.41-1.56-.33,2.32-1.03,4.18-1.75,6.73.47-.32.45,1.74.61.73l.57-2.92.23.54c1.02-1.86-.19-1.48.74-3.51Z"/></g><g><path class="cls-1" d="m46.78,197.04c.26.36.33.33.35.13.02-.24,0-.69-.08-1.15-.02.4-.14.72-.27,1.02Z"/><path class="cls-1" d="m47.05,196.02c.01-.28-.04-.58-.14-.86,0,.26.09.54.14.86Z"/><path class="cls-1" d="m46.4,191.01c.15.57-.01,1.1-.02,1.63-.02.52.16,1.01.76,1.1-.07-1.03.15-2.27-.73-2.74Z"/><path class="cls-1" d="m45.59,192.69l.48.08c-.26-.29-.48-.62-.67-.98.04.31.1.61.19.9Z"/><path class="cls-1" d="m45.22,193.54l.15-.2c-.25-.53-.36-1.11-.42-1.72-.01.66.03,1.32.27,1.92Z"/><path class="cls-1" d="m47.85,187.07c-.1.4-.19.8-.26,1.2-.94.93-.61-.99-1.24-.36-.43,1.56,1.17.82.44,2.77.15.02.28-.17.4-.47.12-.29.24-.76.33-1.05.2-.65.48-1.23.89-.95.77-1.36-.51-.25-.56-1.14Z"/><path class="cls-1" d="m57.91,226.77c-.09-.02-.16-.02-.24-.04.11.08.21.13.24.04Z"/><path class="cls-1" d="m34.91,218.23c-.17-.32-.37-.61-.58-.88,0,.14.03.3.09.47l.48.41Z"/><path class="cls-1" d="m69.17,216.38c.24-.23.44-.45.62-.66-.19.08-.4.27-.62.66Z"/><path class="cls-1" d="m55.31,127.82c-.03.07-.05.16-.04.29,0,0,.02,0,.04.02l.15-.28-.15-.02Z"/><path class="cls-1" d="m22.96,194.18c-.06-.36-.13-.74-.23-1.04.06.6.14.91.23,1.04Z"/><path class="cls-1" d="m72.84,209.32c-.05.12-.1.23-.15.34.08-.09.17-.23.26-.39l-.11.03s0,0,0,.02Z"/><path class="cls-1" d="m40.64,224.27c-.25-.23-.48-.44-.7-.57.22.23.46.42.7.57Z"/><path class="cls-1" d="m61.67,179.08c.23.02.4-.09.58-.24-.13-.12-.35-.09-.58.24Z"/><path class="cls-1" d="m65.73,181.27s-.02-.02-.03-.03c-.07.1-.04.1.03.03Z"/><path class="cls-1" d="m67.67,185.18l-.05-.06c-.06.08-.06.11.05.06Z"/><path class="cls-1" d="m62.25,178.84c.19.16.26.56.34.8.09.23.18.19.6-.39l-.04-.22c.19.4.76.11,1.1.33.03-.14.05-.26.05-.38-.15-.14-.36-.33-.72-.6-.19-.24-.43-.23-.66-.09-.23.11-.45.35-.67.55Z"/><path class="cls-1" d="m57.95,226.51c.14.22.73-.04,0,0h0Z"/><path class="cls-1" d="m64.69,222.69c-.23.13-.46.28-.7.4.25-.08.49-.2.7-.4Z"/><path class="cls-1" d="m75,198.24s-.03.08-.05.12c.14.04.12-.06.05-.12Z"/><path class="cls-1" d="m63.33,223.44l.65-.35c-.22.07-.44.16-.65.35Z"/><path class="cls-1" d="m73.95,205.99s-.04.07-.05.11c.02-.03.04-.06.05-.11Z"/><path class="cls-1" d="m105.97,197.28c-.2-.46.09-.8.11-1.27-1.04-.85.36,2.09-.67.76.09.45.26.78.44,1.09l.69-.79c-.47-.83-.17.65-.58.21Z"/><path class="cls-1" d="m61.57,129.22c-.09-.01-.18-.03-.27-.05.21.36.04.5,1.13.57.42-.36.22-.69.13-1.04-.1-.36-.11-.71.53-1.18-.26.14-.68.17-1.07.16.66.41.18,1.04-.46,1.55Z"/><path class="cls-1" d="m62.02,127.67s-.03-.02-.05-.04c-.07-.07-.15-.13-.23-.18-.2.02-.39.01-.55-.03.16.14.47.22.82.25Z"/><path class="cls-1" d="m103.05,181.09c-.02-.2-.03-.39-.04-.55-.1.29-.06.45.04.55Z"/><path class="cls-1" d="m33.54,194.17c.12.21.25.41.36.56-.1-.32-.23-.48-.36-.56Z"/><path class="cls-1" d="m51.17,130.63c-.18.04-.35.09-.53.18-.09.07-.16.14-.26.22.26-.14.52-.27.79-.4Z"/><path class="cls-1" d="m90.25,130.2c-1.01.22.29.24.38,1.23l.87.31c-.33-.66-.85-1.08-1.25-1.54Z"/><path class="cls-1" d="m105.8,197.92s.05,0,.08,0c-.01-.02-.02-.03-.03-.05l-.05.06Z"/><path class="cls-1" d="m104,150.15c.02.14.03.26.05.39.01-.09,0-.21-.05-.39Z"/><path class="cls-1" d="m57.18,127.46c-.94.02-1.83.08-2.66.31.26,0,.52.03.78.06.28-.54,1.51.2,1.87-.36Z"/><path class="cls-1" d="m77.17,120.11l-.31-.64c-1.56.35-3.18-.07-4.92-.34-1.71-.28-3.61-.38-5.09.53-1.18-.44-2.02-.49-2.59-.35-.58.13-.92.43-1.23.73-.31.3-.59.62-1.08.81-.06.02-.12.04-.19.07-.03,0-.05.01-.08.02-.06,0-.13,0-.2-.01-.17-.05-.36-.14-.63-.34l.1.27c-.79.07-1.99-.03-3.61-.06-1.62-.02-3.8.09-5.96.88-.59.21-.94.36-1.33.53-.39.16-.77.34-1.16.52-.77.36-1.52.76-2.25,1.19-1.47.85-2.86,1.82-4.15,2.89-1.29,1.06-2.47,2.21-3.55,3.39-.54.59-1.05,1.2-1.54,1.81-.24.31-.48.61-.71.93l-.62.84c-.66.92-1.41,1.88-2.24,3-.82,1.11-1.72,2.41-2.49,3.86l-.32-.23c-.37.55-.73,1.14-1.06,1.74l-.8,1.55-1.38,2.65c-.94,1.84-1.94,3.81-2.81,6.02-1.75,4.38-2.66,8.86-3.32,13.01l-.91,6.04c-.12.81-.38,2.36-.43,3.61-.08,1.3-.06,2.56.01,3.78.32,4.87,1.44,9.02,1.93,12.67.58,1.29,1.31.34,1.92,1.46.04.58.28,1.97-.2,2.05-.45-1.15-.77-.42-1.02-.8.31,1.98.26,4.69,1.29,6.33.08-.54.17-1.08.27-1.62.4.62.49,1.73.63,2.35-.38-.18-.81.9-1.1.41,1.27,1.66,1.36,2.4,1.3,3.15-.05.74-.24,1.47.67,2.91.75.06,1.77.93,2.9,1.98,1.13,1.05,2.4,2.24,3.52,3.09.15.45.31.91.5,1.36-1.06-1.55-.81.6-2.04-1.43.71,1.91,2.31,3.1,3.43,4.64,0-.51.39-.71,1.02-.28.66.95.27,1.51,1.22,2.46-.43-.18-.85-.38-1.27-.59.31,1,1.36,1.03,2.04,1.48-.16.62,1.41,1.91.76,2.2,1.93.41,2.22,1.1,4.08,1.62-1.36-1.47.79-.39.83-.92-.65-.27-1.3-.57-1.95-.89,2.4,1.89-.89-.41-1.22.48-.97-1.17,2.52-.25.42-1.44,1.33.59,2.06.99,2.82,1.36.76.36,1.55.7,2.96.95-1.56-.58.56-.42-.1-1.07,1.87.9.31.53.61,1.37.99.44,1.27,1.21,2.64.96,1.94.94-.55.59.38,1.3-.25.1-.74-.03-1.3-.26-.54-.23-1.25-.61-1.71-.85-1.01-.51-1.99-.84-2.24.21-.9-.44-2.38-.3-3.69-1.15,1,.94,2.35,2.45,3.97,2.71l.6-1.03c.53.25.93.21,1.29.17.36-.04.77-.05,1.19.19-.63.1.05.97,1.25,1.26-.28-.26-.72-.4-.53-.54,1.03.33,1.72.27,2.43.18.71-.09,1.46-.21,2.73-.25-1.04-.2-1.63-.48-2.17-.77-.54-.31-1.03-.65-1.79-1.17.7-.65,1.2.26,2.27.35-.17.09-.4.07-.12.29.4-.07.78-.14,1.16-.24,1.16.28,1.1.53.95.85-.14.3-.36.62.72.82,1.55.64,1.97-.55,3.08-.36-.09-.06-.17-.12-.25-.16.23-.04.4-.05.53-.06-.01-.02-.03-.03-.03-.05,1.23-.4,2.5-.78,2.59-1.48.22.23.94-.45,1.2-.76.48-.47,1.6-1.76,3.03-1.58-.02.02-.05.03-.07.05,1.44-.83,2.52-1.66,2.52-1.15.7-.62,1.32-1.29,1.88-1.96.17.23.34.46.51.69.6-1.08.69-1.61.68-2.08-.01-.48-.15-.91-.18-1.72.55-.51,1.03-1.41,1.35-2.13.34-.76.63-1.59.74-2.09.11-.12.23-.34.4-.73-.24.21-.47.41-.7.6.82-1.39.35-1.44.82-2.46-.17.18-.21.21.15-.34.09-.18.18-.37.29-.6.06.08-.04.34-.18.56l.33-.1c1.32-1.1.22-2.4.63-3.67.02.13.05.35.03.49.3-.73,1.53-1.74.85-2.11.1-.17-.02-.45-.18-.72l.15-.55c-.05.23-.1.4-.15.55-.21-.36-.48-.7-.31-.74.07-.64.15-1.29.21-1.93.12-.37.03-.87-.09-1.27l.33-.33c-.05-.71.14-.72.24-.63.56-1.25.37-2.22.14-3.19-.23-.98-.5-1.96-.17-3.37-.62-.44-.74.7-1.03.81-.47-.37-1.04-1.82-1.48-2.5.29-.64.43-1.89.58-2.96.17-1.07.34-1.99.98-1.84-.3-1.17-.44-.96-.54-.55-.11.41-.27.92-.61.43l-.04-.28c.12.82-.09,1.5-.41,2.03-.53.3-1.2-1.5-1.26-2.12.32.03.63.08.95.13-1-1.89-2.07-.97-3.33-1.71-.36-1.51.7-1.09,1.24-1.73-.33-.47-.67-.94-1.04-1.38l.55-.34c-.38-.44-.74-.63-1.09-.87-.35-.24-.72-.61-1.22-1.31.64.24.31-.35-.04-.94-.35-.55-.73-1.13.26-.82-.36-.47-.79-.46-1.11-.46-.32,0-.51-.04-.59-.55-.47.14-.28.34.05.54.3.25.78.52.91.79-.12.54-.59.29-1.19-.09-.62-.34-1.43-.8-2.02-.75-.03-.51.93-.45-.46-1.02-.37.37-1.18.81-2.02.58.03.32-.34.47-.83.57-.12.03-.25.05-.38.06-.05,0-.07,0-.08-.01,0-.02,0,.01.02.06l.03.13.05.25c.03.17.06.34.08.51v.13c.13,1-.15-1.36-.12-1.11h0s0,0,0,0h0s0,0,0,0h-.02s-.03,0-.03,0c-.17-.03-.34-.05-.47-.06.15.03.32.06.48.12h.03s.02.02.02.02h0s0,0,0,0c-.03-.23.24,1.98.13,1.04h0s0-.02,0-.02v-.03c-.03-.31-.08-.61-.15-.9-.05-.08.03,0,.04,0,.11.02.21.04.3.06.39.09.58.3.39.65-.13.11-.26.21-.4.3-.05.03-.1.07-.15.1-.07.03-.15.05-.23.07-.34.09-.77.11-1.41.05.29.11.58.22.88.31-1.19.98-1.81-.8-3.43-.49.68-.4,1.12-.37,1.72-.81-.39.12-.95.29-1.56.48-.64.2-1.28.47-1.8.78-.52-.18-1.08-.29-1.66-.32.03.26-.34.45-.65.68-.31.24-.57.48-.37.73-.78.4-.67.03-.33-.52.34-.54,1.06-1.21,1.05-1.47-.61.22-.99.5-1.22.76-.24.25-.33.49-.44.72-.22.45-.43.8-1.52,1.29,0-.31.01-.64.05-.95-.59.52-1.21,1.9-1.5,1.8.18.13.33-.22.61-.58.36.58.05,1.36-.14,2.08-.19.72-.29,1.36.36,1.59.17-.25.36-.48.54-.72-.51,1.31-.12,2.54-.96,3.27-.71.56-.61-.87-.68-1.47-.64,1.16.86,1.56.21,2.88.48-.66.86-.33,1.02.21.36-.75,1.32-2.17.7-2.15l-.25.21c-.28-.22-.18-.69-.23-.97.56-1.03.79-.18,1.12-.26,1.15-1.48-1.1-.83-.06-2.3l.35-.04c.21-.92,1.1-1.9.72-2.67.61.03.92-.38,1.3-.8.37-.42.82-.88,1.34-.82.41.85-.24,1.08-1.01,1.49-.8.39-1.75,1.02-1.68,1.75.89-.42.32.98.48,1.53.33-.88.74-1.74,1.27-2.52.17.04.56.13.84.14.3.02.53-.04.56-.45-.06,0-.12.03-.18.05.71-.59.29-1.25,1.23-1.2.16.15-.04.49-.07.63.76.05.55-.52,1.12-.71.88.18-.44.76.28.99,1.04-.7,1.69.3,2.86.24-.13-.26.1-.5.44-.71.2-.12.32-.22.64-.36.18-.08.26-.16.33-.22.07-.07.14-.14.21-.2.54-.54,1.13-1.08.01-1.21.37-.25.76-.5,1.18-.73.42-.21.86-.46,1.33-.47.18.18.14.34,0,.49-.14.15-.39.29-.61.54-.47.51-.79,1.1-.54,1.5-.48.11-.96.26-1.44.4.3.62.86.16,1.71-.24.86-.32,1.91.13,1.89,1.08.27.23.38.31.51.49.12.17.28.5.4,1.19.26-.31.51-.63.75-.96.15.39.12.75.05,1.04-.08.28-.21.47-.29.54.34.37.56.78.75,1.22-.22-.02-.44-.09-.65-.32-.24.89.05.9.47.95.43.17.64.67.86,1.18-.2-.09-.41-.17-.61-.26.24.25.51.57.73.52.1.21.2.4.35.56.14-.21.65-.82.57-1.71.25,1.07.54,1.98.7,2.86.14.91.2,1.81-.1,2.81-.35,0-.93-.63-.92-.4.03.89.79,1.74,1.28,1.58.07.2.11.36.14.49-.26.22-.55.48-.54.92-.09.11-.16.29-.16.6.98.18.7,2.01,1.15,2.36.06-.43,0-.95-.08-1.46.7.68,1.49,1.31,1.02,1.94-.7-1.36-.88,1.56-1.28-.53-1.1,1.55.92.71.57,2.31l-.44,1.03c-.68-.14-.4-1.62-.65-1.37l.12.69c-.53-.67-.34-3.31-1.33-4.77,0,1.05-.02,2.11-.09,3.17.54,1.96.52,4.25.48,6.43-.03,1.09-.06,2.16-.03,3.18.02.46.07.7.1,1.07.04.38.08.74.12,1.09l.03-.11c.04.07.15.14.38.27l-.21.05c.09.24.16.49.23.75-.87.35-1.66,1.45-2.82,2.43.8-.54.79-.52,1.28-.34.51.5.7.72-.14,1.72-.44-.22-.03-.93-.84-.26.46-.33.53.24.33.75-.61.48-1.19,1.43-1.63,1.21.03-.33.29-.47.46-.63.03-.33-.98.9-.9-.09l-.43,1.09c-.67.35-.35-.69-.71-.6-.3.88-.3,1.58-.34,2.25-.03.67-.09,1.32-.48,1.9-.13-.24-.86-1.04-.65-.8-.43.18-.59.67-.9,1.24-.15.3-.32.57-.58.86-.28.29-.59.54-.93.7.08-.38.65-.48,1.01-.81-2.21.77-4.09,1.23-5.72,1.11-1.64-.12-2.99-.72-4.47-2.03l-1.54.49c-.24-.4-.48-.79-.7-1.19-1.88-1.39-3.49-2.38-5-3.4-1.51-1.01-2.94-2.07-4.27-3.59-.79-.98.21-1.06.15-1.71-.67-1.16-1.33-1.79-2.01-2.42-.69-.62-1.4-1.26-2.04-2.52.47.24,1.59.46,1.2-.65-.38-.08-.92-.04-.98-.82l.45.24c.25-.81-.44-1.27-.64-2.7-.73-2.4-1.97-4.6-3.5-6.6-.19-2.34,1.23.08,1.41-.4-.17,1.66.36,1.08.79,1.36-.45-.78-.78-1.78-.04-2.32-.23-1.4-.3-2.05-1.06-3.26.38.61.06,1.25-.41.69.09-1.16-.73-3.74.29-3.78-.68-2.94-1.22-5.86-1.2-8.51l.03-.98.08-.95.14-.93.22-1.24c.26-1.62.52-3.24.78-4.84-.33-1.14-.33.77-.59.13-.41-1.65.54-1.15.23-2.46l.45.6c.4-1.78-.22-3.82-.28-5.63.53.43.86-1.22.85.24.12-.86,3.05-1.02,2.69-1.73-.92.02-1.82.06-2.74.12-.23-.12.25-1.19.06-1.13.7-.54,1.57-1.15,1.73-1.6.69.01.14,1.09-.07,1.72.99.42,1.39-1.83,2.01-.61.31-1.33-.6-.02-.68-.92l.67-1.03-.69.73c.07-1.06-.55-1.73.61-2.8-.11-.61-.21-1.23-.3-1.86.84.23.65-.97,1.2-1.63l.26.71c.46-1.01.79-1.34,1.38-1.85.4.92-.61.85-.09,1.41l.78-1.02c-.44-.21-.44-1.1-1.1-.41-.16-.7-.32-1.36-.34-2.01-.05-.59.11-1.29.82-2.27.65-.21.63.14.59.54-.05.4-.1.84.36.88.73-.83.78-1.76.75-2.66-.02-.9-.12-1.73.47-2.37.83-.76,1.09-1.26,1.3-1.79.11-.26.2-.55.35-.87.13-.3.31-.65.62-1.07.04.86,1.37-.77,2.03-.67-.03.32-.04.66-.05.98.24-.58.8-.86.99-.46-.67-.44,1.15-2.37,1.94-3.49l-.61-.33c.65-.88,1.61-2.15,2.68-2.63.67-.55.86-.88.98-1.25.12-.37.18-.77.64-1.41.96.19,1.16.88,1.25,1.63-.56-.11-1.15.42-1.9.61-1.59,1.62-1.95,3.65-3.63,4.82.47,1.75.85-1.1,2.01-1.27.04.09,0,.16-.05.22.07-.05.13-.09.22-.11-.44.59-1.13,1.55-.7,2.27.72-.88-.44-1.78,1.13-2.16.6-1.02,2.03-.46,2.59-.66.28-.84-.32-2.02,1.43-2.57-.12.38-.22.76-.32,1.13.22-.1.39-.2.52-.3.14-.1.23-.2.24-.27.06-.15.06-.33.06-.51.03-.33.02-.71.73-.82-.54-.01.37-.97-.66-.78.19-.29.6-.52,1.12-.62.53-.1,1.17-.07,1.75.05.31-.14.06-.3.12-.61-1.35-.61-1.89.64-2.9-.08-.19.37-.35.72-.47,1.11-.91-.06-1.41-.66-.93-1.27-.26.14-.46.37-.76.33-.4-.6,0-.68.45-.67.45-.02.93.04.98-.61-.26.1-.51.22-.76.34-.33-.37.06-.76.75-1,.68-.25,1.6-.3,2.18-.3,1.31.39,2.48.57,2.58,1.24l-1.72.3c.85.52,2.2-.3,3.29-.35.08.09.19.15.32.19-.06-.06-.1-.12-.1-.18.23.02.45.07.65.22.49-.03,1.1-.25,1.67-.47.47-.19.94-.35,1.34-.31l-.2-.58-.04.36c-.38.05-.84.07-1.16,0-.33-.08-.51-.25-.26-.54,1.69-.85,2.27.31,2.71.78-.27.96-1.58.22-2.39.78.42.38.77.29,1.32.18.53-.12,1.24-.28,2.08-.03-.56,1.03-1.88.19-2.05,1.19,1.23-.05,1.48-.8,2.86-.6-.18.46-1.44.58-1.29,1.19.27.06.55.15.81.23-.97.09-.83.42-.67.73.16.32.35.67-.29.86.65.35.82-.92,1.82-.29-.25-.45-1.12-1.22-.12-1.64.39.1.77.21,1.16.33.44.51-1.23,1.02-.51,1.47.38-.1.78-.19,1.2-.27-.02-.31-.59-.5-.19-.89.69.39,1.33-1.04,2.36-1.35.76.13,1.37.3,1.59.69.53-.14,1.09-.21,1.67-.25.45-.02.86-.09,1.3-.02.88.03,1.74.33,2.66.4-1.25-.04-.5.87-.32,1.61-.5-.31-.88-.22-1.16,0-.28.22-.46.56-.59.83.51.16,1.45-.28,1.36-.76.34.48.6.49.83.52.23.03.44.04.62.67.28.73-.9.43-.96.86.88.93,1.06-.6,1.94.67-.15.02-.27-.05-.32.15.4.74,1.34,1.18,1.83,1.05-.37,1.49,1.83,2.1.77,2.68,1.7,1.65.29-.69.91-.57,1,.42,1.78,2.12,2.06,2.71-.44-.46-1.02-.68-1.25-1.26l-.32.93c.76,1.4,1.49,1.51,2.17,1.57.33.02.7.09,1,.24.28.14.58.39.83.98-1.14-.64-.75.11-1.57.07.4.09,1.39,1.65,1.17.4.52.72.78,1.32,1.02,1.91.73.46,1.42,1.1,2.14,1.23.64,1.2.63,2.39.63,3.13.96,1.12,1.52,2.45,2.11,3.82.29.69.59,1.38.95,2.08.18.35.38.7.59,1.04.2.32.41.63.65.93l-.06-.22c.92,2.19.52-1.44,1.6.79-1.05.14,0,1.65-.16,2.59.71,2.95,2.67,4.59,2.92,7.5-.21.05-.5-.05-.7-.56.37,2.13,1.06,3.72,1.53,5.62l-.14-.05c.03,3.21,1.65,5.74,2.6,8.93-.18-.24-.57-.22-.75-.39.13,1.67.53,4.31,1.68,5.29-.58,2.17.56,1.23.12,3.97-.15.18-.22-.22-.29-.38-.08,1.31.21,2.18.35,3.48,1.18,2.57,2.59,2.97,2.75,6.27-1.34.39-.68-1.92-1.78-1.79.35.59.73,1.09.55,2.04-.62-.44-.36-.06-.92-.34-.24.73,1.89,2.51,1.76,2.52.27,0,.37-.27.23-.91.97.61.61,3.21,1.25,4.77-.08-.53-.1-2.22.66-1.72.09,2.2,1.54,2.69,2.39,4.07-.04.55-.2.61-.35.63-.16-.01-.33-.11-.56-.38-.45-.5-.97-1.2-1.41-.92-.28.4-.88,1.37-1.42.59.02.23.06.46.1.67l.08.31.05.15s.02.05.03.07c.11.19.22.36.32.54.25.42.52.99.62,1.75l-.27-.04c.06,1.05.34,2.47.8,3.97l.18.56c.06.19.13.39.17.48.09.23.17.46.23.69.12.45.17.9.09,1.33l.17-.93c.22.3.3,1.3.92,1.79-.46,0-.73,1.33-1.16.84.77.36,1.09,1.48,1.33,2.65.12.6.22,1.16.39,1.73.16.62.41,1.12.77,1.4-.33.66-.95.19-1.29,0,.02-.77.14-1.37.15-1.73.02-.36-.06-.64-.36-.98.02.55-.08.97-.21,1.36-.13.39-.3.59-.47.49.46.68.83,1.78,1.25,2.73.42.95.85,1.76,1.34,2-.33.92-.46,1.75-1.25,1.56.94,3.38,2.1-2.02,2.59,1.88-.54,1.82-1.17-1.57-1.16.83l-.16-.42c-1.8,1.85,1.52,1.03,1.5,3.06-1.06.24-.78-1.34-1.52-.01.27,1.89,1.84,2.72,1.5,4.62l-.45-.3c.08,1.21-.13,3.57-.05,4.77-.21.06-.18-.12-.24-.35-.4,2.23.54.93-.19,2.76l.52.52c.37-.92.89-2.7.28-3.86.61,1.16,1.35-1.82,2.25-1.24l-.36-.23c.78-1.52,1.22-3.25,1.54-5.09.15-.92.3-1.83.38-2.91.08-1.04.1-2.09.13-3.11-1.39-2.37-.21-4.18-1.09-6.48-.63-.15-.69-.27-.65-.6.03-.16.09-.38.12-.68.04-.32.06-.77-.01-1.35.16,1.23.95.15,1.1-.66-.34-.46-.47-1.01-.62-1.57.2-.25.5-1.15.58-2.13.09-.98-.04-2.03-.55-2.5.13-1.51.46.26.76.55.53-.71-.69-1.1-.37-1.65,0,0,.14,0,.23.14-.05-.25-.13-.59-.15-.74-.02-.14-.04-.28-.04-.43-.01-.3,0-.6.04-.94.07-.68.21-1.46.28-2.7-.61-.1-.73-.69-.81-1.47-.04-.39-.08-.84-.16-1.26-.04-.2-.1-.44-.15-.59-.05-.13-.11-.26-.19-.36.44.22.21-1.25.33-1.88l-1.1-.95c-.96-.98.26-1.64-.4-3.02l-.16.39c-.54-1-.29-3.94.17-5.13-1.01-2.41-1.7-4.64-2.1-6.65-.41-2.04-.58-4.01-.71-6.01-.28-4-.34-8.17-2.08-13.39-.54-.59-.46.66-1.13.27-.42-1.03-.44-1.28-.74-2.24-.06.94.29.69-.07.68.26.46.49.92.74,1.39-.07.1-.15-.06-.28.13.24.47.65.99.74,1.65-.54-.84-1.49-.86-1.5-2.2.15.06.23.21.39.52-.21-1.05-.64-.98-.64-1.82-.09-1-.28-.69.06-.92-.12-1.03-.3-2.05-.46-3.08-1.51-1.12-1.17-3.23-1.27-3.74.89.03.94,1.85,1.94,2.32l.18-1.26-.63.15c-.12-.53-.25-1.05-.39-1.58l.15.04c-.3-.09-.61-.19-.55-.65.06-.1.17-.31.27-.15l-.75-.95c.88.38-.21-1.01.57-1.15-.54-1.84-1.32-2.84-1.95-3.82-.33-.49-.65-.96-.91-1.53-.13-.29-.25-.6-.36-.95-.1-.34-.17-.67-.23-1.08-.1.61-1.52-.3-1.84-1.24-.08-.58,0-.79.43-.6l-.93-.96c.32-1.99-1.1-3.08-2.02-5.47l.36-.06c-.83-.62-1.63-1.32-2.36-2.61l.71-.16c-.32-.89-.83-.98-1.34-1.07-.51-.09-1.04-.18-1.5-1.11-.56.48-.07,1.69-.52,2.25.35-.81-.94-2.54-1.03-1.81-1.52-1.28-.9-1.03-.88-1.28-.4-.21-.67-.29-.99-.41-.7-.82.5-.87,1.05-.89-1.22-.16-1.53-1.42-2.2-2.48l.57.2-.93-1.4c-1.14-.53-2.16-1.78-3.01-3.2l1.46.22c-.37-1.2-.64-.23-.96-.35-1.55-1.05-1.38-1.78-1.78-2.91-1.54-.74-2.6-2.09-4.04-3.3-1.43-1.18-3.25-2.18-5.12-1.78Zm-2.62,78.76l-.14.24c-.17-.55-.32-.86.14-.24Zm-3.55,14.44c.51-1.63.65-.96.94-.93-1.1,1.35-1.18,2.15-2.16,3.34.28-.12.53-.04.71-.03-.31.5-.79.94-1.32.89-.24-.56.43-1.51,1.05-2.23.6-.68,1.21-1.2.78-1.03Zm-4.52-30.18c.09.01.18.03.27.06h0s-.28-.06-.28-.06Zm3.15,6.95c-.19.15-.26.36-.3.61.23-.19.41-.36.3-.61Zm-.81,15.75c-.44.2-.43.76-.51,1.23.11-.19.37-.5.51-1.23Zm-36.8-46.76c0,.5.18,1.47.67.76-.23-.47.56-1.01.15-1.48.03-.04.05-.04.07-.06-.46.35-.82.65-.89.78Zm29.77-33.81c-.02.41-.34.87-.06,1.14-.04,0-.1-.01-.15-.01.14.12.27.22.18.31.43.02.9.04,1.17-.15-.14-1.3.55-1.63-1.14-1.29Z"/><path class="cls-1" d="m49.69,134.42c.11-.12.21-.19.27-.27-.08.07-.16.15-.27.27Z"/><path class="cls-1" d="m62.85,126.57c.02-.08-.51-.09-1.12-.16.14.14.45.24,1.12.16Z"/><path class="cls-1" d="m46.09,183.32l.12-.53c-.27.25-.56.51-.82.78-.34,1.79.19,2.07.65,2.69-.02-1.62.62-2.37,1.43-4.15-.46.39-.93.79-1.38,1.21Z"/><path class="cls-1" d="m50.28,184.57c.22-.05.77-.14.91-.3l-.23-.38c-.24.21-.45.45-.68.68Z"/><path class="cls-1" d="m62.73,181.19c-.11-.18-.25-.36-.43-.5-.11.19-.01.42.08.59.1.14.2.21.35-.09Z"/><path class="cls-1" d="m57.76,174.73l-.85.38c.77.39,1.67.4,1.81-.08-.87.23-.19-.26-.95-.3Z"/><path class="cls-1" d="m63.66,182.17c.84-.17.35,1.12,1.09.96-.33-.18-.44-1.39-1.09-.96Z"/><path class="cls-1" d="m68.61,176.62c0-1.04-1.23-1.45-2.32-2.3.5.31.97.89,1.32,1.4.37.5.64.93.99.9Z"/><path class="cls-1" d="m68.51,187.51c-.56.08-.67-.52-.74-1.15.23.14.52.2.68.47-.72-.93-.67-.98-1.22-1.7-.01.95.07,2.15-.63,2.24.67.44,1.61,1.07,1.91.14Z"/><path class="cls-1" d="m70.46,178.96c-.33-.91-.17-1.62-1.24-2.8-.05.23-.1.54-.01.93.04.19.13.42.25.65.1.22.24.44.45.7h-.8c.29,1.24.45-.91,1.35.53Z"/><path class="cls-1" d="m67.83,191.84l.23-.49c-.67-.95-.67-2.3-1.6-2.64.32,1.14.92,2.59,1.37,3.13Z"/><path class="cls-1" d="m71.4,183.41l.9-.18c-.36-1.21-.24.2-.61-.13-.02-.37-.16-.9-.43-1.06.7,1.23-.62.37.14,1.38Z"/><path class="cls-1" d="m73.57,186.98c.26.48.48.97.71,1.46.24-.47.48-.94.7-1.43-.78-1.77-.56.05-1.42-.03Z"/><path class="cls-1" d="m73.38,188.97l-.14.2c.57.67,1.13,1.36,1.68,2.08-.74-1.3-.69-1.39-1.54-2.28Z"/><path class="cls-1" d="m64.44,213.09c.23.4,1.24-.5.61-.22-.17-.35-1.39.87-.61.22Z"/><path class="cls-1" d="m73.34,211.92c-.29.24-.6.9-.83,1.57-.24.67-.39,1.35-.45,1.76.13-.45.55-1.18.92-1.9.36-.71.64-1.38.36-1.43Z"/><path class="cls-1" d="m71.99,215.61c.01-.07.04-.2.07-.36-.04.13-.07.27-.07.36Z"/><path class="cls-1" d="m33.13,218.8c-.09-.08-.2-.14-.31-.18.11.06.2.12.31.18Z"/><path class="cls-1" d="m34.07,219.44c.44.63,1.71,1.46,2.18,1.28-1.01-.6-1.85-1.21-3.12-1.93.39.35.64,1.02.94.65Z"/><path class="cls-1" d="m28.2,210.87c.44.35.68,1.03.93.7,0-.33-.85-1.12-.93-.7Z"/><path class="cls-1" d="m37.15,154.2c.51-.61.57-1.1-.03-1.15-.37.8.14.51.03,1.15Z"/><polygon class="cls-1" points="37.46 152.07 37.76 152.1 38.38 151.8 37.46 152.07"/><path class="cls-1" d="m40.61,147.47c.07.07.1.2.11.32.03-.22.05-.42-.11-.32Z"/><path class="cls-1" d="m40.71,147.9s.01-.07.01-.11c0,.04,0,.08-.01.11Z"/><path class="cls-1" d="m40.44,148.04l.25.16c-.01-.07,0-.19.02-.31-.03.1-.11.18-.27.14Z"/><path class="cls-1" d="m41.3,146.5c-.38.06-.76.13-1.14.22-.03.9.84-.56,1.23.58-.05-.26-.06-.52-.09-.8Z"/><path class="cls-1" d="m43.03,143.81c.86-.6.83-2.71,2.03-2.63.2-.37.32-.67.38-.89.05-.21.02-.32-.01-.43-.09-.2-.29-.27-.48-.35-.38-.15-.75-.34.04-1.68-.55.49-.78.9-.85,1.24-.07.34-.03.69.06.99.15.6.3,1.21-.86,2.21,1.4-.74-.23,1.09-.3,1.55Z"/><path class="cls-1" d="m41.41,143.11c.29.45,1.13-.51,1.15-1.07-.29.27-1.27.34-1.15,1.07Z"/><path class="cls-1" d="m46.27,138.91c.26-.13.53-.24.79-.35l-.12-.37c-.22.24-.45.47-.67.72Z"/><path class="cls-1" d="m48.33,136.86c-.03.31-.05.63-.07.93-.01-.34.77-1.08.07-.93Z"/><path class="cls-1" d="m51.66,134.88c.62-.2.34-1.68-.63-.61l.29-.15c.06.21.93.18.34.76Z"/><path class="cls-1" d="m58.09,130.18c-.53-.03-1.06.17-.95.45.4-.11.86-.21,1.37-.3l-.42-.15Z"/><path class="cls-1" d="m57.85,126.87c-.54-.82-1.43.08-2.41-.04,1.14.02.99.15,2.41.04Z"/><path class="cls-1" d="m59.96,131.34c-.49.35-1.21.13-1.56.08.13.47,1.32.35,1.56-.08Z"/><path class="cls-1" d="m63.25,130.74c.82.17-.08.5.54.59.22,0,.44-.01.66-.03.21-.02.23,0,.35,0,.19,0,.36-.04.53-.07.32-.09.6-.25.78-.52-.23-.32-.69-1.22-.4-1.68-.67.24-1.06.81-1.38,1.17-.24.2-.67.39-.98.44-.33.04-.66-.03-1-.28-.59.56-1.22,1.1-1.82,1.6.91.08,1.29-.22,1.56-.52.27-.3.45-.61,1.16-.69Z"/><path class="cls-1" d="m58.81,128.33c.31.16.64.32.98.47-.21-.47.55-.56,1.1-.75-.33-1.02-1.54.22-2.08.27Z"/><path class="cls-1" d="m71.35,129.67c.61,0,1.24.01,1.89.04l-.6-.16-1.28.12Z"/><polygon class="cls-1" points="72.47 130.17 72.47 130.48 74.01 130.16 72.47 130.17"/><polygon class="cls-1" points="74.41 130.85 74.18 130.77 73.02 130.84 74.41 130.85"/><path class="cls-1" d="m76.65,131.77l.02-.48c-.3-.05-.66-.7-.81-.11.29-.15.82.22.79.59Z"/><path class="cls-1" d="m93.27,133.12c-.43-.07-.51.25-.59.57l.89-.12c-.12-.08-.36-.25-.3-.45Z"/><path class="cls-1" d="m93.67,135.42c.6.23,1.23.46,1.82.73-.3-.41-.6-.7-.87-.92-.27-.22-.54-.4-.69-.44-.36-.15-.75-.25-1.22-.71.07.29.35.51.63.66.29.18.53.3.81.78l-.5-.11Z"/><path class="cls-1" d="m108.04,163.25c-.57.05-.38.35-1.1-.6.85,1.35,1.15,2.66,1.76,4.33.25-.39,1.2.71.87.09l-.92-1.8.45.17c-.03-1.47-.86-.68-1.07-2.19Z"/><path class="cls-1" d="m114.49,240.46c-.27-.18-.51.05-.76.28.3,1.14.7-.51.76-.28Z"/></g><g><path class="cls-1" d="m104.01,328.21c-.35.71.12.23.55.14l-.55-.14Z"/><path class="cls-1" d="m104.55,328.35l.39.1c-.11-.11-.24-.13-.39-.1Z"/><path class="cls-1" d="m108.19,328.64c-.78.64-1.83-.07-2.32.82.89.48,2.2.14,2.32-.82Z"/><polygon class="cls-1" points="106.91 328.18 106.84 328.66 107.5 327.88 106.91 328.18"/><polygon class="cls-1" points="106.36 327.79 106.48 327.96 107.56 327.4 106.36 327.79"/><path class="cls-1" d="m111.01,328.67l-.8.22c-.84-.55.41-.91-.15-1.28-1.02.12-.2,1.37-1.52,1.29.17.59,2.07-.22,1.96.73,1.11.17-.01-.56.51-.97Z"/><path class="cls-1" d="m142.81,297.97c.06-.02.08-.05.13-.08-.11,0-.2.02-.13.08Z"/><path class="cls-1" d="m147.23,285.45c.15-.14.26-.29.35-.44-.11.02-.21.06-.31.12l-.04.32Z"/><path class="cls-1" d="m141.41,306.51c-.17.14-.3.27-.41.39.16-.04.31-.15.41-.39Z"/><path class="cls-1" d="m154.96,251.26c-.05-.06-.12-.12-.22-.17,0,0-.02,0-.03.01l.18.24.08-.08Z"/><path class="cls-1" d="m149.68,270.94c.04-.21.06-.41.04-.61-.09.34-.09.51-.04.61Z"/><path class="cls-1" d="m139.55,310.85c.03-.06.06-.12.09-.17-.06.04-.13.1-.19.17h.1s0,0,0,0Z"/><path class="cls-1" d="m144.6,288.92c.12-.13.23-.26.27-.38-.13.12-.21.25-.27.38Z"/><path class="cls-1" d="m123.92,327.33c.22.02.36-.1.46-.25-.16-.1-.33-.06-.46.25Z"/><path class="cls-1" d="m128.37,325.93s-.02.01-.03.01c.06.1.07.07.03-.01Z"/><path class="cls-1" d="m131.58,324.93s-.03.03-.05.05c.07.06.09.07.05-.05Z"/><path class="cls-1" d="m124.38,327.08c.44.25.89,1.37.98-.03l-.14-.14c.37.21.65-.41.98-.54-.07-.11-.14-.2-.21-.27-.17.03-.41.06-.78.08-.48-.15-.59.54-.83.91Z"/><path class="cls-1" d="m143.02,298.11c-.24-.05-.25.31,0,0h0Z"/><path class="cls-1" d="m142.42,302.4c.06-.12.13-.24.18-.37-.09.11-.18.21-.18.37Z"/><path class="cls-1" d="m135.49,315.45s.05-.01.08-.02c-.09-.1-.11-.05-.08.02Z"/><path class="cls-1" d="m142.75,301.69c-.04.12-.09.24-.15.35.08-.09.16-.19.15-.35Z"/><path class="cls-1" d="m138.49,312.29s.05-.02.06-.04c-.02,0-.04.02-.06.04Z"/><path class="cls-1" d="m114.58,299.3c.23-.38.64-.29.99-.47.06-1.25-1.34,1.22-.93-.23-.29.28-.44.59-.55.88.33.06.65.11.97.18.33-.76-.56.16-.48-.37Z"/><path class="cls-1" d="m151.8,254.13l.12-.09c-.38-.07-.45-.19-.85.21.34.64,1.41.35,1.67,1.32,0-.16.12-.36.28-.52-.6.08-.95-.42-1.22-.92Z"/><path class="cls-1" d="m153.02,255.04s.03,0,.05,0c.09,0,.16,0,.23-.02.05-.1.12-.19.21-.24-.17.02-.35.12-.49.27Z"/><path class="cls-1" d="m122.42,292.82c.1-.07.19-.13.27-.19-.22.01-.28.08-.27.19Z"/><path class="cls-1" d="m159.65,274.26c.04.17.1.34.15.48.01-.24-.06-.38-.15-.48Z"/><path class="cls-1" d="m155.41,247.76c.1-.08.17-.17.24-.28.01-.07.02-.14.04-.22l-.28.51Z"/><path class="cls-1" d="m151.21,274.13c-.58-.79-.07.24-.85.35l.07.72c.41-.3.57-.73.78-1.07Z"/><path class="cls-1" d="m114.02,299.48s.04.04.06.06c0-.02.01-.03.02-.05h-.08Z"/><path class="cls-1" d="m141.88,285.71c-.09.03-.17.06-.24.09.07,0,.15-.03.24-.09Z"/><path class="cls-1" d="m154.58,252.54l.8-1.68-.43.4c.32.42-.78.81-.37,1.28Z"/><path class="cls-1" d="m156.46,266.81l.59.08c-.07-1.26.57-2.23,1.03-3.27.23-.49.48-1.05.55-1.49.04-.39-.02-.8-.29-1.27,2.63-1.15-1.13-1.96,1.32-3.09l-.29-.05c1.34-2.66,3.04-5.49,4.35-8.93,1.24-3.29,1.99-6.45,2.36-9.4l2.76-22.42-12.98,17.57c-1.18,1.6-1.58,3.05-1.81,4.28l-.38-.12c-.61,2.19-.67,3.92-.69,5.48,0,1.55.1,2.95.18,4.15.04.6.08,1.17.09,1.59,0,.25,0,.31,0,.55l-.04.78c-.06,1.05-.18,2.14-.34,3.26-.31,2.24-.8,4.6-1.35,7.1-.56,2.53-1.11,5.02-1.75,7.47.15,1,1.13.64,1.38,1.54-.11.34-.25,1.13-.73,1.02-.11-.73-.62-.45-.75-.72-.21,1.12-1.09,2.4-.75,3.51l.81-.67c.17.44-.15,1-.27,1.33-.28-.22-1.07.11-1.15-.22,1.01,2.43-1.05,1.42-.91,3.27,1.21.69,1.68,3.11,2.16,4.8l-.56.63c.31-.97-.94-.27-.51-1.46-.66.9-.42,1.99-.93,2.86.38-.08.79.11.8.54-.37.52-1.03.35-1.31.98l-.18-.78c-.63.27-.12.86-.19,1.28-.58-.06-1.02.86-1.55.47.41,1.13-.13,1.27-.04,2.36.93-.74.59.52,1.06.59l.22-1.17c-.95,1.4.1-.54-.84-.76.7-.56,1.08,1.56,1.42.29-.12,1.63-.63,1.78-.53,3.56.21-.97.5.42.97.05-.45,1.16-.43.15-1.14.26-.25.62-.85.61-.46,1.47-.71.86-.58-.45-1.16-.12-.43-.62,1.97-2.39-.09-2.96.2-.52-.29-1.44.04-2.15-.5.55-1.52,1.17-1.41,2.13l1.07.51c-.23.6.44,1.05.15,1.44-.21-.37-.85-.17-.98.34.21-.06.26-.27.43-.13-.15.44-.09.85-.01,1.26.08.41.16.85,0,1.5.72-.85,1.15-.94,2.01-1.58.65.57-.17.67-.32,1.24-.07-.13-.04-.25-.26-.16l.11.73c-.85,1.06-1.05-.63-1.84.21-.93.43-.04,1.1-.62,1.49.08,0,.17-.01.24-.02-.06.11-.11.19-.16.24.02,0,.04,0,.06.01-.14.68-.47,1.35.04,1.75-.29-.03-.14.58-.03.86.1.44.46,1.55-.67,1.71,0-.02.01-.03,0-.04-.41.74-.93,1.23-1.18.94l-.71,1.14-.7-.43c-.23,1.2.25,1.25.71,2.32-.76.62-1,2.09-.95,2.73-.07.07-.13.19-.2.42l.5-.3c-.43.81,0,.89-.26,1.44.12-.08.17-.08-.09.17-.06.09-.12.18-.21.29-.06-.06,0-.18.11-.28l-.29-.02c-1.09.24-.1,1.2-.73,1.75,0-.08.02-.22.06-.28-.39.29-1.71.19-1.2.7-.13.03-.09.23-.02.45l-.27.2c.1-.09.19-.15.27-.19.09.29.23.61.08.53-.24.28-.5.53-.74.79-.21.1-.29.38-.33.63l-.37-.06c-.21.32-.37.2-.41.1-.88.11-1.04.61-1.3,1.06-.25.44-.47,1.02-1.34,1.03.15.59.76.44,1,.63.11.46-.31,1.28-.48,1.81-.49-.1-1.28-.07-1.93-.13-.66-.05-1.16-.32-1.3-.87-.94.36.6.48.31,1.05h-.13c.4-.03.83.17,1.25.41.4.49-.49,1.18-.88,1.14l-.15-.88c-.86.72-.19,1.81-.61,2.9-1.05,0-.76-.92-1.2-1.58l-.88.5-.19-.62c-.57.35-.55.97-1.5.97.48-.76-1.49-.21-.82-1.25-.55-.07-.37,1.17-.86.41-.16.76.55.2.85.34.47.9-.97.75-1.5,1.19-.2-.47.24-.7-.59-.81-.05.42-.42.86-.99.57.22.6-.76.43-1.16.55.48-.06,1.29.13,1.2.76-.25.37-.48.61-1.27.83l.63.07c-.32,1.14-1.35-.18-2.13.37.26-.48.49-.57.65-1.12-.3.44-.92,1.14-1.56,1.57-.32-.26-.62-.53-.88-.82-.02.24-.23.24-.42.27-.21.02-.43.06-.41.38-1.06-.39.84-.81.77-1.29-.47-.18-.81.1-1.04.31-.25.21-.49.35-1.15-.1l.39-.63c-.43-.02-1.25.39-1.33.1.02.21.22.11.49.09-.17,1.3-1.84,1.08-1.55,2.39l.57.03c-.84.34-1.34,1.31-2.05.92-.56-.37.25-.94.51-1.31-.82,0-.49,1.53-1.47,1.51.53.15.49.64.23,1.01.57.02,1.75.14,1.49-.39l-.21-.11c.01-.35.3-.51.43-.7.76-.08.42.56.59.8,1.27.08-.03-1.34,1.12-1.4l.17.24c.52-.39,1.38-.49,1.49-1.32.57.83,1.3-.37,1.87.05.21.93-.36.98-.99.86-.59-.12-1.29-.32-1.58.21.63.35-.28.92-.49,1.38.6-.32,1.2-.64,1.82-.93.09.12.24.42.49.59.26.17.56.21.73-.16l-.19-.02c.89-.33.5-1.06,1.27-.95.15.14,0,.49-.03.62.73,0,.46-.56.83-.85.68-.04-.09.84.52.87.51-.94,1.22-.26,1.79-.53-.64-.91,1.71-2.23.15-2.65.38-.41.79-.81,1.21-1.19.59.4-.53,1.74.16,2.47-.35.11-.7.22-1.06.35.33.59.79.17,1.32-.21.54-.38,1.24-.76,1.8-.15.62-.11.41-.24,1.76.07l-.52-1.09c.67.1,1.06.66,1.15.86.34-.18.68-.25,1.04-.31-.04.2-.12.39-.32.52.67.49.75.2.8-.19.17-.37.57-.46.98-.61l-.22.55c.22-.19.48-.42.43-.63.17-.07.32-.16.44-.29-.19-.15-.72-.68-1.37-.77,1.6-.07,2.64-.88,4.28-.81.15.31-.14,1,.04.94.71-.24,1.04-1.16.67-1.55.1-.12.19-.21.27-.28.28.16.6.31.9.14.13.04.29.03.5-.09-.21-.45.04-.77.29-1.08.25-.31.55-.59.5-.84-.29.15-.55.41-.81.7-.02-.86-.2-1.69.45-1.61-.3,1.13,1.48-.07.56,1.2,1.63.06-.16-.98.88-1.53l.84-.25c.45.53-.54,1.15-.23,1.19l.28-.46c.06.76-1.58,1.98-2.1,3.38.79-.43,1.46-.98,2.19-1.5.45-.72.89-1.46,1.43-2.14.49-.71.99-1.42,1.45-2.13.87-1.44,1.52-2.9,1.41-4.34-.01.03-.02.07-.03.1-.04-.07-.15-.15-.36-.29l.2-.02-.25-.66c.82-.2,1.38-1.08,2.19-1.67-.61.33-.61.33-1.1.16-.58-.38-.82-.57-.27-1.2.45.18.24.63.84.25-.34.18-.55-.2-.47-.54.46-.29.8-.95,1.26-.77.04.24-.17.33-.29.43.04.24.73-.61.86.11l.18-.81c.56-.29.48.53.79.46.2-1.38-.61-2.42-.5-3.65.22.14,1.24.55.95.42.63-.74-.42-2.24-.14-3.23.25.26,0,.57.03.91.75-1.39,1.35-2.66,2.05-3.82.34-.59.72-1.13,1.13-1.67.22-.28.45-.56.68-.85.25-.3.51-.6.79-.91l-.7-1.19,1-.45c1.93-2.75,2.09-5.39,2.7-8.39.22-.93.92-.31,1.35-.65.73-1.98-.35-2.82-.08-4.78.26.35,1.07,1.05,1.34.24-.27-.24-.74-.47-.41-.94l.26.35c.62-.35.27-.93.73-1.86.42-1.75.04-3.58-.84-5.28.46-1.49,1.14.43,1.44.2-.65.98.02.79.34,1.12-.17-.64-.2-1.37.64-1.49.13-.8.25-1.16-.1-2.05.18.45-.32.69-.59.25.42-.58.49-2.29,1.44-1.98.33-1.9.76-3.82,1.24-5.83.48-2.01,1-4.13,1.34-6.31-.38-.81-.29.52-.58.06-.49-1.16.49-.78.08-1.72l.49.43c.27-1.28-.58-2.8-1.01-4.08.61.25.57-1.02.88.06-.04-.34.66-.59,1.27-1,.62-.41,1.17-.85.87-1.1-.85.28-1.71.59-2.58.86-.24-.07-.11-1.01-.28-.9.49-.59,1.05-1.29,1.02-1.65.64-.24.57.7.58,1.25.55,0,.7-.45.84-.83.14-.37.27-.63.8-.3-.26-1.07-.55.19-1-.42l.16-.91-.31.71c-.38-.72-1.24-.91-.69-1.87l-1.12-.86c.86-.13.13-.67.33-1.1l.56.26c-.04-.58.13-.76.44-1.07.75.3-.19.46.52.58l.26-.53c-.49,0-.85-.36-1.17,0-.44-.26-.85-.5-1.11-.81-.26-.3-.38-.76-.2-1.16.89-.04.59.57,1.44.64.16-.16.03-.25-.2-.37-.12-.09-.25-.16-.39-.24-.14-.09-.29-.2-.42-.33l-6.23-2.96c.37.43.67.82.54,1.23-.61,1.25.16,1.34-.09,2.68-.46-.55-.81.79-1.39.89l-.45-.65c.08.44-.23.76-.61.54.77.11.29,1.83.38,2.79l.68.03c.02.74.11,1.81-.3,2.46-.18,1.11.45,1.08.78,2.18-.74.24-1.36-.09-1.97-.5.43-.15.43-.7.8-1.09-.04-1.51-1.06-2.91-.39-4.16-1.38-1-.06.95-.8,1.42-.09-.05-.1-.1-.1-.15-.02.05-.04.1-.09.14-.04-.51-.07-1.35-.82-1.69-.06.81,1.37,1.01.42,1.76.2.84-1.18.99-1.42,1.31.39.64,1.58,1.14.87,2.21l-.62-.84c-.55,1.29.96,1.11.39,2.34.29-.4.62.78,1-.05.26.6-.07,1.56-.62,2.15.04.24.26.16.52.32.91-.52,0-1.46,1.08-1.73l-.65-.91c.62-.56,1.36-.35,1.53.24.05-.22,0-.45.22-.53,1.39.43-.83.66.19,1.39l.12-.55c.96.14.25,1.52-.11,2.15-.73.56-1.19,1.17-1.83.95l.18-1.11c-.73.29-.28,1.4-.57,1.97-.1,0-.19.03-.27.08.07,0,.13,0,.19.03-.09.11-.21.19-.4.22-.26.5-.21,1.43-.62,1.82l.58.18-.29-.2c.23-.47.85-.95,1.11-.42-.07,1.22-1.24.98-1.83,1.04-.76-.61.46-1.06.4-1.72-.99-.04-.57,1.05-1.6,1.96-.75-.84.56-1.32-.19-1.93-.55.85,0,1.37-.62,2.26-.39-.3-.04-1.28-.62-1.45l-.53.54c.59-1.61-1.28-.19-1-1.53-.63.44.42,1.13-.51,1.76.51-.09,1.51-.46,1.57.49l-.62.8c-.29.06-.47-.19-.63-.52-.16-.31-.32-.59-.63-.35-.03.41,0,.63,0,.94.29.09.58-.22.87.15-.48.32.79,1.14.98,1.87-.2.42-.43.73-.82.73.16.72.07,1.42-.08,2.1-.13.69-.27,1.37-.21,2.07-.12-.97-.91-.5-1.52-.36.34-.8-.48-1.28-1.03-1.54-.17.48.48,1.28.89,1.22-.79.53.26.87-.71,1.17-.55.23-.64-.72-1.04-.77-.55.74.82.84.06,1.57-.07-.12-.05-.22-.24-.25-.46.34-.47,1.08-.16,1.46-1.33-.24-.9,1.44-1.79.62-.58,1.28.64.24.81.7.08.77-.91,1.34-1.28,1.47.2-.28.14-.73.49-.88l-.83-.29c-1.55.96.79,2.04-.86,2.89.23-.95-.3-.63-.47-1.33,0,.33-1.04,1.2-.04.99-.47.44-.86.68-1.27.93-.13.64-.36,1.27-.17,1.88-.66.64-1.56.77-2.12.87-.81,1.87-2.78,2.59-3.62,4.67l.14-.09c-1.15,1.18,1.32.13.23,1.43-.66-.81-1.17.39-1.94.51-.86.68-1.24,1.58-1.63,2.4-.33.77-.67,1.51-1.47,2.03-.16-.14-.3-.38-.13-.67-1.05.91-1.53,1.89-2.31,2.81l-.07-.12c-1.82,1-2.14,2.94-3.3,4.56.01-.2-.24-.49-.26-.67-.8.55-2.07,1.66-1.73,2.59-1.39-.11-.26.65-2.01.8-.18-.09.01-.22.07-.32-.78.19-1.17.61-1.95,1.07-1.17,1.8-.85,3.19-2.78,4.78-1.15-.8.78-1.4.06-2.21-.22.57-.31,1.09-1.02,1.42-.13-.68-.2-.29-.38-.85-.33.1-.42.77-.41,1.38.02.61.11,1.17.07,1.12.2.18.41.13.68-.27.31.97-1.35,1.91-1.65,2.99.21-.27,1.07-1.03,1.37-.31-1.07,1.02-.2,2.14-.26,3.23-1.21.7-.47-1.41-1.4-1.75-.41-.02-1.34-.02-1.36-.67-.81.86-.51,1.91-.9,2.88l-.21-.18c-.86,1.49-.6,3.55-1.64,4.46l.59-.48c.03.3-.38.96-.04,1.57-.4-.24-1.17.49-1.35-.03,1.04,1.22-.49,3.4.54,4.55-.48.2-.91-.3-1.18-.53.45-.76.83-.93.48-1.59-.27.7-.82,1.05-1.08.82.56,1.03.24,2.72.93,3.41-.62.29-1.05.62-1.66.15-.09.47-.06.95.15,1.06.2.14.52.09.82.06.61-.06,1.07-.06.56,1.27-.56.51-.7.14-.79-.18-.09-.32-.14-.58-.57.33v-.39c-1.16.41-.88.81-.38,1.19.52.39,1.25.82,1.12,1.5-1.08.05-.59-1.14-1.5-.23.07,1.41,1.63,2.05,1.18,3.19l-.43-.22c.03.77-.36,2.05-.45,2.66-.21-.02-.16-.1-.18-.23-.33.51-.24.64-.18.76.06.11.1.22-.41.49l.38.45c.52-.25,1.35-1.08.88-1.86.23.38.61.21,1.04-.04.42-.24.89-.57,1.31-.32l-.34-.2c.92-.86,1.42-1.99,1.85-3.04.42-1.06.8-2.02,1.38-2.74-.15-.34-.15-.63,0-.99.13-.33.32-.62.53-.9.41-.57.86-1.14.83-2.04-1.05-.71-.11-.39.19-1.77-.14.74.84.44,1.17.08-.19-.37-.17-.72-.15-1.06.5-.11,2.08-1.18,1.6-2.06.7-.52.27.34.43.61.71,0-.17-.79.33-.81,0,0,.11.07.13.17.25-.52.53-.89.84-1.22.16-.17.32-.34.49-.5.17-.17.34-.34.59-.64-.94-.78.38-1.41.34-2.15.22.38.8-.38,1.19-.56l-.36-1.09c-.24-1,.98-.48,1.15-1.4l-.3.04c.08-.75,1.67-1.55,2.5-1.44.38-1.27,1.26-2.23,2.29-3.02,1.04-.8,2.25-1.44,3.53-2.3,1.21-.81,2.31-1.5,3.45-2.46,1.12-.94,2.21-2.07,3.17-3.55,0-.58-.69-.12-.9-.74.32-.64.46-.74.83-1.25-.6.25-.22.42-.45.16l-.33.98c-.1-.02-.06-.13-.26-.16-.11.33-.16.78-.48,1.07.13-.67-.47-1.36.3-1.8.06.13.02.23-.05.45.47-.49.15-.78.65-1.04.54-.38.22-.42.58-.25l1.54-1.28c-.31-1.41,1.2-1.78,1.46-1.99.54.63-.53,1.19-.16,2.04l.89-.24-.5-.41.72-.72.07.12c-.14-.25-.28-.48.04-.53.1.02.29.05.26.15l.08-.72c.33.69.49-.34,1.06.19,1.52-1.42.77-2.75,2.76-3.55-.48,0-.56-1.24-.07-1.6.36-.14.55-.09.64.26l.19-.84c1.55.03,1.57-1.19,2.84-2.03l.21.28c.04-.67.19-1.33.82-1.87l.42.55c1.02-.46-.58-1.51.47-2.09-.56-.46-1.31-.16-1.9-.53.74.28,1.6-.58,1.01-.7.49-1.05.51-.58.71-.54l.08-.8c.53-.59.9.4,1.04.9-.14-1.08.8-1.35,1.43-1.97l.04.48.8-.82c0-.93.57-1.81,1.39-2.43l.39,1.1c.82-.27-.06-.48-.09-.72.23-1.18.89-1,1.68-1.2.07-1.02.85-1.58,1.61-2.16.72-.6,1.39-1.24,1.12-2.27Zm-20.39,48.67l.19-.02c-.06.34-.06.56-.19.02Zm4.33-6.99c-.07,1.09-.35.61-.63.57.64-.82.6-1.43,1.23-2.15-.23.06-.48-.01-.65-.03.18-.31.51-.56,1.01-.49.73.8-1.65,2.3-.96,2.11Zm-10.48,17.29c.02-.08.03-.17.06-.25h0s-.07.25-.07.25Zm4.89-3.37c.19.13.37.12.55.08-.24-.14-.44-.25-.55-.08Zm8.28-7.91c.48-.03.66-.62.78-1.04-.14.16-.42.42-.78,1.04Zm18.99-64.11c.16.41.52,1.04.84.47-.34-.31.27-.99-.27-1.21.02-.04.03-.04.04-.06-.31.36-.6.69-.62.8Zm-6.89,5.72c-.34-.21-.64-.6-.97-.59.02-.02.04-.05.07-.07-.15.02-.28.03-.34-.06-.18.2-.37.4-.34.61,1.15.6,1.12,1.16,1.58.1Z"/><path class="cls-1" d="m154.02,244.92c-.01.11-.04.19-.05.26.02-.07.03-.15.05-.26Z"/><path class="cls-1" d="m153.64,255.95c.07.05.3-.17.58-.44-.18,0-.37.11-.58.44Z"/><path class="cls-1" d="m112.38,325.4l.29-.16-.66-.32c-.98.55-.96,1.11-1.13,1.78.84-.7,1.43-.47,2.6-.77l-1.1-.53Z"/><path class="cls-1" d="m113.36,329.61c.12.16.41.56.56.59l.11-.4-.67-.19Z"/><path class="cls-1" d="m126.07,328.78l-.93-.08c-.15.4.95.7.93.08Z"/><path class="cls-1" d="m119.97,323.76l-.28.56c.5.19,1.05-.08.96-.55-.45.46-.24-.19-.68-.02Z"/><path class="cls-1" d="m128.6,328.16c.09-.83,1.11.03,1.11-.73-.22.29-1.28-.02-1.11.73Z"/><path class="cls-1" d="m125.95,321.27c-.48-.62-.8.13-1.46.13.51-.14,1.4.42,1.46-.13Z"/><path class="cls-1" d="m133.38,323.97c.24.51-.24.73-.79.85.09-.24.08-.51.26-.7-.61.79-.72.73-1.27,1.24.8.11,1.95-.19,2.16.47.33-.74.42-1.75-.36-1.85Z"/><path class="cls-1" d="m127.3,320.79c-.53-.07-.94-.48-1.5-.28.2.34.55.83,1.18.55l-.06.69c.75.28-.47-.75.38-.96Z"/><path class="cls-1" d="m136.94,323.36h-.47c-.34.98-1.48,1.31-1.47,2.29.45-.31.91-.72,1.28-1.12.35-.43.59-.86.66-1.17Z"/><path class="cls-1" d="m129.87,321.18l-.26-.87c-.62.11.15.26.03.54-.21-.05-.5-.03-.57.17.64-.38.31.67.8.15Z"/><path class="cls-1" d="m131.22,319.38l.45-.74c-.35-.17-.69-.34-1.02-.52-.54.75.25.51.57,1.26Z"/><path class="cls-1" d="m132.38,319.36l.18.09c.09-.59.12-1.22.14-1.79-.2.85-.26.85-.32,1.69Z"/><path class="cls-1" d="m146.54,309.08c-.3-.3-1.06.29-.52.13.23.27,1.12-.57.52-.13Z"/><path class="cls-1" d="m138.61,309.17c.44-.19.42-1.55.39-2.13-.08.65-.89,1.99-.39,2.13Z"/><path class="cls-1" d="m138.99,306.8s0,.14,0,.24c.01-.1.01-.17,0-.24Z"/><path class="cls-1" d="m145.77,284.53c0-.06,0-.12-.05-.18.02.06.03.12.05.18Z"/><path class="cls-1" d="m145.81,285.11c-.24.3-.24,1.05.11,1.3,0-.6.05-1.12-.15-1.88-.04.25-.41.44.04.57Z"/><path class="cls-1" d="m147.54,280.25c.16.33-.06.65.33.67.2-.1-.03-.77-.33-.67Z"/><path class="cls-1" d="m164.9,245.55c.17-.48,0-.75-.56-.59.04.53.36.22.56.59Z"/><polygon class="cls-1" points="164.19 244.38 164.47 244.31 164.89 244 164.19 244.38"/><path class="cls-1" d="m165.08,241.92c.09.03.18.09.23.14-.06-.1-.13-.2-.23-.14Z"/><path class="cls-1" d="m165.34,242.11s-.02-.03-.03-.05l.03.05Z"/><path class="cls-1" d="m165.14,242.2l.3.05s-.07-.08-.1-.14c.01.05-.03.09-.19.09Z"/><path class="cls-1" d="m165.24,241.63c-.29-.09-.57-.02-.88,0,.36.32.49-.18,1.33.24-.15-.07-.31-.2-.46-.24Z"/><path class="cls-1" d="m154.67,237.51c-.4.57.73,1.75-.34,1.88.13,1.85,1.75-.04,1.67,2.05.94-1.78-1.69-1.38-.77-2.95-.79.69-.37-.65-.55-.98Z"/><path class="cls-1" d="m156.4,237.55c-.48-.21-.69.59-.41.91.1-.22.88-.48.41-.91Z"/><polygon class="cls-1" points="154.37 241.02 153.87 241.45 154.15 241.66 154.37 241.02"/><path class="cls-1" d="m153.69,242.92l-.44-.64c.18.22-.05.94.44.64Z"/><path class="cls-1" d="m152.25,245.28c-.33.35.84,1.18.85.18l-.12.19c-.18-.12-.8.21-.73-.37Z"/><path class="cls-1" d="m151.85,251.95c.17-.31.18-.76-.1-.81l-.14.99.25-.19Z"/><path class="cls-1" d="m154.93,253.17c.89.04.32-.86.82-1.35-.44.61-.51.48-.82,1.35Z"/><path class="cls-1" d="m150.32,252.48c-.2-.38.17-.67.32-.87-.48-.09-.64.58-.32.87Z"/><path class="cls-1" d="m149.92,254.06c-.44.17-.39-.25-.7-.12-.63.5-.89,1.24-.63,1.81.4-.04,1.38.09,1.65.53.18-1.17-.98-2.33.32-2.35l-.93-1.44c-.58.72.64,1.04.3,1.58Z"/><path class="cls-1" d="m153.34,253.13l-.68.34c.48.08.37.53.38.88,1.03.29.22-.88.3-1.21Z"/><path class="cls-1" d="m148.17,260.02c-.05.37-.14.74-.23,1.11l.21-.3c.02-.27.02-.54.02-.81Z"/><polygon class="cls-1" points="147.59 260.53 147.3 260.43 147.45 261.42 147.59 260.53"/><polygon class="cls-1" points="146.77 261.41 146.87 261.31 146.9 260.62 146.77 261.41"/><path class="cls-1" d="m145.54,263.31l.48.04c.03-.3.73-.55.18-.79.06.31-.28.78-.66.75Z"/><path class="cls-1" d="m149.89,276.77c-.08-.37-.37-.42-.67-.48l.35.77c.04-.11.12-.33.32-.29Z"/><path class="cls-1" d="m147.93,277.23l.05,1.29c.81-.76.39-1.33.9-2.17-.47.15-.36.99-.87,1.24l-.08-.37Z"/><path class="cls-1" d="m136,291.02c-.4-.39-.46-.17-.35-.96-.28.99-.86,1.6-1.46,2.55.4.05.38,1.09.52.65l.48-1.21.2.38c.86-.47-.16-.83.62-1.42Z"/><path class="cls-1" d="m104.51,327.91c-.26-.13-.51-.01-.77.11.24.73.72-.26.77-.11Z"/></g><g><path class="cls-1" d="m97.8,349.94c.35.13.41.11.37.01-.03-.07-.18-.2-.19-.33-.08.1-.11.2-.18.32Z"/><path class="cls-1" d="m97.98,349.62c.05-.07.09-.13.15-.19-.14.02-.16.1-.15.19Z"/><path class="cls-1" d="m99.73,347.74c0,.22-.07.41-.18.58-.06.09-.11.16-.19.24l-.15.17c-.18.2-.3.42.03.72.31-.02.5-.16.65-.52.21-.43.19-.87-.16-1.2Z"/><path class="cls-1" d="m98.62,348.24l.32.35c-.09-.27-.15-.59-.22-.89-.04.18-.08.37-.1.54Z"/><path class="cls-1" d="m98.05,348.29l.19.04c.03-.32.11-.66.16-.97-.11.3-.24.62-.34.93Z"/><path class="cls-1" d="m101.1,345.57v.11c0,.23-.03.46-.06.69-.43.23-.59.03-.71-.16-.13-.2-.25-.4-.51-.26-.14.39.11.57.35.8.23.21.43.48-.01.93.29.11.58-.3.82-.7.25-.4.43-.8.85-.55.21-.34.19-.48.1-.52-.03-.03-.07-.03-.12-.03-.18-.01-.46.02-.61-.16-.04-.03-.07-.07-.09-.13Z"/><path class="cls-1" d="m83.54,310.73s.03-.08.05-.11c-.08.07-.13.14-.05.11Z"/><path class="cls-1" d="m77.95,303.42c-.01-.15-.06-.28-.11-.39-.04.09-.07.19-.08.28l.19.11Z"/><path class="cls-1" d="m87.79,316.02c-.04.18-.05.34-.05.48.09-.13.13-.28.05-.48Z"/><path class="cls-1" d="m64.45,293.48c-.08-.1-.19-.23-.33-.37,0,0-.01,0-.02,0l.31.42.03-.05Z"/><path class="cls-1" d="m74.33,301.75s-.02.03-.01.13c.02.05.02,0,.01-.13Z"/><path class="cls-1" d="m89.38,319.49c-.02-.06-.04-.1-.06-.15-.01.06-.02.14,0,.22l.07-.06h0Z"/><path class="cls-1" d="m78.76,306.36c-.02-.13-.03-.25-.09-.32,0,.13.04.23.09.32Z"/><path class="cls-1" d="m99.99,334.67c0-.19-.11-.28-.26-.34-.08.15-.05.29.26.34Z"/><path class="cls-1" d="m98.78,331.67s0,.01,0,.02c.1-.05.08-.05,0-.02Z"/><path class="cls-1" d="m98.19,329.17s.03.03.04.04c.07-.06.08-.08-.04-.04Z"/><path class="cls-1" d="m99.72,334.33c.22-.41,1.26-.99-.05-.72l-.14.12c.21-.27-.37-.34-.49-.56-.11.06-.2.12-.28.19.02.12.04.28.05.53-.15.36.52.3.9.43Z"/><path class="cls-1" d="m83.78,310.66c-.21.13,0,.29,0,0h0Z"/><path class="cls-1" d="m85.97,313.2c-.03-.1-.05-.21-.09-.31,0,.11,0,.23.09.31Z"/><path class="cls-1" d="m90.55,324.61s.01-.05.03-.08c-.13.04-.09.07-.03.08Z"/><path class="cls-1" d="m85.77,312.61c.04.09.08.18.11.28,0-.1,0-.2-.11-.28Z"/><path class="cls-1" d="m89.73,320.93s.02-.05.01-.06c-.01.02-.02.04-.01.06Z"/><path class="cls-1" d="m75.32,346.41c-.28-.22-.08-.57-.15-.88-1.11-.15.74,1.24-.45.78.16.26.41.42.65.55l.43-.83c-.59-.34-.01.5-.47.39Z"/><path class="cls-1" d="m63.05,295.75l.06-.09c-.42-.18-.57-.37-.7.09.73.88,1.6.77,2.45,1.96-.1-.18-.1-.38-.05-.53-.53-.05-1.19-.71-1.76-1.43Z"/><path class="cls-1" d="m64.81,297.18s.03,0,.05.01c.08.02.15.04.21.04-.01-.1,0-.18.06-.21-.16-.04-.27.03-.32.16Z"/><path class="cls-1" d="m71.54,338.74c-.03-.11-.06-.22-.09-.31-.06.21-.01.29.09.31Z"/><path class="cls-1" d="m73.2,284.17c.11,0,.21-.03.3-.07-.18-.13-.26-.06-.3.07Z"/><path class="cls-1" d="m62.42,288.37c.1.02.17,0,.22-.05,0-.07-.02-.15-.02-.23l-.21.28Z"/><path class="cls-1" d="m74.76,310.42c-.95-.02.1.14-.34.66l.56.28c.08-.38-.14-.67-.22-.94Z"/><path class="cls-1" d="m75.33,346.92s.04-.03.07-.04c-.01,0-.02-.01-.04-.02l-.03.06Z"/><path class="cls-1" d="m77.15,321.6c-.04.07-.06.14-.09.21.05-.05.08-.11.09-.21Z"/><path class="cls-1" d="m64.84,294.84c-.07-.54-.13-1.05-.22-1.61l-.17.24c.57.72-.29.56.39,1.36Z"/><path class="cls-1" d="m74.09,304.14l.53-.24c-.18-.15-.32-.31-.43-.48-.05-.08-.1-.19-.13-.24-.02,0-.04,0-.05,0-.04-.02,0-.05.04-.06.06-.05.08.01-.85-.35,1.06.23.59.14.04-.2-.53-.27-1.13-.75-.13-.28l-.33-.2c.05-.29.19-.43.36-.45.25-.06.56.25.38-.24-.09-.24-.27-.67-.66-1.5l.62,1.25c.33.62.19.6.32.66.04-.03.07-.21.25-.03.08.08.19.23.28.44-.06-.65-.34-2.37-.34-3.04.06.14.18.23.25,1.06-.04.36.08,1.18.1,1.49.03,0,.08.27.11.4.03.14.04.14.1-.24,0-.32-.02-.66-.05-1.02.05-.33.12.03.16.13-.04.43-.09,1.41-.13,1.6.15-1,.21-.67.14-.32-.05.38-.19.82-.06.51.49-1.43,1.31-2.14,2.66-2.15l.2.69c-.3-.3-.47-.12-.65.03-.09.08-.19.15-.3.15-.09.03-.32-.13-.34-.17-.06.08.14.33.27.46.15.15.32.28.49.4.34.24.7.47.9.81.14-.34.48-.62.78-.54.17.43-.3.92-.03,1.31l-.62-.05c-.16.57.5.3.75.47-.36.44,0,1.03-.57,1.33.98,0,.77.43,1.56.7.06-.93.71-.28,1.05-.61-.22-.19-.45-.37-.67-.55.39,1.16-.31-.25-1.01.42.02-.7,1.71-.37,1.03-1.01,1.07.6.86,1.03,2.17,1.6-.55-.51.6-.22.63-.71.54.78-.16.38-.52.95.29.41-.09.84.76.89.16.85-.68.25-.82.8-.69.07-.45-2.33-2.11-.99-.24-.32-1.16-.25-1.44-.69.06.54-.15,1.46.56,1.69l1.02-.61c.27.37,1.01.04,1.1.39-.39.02-.65.55-.38.83.09-.18-.02-.29.18-.36.43.57,1.19.27,1.79.95-.07-.79.18-1.09.28-1.95.82-.25.35.37.63.68-.13,0-.19-.07-.28.12l.56.2c.11,1-1.12.45-1.13,1.31-.39.77.66.47.48,1,.06-.06.11-.12.16-.16.03.09.03.15.03.21.02-.01.03-.02.05-.03.32.38.48.94,1.11.81-.23.17.26.39.5.47.34.17,1.29.5.56,1.32-.01,0,0-.02-.02-.03.15.65.07,1.25-.29,1.26l.19,1.07-.78.23c.58.79.97.51,2,.77-.16.83.67,1.77,1.13,2.07,0,.08.04.19.16.35l.13-.5c.27.7.62.44.82.9.03-.13.06-.16.06.15.02.08.04.17.06.29-.09.01-.12-.09-.13-.21l-.21.19c-.54.9.81.64.79,1.36-.05-.04-.14-.12-.16-.18-.05.42-.89,1.37-.2,1.22-.05.11.13.17.34.21v.29c-.01-.12,0-.21,0-.29.28.06.6.08.45.17l.24.9c-.04.21.15.38.33.51l-.24.28c.18.29,0,.37-.1.37-.6,1.55,1.26,1.41.84,2.98.61,0,.63-.59.89-.75.47,0,1.11.51,1.53.71-.48.84-.42,2.7-1.59,2.82.18.69.55-.47,1.05-.28v.1c.02-.29.28-.65.58-1.04.53-.3,1.03.42.95.72l-.87.13c.56.67,1.73.14,2.72.48-.13.84-1,.6-1.7.95l.4.71-.63.16c.3.47.9.44.87,1.23-.75-.39-.23,1.31-1.24.79-.06.52,1.16.23.44.75.76.07.17-.52.31-.8.87-.48.76.78,1.24,1.16-.44.26-.7-.07-.74.64.41-.05.84.16.58.67.57-.29.42.53.53.82-.05-.37.11-1.06.72-1.11.36.13.59.28.8.89l.07-.53c1.1.07-.18,1.13.37,1.66-.48-.13-.55-.3-1.09-.34.42.17,1.11.55,1.56.99-.24.29-.49.56-.76.81.48-.03.08.62.71.53-.17.4-.38.26-.61.05-.23-.21-.49-.47-.73-.44-.28.82,1.18.46.27,1.46l-.62-.26c-.02.29.36.89.06.94.22,0,.12-.16.11-.35,1.3.12.96,1.38,2.28,1.24l.07-.45c.14.34.44.62.64.91.2.3.31.61.06.88-.44.38-.88-.42-1.23-.63-.1.58,1.47.65,1.25,1.51.26-.4.72-.26,1.02.13.17-.53.44-1.75-.12-1.56l-.13.19c-.34-.07-.47-.36-.64-.5,0-.64.6-.3.86-.44.18-1.06-1.33-.06-1.32-.99l.25-.13c-.36-.43-.46-1.12-1.28-1.17.41-.23.3-.49.12-.72-.17-.24-.39-.44-.2-.71.9-.3.99.13.93.65-.06.52-.27,1.08.26,1.31.35-.52.92.22,1.36.42l-.94-1.57c.24-.15,1.07-.89.32-1.07v.15c-.4-.66-1.09-.24-1.02-.87.13-.14.48-.07.61-.07-.03-.59-.56-.29-.85-.55-.05-.56.82-.05.83-.56-.92-.28-.27-.97-.54-1.4-.86.67-2.18-1.01-2.54.34-.4-.23-.79-.47-1.19-.74.35-.56,1.7.08,2.37-.61l.37.81c1.11-.74-1.65-1.3-.4-2.34-.08-.42-.23-.26.18-1.25l-1.11.46c.14-.52.74-.83.94-.9-.14-.25-.17-.5-.19-.78.19.02.37.08.47.24.55-.52.28-.57-.09-.61-.34-.12-.38-.44-.47-.78l.51.18c-.15-.17-.35-.39-.56-.35-.05-.14-.11-.26-.22-.36-.17.15-.76.58-.93,1.1.16-1.26-.56-2.23-.02-3.44.33-.11.88.09.87-.04-.03-.51-.79-.74-1.25-.49-.07-.09-.12-.16-.15-.22.23-.2.48-.44.43-.67.08-.09.13-.21.1-.38-.93.24-.86-.8-1.33-.81,0,.24.11.48.25.71-.73-.1-1.53-.12-1.18-.6.83.41.59-1.11,1.26-.22.79-1.19-.94-.01-.87-.93l.22-.67c.66-.21.65.63.84.42l-.22-.3c.62.12.85,1.51,1.89,1.96l-.32-1.7c-1.59-1.61-1.79-4.43-3.88-5.46.01.02.03.04.05.06-.07,0-.2.04-.44.12l.12-.15-.61-.11c.43-.64.24-1.38.45-2.19q-.23.55-.68.8c-.66.21-.95.27-.96-.38.44-.21.58.14.76-.43-.13.31-.52.26-.68.05.15-.44-.01-.99.43-1.2.18.09.08.27.06.4.18.09.15-.77.7-.5l-.37-.5c.23-.5.68-.05.86-.29-.71-.8-1.94-.81-2.61-1.52.25-.07,1.25-.51.96-.39.02-.79-1.69-.9-2.09-1.61.34-.02.34.31.58.46-.15-.61-.31-1.18-.48-1.74-.19-.59-.37-1.16-.55-1.72-.36-1.15-.69-2.31-.93-3.69l-1.31.03.26-.97c-.46-1.34-1.23-2.36-2.14-3.21-.9-.86-2.03-1.59-2.9-2.21-.55-.45.25-.85.24-1.31-.08-.1-.35-.36-.56-.54-.21-.19-.42-.34-.62-.47-.4-.26-.77-.44-1.13-.58-.71-.32-1.39-.48-2.17-1.31.32-.14,1.12-.63.43-1.65-.26.18-.52.67-.88-.14.11-.04.22-.08.34-.12-.25-1.17-.8-1.12-1.61-2.48-.77-.93-1.53-1.49-2.14-1.63-.61-.14-1.08.1-1.43.64-.49-.67-.54-1.19-.47-1.6.06-.41.26-.71.13-1.04.84,1.59.51.28.65-.18-.41.03-.85-.16-1.25-1.84-.61-.58-.92-.96-1.34-.6.22-.18.6.88.44,1.26-.56-1.03-1.66-1.75-2.04-3.63-.93-1.14-1.82-1.99-2.78-2.9-1.37.56-2.58.73-3.54.92-.02.48.26.18.29.52-.09.54-.42-.3-.5.08l-.08-.4c-.21-.03-.32.14-.44.26-.11.12-.23.18-.29.05-.05-.2-.38-.33-.16-.31-.07-.03-.28-.27-.44-.41-.16-.14-.27-.18-.29-.1.12.11.27.28.45.51.02.05-.29-.1-.25-.06-.11-.08-.23-.14-.32-.18-.05-.02-.09-.03-.13-.04h-.05s.04,0,.04,0c.05,0-.11-.01.01-.02.07,0,.17,0,.23,0-.08-.15-.4.08-.28-.02.1-.07-.05.04.06,0,.06-.02.12-.06.18-.09-.04.04-.08.07-.13.09.16-.03.37.16.51.07.13.11.28.27.45.47-.15-.35.14.05.22.05l-.21-.33c.15.07.15.04.09-.12-.29-.51-.01.04-.26-.38.01-.05,0-.09,0-.14.15.31.35.63.37.76.39.7.82,1.41.99,2.08-.35-.51-.4-1.02-.75-1.63-.07.06.18.74.48,1.58.32.81.69,1.71.65,1.96-.08.12-.09.31-.05.56.06.45.31,1.05.27,1.68-.41-1.06-.57-.24-1.12-.88l-.4-1.17c.06.5-.22.41-.57-.27.7,1.06.24,2.1.42,3.32l.75.93c.1.84.49,2.26.18,2.55.12,1.08.81,1.82,1.72,3.35.14.18.32.45.49.71-.14.03-.59-.38-.96-.76-.39-.41-.82-.91-1.26-1.47.02,0,.09.04.05-.03-.06-.1-.12-.21-.19-.32-.16-.25-.33-.52-.51-.82.09-.13.12-.39.33-.41-.29-1.02-.8-2.28-1.08-3.34-.3-1.04-.37-1.88-.01-2.08-.72-1.42-.75-1.2-.69-.69.04.52.22,1.38-.22,1.15-.1-.17-.12-.25-.12-.31-.02.03-.05.06-.11.04-.06-.64-.03-1.57-.81-2.9-.22.73,1.49,2.88.32,2.45.25,1.26-1.61-.41-2.06-.27.39.96,1.43,2.33,1.72,3.24.44.61.92,1.28,1.5,2.08.19.25.12.21.15.28,0,.05.02.1.03.15.02.1.03.2.03.3l-.59-.93-.3-.48s-.04-.06-.09-.14l-.22-.29-.45-.59c.1.14.2.28.3.41.09.12.23.31.2.3.01.06.03.12.04.18.03.11.06.22.1.33.07.21.15.4.24.58.18.36.39.66.6.96.41.59.83,1.16.94,1.95.03-.43,1.09,1.48.94.48.65,1.07.86,2.08.68,2.62.18.33.35.32.71.64.59-.18-.87-1.9.04-1.61l-1.21-1.69c.24-.44,1.14.51,1.66,1.4-.08-.25-.27-.6-.1-.53.84.86.72.9.59.95-.14.05-.29.15.44.97l-.21-.59c1.05.95,1.17,1.99,1.18,2.46-.4.16-.46.65-1.24.11l-.49-1.24c-.55.01.57,1.56.64,2.07-.1-.04-.17-.03-.22,0,.06.02.13.05.21.1-.02.09-.09.14-.26.12.05.51.66,1.51.51,1.86l.67.26-.4-.24c-.06-.46.25-.81.83-.2.65,1.12-.62.71-1.15.77-.54-.32-.59-.62-.57-.89.03-.28.14-.53-.1-.91-.49-.12-.46.18-.37.6.1.42.25.95.04,1.46-.6-.43-.67-.83-.73-1.18-.06-.35-.09-.66-.64-1.06.02,1.05.87,1.64.81,2.68-.53-.27-.81-1.47-1.46-1.65l-.15.73c-.23-1.04-.56-1.09-.9-1.07-.34.02-.69.12-1-.85-.28.73,1.13,1.49.67,2.49.4-.26,1.1-.85,1.72.28l-.09,1.09c-.21.21-.55-.13-.88-.48-.33-.34-.65-.67-.78-.28l.63,1.42c.3-.03.34-.63.85-.19-.19.72,1.43,1.26,2.02,1.94.09.59.12,1.06-.18,1.34,1.07.83,1.28,2.08,2.29,2.82-.71-.5-1,.23-1.38.7-.26-.69-1.19-.51-1.78-.33.18.42,1.19.51,1.46.22-.24.81.74.37.24,1.14-.24.48-.95-.02-1.28.2.11.8,1.17-.02,1.12.88-.13-.02-.19-.09-.34.01-.1.5.43.91.91.91-1.11.74.4,1.36-.79,1.5.53,1.05.61-.3,1.06-.16.61.35.35,1.28.21,1.58-.08-.27-.45-.46-.32-.76l-.77.4c-.31,1.51,2.02.5,1.57,1.99-.56-.6-.66-.1-1.3-.33.24.17.22,1.26.72.5.03.52-.05.9-.13,1.28.4.38.72.82,1.31.97.05.72-.42,1.36-.71,1.77.88,1.36.14,2.94,1.07,4.37l.03-.13c.1,1.27.96-.79,1.21.53-1.04.03-.5.94-.92,1.51-.11,1.81,1.46,2.68,1.32,4.4-.21.06-.48.04-.61-.25.08,1.28.64,2.17,1.03,3.23h-.13c-.05,2.03,1.61,3.13,2.74,4.6-.19-.07-.54.09-.71.05.07.24.16.5.28.76.11.24.3.59.39.68.23.28.58.52,1.11.53-.49,1.24.53.35.22,1.92-.13.15-.21-.04-.28-.1-.02.72.28,1.1.52,1.81.68.58,1.37.82,1.99,1.14.62.32,1.14.71,1.69,1.72-1.03.96-1.13-.91-2.03-.32.46.24.92.4,1.08,1.13-.69.02-.33.14-.9.23.02.32.66.54,1.28.63.63.1,1.2.08,1.15.13.21-.17.17-.4-.19-.73.5-.08.93.32,1.42.81.51.49,1.05,1,1.6,1.14-.29-.19-1.07-1.09-.33-1.37,1.02,1.07,2.07.09,3.03-.02.67,1.05-1.23.67-1.55,1.6,0,.4.08,1.32-.56,1.41.9.72,1.89.25,2.68.39l-.14.24c.25.09.53.11.8.11.3,0,.47-.05.92.01.78.09,1.45.21,1.97.65l-.52-.51c.28-.08.96.24,1.48-.18-.18.43.67,1.05.2,1.32.51-.63,1.35-.66,2.21-.8.85-.12,1.71-.35,2-1.06.39.33.15.95.04,1.29-.96-.1-1.24-.4-1.77.15.78.03,1.38.38,1.27.72.41-.43,1.08-.85,1.65-1.23.57-.43,1.03-.88,1.08-1.36.64.27,1.29.27,1.37,1.06.59-.34.7-.67.64-.9-.07-.24-.33-.41-.55-.59-.46-.36-.78-.69.25-1.25.67.04.59.37.48.65-.11.26-.2.5.6.14-.06.1-.13.19-.2.28,1.07.46,1.1-.02.92-.61-.16-.6-.54-1.36-.1-1.78.92.59-.13,1.22,1.1,1.05.39-.56.26-1.27.2-1.82-.06-.56-.2-1.08.22-1.5l.33.35c.16-.35.32-.87.53-1.39.19-.52.27-1.05.3-1.41.21,0,.17.09.2.24.56-1.33-.49-.58.31-1.65l-.51-.31c-.39.57-.9,1.45-.46,2.2-.24-.38-.62-.16-1.03.03-.4.21-.88.37-1.29.13l.32.19c-.96.47-1.59.9-2.25,1.22-.29.19-.65.29-.93.43-.34.07-.62.19-.96.17-.04.68-.48.68-.83.65-.2-.04-.39-.08-.57-.05-.19,0-.39.06-.61.28-.07,1.26-.17.27-1.04.5.47-.14.1-.93-.13-1.14-.18.3-.4.4-.61.48-.05-.23-.27-.65-.52-.9-.25-.28-.54-.43-.86-.08-.31-.55.25-.32.43-.55.05-.64-.53.35-.52-.12,0,0,.06-.12.13-.16-.34-.13-.5-.26-.95-.59-.37-.29-.72-.58-1.16-.87-.61,1.06-1.09,0-1.63.2.29-.29-.23-.64-.3-.95-.27.19-.55.38-.83.55-.79.39-.14-.74-.72-.7l-.06.24c-.53.06-.65-1.22-.3-1.89-.99-.38-1.66-1.17-2.09-2.05-.44-.88-.66-1.87-.94-2.97-.08-.28-.14-.55-.23-.85l-.13-.44-.08-.35c-.11-.46-.21-.92-.34-1.38-.25-.93-.59-1.85-1.18-2.83-.45-.13-.48.45-1.07.44-.31-.39-.31-.51-.48-.91-.16.48.19.27-.14.35l.57.49c-.07.06-.13.01-.27.14.19.17.52.31.58.59-.45-.24-1.33,0-1.24-.67.13,0,.2.05.33.16-.11-.46-.53-.32-.44-.75.03-.48-.19-.28.15-.47,0-.48,0-.95,0-1.43-1.24-.3-.5-1.42-.46-1.64.81-.08.49.78,1.34.85l.42-.62-.62.16-.02-.69h.13c-.26,0-.53-.01-.36-.24.08-.05.23-.16.29-.1l-.47-.37c.72.1.08-.46.85-.58,0-1.6-1.46-1.66-.73-3.43-.31.32-1.29-.24-1.24-.73.13-.31.29-.41.61-.3l-.51-.53c1.03-1.01.12-1.6.31-2.8h.34c-.47-.35-.88-.73-.88-1.38l.69-.02c.32-.86-1.51-.3-1.25-1.23-.71.15-.98.76-1.64.98.69-.35.62-1.28.14-.96-.46-.78-.1-.59.06-.69l-.53-.4c-.08-.6.9-.38,1.35-.25-.88-.39-.45-1.1-.45-1.75l.37.19-.03-.85c-.66-.42-.85-1.16-.69-1.92l1.03.29c.4-.59-.37-.18-.56-.28-.61-.67,0-.97.45-1.49-1.22-1.03,1.06-2.77-.56-3.53Zm16.76,20l.08-.17c.26.17.46.25-.08.17Zm-2.49-6.43c.67.61.15.55-.06.72-.09-.86-.55-1.15-.55-1.94-.13.19-.35.31-.49.41-.07-.28,0-.63.41-.93,1.02-.07.32,2.29.68,1.73Zm10.45,12.78c-.08-.01-.16-.03-.23-.05h0s.23.05.23.05Zm-2.35-3.92c.17-.14.23-.28.25-.42-.2.17-.37.33-.25.42Zm-2.18-7.99c.29-.34,0-.68-.2-.93.02.15.01.44.2.93Zm-32.92-40.78c.12.06.27.04.03-.14-.05.04-.31-.17-.34-.11-.01,0-.02-.01-.02-.02.15.11.29.24.33.27Zm6.25,21.14c-.46-.31-1-.81-1.32-.91l.02-.05c-.14-.03-.26-.06-.37-.17-.05.16-.12.32.04.55,1.49.91,1.79,1.38,1.62.58Z"/><path class="cls-1" d="m60.26,283.1c-.02.1-.06.15-.06.22.03-.05.04-.12.06-.22Z"/><path class="cls-1" d="m65.98,298.33c.1.07.2-.1.31-.29-.17-.06-.29,0-.31.29Z"/><path class="cls-1" d="m98.11,343.81l-.13-.19c-.13.12-.26.23-.39.33.42.58.96.76,1.58,1.07-.54-.78-.24-1.01-.43-1.93-.21.27-.42.53-.63.71Z"/><path class="cls-1" d="m102.4,343.44c.17-.09.6-.32.64-.45l-.39-.12-.24.57Z"/><path class="cls-1" d="m101.35,332.81l-.08.26-.04.33c.19,0,.36-.2.4-.39.04-.19.01-.27-.29-.2Z"/><path class="cls-1" d="m96.62,338.52l.54.13c.19-.43-.07-.82-.52-.67.43.28-.18.22-.02.54Z"/><path class="cls-1" d="m100.99,331.38c-.8,0,.16-.77-.59-.76.26.16-.17.92.59.76Z"/><path class="cls-1" d="m94.03,333.81c-.63.47.12.73.16,1.35-.18-.49.38-1.32-.16-1.35Z"/><path class="cls-1" d="m97.54,327.67c.5-.22.65.18.69.65-.21-.08-.49-.08-.64-.22.68.52.61.61,1.03,1.07.21-.65.08-1.64.75-1.82-.35-.16-.72-.2-1.05-.15-.33.04-.63.17-.77.48Z"/><path class="cls-1" d="m93.63,332.64c-.11.44-.54.83-.35,1.34.35-.19.83-.52.6-1.07l.68.04c.32-.64-.78.41-.92-.32Z"/><path class="cls-1" d="m98.03,325.04l-.18.34c.69.3.75,1.07,1.62,1.03-.31-.6-.96-1.24-1.44-1.37Z"/><path class="cls-1" d="m94.3,330.54l-.88.21c.02.49.28-.12.53-.02-.08.17-.1.4.09.45-.29-.51.69-.25.25-.64Z"/><path class="cls-1" d="m92.8,329.41l-.64-.5-.68.92c.65.63.53-.19,1.31-.42Z"/><path class="cls-1" d="m93,328.35l.13-.14-1.65-.44c.76.36.7.43,1.52.59Z"/><path class="cls-1" d="m93.14,313.97c-.4.05-.59.83-.3.4.34-.02.46-1,.3-.4Z"/><path class="cls-1" d="m87.58,319.3c.14-.4-.76-1.1-1.17-1.39.38.4.73,1.67,1.17,1.39Z"/><path class="cls-1" d="m86.24,317.79s.1.07.17.12c-.06-.06-.11-.1-.17-.12Z"/><path class="cls-1" d="m76.58,304.41s-.08-.02-.14,0c.05,0,.09,0,.14,0Z"/><path class="cls-1" d="m76.97,304.49c.06.25.53.41.9.2-.39-.14-.7-.3-1.29-.28.14.08.06.41.39.07Z"/><path class="cls-1" d="m75.03,302.28c.16-.19.13-.04.35-.35.07-.16-.23.1-.35.35Z"/><path class="cls-1" d="m60.98,277.12c.07-.09.15-.06.22.15-.13-.01-.12-.12-.22-.15Z"/><polygon class="cls-1" points="61.37 277.33 61.32 277.22 61.28 277.03 61.37 277.33"/><path class="cls-1" d="m61.55,277.06c-.02-.05-.06-.13-.1-.22.03.08.07.16.1.22Z"/><path class="cls-1" d="m61.43,276.81v.04s0-.04,0-.04Z"/><path class="cls-1" d="m61.5,276.93l-.11-.23s.03.07.05.11c0-.02,0,0,.07.12Z"/><path class="cls-1" d="m61.5,277.09c.15.22.28.44.38.65-.21-.45-.16-.28-.58-1.16.07.14.14.32.2.51Z"/><path class="cls-1" d="m61.4,277.85c-.25-.11.18,1.13-.05,1.08-.06-.01-.15-.12-.31-.34-.03.7.31,1.27.64,1.77.32.51.6.99.6,1.86.55-.34-.57-2.08-.69-2.85-.04-.21,0-.35.14-.34-.54-.47-.23-.81-.32-1.18Z"/><path class="cls-1" d="m62.43,279.68c-.27-.61-.38-.35-.2.18.06-.02.53.58.2-.18Z"/><path class="cls-1" d="m60.92,279.84c-.15-.1-.32-.2-.5-.29l.23.54.26-.25Z"/><path class="cls-1" d="m60.05,280.62l-.35-1.17c.15.42-.22.79.35,1.17Z"/><path class="cls-1" d="m57.98,281.11c-.53-.03,1.02,2.52,1.1,1.35l-.17.07c-.22-.38-1.12-.82-.93-1.41Z"/><path class="cls-1" d="m61.77,292.79c-.01-.37-.26-1.01-.58-1.22l.44,1.39.13-.18Z"/><path class="cls-1" d="m65.55,295.77c.9.53-.21-.82,0-1.09-.07.43-.22.25,0,1.09Z"/><path class="cls-1" d="m60.57,293.09c-.44-.64-.23-.96-.2-1.22-.52-.28-.3.71.2,1.22Z"/><path class="cls-1" d="m61.18,295.33c-.32.2-.54-.41-.76-.23-.27.72,0,1.86.62,2.61.34-.11,1.34.05,1.88.6-.58-1.41-2.47-3.22-1.21-3.09-.62-.73-1.22-1.49-1.82-2.29-.13,1.02,1.28,1.68,1.3,2.39Z"/><path class="cls-1" d="m63.96,294.98c-.16.05-.32.1-.47.17.52.28.69.79.91,1.21,1.19.69-.32-.97-.44-1.38Z"/><polygon class="cls-1" points="63.39 303.51 63.95 305.06 63.9 304.55 63.39 303.51"/><path class="cls-1" d="m63.26,304.58l-.29.08.4.59c.13.2.24.23.36.36-.07-.14-.12-.18-.21-.41l-.25-.63Z"/><path class="cls-1" d="m63.17,305.99l.02-.12-.19-.26-.09-.13-.11-.23c.08.23.14.32.19.42l.17.32Z"/><path class="cls-1" d="m63.36,308.03l.4-.27c-.16-.22.23-.81-.35-.64.24.17.27.69-.05.9Z"/><path class="cls-1" d="m75.72,312.38c-.32-.11-.56.04-.8.2l.8.12c-.05-.07-.16-.22,0-.32Z"/><path class="cls-1" d="m74.74,313.78l.99.54c-.03-.85-.72-.82-.99-1.51-.21.36.48.66.32,1.09l-.32-.11Z"/><path class="cls-1" d="m77.05,327.68c-.55.11-.43.23-.92-.13.53.54.59,1.13.94,1.82.29-.24,1.04.07.8-.14l-.6-.68h.4c.22-.7-.72-.17-.62-.87Z"/><path class="cls-1" d="m100.18,347.07c.19.23.46.22.75.19.07-.81-.77-.02-.75-.19Z"/></g></svg>