<?xml version="1.0" encoding="UTF-8"?><svg id="Layer_1" xmlns="http://www.w3.org/2000/svg" viewBox="0 0 175.6 414.75"><defs><style>.cls-1{fill:#84f39d;}</style></defs><g><path class="cls-1" d="m88.82,314.28c.06-.08.1-.15.15-.23-.12.07-.22.16-.15.23Z"/><path class="cls-1" d="m93.99,284.54c.17-.39.31-.79.42-1.19-.12.1-.24.24-.34.44l-.08.75Z"/><path class="cls-1" d="m85.8,332.99c-.22.39-.39.76-.54,1.09.19-.18.38-.5.54-1.09Z"/><path class="cls-1" d="m110.31,142.16c.07.07.16.13.28.15,0-.01.01-.03.02-.06l-.27-.33-.03.23Z"/><path class="cls-1" d="m98.74,251.11c.06-.46.1-.91.09-1.32-.12.76-.13,1.13-.09,1.32Z"/><path class="cls-1" d="m82.97,343.57c.05-.16.09-.3.13-.44-.07.13-.16.31-.24.52l.11-.06s0,0,0-.02Z"/><path class="cls-1" d="m90.88,294.06c.14-.39.26-.75.32-1.06-.15.36-.24.71-.32,1.06Z"/><path class="cls-1" d="m71.05,394.95c.24-.48.32-.91.33-1.32-.24.28-.39.68-.33,1.32Z"/><path class="cls-1" d="m74.4,384.74s-.01.04-.02.06c.13-.02.12-.06.02-.06Z"/><path class="cls-1" d="m76.91,378.3s-.01.08-.02.12c.1-.05.13-.08.02-.12Z"/><path class="cls-1" d="m71.39,393.63c.63-.75,1.84-.62.94-2.11l-.24.16c.5-.56.32-1.68.54-2.45-.15.04-.27.09-.4.17-.14.38-.35.86-.68,1.61-.57.84-.15,1.62-.17,2.61Z"/><path class="cls-1" d="m89.03,314.44c-.26.04-.3.77,0,0h0Z"/><path class="cls-1" d="m87.75,323.68c.09-.29.18-.58.27-.88-.12.27-.24.54-.27.88Z"/><path class="cls-1" d="m78.29,357.62c.04-.05.06-.1.09-.15-.12-.08-.13.05-.09.15Z"/><path class="cls-1" d="m88.25,321.99c-.06.27-.14.54-.22.81.11-.24.21-.49.22-.81Z"/><path class="cls-1" d="m81.63,347.56s.06-.09.07-.13c-.03.02-.05.07-.07.13Z"/><path class="cls-1" d="m86.8-1.97c.46.68.34,1.27.56,2.03.74.67.4-.21.06-.94-.34-.73-.66-1.35.23-.37-.33-.7-.7-1.19-1.06-1.62l-.26,1.32c.93,1.21-.18-1.02.47-.42Z"/><path class="cls-1" d="m111.58,133.22l-.05.31c.36-.23.49-.05.61-1.24-.64-.96-1.39.65-2.13-1.05.09.33.09.84.04,1.31.46-.75,1.04-.08,1.53.66Z"/><path class="cls-1" d="m110.04,132.56s-.02.03-.04.05c-.07.08-.13.17-.19.27.01.25,0,.5-.05.7.13-.2.23-.58.27-1.02Z"/><path class="cls-1" d="m93.99,21.38c.05.25.09.47.12.67.06-.37,0-.55-.12-.67Z"/><path class="cls-1" d="m108.75,254.84c.02.36.06.72.1,1.01.04-.54,0-.82-.1-1.01Z"/><path class="cls-1" d="m111.44,150.11c-.06.27-.09.54-.11.84.02.18.03.32.05.53l.07-1.38Z"/><path class="cls-1" d="m98.74,95.32c1,.47-.13-.44.24-1.69l-.64-1.03c-.01,1.02.26,1.93.4,2.72Z"/><path class="cls-1" d="m94.08,63.14c.01-.19.02-.35.03-.53-.03.11-.05.28-.03.53Z"/><path class="cls-1" d="m110.01,139.17l.11,4.23.19-1.24c-.49-.57.29-2.43-.3-2.99Z"/><path class="cls-1" d="m100.42,113.14l-.52.43c1.68,4,.43,8.91,2.41,12.03-1.57,5.18,2.08,3.14.61,7.88l.27-.17c.65,15.17-.56,31.39.38,45.84l-.4-.03c-.09,2.91-.16,5.82-.18,8.72-.02,1.42-.03,2.83-.05,4.24l-.11,4.18c-.19,5.58-.55,11.2-.95,16.86-.42,5.71-.85,11.4-1.27,17.11-.42,5.7-.89,11.32-1.65,16.86.11,2.12,1.14.98,1.34,2.83-.13.78-.36,2.53-.84,2.47-.04-1.54-.6-.76-.71-1.29-.3,2.49-1.41,5.55-1.27,7.82l.98-1.7c.09.91-.34,2.18-.53,3-.25-.4-1.15.62-1.17-.1.62,5.12-1.38,3.62-1.54,7.79,1.16,1.07,1.28,6.35,1.58,9.86l-.68,1.68c.45-2.32-.97-.14-.36-3.01-.84,2.33-.7,4.68-1.34,6.91.42-.38.83-.18.8.76-.45,1.36-1.13,1.36-1.5,2.95l-.11-1.65c-.7.97-.22,2.01-.33,3.01-.61.22-1.17,2.59-1.7,2.05.34,2.29-.23,2.97-.19,5.38,1.04-2.3.61.75,1.12.56l.3-2.75c-1.1,3.76.14-1.26-.86-1.15.78-1.72,1.08,2.75,1.51-.29-.21,3.69-.77,4.37-.69,8.19.25-2.25.53.53,1.05-.61-.5,2.82-.46.64-1.24,1.4-.26,1.54-.91,2.01-.47,3.52-.74,2.4-.64-.5-1.25.67-.5-.98,2.1-6.74-.1-6.43.22-1.3-.27-3.03.13-4.9-.58,1.58-1.71,3.8-1.62,5.91l1.15.31c-.26,1.54.47,2,.16,3.08-.23-.63-.91.31-1.04,1.53.23-.31.28-.8.46-.63-.32,2.24.4,2.7.07,5.41.76-2.13,1.2-2.51,2.1-4.49.72.71-.15,1.48-.3,2.72-.07-.2-.05-.46-.28-.14l.13,1.37c-.94,2.68-1.11-.59-1.98,1.58-1.02,1.41-.1,2.22-.75,3.32.09-.06.19-.13.26-.19-.07.26-.14.45-.19.58.02,0,.04-.01.06,0-.22,1.48-.66,3.02-.16,3.57-.31.09-.23,1.29-.17,1.81.04.87.26,2.99-1.03,3.95,0-.03.02-.06.02-.09-.59,1.78-1.27,3.1-1.49,2.63l-1.03,2.85-.7-.52c-.51,2.71.01,2.57.32,4.61-.99,1.78-1.54,5.21-1.6,6.55-.09.2-.18.52-.29,1.06l.61-1.03c-.61,2.07-.12,1.93-.5,3.31.15-.27.21-.29-.13.44-.08.23-.17.48-.27.77-.06-.09.03-.4.16-.69l-.33.18c-1.28,1.45-.22,2.68-.98,4.4.01-.18.04-.48.09-.66-.48.95-1.96,2.11-1.39,2.7-.15.21-.1.6-.02.99l-.31.71c.11-.29.21-.52.31-.7.11.52.27,1.02.09,1.04l-.8,2.52c-.24.45-.31,1.14-.34,1.69l-.44.35c-.19.94-.39.89-.45.76-1.99,2.87-.77,5.09-2.83,8.14.32.81,1.02-.49,1.34-.5.24.66-.04,2.71-.11,3.78-1.26,1.25-3.62,5.61-4.39,4.48-1.13,2.74.97-.62.81.9l-.16.3c.49-.91,1.12-1.53,1.73-1.92.64,0-.12,2.52-.56,3.21l-.6-.83c-.69,2.67.71,2.6.91,4.5-1.09,1.93-1.37.47-2.26.64l-.61,2.23-.6-.22c-.36,1.47.09,2-.85,3.87-.07-1.63-1.6,2.75-1.68.52-.59,1.03.49,1.75-.52,2.04.39.98.66-.88,1.05-1.36,1.08-.13-.38,2.56-.54,3.97-.52-.04-.29-1.07-1.11.4.27.45.25,1.5-.48,2.22.62.2-.44,1.77-.77,2.62.45-.93,1.36-2.19,1.68-1.38-.01.84-.1,1.54-.79,3.24l.7-1.09c.37,1.83-1.51,2.28-1.97,4.42-.05-.99.15-1.53-.03-2.44-.05,1.07-.28,3.06-.57,4.67l-1.53,1.38c.36.38-.78,1.91-.18,2.14-1.23,1.97-.06-1.99-.42-2.37-1.43,2.51.18,2.53-1.74,4.73l-.23-1.07c-.37.83-.73,2.67-1.05,2.67.2.08.29-.38.5-.91.99,1-.72,4.27.64,4.44l.55-1.15c-.47,1.9-.14,3.52-1.12,4.73-.82.91-.55-1.08-.62-1.84-.75,1.67.81,1.91-.09,3.9.61-.99.98-.61,1.05.15.53-1.14,1.73-3.5,1.04-3.27l-.29.38c-.28-.23-.15-.92-.18-1.3.63-1.6.85-.53,1.22-.75,1.25-2.59-1.15-.71-.15-3.14l.37-.22c.15-1.3.81-3.14.18-3.76,1.22-.76.76-2.9,1.68-3.89,1.86.45-1.72,4.13-1.31,5.89.86-1.14.55,1.07.74,1.76l.83-4.36c.36-.23,1.71-1.08,1.35-2.08l-.16.31c.41-1.7-.47-1.53.29-2.85.24-.16.37.38.44.53.64-1.24,0-1.23.15-2.16.64-1.24.49.92,1.08-.1-.14-1.76,1.02-2.34,1.43-3.68-.6.11-.5-1.33-.49-2.46,0-1.14-.09-1.98-.99-.7l.31-3.38c.85-.82.74,2.63,1.88,2.02l-.85,2.53c.71,0,.92-1.4,1.21-2.95.27-1.52.63-3.2,1.62-3.78.51-1.3.21-1.04,1.73-3.31l-1.27.02c.72-1.21,1.49-1.4,1.72-1.38.21-.78.49-1.46.8-2.14.09.25.15.57.04,1.05.98-.74.86-1.11.65-1.57-.09-.63.26-1.42.57-2.22l.14.89c.09-.53.2-1.18.02-1.31.12-.34.22-.67.27-1-.28.14-1.13.43-1.86,1.48,1.58-2.84,2.24-5.28,4.12-7.55.29.22.29,1.45.45,1.14.65-1.24.6-2.88.07-2.93.07-.31.14-.54.21-.74.37-.15.78-.35,1.05-.98.15-.11.33-.32.52-.77-.74-.75.53-3.17.28-3.86-.28.58-.5,1.32-.71,2.08-.26-1.27-.66-2.43.07-3.12-.01,2.17,1.57-1.86.93,1.24,1.78-1.79-.49-1.35.55-3.48l.85-1.33c.61.4-.32,2.45.02,2.18l.2-1.04c.23,1.15-1.19,4.89-1.27,7.5.65-1.55,1.26-3.1,1.85-4.66.48-3.12,1.38-6.46,2.14-9.68.76-3.22,1.42-6.27,1.37-8.96l-.04.22c-.04-.1-.15-.18-.39-.32l.23-.18-.23-1.12c.92-.95,1.62-3,2.61-4.65q-.72,1-1.25.98c-.6-.41-.84-.66-.13-2.25.48.11.18,1.13.89.01-.41.57-.58-.09-.44-.83.56-.85,1.06-2.4,1.54-2.28,0,.47-.25.77-.4,1.05,0,.47.91-1.64.94-.25l.33-1.73c.67-.88.44.83.8.5.46-2.91-.24-4.66.13-7.3.22.19,1.27.5.97.39.84-1.89-.03-4.55.44-6.82.23.41-.11,1.22-.13,1.95,2.16-6.79,3.45-12.56,5.66-18.99l-.78-1.89,1.06-1.57c2.01-6.71,2.3-12.09,3.21-18.66.32-2.04,1-1.07,1.49-1.96.97-4.42-.06-5.75.5-10.03.23.65.98,1.83,1.38.02-.25-.4-.71-.73-.29-1.84l.23.65c.69-.95.42-2.06,1.05-4.2.18-.97.3-1.91.39-2.89.09-.99.15-1.96.14-2.92,0-1.92-.23-3.76-.6-5.48.61-3.48,1.15.53,1.48-.09-.78,2.42-.06,1.75.23,2.36-.1-1.37-.06-2.98.82-3.55.2-1.84.34-2.67.02-4.54.17.94-.36,1.67-.62.77.46-1.46.55-5.29,1.52-4.98.34-4.3.7-8.85,1.07-13.47.39-4.59.78-9.25,1.17-13.81-.39-1.59-.29,1.16-.59.28-.49-2.3.49-1.75.1-3.6l.49.79c.29-2.68-.52-5.62-.86-8.25.6.47.64-2.12.88.08-.03-1.28,2.83-2.7,2.31-3.73l-2.66,1.32c-.25-.08,0-1.87-.18-1.7.56-1.1,1.22-2.45,1.24-3.24.67-.36.46,1.6.4,2.67,1.09.21.84-3.6,1.78-2-.1-2.33-.57.31-.93-1.09l.29-2.02-.4,1.55c-.29-1.7-1.1-2.28-.47-4.53l-1.07-2.33c.86-.24.15-1.66.35-2.82l.55.73c-.03-1.55.11-2.15.43-3.12.76.87-.18,1.41.54,1.78l.25-1.7c-.49,0-.87-1.08-1.17.15-.91-1.58-1.67-2.45-1.59-6.42.84-1.79.74,1.93,1.56,1.19.36-4.12-2.16-5.05-2.05-7.47.35-3.08-.42-2.91-.48-6.03.57.99.61-2.19,1.15-2.76l.59,1.24c-.18-.95.04-1.87.46-1.59-.77.18-.73-4.07-1.13-6.22l-.65.38c-.23-1.69-.68-4.02-.54-5.81-.26-2.66-.84-2.04-1.6-4.07.57-1.15,1.26-1.05,1.99-.69-.32.72-.09,1.93-.27,3.11.64,3.36,2.06,5.97,1.76,9.33,1.6,1.45-.2-2.27.34-3.91.1.05.13.17.14.29,0-.15,0-.27.04-.41.21,1.21.48,3.17,1.3,3.49-.18-2.02-1.6-1.45-.95-3.97-.48-1.86.76-3.4.84-4.53-.63-1.23-1.89-1.25-1.74-4.32l.93,1.32c-.09-3.47-1.35-1.59-1.42-4.79-.06,1.13-.92-1.05-.86,1.08-.51-1.03-.7-3.35-.53-5.1-.16-.45-.31-.08-.61-.15-.52,1.95.73,3.01-.09,4.62l1,1.3c-.29,1.8-1.06,2-1.47.92.06.5.2.94.05,1.31-1.44.35.45-2.15-.8-2.73l.14,1.25c-.92.57-.92-2.9-.93-4.52.37-1.85.42-3.53,1.1-3.69l.42,2.45c.47-1.3-.48-3.13-.54-4.56.09-.1.15-.24.19-.41-.06.08-.11.12-.18.13.01-.31.08-.58.23-.82-.04-1.26-.59-3.07-.47-4.26l-.59.19.35.13c.07,1.15-.19,2.73-.71,1.9-.62-2.55.5-3.16.98-3.83.97.52.19,2.53.61,3.83.86-.86-.1-2.65.28-5.38,1.11.98.24,3.12,1.22,3.64,0-2.19-.76-2.7-.71-4.99.49.25.74,2.46,1.32,2.27l.16-1.49c.38,3.59,1.2-.75,1.69,2.05.31-1.38-.98-1.78-.51-3.73-.39.57-1.05,2.14-1.61.38l.1-2.06c.4-.9,1.28,2.02,1.56.66l-.55-2.1c-.29.1-.34,1.14-.82.54.21-1.26-1.36-1.9-1.95-3.29-.1-1.15-.13-2.07.17-2.51-1.2-2.79-1.6-6.45-2.77-9,.82,1.74,1.02-.2,1.33-1.34.38,2.07,1.32,1.97,1.91,1.75-.26-1.26-1.32-1.97-1.56-1.29.12-2.17-.83-1.38-.44-3.32.17-1.25,1,.49,1.3.02-.25-2.3-1.22-.48-1.32-2.99.14.12.21.34.36.12.03-1.37-.61-2.75-1.11-2.98,1.03-1.59-.67-4,.56-3.88-.75-3.2-.58.57-1.08-.01-.7-1.25-.6-3.76-.52-4.55.13.79.56,1.48.48,2.28l.73-.79c.04-4.1-2.21-2.3-2.02-6.28.7,1.94.71.58,1.43,1.49-.29-.57-.47-3.64-.85-1.72-.13-1.47-.12-2.5-.1-3.52-.49-1.25-.91-2.62-1.55-3.3-.18-2.05.2-3.64.44-4.65-.57-2.07-.74-4.26-1-6.42-.24-2.17-.55-4.37-1.34-6.6l.02.35c-.58-3.59-.75,1.79-1.5-1.89,1.1.28.2-2.35.43-3.65-.57-4.63-2.69-7.52-3.2-11.75.21-.03.54.16.79.94-.59-3.19-1.54-5.61-2.34-8.38l.16.08c-.29-2.33-1-4.42-1.83-6.48-.42-1.03-.87-2.05-1.32-3.09-.22-.52-.45-1.05-.67-1.58-.21-.51-.39-.95-.57-1.47.22.3.61.28.81.49-.19-1.03-.44-2.43-.83-3.87-.39-1.42-.97-2.86-1.69-3.63.02-1.68-.28-2.22-.59-2.82-.08-.15-.17-.31-.26-.5-.04-.09-.08-.19-.13-.29-.03-.08-.06-.16-.1-.26-.12-.38-.23-.92-.26-1.76.11-.23.26.25.37.43-.21-1.58-.64-2.66-1.03-4.41-.22-.47-.42-.84-.66-1.29-.25-.48-.5-.92-.75-1.3-.5-.78-.99-1.4-1.47-2.02-.95-1.25-1.86-2.52-2.84-4.7,1.09-.91,1.73,2.45,2.76,2.09-.69-.8-1.35-1.43-1.69-2.74.86.43.38-.02,1.09.22-.2-1.11-3.16-2.73-3.02-2.76-.26.08-.25.42.21,1.18-.63-.26-1.17-1.21-1.64-2.27-.42-.94-.97-2.5-1.66-3.48.34.71,1.1,3.05.13,2.49-1.08-3.02-2.78-3.35-4.3-4.97-.87-2.81,2.05,1.28,2.64.37.08-.59.18-2.02,1.12-1.1-1.11-2.47-2.83-3.69-4.26-5.54l.26-.09c-1.87-2.71-4.85-4.8-5.99-7.27l.59,1.33c-.44-.33-1.33-1.67-2.31-2.03.42-.2-.5-2.09.31-1.65-2.02-.25-5.04-5.12-7.09-5.52-.22-.89.66-.72,1.07-.72,1.1,1.65,1.28,2.36,2.38,2.82-1.02-1.29-1.45-2.48-1.04-2.48-.86-.38-1.96-1.29-2.99-2.12-1.06-.85-1.94-1.49-2.55-1.57-.31-1.2-.75-2.28.11-2.37-3.32-3.89-.44,3.41-3.78-1.3-1.03-2.6,2.39,1.53.33-1.62l.52.49c-.06-1.69-.68-1.88-1.5-1.93-.85-.07-1.83.04-3-.98.33-1.13,2.24.92.98-1.16-1.27-.85-2.34-1.02-3.33-1.27-.5-.12-.97-.25-1.43-.48-.23-.11-.46-.25-.67-.41-.22-.17-.37-.32-.54-.56.19-.01.38-.05.55-.08-.35-.29-.8-.83-1.34-1.55-.54-.7-1.25-1.59-2.18-2.23l-.76-.51-.83.26c-.67.22-1.36.53-1.86,1.16-.26.27-.39.6-.54.9-.1.28-.16.56-.2.8-.21.14-.19-.37.11-1.14-.47.88-.48,1.58-.47,2.01,0,.47.08.74.14.98.13.42.24.6.34.74.2.27.31.53.59,1.95.27.16.53.29.77.4-.06-.57-.39-1.6-.65-2.74-.12-.59-.27-1.22-.21-2.01.03-.4.13-.83.34-1.25.21-.4.51-.76.8-1.02-.3.27-.4.49-.4.61,0,.12.1.13.26.09.15-.04.38-.07.62-.12.24-.04.49-.02.74-.01h.39s.04.07.04.07c.49.78.67,1.64.1,1.68.16-.02.31-.02.47-.03.42,1.02.75,2.13,1.62,3.3.86,1.09,1.81,1.98,2.76,2.86.95.88,1.84,1.71,2.54,2.6.18.22.33.44.5.68l.52.78c.34.53.67,1.09.99,1.66,1.41,1.03,2.14,2.31,2.93,3.65.83,1.38,1.59,2.66,3.01,3.89,1.33-.31.62.39,2.73,2.74-1.14-1.23-.87.42-.36,1.36.63.29,1.18.81,1.72,1.34.06.77,1.63,4.5,3.14,5.15.79,1.76-.58-.12-1.03-.3-.06.99,1.31.94,1.33,1.7,0,0-.13.05-.29-.07,1.71,2.3,2.41,3.89,3.84,6.44,1.17-.44,1.9,2.21,2.9,3.14-.55-.18.4,1.66.55,2.5.51.32,1,.65,1.51.99.69.53.78,1.09.87,1.7.11.67.23,1.47.92,2.36l-.05-.58c1.05,1.32,2.44,5.21,2.47,6.73,1.04,1.33,1.83,2.59,2.4,3.84.14.32.25.58.39.96.13.37.25.73.38,1.09.24.75.47,1.48.7,2.2.45,1.46.91,2.95,1.41,4.39.38,1.16.64,2.36.84,3.65.21,1.29.36,2.65.58,4.12.11.74.23,1.5.39,2.29.08.4.17.8.26,1.21.09.37.17.74.26,1.12.71,2.97,1.61,6.12,2.86,9.61.64.81.38-.86,1.12-.3.58,1.4.63,1.74,1.05,3.04-.04-1.25-.37-.95,0-.9l-.95-1.91c.06-.12.16.09.27-.16-.32-.64-.8-1.36-1.01-2.25.69,1.15,1.66,1.23,1.86,3.03-.16-.09-.26-.3-.48-.73.37,1.42.8,1.37.89,2.49.2,1.35.37.95.05,1.23l.72,4.14c1.62,1.7,1.31,4.45,1.38,5.12-.89-.23-.97-2.59-2.01-3.35l-.16,1.6.65-.09.39,2.09-.15-.08c.31.18.62.36.54.94-.06.11-.18.36-.28.14l.73,1.37c-.86-.68.13,1.33-.67,1.31.79,4.83,2.46,5.83,2.25,10.24.22-.75,1.46,1.11,1.52,2.44-.06.78-.21,1-.57.57l.66,1.64c-.45,1.17-.4,2.17-.25,3.42.15,1.23.42,2.58.43,4.24l-.36-.12c.56,1.16,1.05,2.42,1.17,4.24l-.72-.24c-.18,2.28,1.64,1.5,1.54,4.01.72-.11.88-1.7,1.54-2.03-.66.68-.41,3.31.03,2.63.62,2.4.21,1.69.06,1.92l.63,1.37c.2,1.71-.87.68-1.37.1.99,1.49.68,3.3.8,5.12l-.42-.69.19,2.4c.77,1.48,1.1,3.64,1.07,5.68l-1.13-1.26c-.31,1.47.42.68.63,1.03.75,2.16.17,2.72-.22,3.96,1.45,3.43-.69,7.25,1.09,10.11Zm-21.47,243.77l.22-.28c-.03.76.01,1.22-.22.28Zm5.34-19.04c-.27,2.39-.51,1.55-.81,1.65.88-2.19.93-3.53,1.78-5.44-.27.27-.54.26-.72.32.26-.78.69-1.52,1.23-1.66.66,1.24-2.3,5.97-1.48,5.13Zm-8.49,43.98c-.04-.1-.08-.22-.1-.34h0s.1.34.1.34Zm3.34-11.35c.25-.09.46-.33.65-.64-.32.12-.59.25-.65.64Zm7.61-22.37c.53-.42.73-1.63.87-2.52-.15.39-.47,1.09-.87,2.52Zm24.66-146.01c.12.72.44,2.09.81.88-.31-.61.34-1.72-.16-2.25.02-.07.03-.08.05-.12-.36.7-.67,1.28-.7,1.49Zm-3.79-69.56c.4.1.87.6,1.14.24,0,.06-.01.14-.02.2.12-.18.22-.34.32-.21.04-.57.1-1.17-.04-1.56-1.3-.1-1.58-1.28-1.4,1.33Z"/><path class="cls-1" d="m113.73,155.66c-.02-.27-.02-.48-.04-.65,0,.18.01.38.04.65Z"/><path class="cls-1" d="m109.03,131.34c-.08-.05-.17.63-.26,1.46.15-.18.25-.58.26-1.46Z"/><path class="cls-1" d="m58.66,416.3l.13-.69-.87,1.14c-.44,2.3.04,2.61.44,3.37.18-2.14.93-3.21,1.74-5.73l-1.44,1.9Z"/><path class="cls-1" d="m74.23,391.66l-.97,1.91c.13.73,1.43-1.41.97-1.91Z"/><path class="cls-1" d="m64.77,398.68l.03,1.22c.66-.85,1.08-2.16.71-2.52-.21,1.37-.36.23-.74,1.31Z"/><path class="cls-1" d="m76.19,386.28c-.5-.89,1.06-1.9.53-2.57,0,.61-1.23,2.21-.53,2.57Z"/><path class="cls-1" d="m68.76,385.23c-.92.42-.7,1.73-1.31,3.01.37-1.11,1.64-2.4,1.31-3.01Z"/><path class="cls-1" d="m78.23,374.6c.48.3.12,1.15-.37,2.08-.04-.39-.2-.69-.11-1.15-.21,1.77-.33,1.85-.58,3.23.85-1.15,1.82-3.01,2.39-2.56-.12-1.15-.4-2.61-1.32-1.6Z"/><path class="cls-1" d="m69.82,382.04c-.6,1.01-1.33,1.49-1.76,2.83.45-.1,1.13-.35,1.6-1.91l.41.77c.96-1.25-1.01.26-.25-1.69Z"/><path class="cls-1" d="m81.83,369.08l-.52.58c-.06,1.72-1.02,3.6-.58,4.74.65-1.86,1.15-4.27,1.1-5.32Z"/><path class="cls-1" d="m72.93,377.17l-.76-.52c-.69,1.46.32,0,.32.61-.28.38-.61,1-.57,1.38.52-1.76.72.15,1.01-1.46Z"/><path class="cls-1" d="m73.86,371.89l.34-2.05-1.47,1.15c-.51,2.36.49.3,1.13.89Z"/><path class="cls-1" d="m75.3,369.74l.24-.16c-.07-1.11-.15-2.22-.25-3.3-.05,1.86-.18,1.96,0,3.46Z"/><path class="cls-1" d="m91.06,335.43c-.28-.44-1.23,1.18-.6.55.22.42,1.34-1.78.6-.55Z"/><path class="cls-1" d="m82.13,340.63c.52-.77.75-3.7.84-4.99-.22,1.5-1.4,5.05-.84,4.99Z"/><path class="cls-1" d="m83,335.12c0,.1-.02.3-.04.52.04-.23.05-.4.04-.52Z"/><path class="cls-1" d="m92.53,283.29c.01-.14.01-.27-.03-.4,0,.14.02.26.03.4Z"/><path class="cls-1" d="m92.51,284.58c-.29.82-.38,2.54-.02,2.91.06-1.36.17-2.56.04-4.2-.07.59-.49,1.25-.02,1.29Z"/><path class="cls-1" d="m95,272.6c.12.67-.16,1.5.24,1.36.23-.32.09-1.73-.24-1.36Z"/><path class="cls-1" d="m114.82,192.18c.21-1.21.05-1.92-.51-1.59,0,1.35.35.62.51,1.59Z"/><polygon class="cls-1" points="114.19 189.05 114.47 188.89 114.9 188.13 114.19 189.05"/><path class="cls-1" d="m115,181c.09.06.19.27.24.49-.08-.46-.15-.84-.24-.49Z"/><path class="cls-1" d="m115.28,181.72c0-.07-.02-.16-.04-.23.01.07.02.16.04.23Z"/><path class="cls-1" d="m115.1,182.25l.3.09c-.04-.13-.08-.38-.12-.62.02.22-.02.45-.18.53Z"/><path class="cls-1" d="m115.1,178.58l-.86,1.54c.42,1.6.44-1.82,1.35-.24l-.49-1.29Z"/><path class="cls-1" d="m114.88,173.22c.28-1.47-1.06-3.6-.05-4.44-.53-4.18-1.69.96-2.07-3.82-.52,4.52,1.95,2.3,1.38,6.31.63-1.93.5,1.3.74,1.95Z"/><path class="cls-1" d="m113.17,173.92c.51.24.56-1.63.22-2.21-.06.54-.77,1.48-.22,2.21Z"/><polygon class="cls-1" points="114.43 165.05 114.82 163.77 114.5 163.43 114.43 165.05"/><path class="cls-1" d="m114.62,160.19l.6,1.25c-.23-.41-.2-2.28-.6-1.25Z"/><path class="cls-1" d="m115.29,153.4c.18-1.18-1.2-2.23-.86.26l.04-.57c.21.14.67-1.2.82.31Z"/><path class="cls-1" d="m112.68,137.72c.02.81.22,1.76.5,1.58l-.38-2.21-.12.63Z"/><path class="cls-1" d="m109.39,138.21c-.79.78.16,2.06-.05,3.54.09-1.67.21-1.48.05-3.54Z"/><path class="cls-1" d="m113.72,135.11c.37.58.2,1.53.18,2.09.46-.3.25-1.83-.18-2.09Z"/><path class="cls-1" d="m113.21,131.56c.29-.75.47.13.66-.44.27-1.6.08-3.25-.44-4.1-.32.44-1.23,1.08-1.69.47.49,2.46,2.11,3.64,1.01,4.94l1.57,2c.11-2.02-1.11-1.48-1.11-2.87Z"/><path class="cls-1" d="m110.78,136.76l.41-1.35c-.46.29-.58-.71-.79-1.41-1.02.41.27,2,.37,2.76Z"/><polygon class="cls-1" points="111.37 117.83 110.83 115.05 110.87 115.97 111.37 117.83"/><polygon class="cls-1" points="111.51 116 111.81 115.89 111.02 113.8 111.51 116"/><polygon class="cls-1" points="111.55 113.01 111.54 113.35 111.98 114.98 111.55 113.01"/><path class="cls-1" d="m111.07,107.15l-.38.57c.2.69-.13,2.17.45,1.97-.27-.59-.37-2.07-.08-2.53Z"/><path class="cls-1" d="m97.38,89.39c.36.46.58.13.8-.21l-.86-.69c.07.23.21.69.06.9Z"/><path class="cls-1" d="m98.14,85.88l-1.13-1.94c.19,2.39.91,2.63,1.32,4.68.15-.91-.63-2.06-.54-3.2l.36.46Z"/><path class="cls-1" d="m91.44,45.46c.58.03.38-.4,1.14.97-.89-1.92-1.27-3.68-2.05-5.96-.22.49-1.31-1.05-.9-.21l1.08,2.47-.48-.28c.11,1.92.95,1,1.2,3.01Z"/></g><g><path class="cls-1" d="m95.47,51.07c-.31-.71-.24-.07-.44.3l.44-.3Z"/><path class="cls-1" d="m95.02,51.38l-.32.22c.16,0,.25-.1.32-.22Z"/><path class="cls-1" d="m92.93,54.37c-.18-.49.02-.96.22-1.35.19-.41.38-.75.15-1.22-.46.28-.84.82-.92,1.35-.08.53.1,1.02.54,1.22Z"/><path class="cls-1" d="m93.85,53.34l-.39-.27c.13.33.25.62.42.91-.04-.22-.02-.42-.03-.64Z"/><path class="cls-1" d="m94.46,53.07h-.2c-.01.39-.01.76.06,1.13,0-.37.05-.76.14-1.13Z"/><path class="cls-1" d="m92.61,57.32c-.09-.27-.17-.57-.24-.87.28-.44.51-.29.71-.14.21.16.39.32.58.06-.04-.97-1.42-.35-1.07-1.73-.31,0-.39.58-.42,1.13-.04.54-.05,1.05-.54.97-.13,1.3.56.01.99.58Z"/><path class="cls-1" d="m87.77,101.2c-.05.02-.08.04-.12.06.11,0,.19-.01.12-.06Z"/><path class="cls-1" d="m82.6,113.1c-.15.08-.27.17-.37.27.1.01.21,0,.31-.02l.07-.25Z"/><path class="cls-1" d="m89.62,94.24c.19-.1.34-.21.46-.31-.16.02-.32.09-.46.31Z"/><path class="cls-1" d="m55.18,127.49c.05.05.12.11.23.16,0,0,.02,0,.03-.01l-.19-.23-.07.08Z"/><path class="cls-1" d="m74.91,126.15c-.14.16-.26.32-.35.49.25-.24.34-.38.35-.49Z"/><path class="cls-1" d="m91.77,90.1c-.03.06-.06.12-.09.18.06-.04.13-.1.19-.18h-.1s0,0,0,0Z"/><path class="cls-1" d="m85.7,110.52c-.15.12-.28.22-.35.34.15-.1.26-.21.35-.34Z"/><path class="cls-1" d="m91.41,67.99c-.12.21-.09.41,0,.6.16-.12.22-.3,0-.6Z"/><path class="cls-1" d="m91.2,72.74s0-.02,0-.02c-.11.02-.09.03,0,.02Z"/><path class="cls-1" d="m90.94,75.36s-.01-.03-.02-.05c-.08.02-.1.04.02.05Z"/><path class="cls-1" d="m91.4,68.59c-.42.34-1.64.34-.38,1.03l.19-.09c-.34.29.14.82.17,1.2.13-.03.23-.07.33-.12.03-.18.07-.43.19-.79.31-.41-.27-.75-.49-1.22Z"/><path class="cls-1" d="m87.55,101.08c.24.05.21-.25,0,0h0Z"/><path class="cls-1" d="m87.98,97.75c-.07.08-.13.16-.19.25.09-.06.18-.12.19-.25Z"/><path class="cls-1" d="m94.75,84.26s-.04.04-.07.06c.13.05.12,0,.07-.06Z"/><path class="cls-1" d="m87.64,98.25c.04-.09.09-.17.15-.25-.08.05-.16.12-.15.25Z"/><path class="cls-1" d="m92.72,88.54s-.05.03-.06.05c.02,0,.04-.02.06-.05Z"/><path class="cls-1" d="m78.39,74.5c-.04.29-.42.25-.63.42.48.92.6-1,.86.09.12-.22.12-.44.11-.66l-.89-.1c.03.59.41-.15.55.25Z"/><path class="cls-1" d="m57.99,124.42l-.11.11c.39.02.47.13.81-.3-.44-.56-1.44-.16-1.85-1.02.03.15-.06.35-.19.51.58-.15,1.01.27,1.34.71Z"/><path class="cls-1" d="m56.65,123.72s-.03,0-.05,0c-.08,0-.16.03-.22.05-.03.1-.09.19-.17.25.16-.04.32-.15.44-.31Z"/><path class="cls-1" d="m73.98,82.37c-.07.09-.14.17-.2.25.21-.07.24-.16.2-.25Z"/><path class="cls-1" d="m68.03,118.23c.03-.15.05-.31.06-.44-.1.17-.1.31-.06.44Z"/><path class="cls-1" d="m54.51,131.05c-.11.07-.21.17-.3.27-.03.07-.04.15-.09.23l.38-.5Z"/><path class="cls-1" d="m54.18,106.33c.78.57,0-.21.68-.47l-.3-.61c-.29.34-.29.76-.39,1.08Z"/><path class="cls-1" d="m78.79,74.35s-.05-.03-.07-.05c0,.01,0,.02,0,.04h.07Z"/><path class="cls-1" d="m58.11,94.27c.07-.06.12-.11.18-.17-.06.03-.13.08-.18.17Z"/><path class="cls-1" d="m55.46,126.24c-.2.56-.45,1.11-.68,1.66l.4-.41c-.35-.39.74-.83.28-1.25Z"/><path class="cls-1" d="m51.15,113.69h-.59c.69,2.08-1.44,3.61-.1,5.29-1.21.75-.85,1.16-.47,1.56.38.39.8.84-.3,1.42l.29.02c-.42,1.29-.95,2.42-1.49,3.48-.57,1.01-1.18,1.88-1.8,2.6-1.28,1.39-2.64,2.35-4.35,3.51l-22.54,15.23,25.22-4.27c.48-.08.93-.17,1.36-.27l.02.4c2.71-.04,5.53-.47,8.28-1.31,2.76-.83,5.4-2.15,7.75-3.69,2.35-1.56,4.42-3.34,6.3-5.17l2.52-2.43c.88-.82,1.75-1.63,2.63-2.45.39-.91-.62-1.14-.38-2.01.27-.22.77-.81,1.13-.47-.28.67.3.7.27,1,.75-.82,2.18-1.54,2.43-2.71l-1.05.21c.07-.47.62-.81.88-1.07.14.33,1.02.38.92.72.24-2.71,1.66-.9,2.37-2.85-.83-1.12-.34-3.7-.48-5.53.23-.18.46-.37.69-.56-.52.97.9.45.16,1.63.47-.4.68-.94.87-1.47l.14-.39c.03-.09.05-.18.09-.26.06-.17.16-.34.3-.48-.36-.03-.75-.26-.72-.63.41-.35,1.01-.05,1.37-.52.02.24.04.48.07.71.62-.06.23-.69.36-1.06.53.2,1.13-.54,1.57-.07-.18-1.15.37-1.19.51-2.35-1.07.61-.48-.62-.95-.76l-.44,1.13c1.2-1.21-.2.52.67.91-.78.4-.78-1.72-1.33-.57.39-1.54.97-1.62,1.09-3.48-.33.98-.46-.46-.97-.13.56-1.12.44-.12,1.17-.18.29-.65.91-.68.51-1.56.71-.95.6.44,1.18.04.22.33-.28,1.03-.64,1.69-.35.67-.52,1.28.47,1.65-.28.56.02,1.64-.47,2.32.61-.46,1.81-1.08,1.89-2.27l-1.03-.6c.34-.71-.32-1.22,0-1.67.19.41.88.12,1.02-.49-.22.1-.28.34-.45.2.35-1.08-.36-1.52-.17-2.72-.61.83-1.03.92-1.86,1.61-.67-.55.14-.66.23-1.21.08.11.06.23.27.14l-.18-.67c.73-1.01,1.1.53,1.79-.27.87-.41-.08-.97.44-1.29-.08,0-.17,0-.23.02.05-.1.09-.15.13-.2-.02,0-.04,0-.06-.01.07-.58.34-1.06-.18-1.44.28.05.11-.45,0-.69-.11-.35-.42-1.37.67-1.22,0,.01-.01.02-.01.03.21-.25.46-.4.68-.49.24-.12.44-.12.53.05l.93-.94.6.56c.48-1.13.01-1.29-.27-2.43.86-.48,1.27-2,1.25-2.64.07-.07.14-.2.21-.43l-.51.3c.46-.81.02-.91.28-1.45-.12.08-.17.08.09-.18.06-.09.11-.18.2-.3.07.06,0,.18-.1.29h.29c1.1-.33.02-1.24.58-1.86,0,.08,0,.22-.03.3.37-.33,1.67-.58,1.07-1,.12-.07.04-.27-.08-.48l.22-.29c-.08.12-.15.21-.22.28-.16-.27-.37-.55-.2-.52.17-.35.31-.72.46-1.09.17-.19.14-.51.09-.78l.37-.12c.04-.4.23-.36.31-.29,1.44-1.12-.13-2.22,1.14-3.52-.5-.39-.86.19-1.17.18-.38-.31-.6-1.22-.84-1.69.88-.51,1.84-2.49,2.9-2.03.25-1.27-.73.31-1.04-.37l.06-.14c-.18.42-.6.71-1.06.89-.61,0-.64-1.09-.44-1.4l.83.33c-.17-1.19-1.49-1.07-2.28-1.83.4-.85,1.14-.3,1.92-.43l-.16-.97.64.02c-.15-.65-.75-.79-.5-1.67.31.33.45-.05.63-.28.18-.25.38-.45.79-.1.21-.36-1.01-.55-.15-.7-.67-.32-.37.34-.58.53-1,.15-.44-.94-.62-1.48.51.02.55.41.97-.14-.37-.17-.61-.61-.08-.88-.64-.11,0-.73.11-1.08-.2.38-.77.88-1.27.51-.2-.36-.27-.67-.04-1.38l-.39.45c-.8-.82.88-.92.74-1.87.32.44.28.67.68,1.09-.22-.48-.53-1.36-.75-2.05.35-.21.68-.43,1.02-.67-.46-.13.1-.9-.55-.92.46-.98.76.81,1.19.98.26-.63,0-.92-.19-1.17-.19-.26-.32-.48.14-1.13l.62.4c.04-.45-.39-1.27-.1-1.35-.21.02-.11.23-.08.5-1.28-.17-1.14-1.75-2.44-1.37v.52c-.38-.74-1.38-1.08-1.04-1.78.33-.54.95.14,1.34.34-.06-.75-1.56-.28-1.6-1.23-.13.53-.6.53-1,.28.02.6,0,1.68.5,1.38l.09-.21c.35-.02.53.22.72.32.13.67-.53.42-.76.6-.03,1.09,1.33-.14,1.44.88l-.24.16c.4.45.48,1.21,1.29,1.35-.86.45.31,1.25-.27,1.74-.95-.06-.86-.48-.7-1,.17-.51.4-1.15-.13-1.41-.36.54-.91-.25-1.37-.4.33.48.61.98.87,1.53-.27.14-1.22.51-.57.85l.06-.12c.15.65.93.58.6,1.12-.18.06-.46-.16-.58-.21-.24.49.36.5.47.88-.26.51-.72-.4-1,0,.61.74-.35.94-.42,1.5,1.09-.03,1.03,2.5,2.17,1.46.16.48.33.96.52,1.41-.61.35-1.36-1.11-2.3-.88l.23-1.09c-.67-.03-.57.59-.47,1.28.1.7.21,1.44-.54,1.8-.05.32,0,.45-.06.64-.02.1-.06.22-.14.39-.08.14-.19.32-.35.57l1.19-.17c-.27.54-.93.7-1.15.71.07.31.03.58-.04.86-.17-.08-.33-.2-.38-.38-.68.36-.43.47-.09.63.28.23.23.55.19.88l-.42-.33c.08.21.19.46.4.5,0,.14,0,.27.07.4.22-.07.93-.22,1.28-.68-.57,1.21-.44,2.23-1.58,3.15-.33-.09-.69-.59-.75-.47-.25.49.25,1.16.77,1.2.01.13,0,.22,0,.3-.31.05-.64.12-.74.36-.12.04-.23.12-.3.29.9.35.24,1.28.61,1.59.14-.22.2-.52.22-.83.54.55,1.17,1.08.6,1.32-.43-.92-1.14.66-1.15-.6-1.34.6.75.61.15,1.43l-.59.48c-.65-.24-.13-1.01-.42-.93v.42c-.42-.51.23-1.95-.37-3l-.73,1.76c.08.62.04,1.26-.05,1.91-.08.6-.2,1.1-.35,1.66-.28,1.09-.55,2.15-.26,3.32,0-.03.01-.05.02-.08.05.06.16.13.38.26h-.19s.3.57.3.57c-.76.12-1.25.77-2.02,1.12.58-.17.58-.17,1.05.03.56.4.8.61.24,1.06-.43-.24-.22-.58-.79-.35.33-.1.52.26.43.55-.46.16-.84.66-1.26.41-.02-.21.19-.24.31-.31-.02-.21-.73.36-.82-.28l-.22.63c-.55.11-.41-.56-.72-.57-.29,1.1.35,2.14,0,3.25-.18-.2-1.07-.83-.82-.63-.89.71-.15,2.51-.48,3.49-.24-.28.06-.59.07-.97-.96,1.44-1.51,2.82-2.1,3.97-.58,1.14-1.2,2.09-2.12,2.79.26.32.51.66.74,1.01l-.94.17c-.91.87-1.58,1.88-2.16,3.05-.29.59-.56,1.22-.82,1.9-.13.35-.26.7-.39,1.05-.11.32-.22.65-.34.99-.26.66-.88.01-1.31.14-.83,1.21,0,2.22-.73,3.66-.14-.38-.7-1.24-1.14-.74.18.29.54.67.12.88l-.14-.38c-.62,0-.49.58-1.17,1.07-.9,1.11-1.29,2.67-1.3,4.45-1.04.9-.76-.95-1.12-.93.96-.39.32-.61.18-1.02-.11.58-.41,1.15-1.15.77-.47.53-.7.72-.84,1.6.06-.44.58-.35.6.15-.61.21-1.48,1.47-2.11.69-.58.63-1.21,1.26-1.87,1.91-.33.32-.67.65-1.01.98-.31.29-.62.57-.93.86-1.25,1.11-2.55,2.11-3.84,2.99-.16.73.45-.06.4.41-.29,1.01-.7.04-.95.82l-.06-.6c-.8.42-1.17,1.73-1.81,2.59-.12-.62-.89-.17-.36-.81-.38.29-1.91-2.1-1.95-1.46.45.75.91,1.49,1.4,2.22.07.24-.56.34-.45.47-.56-.35-1.18-.75-1.43-.67-.32-.58.32-.66.66-.76-.34-1.04-1.3-.27-1.17-1.39-.61.38.28.51,0,1.02l-.67-.04.57.21c-.41.47-.38,1.33-1.25.92-.16.41-.34.82-.53,1.21-.26-.83-.6-.03-1.05-.16l.16-.59c-.53.12-.76,0-1.14-.26.18-.8.5.11.52-.62l-.6-.16c.07.48-.25.92.21,1.15-.42.98-.65,1.79-2.15,1.83-.72-.79.66-.79.31-1.59-.46-.08-.8.11-1.07.41l2.11,8.61c.55-.97.39-2.23,1.11-2.52.71-.22.94-.52,1.14-.83.2-.32.38-.65.92-1.14-.02.74,1.18-.16,1.77.05-.02.28-.06.56-.09.84.27-.43.75-.58.92-.18-.58-.51,1.02-1.96,1.35-3.06l-.63-.27c.37-.75.59-1.89,1.17-2.49.39-1.16-.22-1.2-.49-2.29.73-.18,1.35.15,1.93.61-.42.15-.49.73-.94,1.1-.2,1.59.13,3.51-1.24,4.64.7,1.63.63-1.02,1.54-1.33.06.08.05.14.03.21.04-.06.09-.11.16-.15-.19.63-.68,1.58-.18,2.26.58-.99-.69-1.59.61-2.26.18-1.04,1.66-1.05,2.03-1.54-.22-.87-1.29-1.46-.48-2.68l.54.97c.71-1.55-.82-1.26-.26-2.62-.28.44-.64-.77-1.01.12-.28-.62.01-1.59.47-2.22-.07-.23-.28-.13-.55-.26-.83.57.15,1.44-.93,1.76l.68.9c-.65.61-1.38.34-1.54-.23-.05.21,0,.44-.23.51-1.38-.48.86-.62-.19-1.34-.03.18-.06.35-.1.52-.93-.16-.32-1.42-.03-2.01.65-.56,1.01-1.17,1.68-1.02l-.04,1.07c.69-.35.11-1.36.29-1.91.1-.01.18-.05.25-.1-.07.01-.13.01-.19,0,.07-.11.18-.2.36-.25.19-.5-.04-1.33.3-1.75l-.6-.09.31.15c-.14.45-.66.97-1.01.51-.15-1.12,1.05-1.04,1.62-1.16.85.46-.27,1.01-.09,1.62.97-.08.38-1.04,1.22-1.95.88.67-.32,1.24.52,1.71.4-.84-.25-1.23.22-2.08.43.23.25,1.12.85,1.21l.42-.52c-.3,1.46,1.28.05,1.25,1.23.53-.43-.62-.94.19-1.55-.48.11-1.41.52-1.61-.29l.48-.73c.55-.22.85,1.08,1.37.66l-.13-.91c-.3-.04-.54.32-.89-.03.43-.4-.94-1.06-1.23-1.73.13-.44.28-.77.66-.84-.29-.66-.33-1.33-.37-2-.04-.66-.06-1.28-.3-1.91.37.86.99.28,1.55.03-.13.8.78,1.08,1.37,1.21.04-.47-.78-1.07-1.16-.94.62-.64-.45-.74.39-1.21.46-.33.8.53,1.19.49.33-.8-1-.61-.47-1.44.1.09.11.19.3.18.37-.42.15-1.1-.24-1.38,1.35-.08.46-1.55,1.53-1.01.18-1.34-.68-.06-.98-.45-.3-.69.48-1.47.77-1.69-.1.31.1.72-.19.94l.88.04c1.16-1.33-1.37-1.66-.11-2.92.1.94.49.49.89,1.09-.1-.31.58-1.44-.3-.93.29-.56.58-.91.87-1.27-.11-.64-.12-1.29-.53-1.78.37-.81,1.12-1.27,1.6-1.57-.03-1.96,1.38-3.32,1.23-5.27l-.08.12c.51-1.35-1.23.33-.82-1.1.94.45.89-.68,1.54-.99.97-1.55.11-3.12,1.27-4.36.2.08.4.26.33.54.34-.5.54-.96.72-1.42l.26-.69c.1-.26.21-.51.33-.77l.1.09c1.47-1.36,1.2-3.26,1.76-5.06.05.19.39.39.46.55.59-.76,1.36-2.03.81-3.02,1.38-.55.05-.8,1.55-1.61.2.01.09.2.08.3.61-.46.75-.93,1.17-1.48.15-1.63-.8-2.63.46-3.95,1.23.64-.26,1.11.67,1.7-.04-.42-.13-.84.4-1.07.31.52.26.23.59.66.5-.11-.46-2.01-.35-1.93-.22-.16-.41-.13-.56.19-.51-.81.86-1.5,1.06-2.38-.18.21-.89.79-1.25.15.9-.79,0-1.87.06-2.87,1.15-.51.47,1.33,1.39,1.72.39.06,1.27.18,1.32.75.71-.62.43-1.65.79-2.43l.2.19c.3-.5.44-1.15.62-1.76.11-.33.14-.5.25-.68.12-.16.26-.29.5-.31l-.5.04c-.02-.22.36-.47.22-1.07.27.36,1.01.29,1.05.75-.63-1.41,1.43-2.09,1.27-3.58.47.14.55.79.64,1.12-.71.29-1.08.18-1.07.87.48-.34,1.08-.26,1.16.08.03-1.09,1.24-2.22,1.07-3.18.67.13,1.22.07,1.47.81,1.51-1.51-1.81-1.4-.35-2.53.05-.04.11-.08.18-.12.54.1.47.44.45.67-.02.24-.04.38.42.27-.04.06-.07.12-.09.19.73.71.68.36.6-.25-.09-.6-.23-1.44.32-1.63.54.92-.43,1.01.58,1.41.91-.68.76-2.29,1.95-2.52l.04.49c.33-.22.87-.47,1.44-.83.6-.4,1.09-.83,1.3-1.24.18.1.08.19.02.37.16-.14.29-.25.38-.36.07-.11.12-.21.15-.29.06-.16.05-.26.04-.35-.06-.18-.02-.3.38-.73-.14-.21-.3-.41-.45-.61-.09.11-.19.24-.28.39-.1.15-.23.34-.34.53-.27.38-.51.81-.59,1.31.07-.51-.41-.5-.88-.54-.5-.05-1.01-.2-1.16-.65l.12.37c-1.1-.17-2.06-.22-3.12-.11-1.07.14-2.13.24-3.72.89-.48,1.63-2.1.8-3.02,2.23.44,1.19-.11.35-1.12,1.29.52-.52-.43-.85-.93-.72-.05.42-.26.71-.47,1-.24-.09-.88-.06-1.49.18-.6.23-1.15.69-1.11,1.25-.97.42-.13-.44-.14-.78-.74-.16-.23.92-.76.88,0,0-.09-.1-.06-.22-.13.15-.26.29-.38.42-.1.11-.19.21-.29.31-.19.19-.39.37-.59.53-.41.34-.82.68-1.3,1.16.89.83-.43,1.31-.42,2.05-.21-.39-.81.33-1.21.51l.35,1.09c.24,1-.98.5-1.13,1.48l.3-.06c-.05.74-1.57,1.8-2.45,2.04-.5,3.21-1.81,5.06-3.33,6.93-1.51,1.86-3.19,3.74-4.1,6.71.18.51.68-.03,1.06.47-.11.63-.21.73-.42,1.28.5-.35.09-.42.38-.24l.02-.93c.1,0,.1.1.29.09,0-.31-.08-.72.13-1.05.08.62.85,1.11.25,1.65-.09-.1-.09-.2-.09-.41-.3.53.09.73-.31,1.05-.41.48-.09.44-.49.37-.38.51-.75,1.04-1.11,1.57.71,1.22-.59,1.94-.77,2.2-.72-.42.12-1.22-.48-1.91l-.77.46.6.24-.45.85-.1-.09c.21.18.41.36.13.53-.1.01-.29.05-.3-.06l.15.74c-.53-.56-.36.51-1.07.2-.95,1.97.3,2.88-1.18,4.34.42-.19,1.03.86.76,1.34-.26.25-.45.28-.68.01l.2.77c-1.39.5-.87,1.52-1.63,2.54l-.3-.16c.24.54.4,1.1.05,1.71l-.6-.34c-.73.62,1.13,1.08.39,1.83.68.25,1.25-.18,1.93-.03-.77-.04-1.24.88-.66.85-.07,1.02-.26.62-.45.64l.21.7c-.28.63-.97-.14-1.27-.53.5.88-.28,1.34-.67,1.99l-.19-.4-.48.87c.29.81,0,1.68-.58,2.38l-.69-.9c-.68.39.2.41.3.62.11,1.07-.58,1.04-1.26,1.35.21.91-.41,1.55-.97,2.21-.28.33-.54.67-.67,1.04-.12.34-.1.71.16,1.13Zm43.07-29.18l-.17.11c-.09-.35-.21-.55.17-.11Zm-3.38,7.93c.15-1.07.4-.58.67-.52-.71.77-.71,1.41-1.44,2.01.24-.02.47.08.63.13-.22.29-.59.48-1.07.32-.59-.85,1.91-2.03,1.2-1.93Zm0-18.52c.07.04.14.08.21.12h0s-.21-.12-.21-.12Zm.32,4.62c-.22.03-.35.13-.45.25.27-.04.49-.09.45-.25Zm-3.29,8.38c-.45.03-.5.48-.56.82.1-.12.33-.32.56-.82Zm-33.95,45.33c.18-.25.46-.8-.06-.9-.06.4-.65,0-.62.56-.03,0-.04-.02-.06-.03.35.21.65.38.73.37Zm.42-9.24c.37.15.72.47,1.05.42-.02.02-.04.05-.05.07.15-.03.27-.06.34.01.14-.2.3-.41.23-.6-1.23-.41-1.3-.92-1.57.09Z"/><path class="cls-1" d="m54.87,134.54c.07-.12.15-.2.18-.29-.05.08-.11.17-.18.29Z"/><path class="cls-1" d="m55.89,122.96c-.07-.04-.27.19-.5.47.17-.02.35-.15.5-.47Z"/><path class="cls-1" d="m95.95,58.32l.18.26.27-.64c-.6-.81-1.16-.73-1.83-.84.73.68.56,1.22.93,2.29l.45-1.07Z"/><path class="cls-1" d="m91.83,59.62c-.15.13-.54.4-.56.52l.41.05c.05-.19.11-.37.15-.58Z"/><path class="cls-1" d="m89.15,69.68c.15-.37.3-.72.46-1.05-.3-.4-1.06.8-.46,1.05Z"/><path class="cls-1" d="m96.52,66.62l-.34-.55c-.42.37-.48.93-.04,1.11-.15-.6.28-.08.37-.55Z"/><path class="cls-1" d="m88.99,72.4c.77.25-.36.74.36.93-.2-.21.41-.88-.36-.93Z"/><path class="cls-1" d="m96.35,71.79c.18-.08.28-.17.32-.27.05-.07.04-.15.02-.23-.05-.17-.16-.37-.06-.6-.03.38-.79.83-.28,1.1Z"/><path class="cls-1" d="m90.84,76.86c-.54-.12-.46-.46-.28-.84.15.15.4.27.46.46-.34-.71-.26-.74-.46-1.29-.44.48-.78,1.23-1.46,1.06.47.44,1.16,1.04,1.74.62Z"/><path class="cls-1" d="m96.42,73.27c.23-.5.75-.81.7-1.44-.39.11-.93.32-.86,1.03l-.64-.26c-.49.64.86-.24.8.67Z"/><path class="cls-1" d="m88.98,79.04l.34-.21c-.4-.7-.03-1.43-.79-1.88-.06.72.13,1.68.45,2.09Z"/><path class="cls-1" d="m95.06,75.62l.89.18c.19-.68-.3.02-.5-.25.15-.18.25-.47.1-.63.06.79-.73-.01-.49.69Z"/><path class="cls-1" d="m95.78,77.96l.25.92,1.08-.54c-.19-1.09-.55-.13-1.33-.39Z"/><path class="cls-1" d="m95.02,78.93l-.19.07,1.09,1.51c-.41-.86-.32-.9-.91-1.58Z"/><path class="cls-1" d="m84.93,90.94c.26.31,1.02-.03.51,0-.21-.27-1.1.24-.51,0Z"/><path class="cls-1" d="m92.69,91.82c-.43.22-.54,1.6-.6,2.22.18-.66,1.12-2.07.6-2.22Z"/><path class="cls-1" d="m92.07,94.29c0-.05.01-.14.02-.25-.03.1-.04.18-.02.25Z"/><path class="cls-1" d="m83.91,114.19s0,.09.04.15c-.01-.05-.02-.1-.04-.15Z"/><path class="cls-1" d="m83.91,113.73c.25-.17.35-.8.05-1.11-.08.51-.2.94-.05,1.57.05-.19.41-.24,0-.46Z"/><path class="cls-1" d="m81.18,118.23c-.04-.39.29-.68-.08-.79-.23.05-.25.82.08.79Z"/><path class="cls-1" d="m49.73,130.38c-.42-.11-.6.1-.37.63.42-.12.11-.38.37-.63Z"/><polygon class="cls-1" points="48.88 131.22 48.78 130.95 48.44 130.58 48.88 131.22"/><path class="cls-1" d="m46.04,130.82c.01-.09.07-.2.14-.26-.15.09-.27.19-.14.26Z"/><path class="cls-1" d="m46.25,130.51s-.05.03-.07.04l.07-.04Z"/><path class="cls-1" d="m46.45,130.67v-.3s-.12.1-.2.14c.07-.03.15,0,.2.16Z"/><path class="cls-1" d="m45.2,130.79l.61.81c.51-.47-.67-.38-.21-1.34l-.4.53Z"/><path class="cls-1" d="m48.45,141.33c.85-.09,1.09-1.87,2-1.25.8-.83.42-1.11.12-1.38-.31-.28-.55-.56.26-1.46-1.03.51-.98,1.03-.93,1.57.06.54.11,1.08-.92,1.4.59,0,.51.2.26.45-.26.24-.69.49-.79.67Z"/><path class="cls-1" d="m47.34,139.98c.12.51.98.12,1.07-.31-.27.08-1.01-.34-1.07.31Z"/><polygon class="cls-1" points="51.84 138.57 52.63 138.43 52.56 138.07 51.84 138.57"/><path class="cls-1" d="m53.93,136.94l-.07.91c0-.33.77-1.03.07-.91Z"/><path class="cls-1" d="m56.85,134.48c.53-.44-.31-1.63-.79-.38l.21-.22c.13.19.94-.16.58.6Z"/><path class="cls-1" d="m58.23,126.56c-.14.33-.11.8.18.82l.05-1.04-.23.22Z"/><path class="cls-1" d="m55.05,125.66c-.87.03-.2.83-.68,1.31.39-.59.49-.47.68-1.31Z"/><path class="cls-1" d="m59.7,125.83c.26.35-.1.7-.22.92.48.03.6-.69.22-.92Z"/><path class="cls-1" d="m59.86,124.25c.4-.22.43.19.71.02.53-.55.66-1.25.31-1.72-.38.08-1.37.08-1.71-.29.02,1.08,1.38,1.99.09,2.2l1.14,1.28c.47-.79-.78-.93-.53-1.49Z"/><path class="cls-1" d="m56.62,125.56l.63-.4c-.48-.03-.44-.46-.51-.79-1.05-.16-.07.85-.12,1.19Z"/><polygon class="cls-1" points="60.61 118.59 60.64 117.46 60.49 117.79 60.61 118.59"/><polygon class="cls-1" points="61.11 117.99 61.41 118.03 61.07 117.08 61.11 117.99"/><polygon class="cls-1" points="61.74 116.97 61.66 117.08 61.76 117.76 61.74 116.97"/><path class="cls-1" d="m62.51,114.93l-.48.05c.04.28-.58.63.01.75-.13-.27.08-.76.47-.8Z"/><path class="cls-1" d="m54.57,103.81c.2.3.48.28.78.26l-.59-.58c0,.1,0,.31-.19.32Z"/><path class="cls-1" d="m56.2,103l-.51-1.07c-.46.82.12,1.19-.06,2.02.38-.23,0-.92.37-1.24l.2.29Z"/><path class="cls-1" d="m61.68,87.26c.5.25.49.04.63.78-.05-.98.33-1.7.63-2.73-.4.05-.66-.94-.67-.49l-.12,1.26-.29-.3c-.69.66.4.73-.18,1.48Z"/><path class="cls-1" d="m92.6,56.41c.01.29.25.45.49.6.54-.6-.61-.48-.49-.6Z"/></g><g><path class="cls-1" d="m108.66,141.19c-.71-.32-.23.11-.14.5l.14-.5Z"/><path class="cls-1" d="m108.52,141.7l-.1.36c.12-.1.13-.22.1-.36Z"/><path class="cls-1" d="m108.11,145.03c-.6-.75.14-1.68-.71-2.15-.51.79-.24,2,.71,2.15Z"/><polygon class="cls-1" points="108.61 143.86 108.14 143.78 108.9 144.43 108.61 143.86"/><path class="cls-1" d="m109.03,143.38l-.17.1c.16.34.34.68.51,1.02-.12-.37-.24-.75-.34-1.12Z"/><path class="cls-1" d="m107.92,147.65l-.19-.76c.58-.76.89.42,1.29-.09-.07-.95-1.35-.25-1.2-1.46-.61.13.1,1.93-.84,1.79-.22,1.04.56.01.94.52Z"/><path class="cls-1" d="m130.97,185.6c0,.06,0,.09,0,.14.05-.1.08-.18,0-.14Z"/><path class="cls-1" d="m139.79,192.45c.09.17.2.3.32.42,0-.11,0-.22-.03-.32l-.28-.1Z"/><path class="cls-1" d="m124.51,180.79c-.04-.21-.09-.38-.14-.53-.04.16-.02.33.14.53Z"/><path class="cls-1" d="m156.56,179.9c.07.02.16.03.29.01,0,0,0-.02.02-.03l-.28-.09-.02.11Z"/><path class="cls-1" d="m149.98,197.73s.04,0,.06-.07c-.02-.05-.04-.01-.06.07Z"/><path class="cls-1" d="m121.61,177.44c.04.05.07.1.11.14,0-.07-.03-.15-.06-.23l-.05.08s0,0,0,0Z"/><path class="cls-1" d="m137.46,189.38c.07.14.14.25.24.32-.06-.14-.14-.24-.24-.32Z"/><path class="cls-1" d="m108.68,159.58c-.04.24.07.4.22.54.1-.17.08-.35-.22-.54Z"/><path class="cls-1" d="m110.03,164.03s-.01-.02-.01-.02c-.1.06-.07.07.01.02Z"/><path class="cls-1" d="m110.92,166.88s-.03-.03-.04-.04c-.06.06-.07.08.04.04Z"/><path class="cls-1" d="m108.9,160.11c-.26.46-1.39.88,0,1.03l.15-.14c-.21.37.4.66.53.98.11-.07.2-.13.28-.21-.03-.17-.05-.4-.06-.76.16-.47-.52-.57-.89-.9Z"/><path class="cls-1" d="m130.76,185.72c.16-.19-.13-.34,0,0h0Z"/><path class="cls-1" d="m127.49,183.43c.07.11.14.21.22.32-.04-.12-.09-.24-.22-.32Z"/><path class="cls-1" d="m119.17,172.12s0,.05-.02.08c.13-.05.08-.09.02-.08Z"/><path class="cls-1" d="m127.92,184.01c-.08-.09-.15-.18-.22-.27.03.11.08.22.22.27Z"/><path class="cls-1" d="m120.82,175.97s0,.05,0,.07c0-.02,0-.05,0-.07Z"/><path class="cls-1" d="m120.28,131.32c.32.11.24.49.42.77,1.08-.25-1.08-.9.18-.88-.24-.18-.49-.24-.74-.27l-.18.9c.66.12-.13-.46.33-.51Z"/><path class="cls-1" d="m156.87,175.61l-.02.14c.32-.22.45-.19.47-.69-.68-.16-1.24.74-2.09.32.11.1.16.3.16.51.37-.46.97-.39,1.49-.27Z"/><path class="cls-1" d="m155.38,175.88s-.02.02-.03.03c-.06.06-.11.11-.15.17.03.1.04.2.02.29.11-.13.16-.31.16-.5Z"/><path class="cls-1" d="m127.55,138.88c.06.1.11.19.16.28.01-.22-.05-.28-.16-.28Z"/><path class="cls-1" d="m146.08,210.03c-.08-.13-.15-.26-.22-.38-.07-.13-.14-.24-.22-.27.12.14.19.4.26.49.07.11.13.16.18.17Z"/><path class="cls-1" d="m157.91,183.28c-.05.11-.08.23-.1.35.02.07.04.13.06.21l.04-.56Z"/><path class="cls-1" d="m142.07,166.34c.84-.45-.15-.08-.04-.75l-.63.04c.13.37.47.51.67.71Z"/><path class="cls-1" d="m120.15,130.86s-.03.04-.06.06c.01,0,.02,0,.04,0v-.07Z"/><path class="cls-1" d="m132.62,157.99c-.03-.09-.05-.16-.09-.24,0,.07.02.15.09.24Z"/><path class="cls-1" d="m156.03,178.63c.18.61.33,1.24.43,1.87.04-.2.08-.4.11-.6-.49-.15.09-1.18-.54-1.27Z"/><path class="cls-1" d="m145.12,171.71l-.44.38c1.74.69.83,2.97,2.88,3.55-1.1,2.64,2.14.59,1.23,3.11l.24-.17.42,1.21c.11.32.17.56.23.82.11.51.15.92.16,1.44l.02,2.07c0,.44,0,.81.04,1.34.03.55.08,1.07.14,1.57.27,2.02.6,3.45.73,4.4l.09.68.04.32.04.58c.06.78.15,1.54.27,2.3h-.4s-.08,1.31-.08,1.31c0,.04,0,.14,0,.14h0s-.02.04-.02.04l-.03.05c-.04.06-.07.1-.09.14-.04.08-.05.16-.06.27,0,.11,0,.26-.01.44,0,.09-.02.18-.05.27-.01.05-.03.09-.05.13-.02.01-.04-.01-.06-.02-.08-.1-.09-.39-.23-.65-.1.44-.16,1.68-.38,2.08-.06-.13-.23-.27-.08-.82.18-.19.23-.77.31-.97-.05-.02-.06-.22-.07-.32-.02-.11-.04-.11-.26.09-.1.2-.18.41-.25.64-.2.17-.21-.09-.24-.17.22-.24.63-.8.76-.89-.02.05-.1.04-.07.12-.08-.02-.16-.04-.23-.06-.15-.04-.28-.08-.39-.12-.23-.09-.41-.18-.54-.28-.26-.2-.37-.43-.45-.69-.16-.5-.23-1.08-1.27-1.44-1.12.82-3.84.39-5.45.6l-.45-.67c.83.5.48-.86,1.49-.19-.68-.85-1.76-.81-2.44-1.47-.02.38-.29.74-.68.67-.39-.45-.07-1.05-.57-1.44l.75-.03c-.09-.65-.74-.27-1.1-.41.19-.54-.48-1.12,0-1.55-1.08.19-1.05-.32-1.99-.42.32.99-.63.45-.84.87.3.15.62.29.93.43-.91-1.14.43.2.9-.66.3.75-1.67.75-.66,1.28-1.4-.41-1.36-.9-2.91-1.19.75.42-.54.37-.38.89-.84-.7.02-.43.18-1.11-.45-.37-.2-.89-1.07-.77-.42-.86.61-.4.58-1,.35-.11.62.46,1,.85.39.38.85.58,1.45-.31.36.27,1.27-.02,1.77.4-.31-.56-.45-1.57-1.23-1.62l-.81.86c-.4-.31-1.02.19-1.23-.15.38-.11.48-.71.14-.93-.04.2.1.29-.08.4-.3-.24-.61-.24-.94-.27-.17-.01-.34-.02-.54-.07-.21-.07-.42-.18-.65-.36.4.94.16,1.22.34,2.16-.76.42-.47-.33-.85-.61.13-.02.21.04.25-.17-.2-.03-.43-.09-.65-.14-.49-1.12,1.02-.66.69-1.66.1-.96-.89-.44-.93-1.09-.04.07-.07.15-.1.21-.06-.1-.1-.17-.12-.23-.01.02-.02.03-.04.04-.5-.39-.88-.94-1.47-.68.17-.23-.42-.36-.7-.39-.42-.1-1.52-.26-1.09-1.3.02,0,.02.02.03.03-.41-.67-.57-1.33-.2-1.42l-.62-1.11.7-.42c-.91-.72-1.2-.33-2.34-.38-.16-.93-1.41-1.77-1.95-1.97-.03-.09-.11-.19-.27-.33l.04.55c-.5-.68-.77-.33-1.12-.76.01.14-.01.18-.11-.14-.05-.08-.1-.17-.15-.29.09-.03.15.08.2.2l.15-.25c.25-1.03-1.01-.53-1.19-1.3.06.04.18.1.21.17-.06-.46.55-1.58-.12-1.32.02-.13-.18-.16-.4-.18-.03-.1-.04-.21-.06-.32.03.12.04.23.05.31-.3-.02-.63-.02-.5-.13l-.42-.96c0-.23-.23-.4-.44-.53l.2-.32c-.24-.29-.06-.4.04-.41.42-1.7-1.53-1.46-1.21-3.2-.62,0-.6.64-.85.81-.48,0-1.19-.59-1.65-.84.42-.92.33-2.98,1.48-3.1-.36-1.09-.5.59-1.08.2v-.14c.02.42-.21.86-.52,1.23-.52.32-1.1-.6-1.05-.97l.88-.1c-.66-.92-1.78-.26-2.84-.63.01-.97.92-.73,1.59-1.16-.18-.27-.34-.54-.5-.81l.61-.2c-.34-.52-.96-.47-.96-1.35.75.4.22-1.36,1.24-.79.09-.49-1.14-.29-.38-.74-.74-.13-.23.49-.37.77-.9.45-.72-.85-1.11-1.33.48-.17.68.2.84-.51-.41-.03-.82-.36-.43-.84-.63.15-.29-.69-.33-1.06-.03.43-.36,1.13-.96.99-.32-.26-.51-.51-.59-1.27l-.18.57c-1.07-.45.43-1.2-.02-2.02.45.3.49.53,1.01.76-.37-.35-.98-1.05-1.39-1.65l.8-.9c-.48-.02-.08-.84-.72-.74.29-.99.87.63,1.35.64.26-1.2-1.19-.76-.38-2l.65.28c-.01-.37-.45-1.05-.15-1.14-.21.03-.11.2-.08.43-1.31-.06-1.08-1.6-2.39-1.32l-.03.53c-.34-.77-1.32-1.26-.89-1.92.39-.51.92.26,1.29.5.01-.75-1.51-.48-1.45-1.4-.18.49-.66.44-1.02.18-.05.54-.21,1.68.33,1.43l.11-.2c.35.02.51.29.69.42.08.72-.56.4-.8.57-.08,1.23,1.33-.04,1.41,1.05l-.24.17c.4.48.57,1.28,1.4,1.3-.78.59.5,1.16.09,1.75-1.87.4-.15-1.84-1.26-2.31-.3.62-.95-.21-1.4-.4l1.07,1.71c-.23.18-1.09.86-.36,1.08l.02-.15c.34.68,1.07.36.93,1.02-.15.13-.48-.01-.62-.04-.07.6.51.4.75.75-.06.6-.81-.14-.93.38.83.53.04,1.08.21,1.65,1-.46,1.93,1.92,2.57.5.33.39.68.77,1.03,1.14-.43.55-1.7-.54-2.48.04-.09-.36-.14-.73-.21-1.09-1.28.5,1.4,2.05.16,3.14.1.6.24.4-.06,1.68l1.08-.53c-.09.64-.65,1.02-.85,1.11.18.31.24.62.29.94-.19-.02-.38-.09-.5-.27-.5.64-.21.69.18.72.37.13.45.49.57.85l-.53-.17c.17.18.39.41.6.35.06.14.13.27.25.38.16-.17.73-.64.84-1.24,0,1.45.66,2.33.21,3.81-.33.1-.92-.2-.9-.04.07.63.88.99,1.33.72.09.11.14.2.19.28-.22.23-.45.49-.37.77-.07.11-.11.24-.05.45.94-.23,1,1.02,1.51,1.04-.05-.28-.19-.58-.36-.86.77.16,1.6.19,1.33.74-.96-.5-.42,1.29-1.29.23-.6,1.4,1,.03,1.1,1.11l-.1.8c-.64.25-.81-.76-.96-.5l.29.36c-.67-.15-1.21-1.82-2.34-2.46.19.7.39,1.42.63,2.11.51.51.93,1.1,1.35,1.72.43.61.84,1.24,1.25,1.86.41.62.9,1.17,1.4,1.66.5.49,1.06.88,1.73,1.08-.02-.02-.05-.04-.08-.06.08,0,.19-.07.42-.21l-.07.19.69.03c-.19.79.33,1.66.43,2.54q.01-.64.37-1.01c.59-.38.86-.51,1.13.2-.37.32-.64-.02-.6.63,0-.36.43-.4.67-.21.02.51.4,1.06.03,1.38-.22-.05-.19-.28-.22-.42-.22-.06.15.86-.51.7l.58.46c-.04.59-.67.2-.76.5,1.03.7,2.29.43,3.25,1.04-.23.13-1.07.83-.82.63.29.85,2.07.59,2.76,1.26-.34.1-.47-.25-.78-.37.81,1.22,1.55,2.33,2.27,3.42.64,1.03,1.45,2.43,2.28,3.91.46-.08.92-.18,1.36-.28.03.37.08.73.13,1.1,2.13,2.69,4.66,3.32,7.2,4.44.78.38.05.94.24,1.41.39.27.74.4,1.07.48.32.07.6.06.91.05.59-.02,1.22-.07,1.92.28-.38.15-1.21.75-.73,1.15.29-.2.65-.55.85-.15l-.37.15c-.02.61.54.45.96,1.1l.19.15.1.07.03.02.08.06.1.08c.26.22.52.44.78.63.51.42,1.02.78,1.51,1.11l.36.22c.12.07.22.19.33.28.21.2.44.3.63.51.38.47.75.76,1.17.79.29.65.43,1.02.46,1.31.02.3-.08.49-.22.64-.29.34-.71.12-.62.62-.21-.7-.37-1.1-.48-1.35-.1-.26-.17-.34-.23-.33-.12.02-.2.41-.37.38.14.24.29.51.42.78.16.24.32.5.45.8.14.29.24.66.33,1.02.1.34.17.75.2,1.23.23.31.43.62.62.84.19.17.36.32.54.44.35.25.71.33,1.13.19-.44.12-.77-1.09-.34-1.42.32.61.91,1.18,1.31,1.79.41.61.66,1.24.69,2.23,1.09,1.06.95,1.46,2.05,2.73.12-.04.27-.11.43-.19.17-.09.36-.18.58-.49.44-.52.83-1,1.21-1.48.74-.95,1.38-1.85,2-2.77.14-1.21-.39.21-.35-.55.2-1.67.62-.25.73-1.65l.14.97c.7-1.01.62-3.56.56-5.38.4.9.71-.53.67.97.07-.36.67-.04,1.28.2.6.25,1.18.39,1.02-.21-.8-.52-1.58-1.1-2.34-1.73-.19-.28.14-1.08-.03-1.15.55-.08,1.23-.38,1.31-.86.63.29.3,1.42.13,2.02.93,1.17,1.08-1.68,1.77.19.16-1.71-.54-.25-.73-1.5l.43-1.18-.5.77c-.12-1.39-.88-2.25-.17-3.37-.31-.72-.62-1.39-.96-2.04.86.21.2-1.04.39-1.75l.55.66c-.02-1.12.12-1.5.44-2.19.76.76-.18,1.02.54,1.44l.25-1.3c-.49-.06-.87-.88-1.17-.02-.23-.29-.44-.56-.64-.83-.2-.25-.38-.54-.52-.69-.29-.37-.47-.87-.43-1.68.84-.73.74.79,1.57.49.35-1.7-2.17-2.03-2.07-3.11.29-1.56-.49-1.44-.75-2.84.64.35.43-1.1.9-1.43.23.14.46.28.69.43-.26-.4-.12-.83.31-.8-.37.12-.64-.29-.87-.77-.24-.49-.43-1.05-.67-1.39l-.62.24c-.33-.57-.83-1.31-.72-2.09-.3-1.06-.86-.79-1.65-1.57.54-.54,1.23-.59,1.97-.5-.29.36-.05.88-.21,1.38.34.65.88,1.28,1.31,1.7.43.44.78.87.74,1.51,1.66.21-.36-.8.14-1.38.1,0,.13.03.15.07,0-.05,0-.09.03-.13.23.33.61.94,1.43.9-.28-.61-1.67-.23-1.1-1.08-.25-.21-.08-.56.17-.88.25-.31.56-.61.6-.84-.65-.5-1.89-.34-1.82-1.85l.96.56c-.09-.86-.46-1.06-.81-1.2-.36-.15-.68-.26-.86-1.1.03.6-.97-.34-.76.73-.56-.43-.94-1.49-1-2.35-.2-.15-.3.06-.6.13-.28,1.02,1.04,1.2.35,2.15.36.13.71.28,1.07.44-.2.93-.97,1.06-1.41.65.07.21.23.39.08.57-1.41.33.38-1.01-.89-1.07l.2.51c-.88.36-1.01-1.04-1.17-1.69.2-.85.06-1.58.67-1.89.23.29.45.6.67.91.16-.36-.04-.68-.31-.95-.27-.27-.58-.48-.68-.76.07-.07.12-.15.13-.23-.04.05-.09.09-.16.11-.02-.13.02-.26.14-.41-.16-.48-.82-1.03-.79-1.56l-.54.28.34-.06c.15.45.04,1.18-.52,1.02-.78-.84.23-1.47.63-1.9.96-.11.37.98.87,1.36.74-.64-.3-1.03-.15-2.3,1.11.05.46,1.21,1.41,1.09-.16-.89-.92-.85-1.03-1.83.48-.06.87.79,1.4.51l.04-.68c.61,1.39,1.07-.71,1.73.3.18-.67-1.05-.42-.76-1.41-.32.38-.83,1.27-1.48.71l-.06-.93c.31-.54,1.35.45,1.51-.24l-.69-.75c-.26.15-.22.63-.72.53.08-.63-1.42-.37-2.1-.76-.19-.47-.32-.87-.09-1.19-1.37-.78-2.16-2.21-3.52-2.74.94.35.86-.58.96-1.25.62.72,1.43.24,1.9-.15-.42-.46-1.44-.25-1.54.18-.23-1.03-.91-.19-.88-1.25-.06-.64.92-.32,1.1-.68-.61-.9-1.09.43-1.61-.62.14-.03.23.03.32-.15-.22-.63-1-.86-1.44-.66.52-1.3-1.3-1.3-.33-2-1.25-.89-.33.61-.84.67-.79-.09-1.23-1.18-1.35-1.56.27.23.74.25.85.63l.39-.8c-.89-1.75-2.14.5-2.9-1.21.95.29.65-.26,1.38-.38-.34-.04-1.2-1.15-1.02-.11-.43-.5-.68-.91-.91-1.32-.63-.12-1.23-.34-1.82-.14-.6-.63-.7-1.49-.78-2.04-1.77-.72-2.39-2.57-4.25-3.29l.07.13c-1.03-1.06-.21,1.26-1.36.27.81-.65-.26-1.11-.29-1.84-1.09-1.59-2.94-1.48-3.79-3.1.15-.15.4-.28.66-.09-.78-1.08-1.7-1.6-2.54-2.39l.12-.06c-.48-.96-.97-1.34-1.68-1.79-.69-.43-1.5-.83-2.24-1.43.2.02.5-.21.68-.22-.47-.83-1.44-2.1-2.62-2-.13-1.59-.76-.37-1.24-2.24.06-.2.24,0,.35.05-.35-.83-.87-1.17-1.47-1.87-1.9-.79-3.06-.01-4.35-1.53.77-1.16,1.15.46,1.88-.37-.47-.06-.91-.05-1.12-.63.58-.23.26-.23.75-.49-.1-.54-2.13.16-2.04.07-.18.2-.18.39.13.58-.88.4-1.42-1.04-2.22-1.3.17.19.64.94-.03,1.23-.66-.95-1.79-.2-2.76-.38-.24-1.16,1.34-.28,1.89-1.13.12-.37.43-1.17.95-1.18-.22-.36-.51-.45-.84-.51-.33-.08-.72-.13-1-.34l.23-.15c-.61-.61-2.21-1.03-2.13-2.13l-.06.58c-.23-.09-.41-.62-1.05-.69.43-.16.49-1.02.96-.89-1.55.16-1.9-2.2-3.43-2.29.2-.46.86-.43,1.21-.46.2.81.03,1.17.73,1.33-.27-.6-.11-1.21.23-1.24-1.08-.27-2.11-1.75-2.99-1.53.3-.53.44-.93,1.2-1.02-.41-.64-.94-.37-1.41-.06-.45.29-.89.61-1.1-.44.56-1.04,1.13.69,1.16-.58l.15.2c1.81-1.14-1.48-.4-1.51-1.56,1.05-.21.81.69,1.52-.09-.32-.93-1.9-1.4-1.55-2.47l.45.18c-.08-.68.19-2.03.12-2.75.21-.03.18.07.23.21.44-1.32-.52-.56.22-1.65l-.51-.32c-.37.56-.91,1.6-.33,2.29-.59-.7-1.38,1.02-2.27.65l.36.15c-1.6,1.72-1.91,4.08-1.96,6.81,1.35,1.33.51,3.06,1.73,4.05,1.24-.25.33.16,1.07,1.28-.41-.58-.91.28-.89.76.39.12.63.37.86.62-.3.4-.47,2.46.61,2.68.06.97-.46,0-.76-.06-.41.61.78.42.54.88,0,0-.12.05-.22,0,.72,1.2.89,2.12,1.73,3.49.52-.32.85-.1,1.15.24.31.32.62.79,1,.85-.43.13.26.91.41,1.35.4-.05.79-.1,1.17-.16,1.05-.1.42,1.08,1.4,1.34l-.03-.31c.75.15,1.64,1.76,1.7,2.64,1.48.41,2.52.98,3.3,1.74.8.77,1.39,1.7,1.95,2.71.56,1.01,1.11,2.09,1.87,3.21.38.56.82,1.12,1.35,1.68.26.28.56.56.87.83.33.28.66.55.97.76.55,0,.18-.66.78-.86.57.31.65.44,1.1.81-.17-.58-.38-.22-.11-.43l-.89-.32c.03-.1.12-.06.17-.25-.3-.11-.71-.15-1-.49.67.18,1.35-.43,1.69.32-.12.06-.22.02-.42-.05.42.46.72.15.92.63.3.52.37.22.18.56l1.02,1.51c1.36-.26,1.52,1.22,1.68,1.47-.66.5-1.05-.55-1.89-.23l.11.86.44-.47.58.71-.12.06c.24-.12.49-.25.52.07-.03.09-.07.28-.17.25l.72.14c-.71.27.3.51-.26,1.04,1.35,1.63,2.7.9,3.42,2.87,0-.47,1.22-.56,1.56-.1.13.35.08.54-.27.63l.81.17c-.08,1.51,1.1,1.49,1.84,2.66l-.27.21c.63.01,1.24.12,1.71.69l-.55.42c.36.95,1.45-.63,1.85.32.49-.54.3-1.21.69-1.8-.32.7.35,1.46.53.92.9.42.46.46.4.64l.7.06c.44.49-.52.82-.98.96.98-.14,1.05.72,1.41,1.29l-.43.03.49.73c.8.04,1.36.63,1.57,1.38l-1.06.21c-.08.69.42-.01.63,0,.86.34.44.88.23,1.52.77.21.79.96.8,1.62.02.68.03,1.28.91,1.39Zm-26.18.93l-.05.18c-.3-.17-.52-.23.05-.18Zm4.31,6.45c-.93-.5-.37-.56-.22-.79.42.9,1.01,1.11,1.32,1.96.06-.23.24-.42.33-.55.19.29.25.68-.05,1.09-1.01.31-1.24-2.4-1.39-1.71Zm-13.09-13.65c.08,0,.17.02.24.04h0s-.25-.04-.25-.04Zm2.65,4.39c-.16.15-.21.31-.21.48.19-.19.35-.36.21-.48Zm4.06,9.38c-.19.43.23.81.56,1.06-.08-.17-.2-.5-.56-1.06Zm41.73,28.16c.05.5.2,1.61.58,1.29-.21-.65.43-.64.04-1.43.02-.02.03-.01.05-.02-.35.07-.63.07-.67.15Zm-5.5-30.65c.39-.1.87-.06,1.09-.3,0,.03,0,.06,0,.09.1-.12.18-.22.28-.2-.01-.24-.01-.51-.18-.62-1.23.4-1.6.02-1.19,1.02Z"/><path class="cls-1" d="m160.32,185.05c-.04-.08-.03-.15-.06-.2,0,.06.02.11.06.2Z"/><path class="cls-1" d="m154.31,175.75c-.08.01-.1.31-.11.68.12-.12.18-.32.11-.68Z"/><path class="cls-1" d="m111.13,148.98l.16.26.33-.59c-.5-.88-1.06-.89-1.72-1.07.66.79.4,1.33.7,2.38l.54-.99Z"/><path class="cls-1" d="m106.91,149.88c-.16.12-.56.4-.59.56l.4.1.18-.66Z"/><path class="cls-1" d="m107.16,161.82l.09-1.02c-.41-.21-.71,1.03-.09,1.02Z"/><path class="cls-1" d="m112.83,156.31l-.51-.37c-.27.48-.09,1.01.38,1-.37-.49.22-.19.13-.63Z"/><path class="cls-1" d="m107.81,164.34c.83.05-.04,1.03.72,1-.28-.18.04-1.18-.72-1Z"/><path class="cls-1" d="m114.65,161.58c.62-.47-.14-.71-.1-1.29.1.44-.45,1.26.1,1.29Z"/><path class="cls-1" d="m111.61,168.42c-.53.17-.65-.22-.7-.68.22.08.49.07.65.22-.69-.53-.61-.61-1.06-1.08-.17.7-.06,1.64-.73,1.8.66.23,1.58.44,1.84-.26Z"/><path class="cls-1" d="m115.12,162.8c.07-.5.48-.91.28-1.4-.34.2-.82.53-.55,1.11l-.68-.02c-.27.71.75-.48.95.31Z"/><path class="cls-1" d="m111.35,171.56l.14-.4c-.79-.42-.89-1.38-1.81-1.43.36.8,1.13,1.64,1.67,1.84Z"/><path class="cls-1" d="m114.73,165.3l.87-.23c-.1-.64-.27.15-.55,0,.06-.22.04-.5-.16-.57.37.64-.67.29-.17.79Z"/><path class="cls-1" d="m116.42,166.87l.66.59.67-.96c-.67-.72-.53.17-1.33.37Z"/><path class="cls-1" d="m116.25,168.03l-.12.15c.58.19,1.16.37,1.73.53-.81-.41-.76-.48-1.61-.69Z"/><path class="cls-1" d="m119.9,184.2c.39-.14.27-1.02.15-.5-.34.1-.07,1.18-.15.5Z"/><path class="cls-1" d="m123.47,177.23c-.05.43,1.15.98,1.69,1.21-.27-.18-.63-.59-.95-.9-.3-.3-.56-.5-.74-.31Z"/><path class="cls-1" d="m125.38,178.53s-.12-.05-.22-.09c.08.05.15.09.22.09Z"/><path class="cls-1" d="m140.97,191.21c.05.02.11.02.18-.01-.06,0-.11,0-.18.01Z"/><path class="cls-1" d="m140.44,191.15c-.21-.28-.87-.42-1.19-.13.53.1.97.24,1.72.18-.22-.08-.3-.47-.53-.06Z"/><path class="cls-1" d="m144.67,193.9c-.39.05-.68-.27-.78.11.06.23.81.22.78-.11Z"/><path class="cls-1" d="m162.29,203.95c.27-.75.15-1.33-.42-1.38-.06.92.31.59.42,1.38Z"/><path class="cls-1" d="m161.8,201.45h.28s.44-.42.44-.42c-.24.15-.48.3-.73.42Z"/><path class="cls-1" d="m162.65,196.1c.09.02.19.11.25.2-.08-.19-.16-.34-.25-.2Z"/><path class="cls-1" d="m162.93,196.4s-.02-.06-.04-.09c.01.03.02.06.04.09Z"/><path class="cls-1" d="m162.75,196.61l.3.04c-.04-.05-.08-.16-.12-.25.02.09-.02.18-.18.22Z"/><path class="cls-1" d="m162.75,195.12l-.86.63c.42.65.44-.74,1.35-.1l-.5-.53Z"/><path class="cls-1" d="m162.51,192.93c.07-.17.04-.28-.03-.53-.07-.25-.18-.5-.28-.74-.19-.47-.31-.87.17-1.15-.39-1.14-.81-.91-1.19-.78-.39.15-.76.21-1.14-.88-.07,1.09.43,1.33.94,1.54.5.21,1.03.42.78,1.58.3-.56.43-.39.52,0,.04.18.07.45.1.62.03.15.07.28.13.35Z"/><path class="cls-1" d="m160.81,193.21c.25.05.39-.11.42-.32.02-.1,0-.22-.03-.32-.04-.11-.1-.26-.18-.33-.05.35-.76.65-.21.97Z"/><polygon class="cls-1" points="161.69 188.6 161.96 187.92 161.61 187.83 161.69 188.6"/><path class="cls-1" d="m161.46,186.45l.68.37c-.26-.13-.37-.85-.68-.37Z"/><path class="cls-1" d="m161.81,184.2c.08-.13-.23-.38-.51-.37-.14,0-.27.03-.35.12-.07.09-.09.26,0,.41l.03-.16c.21.03.65-.46.82,0Z"/><path class="cls-1" d="m158.4,177.12c.12.39.44.83.68.66-.21-.35-.43-.69-.65-1.01l-.03.35Z"/><path class="cls-1" d="m155.34,178.41c-.68.57.36.82.25,1.52-.03-.73.11-.69-.25-1.52Z"/><path class="cls-1" d="m159.03,175.55c.38.02.39.62.44.91.39-.31-.04-1.04-.44-.91Z"/><path class="cls-1" d="m158.26,174.4c.21-.39.45-.11.59-.4.12-.71-.17-1.31-.73-1.49-.27.29-1.07.85-1.56.76.65.85,2.25.75,1.34,1.62l1.64.2c-.07-.78-1.15-.16-1.27-.69Z"/><path class="cls-1" d="m156.49,177.31c.07-.25.14-.51.22-.72-.39.28-.62-.06-.87-.26-.92.54.44.65.65.98Z"/><path class="cls-1" d="m155.46,169.23c-.25-.35-.51-.71-.77-1.06l.13.4.64.66Z"/><polygon class="cls-1" points="155.42 168.33 155.68 168.17 154.73 167.52 155.42 168.33"/><path class="cls-1" d="m155.12,166.94l.03.16.59.58c-.2-.25-.41-.5-.62-.74Z"/><path class="cls-1" d="m153.93,164.42l-.25.44c.28.23.18,1.05.67.7-.32-.16-.62-.78-.42-1.14Z"/><path class="cls-1" d="m140.21,165.15c.34-.08.45-.33.56-.6l-.74.33c.09.03.26.1.18.27Z"/><path class="cls-1" d="m140.2,163.41l-1.15.1c.55.69,1.1.29,1.74.73-.03-.43-.79-.3-.92-.75l.33-.08Z"/><path class="cls-1" d="m127.79,151.98c.42-.37.22-.44.94-.3-.9-.3-1.4-.88-2.22-1.48-.1.38-1.07.35-.67.49l1.08.48-.37.18c.33.84.8-.14,1.25.64Z"/><path class="cls-1" d="m106.28,114.03c.27.1.51-.03.76-.15-.3-.64-.7.28-.76.15Z"/></g><g><path class="cls-1" d="m61.71,216.95c.03.43.1.45.21.31.12-.16.29-.49.49-.73-.23.15-.47.29-.7.42Z"/><path class="cls-1" d="m62.41,216.53l.47-.34c-.19.03-.34.17-.47.34Z"/><path class="cls-1" d="m65.64,212.4c.02,1.35-1.36,2.24-1.12,3.36,1.22-.8,1.9-2.73,1.12-3.36Z"/><path class="cls-1" d="m64.36,213.75l.34.36c-.05-.43-.09-.84-.17-1.26-.04.3-.11.6-.17.9Z"/><path class="cls-1" d="m63.62,214.16l.22-.03c.14-.54.24-1.07.32-1.6-.15.55-.33,1.1-.54,1.64Z"/><path class="cls-1" d="m67.32,208.75c-.08.39-.15.78-.23,1.17-.96.84-.58-.96-1.23-.4-.47,1.36,1.12.91.23,2.58.3.05.6-.66.87-1.3.27-.64.55-1.22.95-.93.76-1.42-.51-.24-.59-1.12Z"/><path class="cls-1" d="m28.84,214.41c-.06.03-.09.07-.14.1.12-.01.21-.04.14-.1Z"/><path class="cls-1" d="m25.96,231.76c-.12.24-.21.48-.27.71.1-.06.2-.15.29-.26l-.02-.45Z"/><path class="cls-1" d="m32.84,203.83c.24-.15.43-.31.6-.45-.19.03-.39.15-.6.45Z"/><path class="cls-1" d="m77.49,253.17c.02.08.07.16.15.25,0,0,.02,0,.04-.01l-.07-.32-.12.09Z"/><path class="cls-1" d="m29.14,250.43c.08.25.19.49.32.69-.12-.42-.22-.61-.32-.69Z"/><path class="cls-1" d="m36.84,198.57c-.07.08-.12.14-.18.21.08-.04.19-.11.29-.2l-.1-.02s0,0,0,.01Z"/><path class="cls-1" d="m27.96,225.87c-.1.25-.18.48-.2.68.11-.23.16-.46.2-.68Z"/><path class="cls-1" d="m64.97,190.39c-.18-.34-.42-.56-.69-.69.06.27.22.52.69.69Z"/><path class="cls-1" d="m58.87,185.62s.03,0,.04.02c0-.12-.02-.11-.04-.02Z"/><path class="cls-1" d="m53.57,184.3s.07-.02.1-.03c-.07-.08-.11-.09-.1.03Z"/><path class="cls-1" d="m64.28,189.71c-.15-.71.53-1.75-.99-1.37v.24c-.16-.57-1.06-.66-1.53-.97-.03.13-.04.25-.03.38.21.19.47.45.84.89.3.66,1.05.51,1.72.83Z"/><path class="cls-1" d="m28.64,214.25c.25.04.3-.39,0,0h0Z"/><path class="cls-1" d="m30.22,208.93c-.1.15-.2.3-.3.46.13-.13.25-.26.3-.46Z"/><path class="cls-1" d="m43.61,193.42s-.07,0-.1,0c.05.13.1.07.1,0Z"/><path class="cls-1" d="m29.67,209.82c.08-.15.17-.29.25-.43-.12.11-.22.24-.25.43Z"/><path class="cls-1" d="m38.71,196.85s-.07.02-.09.04c.03,0,.06-.02.09-.04Z"/><path class="cls-1" d="m113.39,170.53c.04.49-.34.72-.51,1.15.71,1.14.33-2.07.88-.5.07-.45,0-.82-.09-1.16l-.89.52c.19.92.36-.55.61-.02Z"/><path class="cls-1" d="m82.23,250.01l-.17.09c.37.14.39.3.98-.1-.06-.82-1.31-.66-1.12-1.87-.08.2-.3.41-.54.58.67,0,.8.67.85,1.3Z"/><path class="cls-1" d="m81.38,248.72s-.03,0-.05,0c-.09-.02-.17-.02-.25-.01-.1.11-.22.21-.34.27.19,0,.43-.09.65-.25Z"/><path class="cls-1" d="m111.24,185.1c-.06.22-.11.37-.16.51.19-.2.21-.37.16-.51Z"/><path class="cls-1" d="m18.72,252.01c-.14-.2-.28-.39-.41-.54.13.33.27.47.41.54Z"/><path class="cls-1" d="m74.76,257.66c-.19.09-.36.21-.54.32-.09.09-.16.18-.27.28.27-.19.55-.39.81-.61Z"/><path class="cls-1" d="m87.45,224.44c.61.79.08-.27.9-.61l-.09-.82c-.43.44-.58,1-.81,1.43Z"/><path class="cls-1" d="m113.73,169.98s-.05,0-.08-.02c0,.02,0,.03.02.06l.07-.04Z"/><path class="cls-1" d="m95.41,207.13c.08-.09.15-.17.22-.25-.07.04-.15.12-.22.25Z"/><path class="cls-1" d="m78.52,251.6l-1.7,2.02.67-.45c-.13-.57,1.24-.93,1.03-1.56Z"/><path class="cls-1" d="m80.8,234.15h-.62c-.08,1.59-.75,2.84-1.31,3.92-.57,1.09-1.02,1.97-.67,3.05-.73.25-1.02.43-1.12.64-.1.22,0,.47.09.72.05.13.09.26.12.39-.02.17-.07.35-.16.52-.2.34-.6.66-1.44.97l.28.1c-1.68,1.89-3.26,3.74-4.82,5.41l-1.17,1.21c-.18.18-.41.42-.55.54-.12.11-.24.21-.37.31-.52.4-1.17.79-2.13,1.31-.93.51-2.15,1.15-3.43,2.02l-.87.61-.78.57c-.51.38-1.02.78-1.51,1.18-.99.8-1.94,1.64-2.83,2.5l-.66.65-.32.33-.18.2c-.21.23-.4.44-.61.64l-.2-.34c-.38.19-.81.36-1.42.56-.61.2-1.37.42-2.26.68l-2.48.75c-.76.22-1.49.41-2.16.56-1.36.3-2.49.43-3.61.38-1.09-.03-2.34-.27-3.53-.64-2.35-.74-4.44-2.08-6.04-3.94-.4-.47-.76-.96-1.12-1.49-.37-.59-.73-1.2-1.06-1.84-.66-1.28-1.23-2.67-1.71-4.14-.72-.99-1.34-.03-2.07-.88-.11-.44-.44-1.43.03-1.57.5.77.78.17,1.05.41-.47-1.37-.37-3.34-1.24-4.53l-.37,1.24c-.38-.45-.38-1.3-.45-1.77.36.13.89-.69,1.13-.32-1.06-1.23-1.01-1.88-.78-2.29.21-.46.56-.86.15-1.83-.68-.14-1.36-.85-1.95-1.84-.58-.98-1.08-2.21-1.5-3.24l.41-1.02c-.1,1.38.97.04.82,1.72.45-1.37-.02-2.73.33-4.08-.36.23-.8.12-.89-.45.27-.83.96-.83,1.14-1.79l.31,1.01c.58-.58-.02-1.22-.02-1.84.58-.12.87-1.59,1.46-1.25-.59-1.44-.1-1.87-.4-3.42-.77,1.48-.69-.48-1.17-.36v1.76c.68-2.39.02.81.99.74-.58,1.08-1.37-1.75-1.46.16-.1-1.16-.03-1.86,0-2.57.02-.34.02-.74-.01-1.11-.03-.37-.09-.8-.21-1.36,0,1.3-.58-.34-.97.3.21-1.66.39-.36,1.08-.75.17-.88.74-1.07.25-2.03.67-1.32.64.39,1.21-.21.13.17.07.47-.04.84-.1.37-.22.81-.34,1.22-.21.84-.11,1.58.95,1.55-.02.17,0,.36.06.55.03.1.06.2.09.3.03.13.07.26.1.39.14.54.26,1.13.17,1.72.2-.5.52-1.12.74-1.79.23-.61.36-1.05.19-1.61l-1.16-.25c.12-.8-.62-1.13-.39-1.71.28.39.85-.06.95-.72-.21.14-.25.41-.43.29.25-1.23-.51-1.63-.2-3.18-.35.56-.64.88-.94,1.19-.28.31-.59.61-1.01,1.14-.71-.54.11-.88.22-1.61.07.14.05.29.27.13l-.13-.86c.87-1.45,1.07.58,1.89-.55.99-.6.09-1.32.73-1.83-.09.01-.18.03-.25.04.08-.14.14-.23.2-.3-.02,0-.04,0-.06-.01.25-.84.68-1.66.25-2.16.3.04.27-.73.23-1.08-.02-.56-.05-1.97,1.17-2.13,0,.02-.02.03-.02.05.67-.91,1.39-1.48,1.55-1.1.37-.47.78-.91,1.17-1.37l.57.6c.68-1.46.23-1.58.19-2.98,1.06-.68,2-2.53,2.27-3.33.11-.08.23-.24.41-.52l-.68.34c.83-.99.42-1.13.97-1.79-.17.09-.22.08.18-.21.11-.1.21-.22.37-.34.04.09-.1.22-.26.34l.31.06c1.33-.2.68-1.52,1.67-2.13-.05.1-.13.27-.21.34.59-.31,2.03-.17,1.69-.83.16-.03.2-.27.21-.53l.38-.2c-.15.09-.27.15-.38.2.02-.35,0-.74.15-.63.39-.3.8-.58,1.21-.85.28-.09.53-.38.71-.66l.4.13c.41-.34.52-.17.52-.06,1.07,0,1.57-.46,2.14-.94.56-.48,1.2-.96,2.32-.87.16-.66-.72-.6-.89-.84.13-.53,1.15-1.31,1.65-1.8,1.16.4,4.18.32,4,1.53.26-.05.46-.11.48-.14.09-.06.04-.17-.07-.29-.21-.19-.78-.38-.35-.7.08,0,.14,0,.18,0-.58,0-1.18-.23-1.61-.56-.23-.42.64-.87,1.26-1.01.17-.04.32-.03.42-.01-.05.3-.09.6-.12.89.57-.27.82-.64,1.05-1.12.23-.47.43-.98,1.06-1.35,1.35.63.33,1.21.43,2.02.41.05.84.1,1.26.21l-.25.59c.78.16,1.27-.28,2.15.56-.52.02-.23.39-.01.75.22.37.35.74-.32.73.33.53,1.27-.34.96.53.77-.25-.2-.63-.33-.98.38-.96,1.43.48,2.14.88-.33.41-.77.07-.41.94.4-.15,1.03.1.96.79.25-.2.43-.01.57.27.13.3.19.63.31.9-.1-.32-.14-.63-.1-.95.04-.3.17-.55.51-.55.48.24.82.53,1.29,1.57l-.12-.83c1.32.42.21,1.76,1.03,2.82-.59-.34-.74-.66-1.38-.87.56.4,1.49,1.26,2.12,2.08-.17.47-.33.91-.54,1.34.51,0,.27,1.16.89,1.02-.09.71-.33.46-.61.08-.29-.39-.65-.92-.9-.91.02.81.33,1.04.59,1.32.25.26.44.58,0,1.36-.21-.15-.42-.29-.64-.42.03.46.37,1.39.06,1.45.22,0,.13-.23.13-.52.64.13.87.72,1.05,1.27.17.55.32,1.09.99,1.11l.2-.77c.06.62.23,1.2.31,1.74.08.52.07.99-.28,1.38-.6.58-.74-.72-.97-1.21-.37,1.07,1.19,1.26.68,2.56.41-.64.83-.38,1.03.15.32-.76.99-2.33.37-2.18l-.2.25c-.31-.16-.33-.61-.45-.86.24-1.12.7-.4,1.01-.58.28-1-.07-1.08-.41-1.14-.35-.06-.71-.1-.63-.95l.26-.22c-.29-.85-.5-2.09-1.34-2.17.36-.41.2-.86-.04-1.28-.24-.42-.53-.81-.42-1.26.87-.38,1.09.31,1.15,1.19.08.88-.04,1.86.49,2.31.32-.95.96.45,1.36.9-.27-1.05-.65-2.04-1.12-2.94.21-.26.9-1.39.07-1.72l.03.24c-.57-1.06-1.19-.48-1.3-1.48.1-.21.49-.04.64-.02-.19-.92-.69-.54-1.09-1-.23-.88.9.08.76-.69-1.11-.62-.6-1.56-1.08-2.33-.19.22-.47.17-.78.03-.33-.15-.71-.43-1.05-.61-.71-.38-1.23-.52-1.07.49-.58-.4-1.21-.72-1.82-1.02,0-.41.48-.44,1.04-.46.56-.03,1.16-.01,1.31-.55.38.46.74.94,1.08,1.45.47-.5-.29-1.21-1.15-1.84-.86-.66-1.82-1.24-1.83-2.2-.77-.63-.59-.36-1.89-1.92-.1.4-.21.8-.32,1.19-.65-.71-.69-1.41-.63-1.64-.56-.2-1.07-.42-1.59-.66.21-.13.46-.2.84-.11-.51-.93-.9-.75-1.26-.5-.25.07-.55.07-.87.03-.32-.04-.66-.12-1.03-.16.23-.12.49-.25.72-.35-.45.01-1.06.11-1.12.31-.32-.04-.61.02-.89.09.1.1.28.32.54.56.26.25.6.54,1.02.74-1.05-.38-2.12-.38-3.09-.26-.99.13-1.87.18-2.96-.05-.04-.35.58-.97.35-.95-.93.08-1.7.96-1.46,1.43-.18.09-.33.16-.46.2-.26-.22-.57-.46-1-.36-.13-.07-.32-.1-.64-.02.04.97-1.77,1.24-1.95,1.8.42-.08.88-.31,1.35-.53-.45.87-.71,1.78-1.43,1.58.97-1.15-1.77-.22,0-1.39-1.88-.41-.32,1.09-1.88,1.47l-1.12.13c-.24-.67,1.27-1.17.94-1.26-.2.14-.4.29-.59.44.36-.86,2.97-1.83,4.27-3.1-1.1.29-2.21.62-3.32,1.05-1.8,1.37-3.92,2.76-5.67,4.46-.43.41-.86.88-1.21,1.29-.34.41-.66.81-.95,1.22-.57.83-1.03,1.68-1.29,2.56l.08-.12c.01.09.09.19.26.4h-.23s-.03.84-.03.84c-.98.15-1.95,1.16-3.1,1.8.8-.33.8-.33,1.25-.07.45.55.6.8-.26,1.53-.4-.28.02-.83-.78-.4.44-.19.49.32.26.74-.63.3-1.29,1.11-1.7.84.06-.32.33-.41.5-.53.06-.32-1.04.72-.87-.23l-.54,1.02c-.72.32-.27-.73-.64-.66-.83,1.78-.42,3.22-1.01,4.85-.18-.2-1.11-.78-.85-.6-.49.48-.6,1.26-.65,2.08-.06.81-.06,1.66-.35,2.36-.19-.34.17-.79.25-1.27-2.51,3.94-3.98,7.46-5.94,11.79.28.47.56.92.88,1.38l-.91,1.09c-.19.64-.3,1.1-.4,1.59-.1.49-.2.98-.27,1.45-.15.96-.24,1.91-.29,2.86-.1,1.91-.07,3.85-.07,6.03-.03,1.35-.83.76-1.19,1.39-.15,1.52.14,2.51.48,3.45.35.95.76,1.85,1.03,3.32-.38-.36-1.41-1.01-1.33.32.35.21.87.31.78,1.16l-.4-.37c-.4.8.21,1.61.27,2.99.52,2.48,1.88,4.73,3.66,6.39.55,2.2-1.23.13-1.34.6-.06-1.67-.5-1.03-.97-1.27.53.75,1.01,1.69.39,2.36.42,1.15.57,1.7,1.5,2.66-.47-.48-.24-1.12.3-.71.05,1.04,1.36,3.29.41,3.57.67,1.35,1.43,2.73,2.3,4.1.88,1.41,1.97,2.85,3.19,4.12,2.44,2.59,5.55,4.66,8.86,5.87,1.28-.07-.76-.5-.03-.62,1.79-.05,1.15.79,2.59.66-.22.13-.45.25-.68.37,1.92.66,4.3.03,6.19-.46-.34.62,1.61.52-.03.88.48-.04,1.03.62,1.6,1.2.57.59,1.15,1.08,1.52.75-.49-.82-.94-1.64-1.35-2.48.04-.25,1.35-.22,1.19-.39.86.42,1.96.82,2.5.7.41.59-1.01.75-1.83.84.05,1.14,2.81.2,1.85,1.41,1.68-.54-.35-.5.57-1.11.49-.04.99-.07,1.46-.13l-1.17-.08c1.1-.61,1.24-1.51,2.83-1.36.38-.49.74-.98,1.1-1.48.42.77.97-.15,1.76-.19l-.27.67c.93-.33,1.37-.32,2.15-.26-.36.93-1.01.16-1.02.92.39-.04.8-.09,1.24-.15-.17-.46.46-1.1-.49-1.06.39-.62.67-1.17,1.2-1.72.52-.56,1.32-1.09,2.63-1.98.83-.09.64.28.32.74-.31.45-.77.94-.28,1.12,1.64-.81,2.2-2.15,2.16-2.86.08-.84.06-1.63.65-2.05,1.63-.91,1.06-1.44,2.52-2.63-.13.81,1.41-.31,2.01-.06l-.24.91c.17-.24.4-.39.6-.43.18-.02.33.07.4.28-.26-.29.03-.72.57-1.21.53-.49,1.34-1.05,1.86-1.58l-.55-.43c.83-.75,1.96-1.96,3.04-2.71,1.28-1.5.48-1.61.82-3.04.91-.15,1.4.36,1.78,1.01-.57.14-.88.82-1.62,1.3-1.29,2.19-2.47,4.43-4.34,5.18.05.9.29.7.71.25.42-.45,1.04-1.18,1.69-1.27.02.1-.03.17-.1.24.09-.06.18-.1.28-.13-.66.67-1.64,1.53-1.37,2.32.49-.39.51-.86.6-1.26.1-.4.28-.72,1.26-.96.47-.58,1.13-.83,1.8-1.03.67-.2,1.34-.36,1.75-.69.09-.31.1-.6.1-.88-.02-.27-.09-.5-.1-.77-.02-.52.13-1.07.86-1.75l.1,1.25c1.49-1.73-.3-1.66,1.03-3.21-.53.48-.25-1.08-1.12-.05.05-.81.89-2,1.75-2.67.07-.3-.2-.23-.41-.46-1.22.53-.7,1.84-2.01,2.05l.21,1.26c-.99.65-1.66.23-1.51-.53-.17.27-.25.57-.53.63-1.23-.79,1.26-.7.56-1.78l-.42.67c-.93-.34.52-1.93,1.19-2.67,1.05-.61,1.83-1.32,2.4-.95l-.72,1.37c.92-.28.96-1.71,1.54-2.37.11.01.22,0,.32-.05-.07,0-.14-.02-.19-.06.14-.12.31-.2.53-.2.52-.59.9-1.63,1.6-2.15l-.54-.3.2.29c-.52.61-1.4,1.02-1.4.34.72-1.47,1.82-1.06,2.5-1.11.28.43,0,.79-.36,1.15-.19.17-.41.35-.6.53-.17.15-.31.32-.38.52.94.3,1.3-1.25,2.74-2.49.47,1.19-1.24,1.83-.83,2.75,1.19-1.22.81-1.97,1.83-3.21.34.4-.49,1.81.05,2.06.3-.26.56-.52.84-.79-.67,1.17-.4,1.26,0,1.27.39.01.87-.04.32,1,.97-.7.16-1.71,1.4-2.64-.59.16-1.82.7-1.52-.63.32-.38.63-.76.92-1.14.35-.16.43.29.51.71.07.42.15.81.56.47.13-.51.26-1.02.36-1.51-.29-.08-.73.48-.91-.09.65-.62-.48-1.72-.53-2.73.31-.65.59-1.14,1.01-1.22-.05-.98.15-1.94.37-2.83.21-.88.51-1.74.59-2.64-.07,1.22.88.52,1.61.26-.57,1.09.25,1.58.8,1.84.28-.62-.25-1.57-.72-1.44,1.02-.81-.06-1.08,1.12-1.66.7-.44.55.84.99.83.87-1.18-.72-.96.38-2.19.05.15,0,.3.22.28.68-.65.84-1.77.52-2.14,1.53-.14,1.21-2.28,2.15-1.51.78-1.97-.72-.06-.87-.63-.03-1,1.13-2.15,1.53-2.49-.23.46-.18,1.04-.58,1.38l.94.03c1.8-2-.83-2.35.98-4.23-.22,1.35.36.67.57,1.52,0-.44,1.13-2.1,0-1.33.5-.81.93-1.34,1.36-1.87.09-.9.27-1.84-.02-2.51.63-1.17,1.56-1.85,2.15-2.31.52-2.85,2.37-4.97,2.63-8.02l-.11.2c.81-2.16-1.35.65-.64-1.62.89.59,1.05-1.18,1.77-1.78,1.25-2.72.47-5.07,1.64-7.56.21.06.42.28.35.79.7-1.93.79-3.68,1.1-5.38l.11.1c.62-1.33.79-2.67.82-4.04.02-.69,0-1.38,0-2.09,0-.72-.01-1.37.07-2.28.08.29.45.43.55.66.54-1.74.87-4.32.01-5.39.56-.85.51-1.12.45-1.47-.05-.34-.11-.76.48-1.71.19-.09.14.21.17.35.43-.94.42-1.59.69-2.4-.14-2.83-1.34-3.65-.61-6.64,1.41-.01.13,1.92,1.21,2.12-.17-.65-.37-1.22.03-2.03.49.57.33.15.8.55.43-.63-1.19-2.77-1.07-2.73-.26-.06-.43.15-.43.76-.79-.78.16-2.99-.13-4.47-.03.47-.4,1.95-1.02,1.35.4-1.93-.92-2.63-1.44-3.97.66-1.75,1.14,1.32,2.11,1.03.36-.29,1.15-.99,1.51-.23.25-1.63-.57-2.8-.79-4.23l.27.04c-.11-2.01-1.38-4.09-.88-5.76l-.28.89c-.17-.32-.13-1.32-.71-1.84.46.04.82-1.26,1.21-.75-1.49-.81-1.11-4.42-2.56-5.31.3-.72.95-.21,1.29-.03-.05,1.24-.31,1.67.3,2.29-.08-1.03.25-1.8.59-1.66-.12-.12-.23-.27-.34-.43-.05-.08-.1-.16-.16-.25-.05-.1-.11-.26-.17-.39-.23-.55-.49-1.1-.76-1.56-.55-.92-1.07-1.48-1.57-1.59.24-.81.4-1.32,1.17-1.29-.22-.46-.41-.56-.66-.59-.24-.02-.51.11-.76.26-.24.15-.47.3-.66.25-.19-.07-.35-.3-.37-1.16.71-1.51,1.02,1.42,1.24-.62l.12.37c1.95-1.46-1.39-1.05-1.28-2.87,1.07-.22.73,1.3,1.52.04-.24-1.78-1.84-2.42-1.49-4.11l.45.26c-.08-1.06.13-3.12.05-4.18.21-.05.18.1.24.31.4-1.96-.54-.82.19-2.42l-.52-.46c-.37.8-.89,2.36-.28,3.38-.61-1.02-1.35,1.59-2.25,1.09l.36.2c-.78,1.33-1.22,2.85-1.54,4.46-.3,1.55-.62,3.19-.84,5.1.57,1.29.77,2.45.89,3.4.13.99.16,1.73.59,2.44,1.26.22.28.39.64,2.31-.21-1.02-.95-.07-1.08.59.34.36.48.81.62,1.27-.4.42-1.29,2.88-.43,3.74-.36,1.18-.41-.26-.67-.51-.62.5.53.94.11,1.34,0,0-.14-.01-.2-.14.1,1.78-.21,2.85-.36,4.7,1.22.15.45,1.82.86,2.64-.39-.27-.47,1.03-.73,1.53l.87,1.02c.71,1.01-.6,1.33-.28,2.6l.24-.29c.3.95-.64,3.3-1.42,4.08.18,1.07.22,2.06.19,3-.02.48-.05.9-.11,1.39-.07.53-.15,1.04-.22,1.55-.28,1.99-.6,3.76-1,5.42-.2.83-.42,1.63-.65,2.41-.23.8-.49,1.43-.75,2.42-.51,1.84-.93,3.84-1.13,6.17.27.66.68-.34,1.14.22,0,.95-.09,1.17-.2,2,.44-.68.02-.64.34-.49l-.14-1.36c.1-.05.11.1.3,0-.04-.46-.2-1.01-.05-1.56.19.86,1.04,1.23.53,2.27-.11-.1-.13-.25-.16-.55-.21.9.21,1.01-.13,1.65-.33.78-.03.62-.43.66l-.92,2.41c.82,1.45-.51,2.78-.7,3.14-.73-.44.11-1.68-.55-2.45l-.76.76.62.18-.44,1.22-.11-.1c.21.2.42.41.13.68-.1.03-.3.12-.3-.03l.14.97c-.53-.67-.38.73-1.1.42-1.09,2.74.04,3.91-1.74,6.06.48-.29.9,1.16.5,1.87-.33.37-.53.42-.71.05l.02,1.11c-1.58.8-1.3,2.24-2.45,3.81l-.27-.23c.09.8.06,1.63-.51,2.53l-.53-.47c-.99.95.85,1.52-.19,2.62.66.33,1.4-.32,2.09-.15-.82-.02-1.63,1.33-1,1.24-.42,1.44-.49.89-.71.92l-.02.97c-.53.89-.99-.17-1.18-.7.23,1.22-.77,1.87-1.42,2.75l-.06-.55-.84,1.17c0,.55-.15,1.11-.42,1.65-.14.26-.31.54-.48.77-.17.22-.36.42-.58.61-.13-.39-.26-.77-.41-1.14-.81.35.07.5.11.76-.29,1.29-1.02,1.18-1.87,1.46-.22,1.2-1.24,1.97-2.21,2.88-.48.46-.95.96-1.29,1.54-.32.56-.49,1.14-.4,1.79Zm-37.83-40.84h-.23c.25-.39.37-.65.23,0Zm-8.17,8.15c.6-1.36.67-.72.95-.64-1.09.93-1.3,1.75-2.3,2.56.27-.05.51.07.67.12-.33.37-.78.65-1.28.51-.45-1.09,2.78-2.72,1.96-2.55Zm21.89-17c-.08.05-.17.1-.27.15h-.01s.28-.15.28-.15Zm-8.39,1.75c-.17-.17-.38-.22-.63-.21.22.2.41.35.63.21Zm-13.67,7.56c-.53,0-.97.67-1.29,1.17.21-.17.63-.46,1.29-1.17Zm10.76,79.57c-.49.18-1.46.62-.56.88.41-.35,1.29.17,1.6-.39.05.01.06.02.09.03-.55-.27-.98-.51-1.13-.52Zm34.2-26.24c.25.32.37.84.74.87-.03.02-.07.05-.1.07.17,0,.32,0,.33.12.28-.22.59-.43.66-.69-.9-.92-.58-1.63-1.63-.37Z"/><path class="cls-1" d="m72.78,261.92c.15-.12.28-.19.37-.27-.11.07-.22.15-.37.27Z"/><path class="cls-1" d="m81.16,247.52c-.04-.08-.41.15-.84.45.19.02.44-.08.84-.45Z"/><path class="cls-1" d="m64.98,205.6l-.02-.44-.58.71c.06,1.44.57,1.66,1.09,2.17-.11-.69-.05-1.19.07-1.74.12-.54.31-1.13.36-1.87-.3.4-.58.74-.92,1.15Z"/><path class="cls-1" d="m69.33,205.9c.2-.13.72-.47.81-.74l-.35-.33c-.13.37-.3.72-.46,1.06Z"/><path class="cls-1" d="m64.26,186.72c.35.48.69.94.99,1.44.31.08.24-.35-.01-.77-.26-.41-.68-.81-.98-.67Z"/><path class="cls-1" d="m62.82,195.92l.69.39c.04-.69-.4-1.4-.88-1.29.61.59-.13.3.19.89Z"/><path class="cls-1" d="m60.47,183.95c-.44.21-.8-.06-1.15-.33-.37-.26-.74-.51-1.04-.23.26,0,.75.27,1.16.5.41.23.81.38,1.03.06Z"/><path class="cls-1" d="m57.65,190.81c-.11.8.72.57,1.17,1.17-.43-.36-.69-1.47-1.17-1.17Z"/><path class="cls-1" d="m50.7,184.92c-.06-.55.46-.65,1.18-.71h.06s-.04.03-.05.05c-.22.23-.26.47-.52.62.27-.19.46-.32.57-.41.75-.28,1.03-.38,1.91-.57-.63-.21-1.45-.24-2.11-.31-.53-.07-.81-.24-.84-.58-.53.66-1.12,1.63-.19,1.91Z"/><path class="cls-1" d="m56.18,190.14c.42.42.45,1.02,1.02,1.3.11-.36.2-1.01-.56-1.28l.55-.45c-.48-.76-.13.88-1.02.42Z"/><path class="cls-1" d="m46.24,184.73l.55.12c.88-.86,2.29-1,2.65-1.95-1.25.38-2.74,1.24-3.2,1.82Z"/><path class="cls-1" d="m53.93,188.42l-.07.9c.61.1-.05-.3.18-.52.2.13.45.25.63.09-.8.07.02-.76-.74-.47Z"/><path class="cls-1" d="m51.41,189.95l-1.05.7,1.16.69c1.25-.7-.08-.56-.12-1.39Z"/><path class="cls-1" d="m49.81,189.79l-.18-.12c-.45.6-.87,1.22-1.25,1.84.79-.88.88-.82,1.44-1.71Z"/><path class="cls-1" d="m28.52,200.02c.18.4,1.26-.26.62-.11-.13-.38-1.45.62-.62.11Z"/><path class="cls-1" d="m37.05,200.78c-.55.22-1.2,1.9-1.41,2.65.36-.83,1.9-2.41,1.41-2.65Z"/><path class="cls-1" d="m35.54,203.74c.02-.06.05-.17.1-.3-.06.12-.09.22-.1.3Z"/><path class="cls-1" d="m27.56,232.5c0,.08.02.16.08.23-.03-.08-.05-.15-.08-.23Z"/><path class="cls-1" d="m27.42,231.73c.19-.49.07-1.52-.32-1.76.1.83.13,1.56.46,2.52,0-.35.33-.74-.15-.76Z"/><path class="cls-1" d="m26.79,238.57c-.25-.34-.12-.81-.5-.69-.17.2.24.93.5.69Z"/><path class="cls-1" d="m52.86,274.94c.83-.04,1.21-.33.83-.81-.83.28-.27.45-.83.81Z"/><polygon class="cls-1" points="54.58 273.72 54.75 273.96 55.32 274.23 54.58 273.72"/><path class="cls-1" d="m60.32,272.45c0,.1-.13.27-.28.41.34-.24.62-.48.28-.41Z"/><path class="cls-1" d="m59.87,272.98c.06-.03.12-.08.17-.12-.05.04-.12.08-.17.12Z"/><path class="cls-1" d="m59.37,273.01l.05.31c.09-.09.27-.21.45-.33-.17.1-.37.14-.49.02Z"/><path class="cls-1" d="m62.32,271.4c-.56.03-1.12.04-1.66.01-.52.52-.12.43.33.38.44-.06.95-.09.53.69.28-.35.54-.71.79-1.07Z"/><path class="cls-1" d="m65.3,268.66c.81-.34.9-2.15,1.91-1.67,1.57-1.9-1.51-.99.48-3-2.44,1.21.12,2.35-2.02,3.37,1.26-.23-.26.86-.37,1.29Z"/><path class="cls-1" d="m63.87,267.64c.23.47,1.08-.2,1.12-.68-.28.16-1.16-.02-1.12.68Z"/><polygon class="cls-1" points="68.65 265.37 69.48 265.24 69.44 264.87 68.65 265.37"/><path class="cls-1" d="m70.84,264.09c-.07.28-.15.56-.2.83,0-.29.87-.77.2-.83Z"/><path class="cls-1" d="m75.08,262.3c.46-.21.68-.74.57-1.01-.1-.28-.51-.27-1.23.42l.4-.22c.02.25,1.22-.04.26.82Z"/><path class="cls-1" d="m81.17,252.68c-.33.37-.57.94-.28,1.03l.64-1.24-.35.2Z"/><path class="cls-1" d="m78.46,250.77c-.93-.16-.75,1.04-1.53,1.58.77-.7.78-.54,1.53-1.58Z"/><path class="cls-1" d="m83.05,252.22c.04.49-.48.79-.73,1.02.47.16.95-.63.73-1.02Z"/><path class="cls-1" d="m84.14,250.44c.52-.1.29.37.67.28.21-.11.41-.23.58-.37.1-.08.14-.11.26-.24.11-.12.22-.25.32-.38.4-.51.59-1.02.64-1.45-.5.09-1.52-.14-1.56-.79-1.05,1.86-.24,3.14-1.61,2.98l.34,1.85c.91-.75-.21-1.33.37-1.89Z"/><path class="cls-1" d="m80.13,251.02l.88-.33c-.47-.17-.15-.7,0-1.12-.95-.51-.65,1.05-.89,1.45Z"/><polygon class="cls-1" points="88.73 241.81 89.21 240.11 88.93 240.6 88.73 241.81"/><polygon class="cls-1" points="89.5 240.91 89.79 240.99 89.8 239.59 89.5 240.91"/><polygon class="cls-1" points="90.54 239.46 90.41 239.61 90.26 240.61 90.54 239.46"/><path class="cls-1" d="m92.1,236.89h-.51c-.09.36-.85.72-.29.96-.04-.36.38-.96.8-.96Z"/><path class="cls-1" d="m88.77,221.05c.11.4.42.38.74.35l-.43-.78c-.03.14-.1.42-.31.43Z"/><path class="cls-1" d="m90.81,219.89l-.19-1.49c-.77,1.18-.27,1.67-.75,2.82.5-.33.31-1.27.82-1.73l.12.4Z"/><path class="cls-1" d="m99.61,197.12c.52.22.5-.07.67.91-.08-1.32.25-2.36.42-3.82-.39.18-.8-.99-.75-.41l.04,1.65-.33-.31c-.63,1.03.48.85-.06,1.97Z"/><path class="cls-1" d="m108.6,130.95c.27.16.51-.05.76-.25-.3-1-.7.45-.76.25Z"/></g></svg>