<?xml version="1.0" encoding="UTF-8"?><svg id="Layer_1" xmlns="http://www.w3.org/2000/svg" viewBox="0 0 175.6 414.75"><defs><style>.cls-1{fill:#84f39d;}</style></defs><g><path class="cls-1" d="m111.24,328.39c.05-.09.07-.17.11-.25-.11.09-.19.19-.11.25Z"/><path class="cls-1" d="m112.07,298.31c.11-.41.17-.83.22-1.23-.1.12-.19.28-.27.48l.05.75Z"/><path class="cls-1" d="m111.17,347.38c-.15.42-.27.81-.36,1.16.16-.21.29-.56.36-1.16Z"/><path class="cls-1" d="m109.74,154.78c.08.06.18.11.3.11,0-.01,0-.04.01-.06l-.31-.29v.24Z"/><path class="cls-1" d="m110.84,264.46c-.01-.48-.03-.95-.1-1.37-.02.79.02,1.18.1,1.37Z"/><path class="cls-1" d="m110.04,358.25c.02-.17.04-.31.06-.45-.05.14-.11.33-.16.55l.1-.07s0,0,0-.02Z"/><path class="cls-1" d="m110.49,308.08c.08-.4.15-.77.16-1.08-.09.37-.13.73-.16,1.08Z"/><path class="cls-1" d="m107.42,411.03c.16-.5.17-.94.12-1.34-.19.31-.28.72-.12,1.34Z"/><path class="cls-1" d="m108.9,400.26s0,.04,0,.06c.12-.05.1-.08,0-.06Z"/><path class="cls-1" d="m109.95,393.4s0,.08,0,.12c.09-.07.11-.11,0-.12Z"/><path class="cls-1" d="m107.54,409.69c.5-.83,1.73-.93.59-2.27l-.21.2c.4-.65.04-1.74.11-2.54-.14.06-.25.14-.36.24-.07.4-.19.92-.39,1.73-.42.93.11,1.65.25,2.64Z"/><path class="cls-1" d="m111.47,328.53c-.25.08-.18.81,0,0h0Z"/><path class="cls-1" d="m111.61,337.86c.04-.3.09-.6.13-.91-.08.29-.15.57-.13.91Z"/><path class="cls-1" d="m107.34,372.77c.03-.06.04-.11.07-.16-.13-.07-.13.07-.07.16Z"/><path class="cls-1" d="m111.84,336.11c-.02.28-.06.56-.09.84.07-.25.13-.52.09-.84Z"/><path class="cls-1" d="m109.31,362.37s.04-.1.05-.14c-.02.03-.04.08-.05.14Z"/><path class="cls-1" d="m58.33,19.07c.52.55.48,1.1.78,1.75,1.61.82-1.8-2.71.12-1.25-.4-.57-.81-.96-1.2-1.31l-.11,1.28c1.04.95-.29-.91.41-.47Z"/><path class="cls-1" d="m109.82,145.74v.31c.32-.28.47-.11.42-1.31-.77-.87-1.29.83-2.26-.75.13.32.21.81.23,1.29.35-.8,1.02-.22,1.61.45Z"/><path class="cls-1" d="m108.21,145.3s-.02.03-.03.06c-.06.09-.11.19-.15.29.05.25.07.49.05.7.1-.21.15-.61.13-1.04Z"/><path class="cls-1" d="m69.73,39.59c.15.27.29.52.42.74-.1-.43-.25-.63-.42-.74Z"/><path class="cls-1" d="m121.29,266.65c.08.34.17.68.26.95-.04-.52-.14-.78-.26-.95Z"/><path class="cls-1" d="m111.88,162.52c-.03.27-.02.55,0,.85.04.17.07.32.11.52l-.1-1.38Z"/><path class="cls-1" d="m91.79,110.33c1.07.25-.21-.39-.08-1.65l-.82-.83c.2.96.62,1.76.9,2.48Z"/><path class="cls-1" d="m58.04,18.16s-.04.03-.08.04c.02.02.04.03.07.06v-.1Z"/><path class="cls-1" d="m80.29,80.06c-.01-.16-.03-.3-.05-.45-.02.1,0,.25.05.45Z"/><path class="cls-1" d="m109.06,151.85l.66,4.18.02-1.26c-.55-.5-.03-2.45-.68-2.93Z"/><path class="cls-1" d="m96.04,127.33l-.46.5c1.08,1.87,1.48,4.08,1.91,6.18.43,2.1.92,4.12,2.1,5.49-.81,5.29,2.47,2.82,1.68,7.68l.25-.21c2.7,14.9,3.47,31.05,5.76,45.21h-.4c.37,5.77.78,11.51,1.24,17.23.25,2.87.49,5.73.74,8.59.27,2.9.51,5.6.72,8.42.83,11.18,1.09,22.46.94,33.92.37,2.14,1.25.85,1.69,2.7-.04.8.01,2.62-.48,2.63-.27-1.56-.7-.68-.89-1.21.05,2.58-.52,5.93.08,8.24l.63-1.94c.26.9.08,2.31.05,3.13-.32-.34-1.01.84-1.17.14,1.57,4.88-.67,3.79-.06,7.88,1.35.82,2.41,5.93,3.32,9.32l-.38,1.76c.05-2.35-.98.03-.87-2.88-.42,2.42.12,4.69-.15,6.98.35-.44.79-.32.92.61-.21,1.41-.89,1.52-1.01,3.12l-.38-1.6c-.53,1.06.11,1.99.16,2.99-.57.31-.75,2.7-1.36,2.26.7,2.19.23,2.94.62,5.28.69-2.4.71.65,1.19.4l-.11-2.74c-.53,3.84-.05-1.26-1.02-1,.51-1.8,1.48,2.55,1.45-.5.35,3.65-.11,4.4.51,8.15-.07-2.25.6.46.95-.73-.11,2.85-.37.69-1.03,1.54-.06,1.55-.62,2.09,0,3.55-.44,2.49-.7-.42-1.16.83-.59-.96,1.19-6.93-.95-6.35.04-1.31-.69-2.93-.58-4.81-.34,1.63-1.14,3.94-.75,5.98l1.18.16c-.05,1.54.74,1.9.57,3.01-.31-.61-.86.43-.85,1.67.19-.34.18-.84.38-.69-.05,2.3.75,2.67.78,5.41.47-2.23.85-2.68,1.49-4.76.8.62.03,1.5.05,2.75-.1-.19-.11-.45-.29-.1l.31,1.35c-.55,2.79-1.18-.43-1.74,1.86-.81,1.55.22,2.22-.27,3.42.08-.08.17-.15.23-.22-.03.27-.07.46-.1.61.02,0,.04-.02.06-.02,0,1.5-.21,3.09.38,3.57-.29.13-.03,1.31.11,1.81.17.85.71,2.92-.41,4.06,0-.03,0-.06,0-.09-.31,1.85-.77,3.27-1.06,2.84l-.56,2.98-.77-.41c-.07,2.76.42,2.54,1.05,4.5-.68,1.91-.68,5.38-.53,6.71-.06.21-.1.54-.11,1.09l.44-1.11c-.27,2.13.18,1.92.03,3.33.11-.28.16-.32-.06.45-.04.24-.08.49-.15.8-.08-.08-.03-.4.05-.71l-.3.23c-1.05,1.61.18,2.67-.33,4.46-.01-.18-.03-.48,0-.66-.34,1-1.65,2.34-1,2.84-.12.23-.02.6.11.98l-.21.74c.07-.3.15-.54.21-.73.17.5.4.97.23,1.01l-.46,2.6c-.18.48-.16,1.17-.11,1.73l-.39.4c-.07.96-.26.94-.34.82-1.57,3.17-.05,5.19-1.51,8.64.47.75.91-.69,1.23-.77.35.61.47,2.71.63,3.77-.97,1.49-2.31,6.29-3.31,5.35-.49,2.93.81-.82.99.7l-.09.33c.27-1,.76-1.74,1.26-2.26.63-.14.45,2.48.17,3.26l-.78-.67c-.07,2.76,1.28,2.37,1.9,4.18-.64,2.12-1.24.76-2.06,1.11l-.11,2.3-.64-.09c-.04,1.5.51,1.93-.03,3.94-.38-1.56-1.04,2.98-1.55.82-.38,1.1.8,1.61-.13,2.06.56.89.49-.97.79-1.51,1.05-.32.1,2.56.16,3.96-.52.04-.46-1-1.03.56.33.39.48,1.45-.13,2.29.64.1-.15,1.84-.33,2.74.28-1,.97-2.41,1.42-1.66.13.83.16,1.54-.21,3.34l.49-1.2c.69,1.73-1.07,2.51-1.11,4.71-.24-.97-.15-1.53-.49-2.4.15,1.06.3,3.06.35,4.7l-1.22,1.67c.43.3-.36,2.03.27,2.14-.79,2.19-.47-1.94-.91-2.24-.87,2.76.69,2.44-.72,4.99l-.45-1c-.19.89-.15,2.76-.46,2.83.21.04.2-.43.3-1,1.18.76.2,4.32,1.57,4.21l.29-1.23c-.06,1.96.59,3.47-.12,4.86-.61,1.06-.75-.94-.98-1.67-.39,1.79,1.19,1.71.7,3.84.4-1.1.83-.8,1.06-.06.3-1.23.99-3.79.36-3.43l-.2.43c-.32-.17-.33-.87-.44-1.24.29-1.7.73-.69,1.04-.99.68-2.8-1.27-.45-.8-3.04l.31-.3c-.13-1.3.13-3.24-.62-3.71,1.04-1,.14-2.99.84-4.16,1.91.06-.83,4.39-.06,6.03.61-1.3.76.93,1.09,1.57l-.1-4.43c.31-.3,1.44-1.41.88-2.3l-.1.33c.06-1.74-.78-1.4-.29-2.84.21-.2.43.3.54.43.39-1.33-.24-1.2-.27-2.14.38-1.34.66.8,1.04-.3-.47-1.69.55-2.47.72-3.85-1.15.42-.62-5.66-2-2.85l-.23-3.39c.7-.94,1.15,2.48,2.18,1.71l-.44,2.61c1.39-.23-.04-5.61,1.69-7.13.26-1.39.03-1.07,1.07-3.63l-1.24.28c.47-1.33,1.17-1.69,1.4-1.72.04-.82.17-1.54.33-2.28.15.22.27.52.26,1.02.8-.94.6-1.28.3-1.69-.22-.6-.05-1.44.07-2.3l.33.84c-.03-.54-.07-1.2-.27-1.29.04-.36.06-.7.04-1.04-.24.2-1,.68-1.48,1.87.9-3.12.99-5.65,2.33-8.26.33.15.6,1.35.69,1.01.35-1.35-.05-2.91-.58-2.85,0-.31.03-.55.05-.76.33-.22.68-.5.82-1.14.13-.14.25-.37.35-.83-.87-.58-.07-3.14-.43-3.76-.18.61-.26,1.36-.33,2.14-.49-1.18-1.08-2.26-.47-3.04.34,2.12,1.25-2.06,1.12,1.06,1.46-2.02-.71-1.24,0-3.48l.66-1.42c.65.31.04,2.44.34,2.13l.04-1.04c.38,1.09-.44,4.93.01,7.42l.99-4.75c-.04-6.15,1.79-13.58.88-18.89v.22c-.06-.1-.18-.15-.44-.26l.2-.21-.4-1.07c.77-1.08,1.14-3.23,1.85-5.01q-.55,1.11-1.08,1.17c-.66-.31-.93-.52-.49-2.2.49.03.36,1.09.88-.13-.31.63-.59,0-.57-.75.42-.93.66-2.54,1.15-2.5.08.46-.12.8-.23,1.1.08.46.63-1.77.89-.4l.05-1.76c.52-.98.57.75.87.37-.02-2.94-.99-4.55-1.05-7.21.25.15,1.33.29,1.02.23.54-1.99-.74-4.46-.61-6.79.29.37.08,1.22.17,1.94,1.09-7.05,1.52-12.86,2.92-19.47l-1.03-1.79.83-1.71c1.04-6.99.47-12.41.25-19.08-.04-2.08.8-1.23,1.13-2.21.18-4.56-1.07-5.68-1.31-10.02.34.6,1.3,1.62,1.36-.25-.32-.35-.83-.58-.63-1.76l.34.6c.5-1.08.03-2.12.24-4.35-.03-3.91-.81-7.66-2.05-10.89.12-3.47,1.21.36,1.45-.3-.41,2.45.2,1.7.58,2.24-.32-1.3-.51-2.87.29-3.53-.05-1.81-.01-2.63-.55-4.41.27.9-.16,1.67-.52.83.28-1.48-.04-5.25.96-5.05-.24-8.59-.21-18.25-.84-27.53-.61-1.53-.13,1.2-.54.36-.81-2.23.23-1.82-.43-3.6l.6.71c-.1-2.72-1.37-5.52-2.09-8.03.66.37.33-2.16.88-.05-.21-1.25,2.42-3.02,1.77-3.94l-2.46,1.64c-.26-.05-.25-1.83-.41-1.64.41-1.15.9-2.55.83-3.31.62-.43.64,1.5.72,2.55,1.1.06.39-3.59,1.52-2.16-.37-2.23-.53.37-1.05-.94l.07-1.98-.24,1.55c-.47-1.61-1.34-2.1-.92-4.34l-1.26-2.18c.84-.3.01-1.67.11-2.86l.61.68c-.16-1.55-.07-2.17.16-3.17.83.81-.06,1.43.69,1.74l.1-1.73c-.49.05-.97-1-1.15.25-1.05-1.51-1.87-2.3-2.18-6.28.66-1.87.92,1.86,1.67,1.04-.03-4.17-2.65-4.84-2.79-7.26.03-3.11-.73-2.85-1.12-5.96.68.93.36-2.25.83-2.88l.73,1.16c-.29-.93-.17-1.87.27-1.63-.74.27-1.19-3.97-1.85-6.07l-.6.46c-.42-1.65-1.16-3.91-1.25-5.71-.58-2.61-1.09-1.92-2.1-3.84.41-1.21,1.12-1.2,1.89-.94-.22.76.16,1.93.14,3.12,1.04,3.25,2.78,5.68,2.88,9.07,1.77,1.26-.47-2.24-.13-3.93.1.04.15.15.18.27-.02-.15-.02-.27,0-.41.35,1.18.85,3.1,1.7,3.33-.42-2-1.76-1.25-1.41-3.84-.7-1.79.33-3.47.28-4.62-.77-1.15-2.05-1.01-2.28-4.07l1.09,1.19c-.52-3.44-1.53-1.41-2.03-4.58.09,1.13-1.05-.93-.71,1.19-.66-.96-1.11-3.24-1.19-4.99-.22-.42-.32-.04-.63-.06-.24,2,1.12,2.89.52,4.59l1.17,1.16c-.05,1.82-.8,2.12-1.34,1.1.12.49.32.9.21,1.29-1.38.53.18-2.2-1.14-2.6l.31,1.22c-.83.68-1.31-2.75-1.52-4.35.12-1.88-.05-3.55.6-3.8l.75,2.37c.3-1.36-.9-3.04-1.14-4.45.07-.11.12-.26.13-.43-.05.08-.1.14-.16.15-.03-.31,0-.59.11-.85-.22-1.24-1.01-2.96-1.04-4.16l-.56.27.37.08c.21,1.13.17,2.74-.45,1.98-.94-2.44.08-3.2.45-3.92,1.06.38.55,2.48,1.12,3.71.74-.97-.44-2.61-.47-5.37,1.23.82.7,3.05,1.72,3.44-.29-2.17-1.14-2.56-1.4-4.86.52.18,1.07,2.35,1.62,2.07l-.05-1.51c.88,3.53,1.08-.91,1.96,1.81.1-1.41-1.23-1.64-1.04-3.65-.31.62-.74,2.29-1.54.61l-.18-2.05c.28-.93,1.54,1.79,1.63.42l-.83-1.97c-.28.14-.19,1.16-.74.64.03-1.26-1.6-1.67-2.37-2.97-.24-1.12-.4-2.03-.15-2.5-1.55-2.61-2.41-6.2-3.93-8.58,1.05,1.62.98-.33,1.13-1.52.68,2.01,1.59,1.79,2.14,1.49-.43-1.23-1.59-1.79-1.73-1.08-.2-2.19-1.02-1.26-.93-3.26-.02-1.28,1.07.34,1.29-.17-.61-2.28-1.28-.3-1.79-2.81.16.1.26.31.37.06-.22-1.38-1.09-2.67-1.63-2.81.72-1.79-1.46-3.89-.24-4.01-1.46-3.07-.44.69-1.06.21-.96-1.11-1.46-3.64-1.57-4.43.32.74.9,1.35,1.02,2.16l.52-.96c-.25-1.05-.54-1.68-.82-2.03-.3-.38-.62-.58-.93-.78-.63-.4-1.25-.8-1.54-2.74,1.06,1.73.81.42,1.69,1.14-.39-.46-1.16-3.42-1.16-1.47-.41-1.4-.6-2.43-.8-3.46-.74-1.16-1.48-2.48-2.29-3.03-.35-1.02-.58-1.97-.73-2.8-.07-.4-.15-.84-.17-1.13,0-.29-.01-.54-.01-.77-1.01-1.58-1.5-3.52-2.11-5.63-.31-1.06-.65-2.18-1.14-3.32-.24-.57-.52-1.15-.85-1.73-.16-.29-.33-.58-.52-.86l-.28-.42-.23-.3.1.28c-.68-1.4-.76-.99-.86-.55-.1.43-.22.89-.99-.64,1.11-.03-.28-2.15-.28-3.48-.69-2.15-1.73-4-2.95-5.8-1.21-1.76-2.35-3.23-3.23-5.2.2-.09.56,0,1.03.67-1.51-2.89-3.09-4.84-4.42-7.16l.17.03c-.19-.52-.38-.99-.61-1.48-.24-.51-.49-1.01-.77-1.51-.55-.98-1.16-1.93-1.83-2.87-1.33-1.87-2.85-3.7-4.43-5.7.34.26.72.13,1.01.31-.31-.55-.74-1.23-1.12-1.82-.29-.45-.59-.93-.88-1.39-.62-.96-1.32-1.99-2.08-2.52-.11-1.44-.38-1.87-.7-2.37-.34-.51-.67-1.11-1.2-3.18.05-.29.34.27.5.51-.64-1.93-1.39-3.04-2.3-4.78-2.81-3.3-4.47-3.39-6.94-7.51.98-1.02,2,2.19,2.96,1.66-.76-.65-1.47-1.16-1.98-2.43.91.32.38-.06,1.11.09-.3-1.05-3.58-2.42-3.46-2.47-.25.12-.16.48.43,1.2-1.34-.38-2.85-3.67-4.49-5.24.43.6,1.61,2.6.57,2.31-1.61-2.59-3.27-2.57-4.98-3.92-1.16-2.59,2.16.93,2.62-.07,0-.58-.04-1.93.95-1.24-1.33-2.1-3.03-3.01-4.47-4.65l.26-.11c-1.86-2.38-4.55-4.36-5.55-6.95l.5,1.35c-.41-.34-1.22-1.74-2.19-2.18.45-.17-.43-2.18.37-1.66-1.03-.19-2.28-1.62-3.73-2.99-1.41-1.39-3.1-2.66-4.1-2.64-.38-.84.52-.82.94-.89.67.71,1.18,1.33,1.58,1.78.42.45.78.75,1.39.99-1.22-1.36-2-2.57-1.56-2.61-1.88-.54-5.06-2.89-6.29-2.75-.61-1.14-1.33-2.07-.51-2.37-4.15-2.93.38,3.39-3.95-.32-1.5-2.24,2.57.88,0-1.63l.58.34c-.71-3.16-2.28-.11-4.46-2.05.39-1.06,2.04.74,1-1.15-2.29-1.59-4.23-1.08-6.19-2.94l.61-.12c-1.45-.96-4.08-3.04-5.5-3.94.06-.22.24-.05.54.09-2.17-1.99-1.49-.52-2.77-2.07l.37,3.22c.08-.04.2-.13.35-.22l.09-.9c-.27.18-.6.41-.94.68l-.26-2.25c.89,1,2.2,2.15,3.47,2.48-1.69-.44,1.33,2.57.15,2.85l.47-.11c1.3,1.87,3.04,3.62,4.8,5.44,1.8,1.86,3.7,3.82,5.58,5.76,3.3,1.39,4.11,4.09,7.27,5.97.63-.27.8-.19,1.11.18.31.39.73,1,1.8,2.03-1.16-1.05-.8.49-.33,1.33.61.22,1.13.71,1.65,1.2.05.72,1.33,4.4,2.82,5.2.7,1.83-.58-.17-1.02-.37-.12.99,1.26,1.04,1.25,1.81,0,0-.13.05-.29-.09,1.66,2.48,2.44,4.19,4.14,6.82,1.13-.5,2.18,2.2,3.36,3.03-.58-.12.68,1.66,1.03,2.49l1.72.76c1.6.82.94,2.12,2.52,3.53l-.13-.53c1.22.99,3,4.63,3.29,6.2,2.47,2.46,4.28,4.91,5.67,7.37.34.62.67,1.24.96,1.84.28.58.53,1.2.78,1.82.49,1.25.93,2.59,1.46,3.99.53,1.4,1.15,2.89,2,4.4.37.64.75,1.28,1.13,1.93.34.6.68,1.22,1.03,1.84,1.41,2.53,2.86,5.26,4.92,8.5.84.7.15-.96,1.03-.54.93,1.29,1.08,1.62,1.86,2.81-.4-1.23-.63-.85-.26-.89l-1.44-1.69c.02-.14.18.05.22-.22-.48-.6-1.11-1.2-1.5-2.01.92.95,1.87.84,2.54,2.6-.18-.05-.34-.24-.65-.62.73,1.35,1.14,1.18,1.55,2.27.58,1.27.63.83.4,1.2l1.92,3.8c2.05,1.14,2.52,3.84,2.71,4.39-.87.08-1.58-2.13-2.8-2.53l.29,1.54.59-.27c.3.6.64,1.25.89,1.8l-.16-.03c.32.06.66.13.69.66-.04.11-.11.36-.24.19.32.33.63.69.95,1.06-.96-.44.37,1.2-.42,1.36.82,2.21,1.73,3.66,2.62,5.07.44.71.88,1.42,1.33,2.26l.17.32.1.24c.06.16.13.31.18.49.11.35.19.75.25,1.2.09-.69,1.58.56,1.87,1.85.06.75-.04.99-.47.64l.93,1.51c-.22,1.25.05,2.4.54,3.71.25.66.54,1.35.89,2.12.08.19.17.38.25.57.06.15.12.3.18.45.12.31.23.65.33,1h-.37c.8.82,1.54,1.82,2.01,3.49l-.75-.06c.27,2.15,1.89,1.05,2.27,3.5.69-.25.54-1.83,1.12-2.28-.52.77.24,3.33.54,2.57,1.1,2.26.56,1.65.46,1.91l.93,1.25c.6,1.69-.69.88-1.32.4.33.33.59.69.81,1.09.22.41.38.81.5,1.19.25.8.41,1.66.64,2.51l-.55-.55c.22.74.45,1.47.66,2.21,1.04,1.23,1.75,3.24,2.04,5.21l-1.32-1c-.07,1.46.53.57.79.87,1.08,1.94.59,2.59.38,3.84,1.93,3.1.3,7.13,2.43,9.72Zm11.86,244.65l.18-.31c.07.77.18,1.21-.18.31Zm2.56-19.55c.11,2.4-.26,1.6-.54,1.75.52-2.29.36-3.62.89-5.64-.23.31-.49.35-.66.43.13-.81.43-1.61.95-1.84.85,1.12-1.3,6.26-.64,5.29Zm-.8,44.7c-.06-.09-.12-.2-.17-.31h0s.17.31.17.31Zm.74-11.79c.23-.14.38-.41.5-.76-.28.18-.52.36-.5.76Zm4.07-23.13c.46-.49.48-1.73.5-2.64-.09.41-.3,1.15-.5,2.64Zm2.92-148.03c.22.69.73,1.98.92.75-.4-.55.1-1.73-.46-2.17.01-.07.02-.08.04-.12-.27.73-.49,1.34-.49,1.55Zm-11.58-68.55c.41.05.94.47,1.17.08,0,.06,0,.14,0,.2.1-.2.17-.37.29-.25-.04-.57-.07-1.17-.26-1.54-1.3.08-1.75-1.05-1.2,1.51Z"/><path class="cls-1" d="m114.84,167.76c-.05-.27-.07-.48-.11-.64.02.18.06.38.11.64Z"/><path class="cls-1" d="m107.02,144.23c-.09-.03-.08.65-.05,1.48.12-.19.17-.61.05-1.48Z"/><path class="cls-1" d="m110.04,407.22l-.66,2.11c.24.73,1.2-1.69.66-2.11Z"/><path class="cls-1" d="m101.88,415.78l.25,1.2c.5-.96.66-2.34.23-2.63.05,1.4-.31.3-.48,1.43Z"/><path class="cls-1" d="m110.97,401.42c-.67-.78.65-2.12-.01-2.67.13.6-.74,2.45.01,2.67Z"/><path class="cls-1" d="m103.47,401.89c-.82.58-.35,1.8-.72,3.14.17-1.13,1.17-2.61.72-3.14Z"/><path class="cls-1" d="m110.41,389.51c.53.18.37,1.09.1,2.1-.12-.37-.35-.63-.37-1.1.19,1.77.09,1.87.16,3.27.57-1.31,1.1-3.34,1.75-3.02-.37-1.09-.97-2.45-1.64-1.26Z"/><path class="cls-1" d="m103.85,398.59c-.37,1.11-.98,1.71-1.13,3.08.42-.18,1.03-.55,1.17-2.16l.56.66c.68-1.41-.93.46-.6-1.58Z"/><path class="cls-1" d="m112.72,383.42l-.39.65c.3,1.67-.22,3.68.47,4.69.21-1.94.18-4.38-.08-5.34Z"/><path class="cls-1" d="m105.82,393.19l-.86-.34c-.34,1.57.32-.07.45.52-.19.44-.36,1.11-.24,1.46.12-1.83.74-.02.66-1.65Z"/><path class="cls-1" d="m105.55,387.84l-.11-2.09-1.19,1.46c.02,2.43.54.19,1.3.63Z"/><path class="cls-1" d="m106.47,385.41l.2-.2-.92-3.23c.31,1.89.22,1.99.72,3.43Z"/><path class="cls-1" d="m116.75,348.93c-.35-.39-1.02,1.36-.51.64.28.38,1.04-1.97.51-.64Z"/><path class="cls-1" d="m108.76,355.48c.39-.84.16-3.76.03-5.04.02,1.51-.58,5.19-.03,5.04Z"/><path class="cls-1" d="m108.75,349.92c0,.1.03.3.05.52,0-.23-.02-.4-.05-.52Z"/><path class="cls-1" d="m110.42,297.33c0-.13-.03-.27-.09-.38.03.13.06.25.09.38Z"/><path class="cls-1" d="m110.62,298.59c-.15.85.04,2.53.45,2.84-.16-1.34-.24-2.53-.65-4.1.03.59-.27,1.3.2,1.26Z"/><path class="cls-1" d="m111.01,286.5c.24.63.11,1.49.48,1.28.17-.35-.22-1.7-.48-1.28Z"/><path class="cls-1" d="m119.62,204.09c.1-1.19-.11-1.86-.65-1.5.12,1.31.4.56.65,1.5Z"/><polygon class="cls-1" points="118.73 201.1 118.99 200.92 119.35 200.11 118.73 201.1"/><path class="cls-1" d="m118.83,192.96c.09.05.21.25.29.46-.12-.45-.23-.83-.29-.46Z"/><path class="cls-1" d="m119.18,193.65c-.01-.07-.03-.16-.06-.23.02.07.04.16.06.23Z"/><path class="cls-1" d="m119.04,194.2l.31.06c-.06-.13-.12-.38-.18-.61.04.22.02.45-.13.55Z"/><path class="cls-1" d="m118.7,190.52l-.71,1.62c.57,1.56.27-1.87,1.33-.37l-.62-1.25Z"/><path class="cls-1" d="m117.94,185.16c.13-1.5-1.43-3.49-.51-4.43-.98-4.12-1.58,1.14-2.48-3.58-.03,4.56,2.2,2.08,2.06,6.15.43-2,.63,1.25.93,1.87Z"/><path class="cls-1" d="m116.32,186.04c.53.19.39-1.69,0-2.23,0,.55-.61,1.56,0,2.23Z"/><polygon class="cls-1" points="116.63 177.05 116.87 175.72 116.51 175.42 116.63 177.05"/><path class="cls-1" d="m116.26,172.17l.73,1.17c-.28-.38-.45-2.25-.73-1.17Z"/><path class="cls-1" d="m116.11,165.32c.03-1.2-1.47-2.07-.82.36l-.03-.57c.23.12.52-1.28.85.21Z"/><path class="cls-1" d="m111.51,150.06c.13.81.46,1.72.71,1.51-.21-.72-.45-1.43-.68-2.15l-.03.64Z"/><path class="cls-1" d="m108.32,150.98c-.67.87.42,2.03.41,3.52-.13-1.67.03-1.49-.41-3.52Z"/><path class="cls-1" d="m112.19,147.33c.45.53.41,1.49.46,2.05.41-.36,0-1.85-.46-2.05Z"/><path class="cls-1" d="m111.21,143.88c.18-.79.49.06.6-.52.04-1.62-.34-3.24-1-4.01-.25.48-1.06,1.24-1.61.7.82,2.37,2.57,3.33,1.67,4.76.62.59,1.22,1.18,1.82,1.77-.14-2.02-1.29-1.32-1.49-2.7Z"/><path class="cls-1" d="m109.49,149.36l.23-1.4c-.41.35-.68-.63-.96-1.29-.97.55.53,1.95.74,2.69Z"/><polygon class="cls-1" points="107.5 130.55 106.6 127.88 106.76 128.79 107.5 130.55"/><polygon class="cls-1" points="107.4 128.73 107.68 128.58 106.63 126.62 107.4 128.73"/><polygon class="cls-1" points="107.05 125.77 107.09 126.11 107.74 127.66 107.05 125.77"/><path class="cls-1" d="m105.81,119.99l-.3.62c.29.67.17,2.19.71,1.9-.35-.55-.65-2.02-.41-2.52Z"/><path class="cls-1" d="m89.28,105.11c.45.34.59-.02.73-.39-.33-.14-.65-.28-1-.47.14.25.36.63.27.86Z"/><path class="cls-1" d="m89.18,101.36l-1.53-1.74c.69,2.37,1.45,2.49,2.38,4.52-.1-.98-1.14-1.99-1.3-3.17l.45.39Z"/><path class="cls-1" d="m73.72,63.88c.56-.15.26-.49,1.36.58-1.38-1.55-2.27-3.09-3.68-5.09-.06.54-1.58-.66-.93.05l1.77,2.09-.54-.13c.68,1.8,1.2.69,2.02,2.51Z"/></g><g><path class="cls-1" d="m131.82,54.09c-.29-.76-.26-.04-.53.35l.53-.35Z"/><path class="cls-1" d="m131.29,54.44l-.37.24c.16,0,.28-.1.37-.24Z"/><path class="cls-1" d="m127.88,56.24c.15-.21.33-.34.52-.44.18-.13.37-.23.56-.33.38-.17.67-.46.6-.95-.91.15-1.78.75-1.68,1.72Z"/><path class="cls-1" d="m129.32,56.15l-.15-.46c-.09.33-.2.69-.34,1.04l.48-.58Z"/><path class="cls-1" d="m130.06,56.21l-.2-.08c-.29.34-.58.73-.93,1.07.4-.31.77-.67,1.13-.99Z"/><path class="cls-1" d="m125.01,56.46c.28-.02.55-.14.82-.19.9.55-.45.91.16,1.28.6-.05.63-.44.69-.76.06-.34.15-.62.79-.71-.14-.24-.63-.14-1.08-.06-.46.05-.9-.02-.84-.49-.49-.08-.5.03-.45.25.05.22.19.52-.1.69Z"/><path class="cls-1" d="m135.13,21.54c.05.07.09.1.14.15-.03-.12-.07-.22-.14-.15Z"/><path class="cls-1" d="m150.68,30.33c.11.27.25.51.4.73.02-.12.02-.26-.02-.41l-.38-.32Z"/><path class="cls-1" d="m123.59,22.23c-.26-.09-.51-.14-.74-.17.15.12.38.19.74.17Z"/><path class="cls-1" d="m113.21,84.1c.04-.06.08-.15.11-.27,0,0-.01-.01-.02-.02l-.19.24.11.05Z"/><path class="cls-1" d="m158.26,50.4c0,.28,0,.56.05.82.04-.47.02-.7-.05-.82Z"/><path class="cls-1" d="m117.29,24.39c.09-.05.16-.09.23-.13-.09.01-.21.04-.34.09l.09.05s0,0,.01,0Z"/><path class="cls-1" d="m146.51,25.21c.19.2.37.37.54.49-.16-.21-.35-.36-.54-.49Z"/><path class="cls-1" d="m114.94,49.12c-.06-.25-.21-.4-.39-.5-.05.21.03.4.39.5Z"/><path class="cls-1" d="m112.81,44.48s.01.02.01.03c.1-.06.07-.07-.01-.03Z"/><path class="cls-1" d="m112.32,41.29s.02.04.03.05c.08-.04.09-.06-.03-.05Z"/><path class="cls-1" d="m114.54,48.62c.12-.57,1.12-1.19-.28-1.09l-.11.18c.14-.43-.56-.64-.73-.99-.1.09-.18.17-.24.26.05.19.14.44.23.84-.05.56.68.55,1.13.81Z"/><path class="cls-1" d="m134.96,21.73c.02-.25-.53-.32,0,0h0Z"/><path class="cls-1" d="m128.96,21.78c.16.03.32.05.49.07-.15-.06-.31-.11-.49-.07Z"/><path class="cls-1" d="m110.27,29.72s.06-.04.1-.05c-.09-.1-.12-.02-.1.05Z"/><path class="cls-1" d="m129.89,21.89c-.15,0-.3-.02-.44-.04.14.06.27.1.44.04Z"/><path class="cls-1" d="m115.12,25.61s.07-.01.09-.03c-.03,0-.06,0-.09.03Z"/><path class="cls-1" d="m65.46,29.91c.26.27,0,.54.05.86,1.06.17-.56-1.18.54-.7-.11-.2-.37-.47-.61-.68l-.49.86c.27.19.29.07.3-.07,0-.15-.04-.4.21-.27Z"/><path class="cls-1" d="m109.54,81.43l.12.12c.03-.39.15-.47-.31-.84-.66.37-.22,1.44-1.27,1.72.18,0,.41.12.61.27-.17-.6.36-.98.85-1.27Z"/><path class="cls-1" d="m108.69,82.7s0,.03,0,.05c0,.09.03.16.05.23.12.05.23.12.3.2-.04-.17-.18-.35-.37-.49Z"/><path class="cls-1" d="m71.55,39.92c.07.16.13.3.19.43,0-.27-.07-.39-.19-.43Z"/><path class="cls-1" d="m147.85,48.86c-.08-.17-.16-.33-.25-.46.04.25.13.38.25.46Z"/><path class="cls-1" d="m117.08,83.25c.13.05.27.09.42.1.09-.02.16-.05.26-.06-.23,0-.45-.02-.68-.03Z"/><path class="cls-1" d="m86.87,77.81c.9-.41-.23-.13-.3-.98l-.78-.1c.28.51.75.78,1.08,1.08Z"/><path class="cls-1" d="m65.48,29.32s-.05.02-.08.03c.01.01.02.02.04.04l.04-.07Z"/><path class="cls-1" d="m75.29,64.37c-.02-.09-.03-.17-.05-.25-.01.07,0,.15.05.25Z"/><path class="cls-1" d="m111.74,84.03c.68.16,1.35.28,2.05.36l-.58-.29c-.36.43-1.08-.55-1.47-.07Z"/><path class="cls-1" d="m95.16,85.44l-.04.62c.81.1,1.54.32,2.23.59.35.13.69.29,1.02.42.29.13.58.26.86.39.9.42,1.86.83,3.01.39.88,1.45,1.53,1.23,2.11.95.6-.27,1.13-.58,2.16.74v-.3c1.09.43,2.24.85,3.52,1.21,1.28.36,2.71.62,4.03.74,2.66.25,5.16.11,7.49-.19,1.16-.15,2.29-.34,3.37-.56l.8-.17.89-.21c.6-.15,1.21-.33,1.81-.53,2.43-.79,4.8-2.12,6.52-3.52l.2.35c1.58-.9,2.89-1.78,4.3-2.76,1.38-.98,2.71-2.03,4-3.14,2.58-2.24,4.97-4.77,7.08-7.59,2.1-2.83,3.94-5.95,5.29-9.35.66-1.7,1.25-3.45,1.67-5.25.22-.9.42-1.8.56-2.71.16-.92.3-1.82.39-2.68-.26-1.32-1.2-.61-1.57-1.72.07-.46.06-1.52.55-1.51.23.92.69.43.87.75.02-1.52.59-3.54-.08-4.93l-.59,1.19c-.28-.53-.13-1.38-.14-1.88.34.19.98-.59,1.16-.16-.9-1.47-.82-2.07-.61-2.69.19-.61.55-1.18-.14-2.64-.36-.06-.76-.34-1.22-.74-.45-.43-.92-.76-1.4-1.23-.97-.88-2.04-1.86-3.01-2.49-.1-.37-.18-.75-.3-1.12.8,1.25.82-.58,1.75,1.07-.47-1.59-1.82-2.48-2.62-3.73-.06.44-.45.66-.95.34-.45-.78-.04-1.3-.73-2.08l1.03.43c-.15-.86-1.05-.81-1.59-1.16.23-.58-.95-1.64-.35-1.96-1.61-.26-1.77-.89-3.31-1.27,1,1.31-.72.42-.81.93.52.21,1.03.47,1.55.71-1.82-1.62.71.33,1.1-.52.67,1.03-2.18.39-.55,1.36-1.05-.46-1.62-.79-2.22-1.09-.6-.3-1.24-.55-2.39-.68,1.25.43-.5.44,0,1.02-1.47-.68-.21-.48-.41-1.25-.41-.19-.64-.43-.91-.58-.13-.08-.27-.14-.43-.16-.08,0-.18,0-.28,0-.09.02-.17.06-.28.11-.88-.72.44-.58.11-1.17.17-.1.35-.06.62.07.37.19.82.41,1.23.62.84.41,1.63.65,1.93-.38.73.36,2.04.15,3.07.88-.74-.84-1.8-2.22-3.22-2.37l-.58,1.04c-.9-.4-1.4.27-1.98-.09.51-.15-.1-.96-.4-.99.04.21.21.23.09.41-.38-.11-.73-.04-1.11.03-.4.06-.83.12-1.54-.15.9.86.87,1.27,1.53,2.15-.59.65-.68-.18-1.26-.39.14-.05.26-.01.18-.25-.25.02-.52.02-.79.02-1.16-1.07.79-.94-.16-1.93-.53-1.08-1.39-.3-2.02-.99.02.09.05.19.07.26-.17-.09-.29-.16-.38-.22,0,.02,0,.04,0,.06-1.03-.29-2.27-.61-2.66-.02-.05-.31-1.03-.03-1.25.16-.42.23-1.52.9-2.13-.15.02,0,.03,0,.05,0-1-.19-1.81-.54-1.56-.86-.56-.11-1.14-.22-1.74-.3l.21-.81c-1.68.22-1.53.69-2.64,1.6-.64-.18-1.54-.1-2.42.21-.23.08-.44.18-.65.27-.18.1-.34.19-.49.29-.3.19-.54.38-.7.53-.14.03-.33.11-.62.3h.79c-1.22.52-.86.84-1.6,1.26.19-.02.23,0-.23.13-.13.06-.27.13-.44.2-.01-.1.15-.19.34-.25l-.28-.15c-1.35-.14-1.04,1.28-2.04,1.71.06-.09.16-.24.25-.31-.6.19-2.05-.05-1.77.65-.17.03-.23.29-.26.56l-.41.24c.16-.11.29-.18.41-.23-.04.37-.02.75-.17.66-.39.35-.78.7-1.15,1.07-.29.15-.46.54-.57.87h-.43c-.3.52-.46.41-.5.3-1.08.51-1.38,1.35-1.62,2.18-.24.86-.39,1.7-1.22,2.66.41.58.92-.25,1.23-.21.3.48.31,1.74.52,2.38-.49.36-.98,1.26-1.45,2.03-.47.77-.91,1.43-1.47,1.18-.06,1.9.68-.59,1.08.35l-.04.21c.11-.63.51-1.11.97-1.42.31-.05.48.31.56.72.1.41.11.89.03,1.12l-.86-.29c.16.81.62,1.08,1.1,1.27.48.18,1.03.28,1.53.65-.17,1.17-1.03.67-1.75,1.05l.49,1.22-.63.16c.4.79,1,.81,1.15,1.98-.42-.3-.43.17-.45.61-.01.44-.06.87-.67.45.07.72,1.27.41.63,1.07.82.14.06-.69.15-1.09.41-.31.65-.02.86.42.23.43.43,1.02.73,1.3-.42.3-.79-.19-.64.8.44,0,.97.35.85,1.04.54-.33.67.82.96,1.28-.26-.56-.31-1.53.36-1.51.47.22.75.47,1.31,1.3-.06-.24-.14-.47-.18-.72.63.07.72.41.77.88.04.47.13,1.01.66,1.33-.62-.09-.87-.3-1.52-.34.63.25,1.72.71,2.59,1.01.05.46.13.91.24,1.37.37-.31.94.71,1.3.15.43.5.13.55-.36.49-.49-.05-1.11-.27-1.31-.11.57.68,1.03.63,1.41.62.4-.01.68.06,1.22.83l-.77.3c.5.28,1.65.45,1.62.72.08-.2-.23-.21-.54-.36.81-1,2.68,0,2.84-1.38-.21-.08-.42-.15-.62-.26.53.04,1.02-.17,1.43-.26.42-.11.77-.2,1.11.09.54.51-.48.84-.93,1.13,1,.22.97-1.31,2-1.17-.56-.23-.41-.7-.11-1.03-.55-.05-1.64-.5-1.53.09l.19.15c-.1.33-.45.43-.65.55-.82-.2-.24-.68-.34-.97-.61-.25-.72.03-.85.37-.12.33-.23.69-.86.44l-.07-.3c-.72.08-1.65-.31-2.2.29-.06-.54-.44-.64-.86-.76-.4-.13-.86-.23-.98-.64.53-.78.97-.43,1.45.08.51.46,1.11,1.11,1.69.78-.45-.64.75-.65,1.14-.94l-1.09-.06c-.37-.04-.73-.11-1.11-.16-.04-.3.02-1.43-.68-1.08l.11.13c-.8-.29-1.09.41-1.51-.26.03-.2.4-.28.52-.35-.39-.55-.71-.04-1.15-.24-.35-.6.78-.31.54-.85-.53,0-.71-.26-.78-.57-.08-.31-.08-.62-.29-.88-.35.44-1.04.1-1.64-.17-.58-.28-1.1-.47-1.07.46-.53-.37-1.05-.78-1.55-1.21.23-.74,1.91.37,2.45-.52.21.39.44.77.66,1.15.5-.47-.06-.9-.6-1.48-.55-.57-1.08-1.3-.57-1.98-.19-.65-.35-.45-.13-1.86l-1.06.58c.03-.75.63-1.13.82-1.22-.19-.35-.24-.69-.25-1.05.19.05.38.15.48.35.55-.62.28-.68-.1-.78-.36-.19-.36-.6-.41-.99l.49.29c-.13-.22-.31-.49-.52-.5-.02-.16-.06-.32-.14-.46-.19.12-.89.45-1.09,1.11.25-1.61,0-2.88,1.13-4.03.33.09.7.62.76.48.24-.55-.26-1.27-.76-1.32,0-.14,0-.25.02-.35.32-.05.64-.12.77-.38.12-.03.24-.11.34-.29-.88-.47-.01-1.41-.3-1.8-.21.21-.31.55-.41.88-.42-.67-.89-1.45-.24-1.59.14,1.1,1.3-.45.95.9,1.48-.3-.57-.83.34-1.56.26-.11.5-.22.76-.32.5.47-.27,1.08.03,1.09l.16-.42c.1.32-.14.79-.31,1.33-.09.26-.16.56-.18.85-.03.29,0,.59.13.87.29-.55.65-1.06,1.01-1.52.15-1.19,1.04-2.39,1.97-3.42.95-1.05,1.89-1.99,2.44-3.2-.03.02-.05.04-.07.06,0-.08-.05-.2-.16-.43l.18.09.13-.68c.39.17.8.14,1.22.16.21,0,.42,0,.64.02.21.02.44.03.58.14-.19-.17-.38-.2-.47-.3-.1-.09-.16-.2-.27-.44-.17-.66-.14-1.03.58-.95.11.47-.26.55.28.82-.29-.18-.17-.56.13-.69.45.24,1.17.23,1.22.73-.19.14-.35,0-.48-.06-.17.15.8.36.29.82.23-.07.47-.13.72-.19.46.39-.27.65-.07.91,1.2-.38,1.99-1.47,3.36-1.73-.08.26-.15,1.35-.12,1.03.5.19,1.09-.06,1.72-.37.31-.15.64-.32.97-.45.16-.06.33-.12.5-.16.08-.02.17-.04.25-.05.07-.01.11-.02.17-.02-.06.31-.64.16-1.01.29.25.04.49.08.74.11.24.04.3.07.46.1.26.08.51.16.76.28.5.22,1.02.55,1.63.98.7.52,1.39,1.04,2.09,1.57.4.3.85.61,1.33.92l.18.12.11.09.23.19.45.39c.39-.23.79-.45,1.2-.67.14.33.26.69.37,1.03,1.23,1.06,2.31,1.8,3.39,2.54,1.07.74,2.15,1.49,3.11,2.56.57.69-.36.88-.41,1.37.42.8.9,1.17,1.44,1.57.27.2.53.41.8.67.26.26.46.48.63.92-.4-.17-1.41-.25-1.3.4.35.05.86.05.76.56l-.39-.18c-.41.51.13.86.01,1.89.19,1.76.98,3.58,2.15,5.27-.2,1.74-1.19-.24-1.45.08.46-1.19-.17-.84-.55-1.11.31.63.46,1.42-.36,1.7,0,.87-.07,1.26.37,2.15-.22-.45.24-.78.56-.34-.33.71-.34,2.42-1.29,2.16-.5,3.8-2.48,7.75-5,11.2-.03.89.5-.32.55.21-.12,1.25-.79.46-.9,1.47l-.21-.62c-.84.93-.98,2.61-1.52,3.9-.3-.58-1.1.39-.63-.62-.37.53-2.85-.94-2.77-.22.75.47,1.52.93,2.29,1.38.15.21-.59.71-.4.77-.75.01-1.66,0-1.93.26-.57-.37.21-.89.6-1.22-.7-.85-1.73.62-1.86-.61-.66.85.49.31.28,1.05-.28.16-.58.29-.87.44l.8-.19c-.39.75-.07,1.58-1.29,1.79l-.23,1.53c-.61-.61-.75.38-1.35.56l-.03-.66c-.61.48-.93.54-1.51.56-.08-.87.67-.26.4-.95l-.82.28c.29.4.06,1.03.73.91-.13,1.19-.08,2.13-1.74,3.08-1.15-.28.38-1.1-.36-1.62-.89.36-1.07,1.07-1.22,1.8-.14.72-.24,1.44-.77,1.62-1.44.2-1.09.9-2.55,1.37.3-.67-1.15-.33-1.6-.8.16-.24.34-.48.47-.71-.4.28-.93.16-.87-.27.25.74-1.85,1.15-2.83,1.67l.3.62c-.79.36-1.9.94-2.8.84-1.29.31-.95.87-1.98,1.61-.59-.59-.49-1.3-.31-2.01.33.34.9.13,1.48.3,1.62-.68,2.62-2.23,4.3-2.22.4-1.7-1.06.4-1.92-.05,0-.1.06-.14.11-.16-.07,0-.13,0-.2-.02.53-.27,1.42-.69,1.42-1.51-.9.32-.42,1.7-1.68,1.19-.81.56-1.61-.62-2.07-.7-.47.62-.47,1.92-1.79,1.66.2-.3.38-.58.57-.88-.7-.01-.87.3-1.04.61-.17.32-.34.63-.99.54.46.16-.58.82.34.94-.51.45-1.56.37-2.28-.09-.24.08-.12.28-.23.56.78.83,1.49-.29,2.08.69.25-.3.48-.59.71-.9.78.4.88,1.17.32,1.52.25-.02.47-.16.65.02.11,1.46-1.04-.54-1.43.64.22,0,.44-.04.65-.06.25.97-1.63.72-2.46.46-.87-.63-1.65-1.03-1.52-1.7.43.02.85.04,1.27.03-.47-.66-1.59-.09-2.29-.36-.02-.1-.06-.19-.12-.27.02.07.02.13,0,.2-.14-.08-.24-.21-.3-.4-.59-.25-1.64-.2-2.13-.64l-.16.59.2-.29c.55.25,1.18.89.59,1.15-1.44-.11-1.25-1.31-1.35-1.92.64-.74,1.23.51,1.98.46-.05-1.01-1.23-.58-2.3-1.7.91-.71,1.5.64,2.13-.12-.96-.57-1.5-.03-2.52-.73.33-.37,1.42.04,1.58-.55l-.6-.56c1.75.67.19-1.28,1.62-.96-.46-.64-1.19.4-1.88-.58.1.52.52,1.56-.51,1.56l-.92-.7c-.25-.63,1.5-.55.98-1.21l-1.25-.13c-.07.3.42.65-.08.9-.27-.28-.64-.12-1.07.13-.21.13-.43.26-.66.4-.19.14-.4.25-.59.29-.49-.22-.84-.45-.85-.84-1.56.28-2.95-.64-4.48-.81,1.07.07.61-.83.52-1.5.83.53,1.41-.25,1.73-.75-.47-.24-1.39.25-1.37.68-.49-.93-.95.05-1.19-1.03-.2-.64.85-.48.95-.88-.76-.78-1.01.64-1.74-.39.14-.04.25.01.3-.18-.33-.61-1.2-.85-1.63-.63.35-1.39-1.56-1.42-.59-2.14-1.39-.99-.3.63-.83.68-.87-.13-1.42-1.37-1.55-1.79.3.29.8.34.94.76l.37-.83c-.96-1.92-2.29.3-3.09-1.69,1.01.49.7-.16,1.48-.16-.36-.09-1.21-1.42-1.07-.29-.44-.61-.66-1.1-.87-1.6-.67-.3-1.3-.72-1.97-.68-.59-.88-.58-1.85-.6-2.47-.92-.72-1.51-1.71-2.21-2.75-.35-.52-.72-1.05-1.17-1.55-.22-.25-.47-.5-.74-.73-.15-.11-.3-.2-.48-.29l.03.11c-.28-.48-.42-.24-.59.05-.15.27-.32.59-.71.01.94-.41.17-1.01.37-1.84-.25-1.08-1.09-2.28-1.86-3.15-.78-.91-1.54-1.71-2-2.87.18-.11.48-.15.78.21-.87-1.68-1.94-2.64-2.82-3.82l.14-.03c-.42-1.18-1.1-1.98-1.81-2.69-.37-.37-.7-.66-1.1-1.08-.45-.51-.91-1.01-1.34-1.53.23.11.58-.06.79.01-.59-1.3-1.69-3.09-2.95-3.26-.03-1.78-.84-.64-1.06-2.69.09-.18.24.05.34.13-.21-.91-.62-1.35-.94-2.11-.74-.6-1.42-.84-2-1.21-.14-.09-.28-.19-.42-.3-.15-.15-.3-.33-.44-.52-.28-.39-.53-.88-.76-1.52,1.17-.77,1.07,1.33,2.08.91-.46-.4-.93-.69-.99-1.51.69.15.35-.07.94-.02.05-.72-2.39-1.38-2.26-1.42-.25.11-.28.35.01.79-1.04-.14-1.37-2.25-2.34-3.15.2.36.65,1.62-.17,1.54-.64-1.61-2.07-1.35-3.16-2.01-.32-1.62,1.59.29,2.25-.47.16-.41.46-1.36,1.14-1.02-.6-1.3-1.86-1.66-2.73-2.55l.24-.13c-1.07-1.35-3.09-2.11-3.45-3.56l.17.79c-.29-.13-.71-.86-1.44-.91.4-.22.11-1.34.67-1.2-.81.12-1.53-.51-2.24-1.16-.67-.6-1.53-1.47-2.33-1.35,0-.59.7-.66,1.06-.74.29.49.44.87.63,1.17.18.28.34.4.74.46-.13-.17-.22-.35-.29-.51-.08-.18-.15-.38-.18-.54-.06-.31,0-.54.17-.57-1.36-.32-2.84-1.6-3.78-1.39.03-.74.02-1.26.75-1.51-.66-.67-1.06-.23-1.43.21-.34.43-.68.91-1.24-.31.1-.73.45-.52.71-.38.26.13.45.26.25-.55l.23.24c.69-.9.28-1.03-.37-1.07-.65-.06-1.5-.04-1.85-.84.85-.71,1.24.88,1.37-.66-.2-.3-.48-.58-.75-.78-1.21-.87-2.4-.63-2.99-1.65l.48-.15c-.73-.61-1.72-1.96-2.09-2.43.16-.14.18-.05.31.02-.13-.55-.25-.58-.39-.63-.1-.04-.24-.11.09-.67-.15-.04-.29-.09-.44-.14-.24.28-.45.75-.37,1.19.06.44.34.77.81.89-.46-.11-.58.31-.62.85-.05.53-.04,1.15-.52,1.29l.39-.11c.12.77.39,1.5.69,2.18.15.32.3.65.45.98.14.31.21.56.3.84.23.85.35,1.99.77,3.58.98.82,1.37,1.6,1.76,2.41.38.8.76,1.58,1.63,2.1.58-.26.69-.22.79.01.12.26.16.63.75,1.28-.64-.65-.84.45-.65,1.02.45.09.78.35,1.11.62-.15.53.27,2.85,1.41,2.99.27,1.06-.46.04-.8,0-.28.71.89.39.74.91,0,0-.12.06-.23.01.94,1.24,1.22,2.18,1.99,3.58,1.08-.58,1.26,1.03,2.01,1.37-.46.03.11.99.15,1.49l1.22.22c1.09.31.15,1.26,1.03,1.96l.06-.33c.73.49,1.06,2.64.78,3.59.32.32.61.63.95,1.07.31.41.61.8.9,1.18.57.76,1.07,1.48,1.53,2.19.91,1.41,1.61,2.78,2.25,4.15.63,1.37,1.21,2.74,1.81,4.09.08.17.16.34.24.51.11.22.23.43.34.65.24.43.5.87.78,1.28.56.84,1.19,1.64,1.91,2.4.62.19.24-.69.92-.7.63.56.71.74,1.18,1.3-.16-.71-.41-.38-.09-.52l-.99-.68c.04-.1.14-.02.21-.22-.33-.24-.81-.44-1.08-.89.7.39,1.53-.01,1.87.96-.14.02-.25-.05-.47-.2.45.67.81.43.99,1.04.3.68.4.37.15.69.34.68.66,1.34.96,1.99,1.51.19,1.38,1.83,1.45,2.13-.79.27-.92-.94-1.87-.87-.02.31-.03.62-.07.91l.55-.34c.15.31.27.61.4.91l-.13.02c.28-.04.55-.08.49.24-.05.08-.16.25-.24.18l.64.37c-.76,0,.1.6-.62.89.33,1.03,1.05,1.97,1.84,2.87.39.45.79.9,1.19,1.44.2.26.4.55.61.86.13.19.15.26.19.38.04.11.07.23.1.36.06-.48,1.31-.37,1.61.24.09.4,0,.59-.37.59l.84.43c-.28,1.6.98,2.05,1.82,3.8l-.33.13c.75.3,1.45.69,2.01,1.57l-.64.28c.45,1.29,1.71-.16,2.28,1.17.55-.48.27-1.39.71-1.93-.36.73.52,1.92.69,1.31,1.12.83.61.72.55.92l.86.3c.61.73-.5.87-1.05.89,1.18.14,1.43,1.22,2.04,2.04l-.52-.07.82,1.06c1.01.23,1.87,1.05,2.45,2.06l-1.23.13c.19.91.52.05.78.08,1.23.57.99,1.23,1.14,2.12,1.14.38,1.74,1.42,2.49,2.41.74.98,1.64,1.9,2.95,1.81Zm15.78-55.88l.24-.07c-.14.45-.15.76-.24.07Zm9.43-6.91c-1.24.87-.96.3-1.18.09.72-.16,1.26-.37,1.88-.54.57-.14,1.13-.24,1.77-.15-.22-.17-.3-.42-.39-.57.54-.02,1.06.15,1.26.63-.27.5-1.19.41-2.07.39-.44-.02-.87-.01-1.13.01-.27.02-.33.06-.14.14Zm-7.61,20.3c-.08-.02-.16-.05-.24-.09h0s.24.09.24.09Zm-.9-5.41c.22-.04.36-.15.47-.29-.27.04-.5.1-.47.29Zm6.7-8.15c.43.17.79-.24,1.07-.53-.17.07-.53.13-1.07.53Zm21.09,42.52c.15-.36.34-1.11-.3-.89.03.45-.78.42-.59.97-.04.01-.05,0-.08,0,.48-.01.88-.02.97-.08Zm-31.87,13.03c.2-.35.61-.66.54-1,.03.02.06.04.09.06-.04-.16-.08-.29.02-.35-.25-.17-.51-.37-.75-.34-.55,1.17-1.24,1.13.1,1.62Z"/><path class="cls-1" d="m119.47,80.74c-.12.04-.23.05-.3.08.08-.01.18-.04.3-.08Z"/><path class="cls-1" d="m107.74,83.35c-.05.07.23.31.58.59-.03-.18-.18-.37-.58-.59Z"/><path class="cls-1" d="m122.7,59.38c-.14.02-.3.05-.44.06.25.19.52.34.79.51.75-.1,1.14-.35,1.38-.62.24-.27.34-.57.5-.89-.58.29-1.08.37-1.59.3-.26-.03-.53-.06-.83-.1-.29-.06-.62-.13-1-.18.38.3.76.66,1.19.92Z"/><path class="cls-1" d="m122.94,55.05c-.06-.19-.18-.67-.3-.74l-.24.34.54.39Z"/><path class="cls-1" d="m115.84,46.53c.02.33.06.66.12.98.43.09.47-1.11-.12-.98Z"/><path class="cls-1" d="m112.79,54.29c.26.09.51.18.78.24-.18-.68-.69-1.29-1.16-1.11.73.49-.07.32.38.87Z"/><path class="cls-1" d="m115.03,44.22c-.81-.06.08-.95-.65-.96.24.18-.09,1.14.65.96Z"/><path class="cls-1" d="m108.29,47.24c-.56.65.31,1.08.47,1.91-.28-.66.09-1.82-.47-1.91Z"/><path class="cls-1" d="m112.21,39.5c.54.08.49.47.38.94-.17-.15-.43-.25-.52-.47.44.79.35.84.66,1.44.31-.66.59-1.53,1.27-1.42-.51-.4-1.24-1.03-1.78-.48Z"/><path class="cls-1" d="m107.62,45.33c-.02.72-.41,1.3-.08,2.09.33-.27.73-.7.4-1.61l.71.15c.22-.98-.73.58-1.03-.64Z"/><path class="cls-1" d="m114.08,37.07c-.13.06-.24.13-.36.2.35.74-.01,1.51.79,1.93,0-.73-.16-1.67-.43-2.13Z"/><path class="cls-1" d="m108.23,41.82l-.91-.05c-.04.99.29-.1.54.23-.11.28-.14.71.06.88-.28-1.06.7-.16.31-1.06Z"/><path class="cls-1" d="m107.21,38.66c-.12-.43-.16-.88-.24-1.33-.37.29-.74.6-1.11.93.25,1.61.55.11,1.35.4Z"/><path class="cls-1" d="m107.99,37.2l.19-.11c-.3-.68-.64-1.41-.86-2.17.22,1.28.16,1.34.67,2.28Z"/><path class="cls-1" d="m123.6,27.96c.11-.4-.69-.8-.32-.4-.09.33.89.73.32.4Z"/><path class="cls-1" d="m117.95,22.22c.33.01.84-.32,1.42-.68.51-.36,1.37-.82,1.78-1.03-1.29.39-3.56,1.29-3.2,1.71Z"/><path class="cls-1" d="m121.51,20.33c-.07.04-.21.1-.36.18.17-.07.29-.12.36-.18Z"/><path class="cls-1" d="m152.35,29.68c.07.06.16.11.26.13-.09-.05-.17-.09-.26-.13Z"/><path class="cls-1" d="m151.59,29.18c-.32-.52-1.32-1.17-1.75-.98.8.47,1.46.94,2.51,1.48-.31-.27-.44-.85-.76-.5Z"/><path class="cls-1" d="m156.09,36.29c-.41-.3-.54-.89-.82-.59-.05.29.7.95.82.59Z"/><path class="cls-1" d="m133.98,72.85c-.57.19-.74.52-.27.87.5-.4.01-.45.27-.87Z"/><polygon class="cls-1" points="133.2 74.26 132.97 74.09 132.42 73.97 133.2 74.26"/><path class="cls-1" d="m129.51,75.9c-.03-.09,0-.23.05-.33-.13.18-.24.35-.05.33Z"/><path class="cls-1" d="m129.63,75.48s-.05.06-.07.09c.02-.03.05-.06.07-.09Z"/><path class="cls-1" d="m129.94,75.48l-.13-.27c-.03.07-.11.17-.18.27.08-.08.19-.11.31,0Z"/><path class="cls-1" d="m128.53,76.41c.34.13.69.24,1.05.35.39-.75-.94.09-.83-1.07l-.22.73Z"/><path class="cls-1" d="m126.73,77.68c-.6-.02-.9,1.54-1.57.69-.71.51-.53.88-.34,1.25.18.36.36.74-.67,1.2,1.09-.01,1.19-.57,1.25-1.1.06-.53.08-1.03.92-1.06-.94-.29.29-.65.4-.99Z"/><path class="cls-1" d="m127.74,79.09c-.14-.49-.85-.2-.95.2.23-.04.9.44.95-.2Z"/><polygon class="cls-1" points="123.79 79.19 123.15 78.94 123.06 79.29 123.79 79.19"/><path class="cls-1" d="m121.46,79.5l.47-.7c-.15.27-1.05.41-.47.7Z"/><path class="cls-1" d="m118.22,79.31c-.53-.14-.86,1.28.22.84l-.26-.02c.04-.22-.6-.62.04-.82Z"/><path class="cls-1" d="m111.78,81.23c.33.11.75.03.74-.27-.31.03-.63.05-.96.05l.22.21Z"/><path class="cls-1" d="m111.12,84.47c.19.89,1.05.18,1.74.54-.82-.29-.69-.37-1.74-.54Z"/><path class="cls-1" d="m111.05,79.8c.35-.25.65.07.85.18.02-.48-.61-.53-.85-.18Z"/><path class="cls-1" d="m109.44,79.54c-.2-.43.23-.41.07-.71-.55-.61-1.3-.86-1.9-.61.06.4-.04,1.4-.5,1.66,1.3.22,2.39-1.02,2.52.29.47-.34.92-.69,1.35-1.06-.74-.49-.97.74-1.54.44Z"/><path class="cls-1" d="m110.84,82.89l-.47-.64c-.01.49-.51.42-.89.45-.17,1.06,1.01.16,1.36.19Z"/><path class="cls-1" d="m102.48,77.43c-.42-.07-.83-.15-1.23-.25.11.07.22.14.34.21.29.02.59.03.89.03Z"/><path class="cls-1" d="m101.89,76.82l.09-.29c-.35.06-.69.1-1.04.14.32.06.63.11.95.16Z"/><path class="cls-1" d="m100.95,75.99l.1.1c.23.02.47.04.71.05-.27-.04-.54-.09-.81-.15Z"/><path class="cls-1" d="m99.13,74.6l-.09.48c.3.07.5.81.78.27-.32.05-.76-.36-.69-.75Z"/><path class="cls-1" d="m84.13,75.75c.41,0,.48-.29.56-.6l-.86.18c.12.07.35.22.3.42Z"/><path class="cls-1" d="m83.77,73.52l-1.42-.31c.8,1.11,1.43.79,2.31,1.56-.13-.55-1.05-.65-1.3-1.27l.4.02Z"/><path class="cls-1" d="m70.85,54.93c.5-.25.31-.39,1.03,0-.86-.63-1.31-1.41-2.16-2.34-.14.38-1.2.04-.78.32l1.11.87-.42.07c.23,1,.88.11,1.21,1.08Z"/><path class="cls-1" d="m43.59,3c.3-.08.34-.38.39-.69-.84-.43-.22.78-.39.69Z"/></g><g><path class="cls-1" d="m100.67,120.9c-.7-.31-.23.09-.15.47l.15-.47Z"/><path class="cls-1" d="m100.52,121.37l-.09.34c.11-.1.13-.21.09-.34Z"/><path class="cls-1" d="m100.59,124.56c-.75-.52-.21-1.58-1.11-1.94-.2.44-.17,1,.05,1.38.21.39.58.61,1.06.56Z"/><path class="cls-1" d="m100.84,123.38l-.48.02c.29.16.57.3.86.43-.13-.14-.26-.29-.38-.44Z"/><path class="cls-1" d="m101.17,122.87l-.15.12c.22.28.45.54.68.79-.19-.29-.37-.59-.53-.91Z"/><path class="cls-1" d="m100.93,126.88l-.34-.68c.45-.76.94.16,1.24-.35-.24-.81-1.35.11-1.46-.96-.53.28.47,1.56-.49,1.68.02,1.12.55-.1,1.04.31Z"/><path class="cls-1" d="m98.96,167.15c-.05,0-.08.03-.12.04.11.02.19.02.12-.04Z"/><path class="cls-1" d="m92.66,177.81c-.21.07-.4.16-.57.27.11.03.22.04.35.03l.22-.29Z"/><path class="cls-1" d="m100.82,160.12c.17-.11.3-.22.41-.32-.16.02-.3.11-.41.32Z"/><path class="cls-1" d="m72.73,188.28c.06.03.15.07.27.09,0,0,.01-.01.02-.02l-.24-.15-.05.08Z"/><path class="cls-1" d="m83.7,187.33c-.17.15-.37.33-.42.45.1-.07.22-.17.29-.25.07-.08.11-.15.13-.2Z"/><path class="cls-1" d="m102.38,156.13c-.02.06-.04.11-.06.17.05-.04.11-.1.16-.18h-.1s0,0,0,.01Z"/><path class="cls-1" d="m96.53,175.13c-.16.11-.3.22-.38.33.16-.09.28-.21.38-.33Z"/><path class="cls-1" d="m101.77,136.92c-.06.16,0,.26.13.35.13-.1.15-.22-.13-.35Z"/><path class="cls-1" d="m101.55,139.95s0-.02,0-.03c-.12,0-.1.02,0,.03Z"/><path class="cls-1" d="m101.06,142.92s-.01-.03-.02-.05c-.08.03-.1.04.02.05Z"/><path class="cls-1" d="m101.9,137.27c-.36.29-1.55.31-.24.57l.18-.05c-.3.15.2.42.2.67.13,0,.23-.02.33-.04.03-.11.08-.26.18-.48.28-.27-.35-.45-.65-.66Z"/><path class="cls-1" d="m98.76,167c.23.08.25-.21,0,0h0Z"/><path class="cls-1" d="m99.53,163.62c-.08.1-.14.17-.2.26.09-.07.18-.12.2-.26Z"/><path class="cls-1" d="m104.79,151.15s-.04.03-.07.04c.13.06.12,0,.07-.04Z"/><path class="cls-1" d="m99.17,164.13c.05-.09.1-.17.16-.25-.09.05-.16.12-.16.25Z"/><path class="cls-1" d="m103.11,154.65s-.04.03-.05.04c.02,0,.04-.02.05-.04Z"/><path class="cls-1" d="m97.82,145.52c-.11.32-.5.22-.77.38.23,1.07.9-1.01.87.21.19-.22.25-.49.29-.73l-.89-.19c-.12.64.46-.12.51.34Z"/><path class="cls-1" d="m74.78,185.19l-.08.1c.38-.04.49.04.73-.37-.53-.42-1.44.06-2.01-.64.05.13,0,.31-.09.48.54-.21,1.04.1,1.45.42Z"/><path class="cls-1" d="m73.33,184.77s-.03,0-.04.01c-.08.02-.15.04-.21.07-.01.09-.05.18-.12.24.15-.05.29-.18.37-.33Z"/><path class="cls-1" d="m90.62,151.98c-.1.05-.2.09-.28.13.21.03.28-.03.28-.13Z"/><path class="cls-1" d="m77.64,178.77c.02-.12.04-.26.04-.38-.08.13-.08.26-.04.38Z"/><path class="cls-1" d="m73.24,191.36c-.08.09-.13.19-.17.3,0,.07.01.13,0,.21l.17-.5Z"/><path class="cls-1" d="m68.33,169.61c.87.42-.04-.21.59-.59l-.39-.56c-.24.39-.17.81-.2,1.15Z"/><path class="cls-1" d="m98.27,145.39s-.04-.03-.06-.06c0,.02,0,.03,0,.04h.07Z"/><path class="cls-1" d="m72.51,156.82c.08-.05.14-.09.21-.14-.07.02-.14.06-.21.14Z"/><path class="cls-1" d="m72.68,187.15l-.23,1.56.28-.43c-.43-.27.49-.85-.05-1.13Z"/><path class="cls-1" d="m66.54,175.95l-.59.06c.2.56.22,1.11.18,1.69-.02.47-.12.86-.2,1.27-.16.81-.25,1.59.53,2.29-2.17,1.71,1.65,1.42-.29,2.96l.29-.03c-.44,2.79-1.08,5.52-1.73,8.05l-.12.47c-.04.16-.07.27-.14.6-.12.56-.19,1.09-.25,1.61-.1,1.01-.1,1.89-.09,2.62.05,1.5.12,2.3.25,2.7l-.39-.1c-.11.16-.17.16-.24.21l8.6,3.26c.19,0,.64-.02,2.04.34l.6.16s0,0,0,0l.03-.06.13-.29c.12-.27.3-.68.51-1.25.22-.6.46-1.38.58-2.09.32-1.85.47-3.09.71-4.03.21-.88.66-2.09,1.11-2.97.46-.92,1-1.69,1.74-2.48.74-.79,1.71-1.6,2.86-2.43.34-.74-.54-1.16-.3-1.91.1-.06.35-.26.59-.37.23-.12.46-.17.62.02-.39.67.2.75.12,1.06.96-.83,2.44-1.47,2.67-2.55l-1.01.11c.09-.45.61-.73.85-.93.14.32.95.48.87.78.1-1.23.44-1.33.85-1.34.21,0,.42.02.62-.03.1-.03.19-.08.27-.16.03-.03.1-.11.1-.13,0-.02,0-.06-.01-.1-.42-.52-.69-1.12-.62-1.85.05-.72.47-1.57.8-2.36.27-.04.55-.08.84-.14-.87.58.54.83-.54,1.45.52-.1.95-.44,1.39-.84.43-.4.88-.9,1.32-1.17-.39-.1-.64-.47-.44-.86.59-.31,1.09.11,1.66-.38l-.2.83c.72-.02.53-.8.75-1.19.53.26,1.3-.54,1.67,0,0-1.25.54-1.27.71-2.38-1.06.52-.47-.63-.92-.79-.14.35-.3.71-.46,1.07,1.25-1.12-.22.49.61.96-.81.37-.65-1.79-1.29-.66.49-1.51,1.02-1.54,1.13-3.22-.32.84-.44-.47-.94-.22.54-.95.43-.06,1.13-.03.29-.53.87-.45.53-1.28.73-.7.55.48,1.14.24.41.65-2.09,1.96-.17,2.83-.26.47.04,1.48-.48,2.15.65-.44,1.79-.94,1.84-1.93l-.99-.65c.3-.56-.33-1.08-.02-1.41.18.38.82.26.99-.22-.22.04-.28.23-.43.08.37-.84-.28-1.34.02-2.36-.68.6-1.08.6-1.93,1.05-.62-.6.17-.55.31-1.02.06.12.04.21.25.17l-.11-.63c.82-.76.99.69,1.77.11.9-.2.05-.91.61-1.12-.08,0-.17-.02-.23-.02.06-.08.11-.14.16-.17-.02,0-.03,0-.05-.02.15-.55.49-1.01.02-1.45.27.08.16-.45.07-.7-.07-.39-.35-1.36.74-1.25,0,.01-.01.02-.01.03.47-.56,1.02-.9,1.24-.6l.8-.93.65.5c.34-1.1-.14-1.23-.55-2.27.79-.5.99-1.97.89-2.56.06-.07.11-.19.15-.41l-.46.32c.33-.79-.1-.84.07-1.36-.11.08-.16.08.06-.17.05-.08.09-.18.16-.28.07.05.02.17-.06.27h.29c1.03-.4-.15-1.15.33-1.74.01.07.03.2,0,.27.32-.32,1.58-.59.94-.93.11-.07,0-.24-.12-.42l.19-.26c-.07.11-.13.19-.19.25-.18-.23-.42-.47-.25-.45l.19-.47.18-.39c.15-.12.12-.37.06-.58l.37-.05c.05-.33.24-.28.32-.21.73-.37.74-.87.74-1.42,0-.55-.02-1.11.66-1.76-.47-.42-.87.15-1.18.11-.35-.33-.53-1.25-.78-1.7.9-.52,1.68-2.48,2.78-2.09.14-1.11-.7.31-1.06-.26l.05-.13c-.15.38-.55.67-.99.87-.6.04-.73-.96-.54-1.23l.85.25c-.25-1.01-1.55-.85-2.35-1.58.43-.79,1.15-.22,1.93-.29-.04-.26-.07-.52-.09-.79l.63.13c-.08-.46-.6-.77-.18-1.51.24.36.45.09.68-.17.23-.26.48-.52.8,0,.3-.5-.92-.8-.04-.98-.65-.43-.39.45-.65.66-1,.05-.3-1.14-.61-1.75.51-.07.62.42.93-.35-.39-.14-.73-.54-.32-1-.63.1-.25-.73-.3-1.1-.03.43-.39,1.11-.99.94-.31-.26-.48-.48-.56-1.16l-.19.52c-.53-.18-.42-.46-.23-.78.2-.32.47-.64.28-1.01.42.28.45.48.96.65-.36-.26-.91-.89-1.25-1.46l.9-.73c-.47-.05,0-.77-.65-.73.37-.89.82.65,1.29.7.36-1.11-1.11-.77-.24-1.97l.64.31c.01-.39-.46-1.14-.18-1.25-.21.04-.09.23-.05.48-.66-.03-.95-.42-1.28-.76-.33-.33-.66-.55-1.27-.27l.05.47c-.45-.6-1.48-.73-1.23-1.43.26-.55.95-.03,1.36.08-.15-.67-1.56,0-1.72-.84-.06.49-.53.58-.95.42.09.54.19,1.52.65,1.17l.06-.2c.34-.08.54.11.75.17.2.58-.48.46-.68.66.06.91,1.31-.34,1.48.53l-.23.16c.42.35.54,1.05,1.36,1.12-.82.49.41,1.08-.07,1.58-1.88.21.04-1.67-1.06-2.09-.33.52-.92-.17-1.38-.24.34.37.66.84.96,1.33-.25.14-1.16.65-.46.91l.04-.13c.25.64,1.01.41.8,1-.16.1-.48-.05-.61-.08-.13.56.47.42.68.75-.1.57-.81-.19-.95.31.41.29.41.55.34.84-.07.31-.23.55-.15.77.5-.22.96.16,1.37.47.41.3.78.56,1.16-.07.31.37.61.78.87,1.24-.28.23-.65-.01-1.09-.2-.43-.19-.92-.33-1.35-.13-.01-.27-.05-.56-.09-.86-.64.2-.34.59-.11,1.03.24.43.38,1-.39,1.17-.12.4.09.34-.74,1.02l1.19.13c-.38.4-1.05.39-1.27.39-.01.38-.11.7-.21,1.02-.16-.12-.3-.27-.31-.51-.74.36-.52.56-.19.77.26.29.18.66.14,1.02-.14-.12-.28-.24-.41-.37.07.24.18.52.4.56,0,.15.01.29.08.42.21-.08.92-.27,1.27-.73-.58,1.23-.32,2.21-1.39,3-.34-.06-.74-.46-.79-.35-.2.4.34.88.85.93.02.1.02.17.01.23-.3.03-.63.06-.72.22-.12.02-.22.07-.29.19.9.34.21,1.05.56,1.37.16-.18.22-.43.26-.68.51.51,1.1,1.07.52,1.21-.36-.87-1.17.43-1.1-.67-1.37.35.7.63.04,1.3l-.62.39c-.63-.3-.05-.97-.33-.92l-.04.39c-.37-.54.4-1.78-.21-2.57l-.77,1.3c.04.56-.07,1.16-.22,1.82-.08.35-.17.7-.25,1.05l-.13.56-.09.43c-.21,1.11-.36,2.14.08,3.19,0-.02,0-.05,0-.08.05.05.17.1.41.21l-.19.02.38.5c-.74.16-1.11.79-1.82,1.14.54-.18.54-.19,1.03-.03.61.33.85.5.39.95-.45-.19-.3-.51-.82-.28.31-.1.55.21.5.47-.42.17-.72.64-1.17.43-.06-.19.15-.23.26-.29-.06-.19-.66.35-.83-.22l-.13.58c-.52.11-.48-.49-.77-.49-.12.98.62,1.96.45,2.93-.2-.17-1.14-.72-.87-.56-.61.39.19,2.01-.15,2.8-.22-.27.06-.5.05-.81-1.71,2.17-2.68,4.08-4.73,5.51l.66,1.08-.94.1c-.92.78-1.46,1.54-1.92,2.31-.22.38-.45.76-.67,1.14-.12.18-.24.36-.36.55-.1.15-.2.3-.35.45-.41.38-.72-.45-1.11-.57-.6.31-.99.87-1.32,1.5-.34.64-.67,1.31-1.41,2.17-.02-.45-.21-1.59-1.04-.88.12.33.41.76-.06.95l-.08-.41c-.66-.05-.62.58-1.34,1.02-.99,1.05-1.22,2.39-1.23,3.99-.45.29-.66.06-.71-.3-.08-.34-.12-.74-.27-.77.81-.13.25-.47.11-.86-.09.5-.27.89-.97.42-.52.46-.8.64-1.01,1.5.11-.43.61-.28.58.21-.63.13-1.6,1.35-2.19.55-1.29,1.24-2.78,2.72-4.07,4.48-1.29,1.76-2.3,3.73-2.99,5.6.24.83.37-.42.58.07.28,1.16-.61.64-.35,1.59l-.42-.49c-.47,1.2.25,2.71.58,3.77-.59-.27-.65.74-.87-.16.02.52-2.82.65-2.31,1.08l2.64-.11c.25.07-.01.69.17.65-.4.21-.86.5-1.09.64-.09.03-.15.05-.16.07-.33-.06-.45-.13-.48-.19-.02-.11.07-.4.1-.56-.6-.15-.82.28-1.03.39-.15,0-.32-.04-.74-.13.17.06.55.11.93.24-.09.02-.16,0-.27.08.15-.04.27-.03.39-.02.15.08.4.25.5.47.11.21.08.41-.37.73.21.44.4.92.61,1.45-.86-.14-.46.91-.74,1.79-.17-.21-.32-.42-.47-.64-.1.67-.14,1.18-.23,1.62l-2.66,13.22,11.71-10.65c.2-.18.4-.32.67-.49.21.49-.03.67-.18.81l-12.54,12.11,2.43-14.99c.04-.23.04-.4-.27-.57l-.09.58-2.84,17.62,13.62-14.56.54-.57c-.42-.25-.41-1.04-1.06-.5-.13-.66-.36-1.18-.41-1.77-.08-.59,0-1.27.24-2.26.5-.37.64-.11.75.26.13.35.17.84.63.73.47-1.17-.02-1.94-.55-2.47-.53-.55-1.13-.92-1.07-1.41.35-1.22-.43-1.14-.48-2.24.56.34.62-.72,1.18-.82l.57.38c-.16-.29.08-.51.48-.41-.39,0-.54-.28-.63-.62-.02-.08-.03-.16-.05-.25l-.02-.13v-.21c-.01-.28-.03-.55-.08-.77l-.67.03c-.1-.68-.36-1.62-.09-2.26-.07-1.03-.67-.88-1.28-1.73.64-.34,1.33-.21,2.03.03-.37.22-.23.7-.5,1.11.38,1.33,1.58,2.58,1.02,3.82,1.46.85-.01-.9.64-1.44.09.03.11.09.12.14.01-.06.03-.1.07-.15.12.5.22,1.31.99,1.59-.01-.83-1.45-.86-.61-1.72-.32-.79,1.01-1.19,1.18-1.61-.52-.57-1.78-.76-1.39-1.88l.82.62c.19-1.32-1.22-.78-1.03-1.98-.15.41-.82-.5-.94.29-.43-.45-.42-1.32-.1-1.93-.12-.18-.3-.07-.6-.13-.69.64.48,1.19-.47,1.67l.9.61c-.43.63-1.2.59-1.53.14.02.19.13.37-.06.48-1.45-.07.61-.73-.58-1.1l.05.47c-.95.08-.69-1.17-.56-1.76.51-.62.73-1.22,1.41-1.2l.2.94c.59-.41-.2-1.19-.12-1.71.1-.03.17-.07.23-.13-.06.02-.13.03-.19.02.04-.11.14-.2.31-.27.08-.46-.27-1.17,0-1.58h-.61s.33.09.33.09c-.07.42-.49.95-.91.59-.33-.99.86-1.07,1.4-1.24.91.31-.1.92.17,1.44.94-.2.19-.96.89-1.87.97.49-.13,1.13.78,1.44.25-.77-.45-1.05-.11-1.85.46.15.42.96,1.02.97l.34-.5c-.07,1.3,1.27-.1,1.42.93.46-.44-.75-.75-.05-1.35-.46.14-1.31.6-1.64-.09l.37-.7c.52-.25.99.87,1.45.44l-.26-.79c-.3,0-.49.34-.88.07.37-.4-1.08-.84-1.46-1.41.04-.2.08-.39.16-.52.08-.11.19-.19.37-.22-.77-.94-.41-2.22-1-3.42.43.81,1.01.22,1.55-.12-.06.86.86,1.06,1.46,1.15.02-.52-.86-1.08-1.22-.89.57-.79-.51-.72.26-1.41.41-.49.87.43,1.26.3.11-.54-.17-.67-.42-.78-.25-.14-.48-.21-.31-.61.12.06.15.14.33.1.26-.41-.1-.94-.54-1.12,1.29-.25.12-1.34,1.28-1.01-.09-1.1-.67.01-1.04-.27-.43-.55.19-1.26.44-1.45-.04.27.22.58-.02.78l.86-.02c.9-1.1-1.62-1.3-.54-2.36.21.77.54.4,1,.88-.15-.25.38-1.12-.41-.74.21-.44.46-.71.72-.97-.16-.51-.21-1.02-.62-1.47.35-.67,1.1-.95,1.57-1.13.02-1.65,1.5-2.48,1.6-4.1l-.09.08c.67-.98-1.23-.04-.63-1.12.83.62.95-.33,1.61-.38.58-.49.74-1.08.93-1.65.19-.56.42-1.11,1.07-1.34.15.14.3.37.18.56.8-.47,1.11-1.07,1.69-1.49l.06.12c1.75-.39,2.34-2.15,3.56-3.5-.03.19.19.51.19.69.84-.4,2.09-1.28,1.97-2.43,1.52-.02.35-.72,2.1-1.04.19.07,0,.23-.04.33.77-.3,1.09-.73,1.71-1.22.72-1.72-.02-2.87,1.51-4.19,1.18.76-.49,1.19.34,1.91.07-.48.07-.91.67-1.18.23.61.23.26.49.77.57-.16-.11-2.3-.03-2.21-.21-.17-.4-.12-.61.22-.42-.86,1.06-1.69,1.24-2.74-.18.27-.91.98-1.28.32.91-.96-.06-1.98-.19-2.97,1.07-.73.67,1.25,1.62,1.53.4,0,1.32-.11,1.42.53.71-.91.26-2.02.44-2.96l.24.13c.39-1.26-.3-2.92.54-3.75l-.47.44c-.09-.25.18-.83-.26-1.33.43.17,1.05-.51,1.32-.08-1.23-.93-.12-3.06-1.39-3.96.42-.27.96.1,1.26.27-.28.79-.62.98-.15,1.53.13-.66.59-1.09.9-.92-.74-.86-.87-2.56-1.76-2.98.5-.46.76-.95,1.51-.73-.2-1.14-.8-.84-1.33-.63-.54.22-.98.38-.98-.75.7-1.09,1.03,1.04,1.23-.48l.13.28c1.89-1.23-1.42-.72-1.49-1.84,1.03-.32.86.75,1.51-.2-.22-.55-.74-.88-1.23-1.25-.47-.3-.87-.55-.85-1.09l.48.02c-.26-.59-.4-1.65-.79-2.44h0c-.09-.03-.15-.04-.2-.05.16-.1.23-.07.41-.04-.45-.32-.66,0-.79.1-.07.07-.12.12-.13.21,0,.02,0,.05,0,.08.02.02.17,0,.28,0,.16.03.18.15.34.27-.16.2-.32.39-.48.58-.24-.2-.47-.54-.74-.69,0-.31.39-.27.78-.22h0c.1.11.21.2.33.27-.42-.22-.61.18-.86.58-.25.4-.54.82-1.02.83h.38c-.24.49-.41.97-.52,1.45-.12.46-.16,1-.26,1.33-.15.88-.26,1.77-.55,2.61.55.53.41,1.02.22,1.47-.2.46-.45.91-.19,1.58,1.18.41.22.27.23,1.38-.03-.6-.9-.27-1.15.03.27.28.31.55.36.83-.46.12-1.79,1.1-1.15,1.83-.59.49-.33-.27-.53-.48-.68.05.31.66-.16.73,0,0-.12-.05-.16-.14-.27.94-.79,1.41-1.31,2.25,1.08.54.05,1.06.24,1.63-.29-.3-.66.28-.98.41l.53.89c.4.85-.83.35-.84,1.13l.27-.02c.04.64-1.34,1.29-2.15,1.23-.49,2.52-2.19,3.65-3.97,4.51-1.81.87-3.88,1.55-5.83,3.59-.04.51.6.3.73.9-.36.49-.56.6-.99,1.02.63-.13.29-.37.47-.07l.47-.87c.09.04.04.13.21.21.13-.26.22-.64.52-.81-.18.57.32,1.3-.46,1.53-.04-.13.02-.24.11-.41-.51.35-.26.71-.78.85-.56.26-.26.37-.59.14-.56.31-1.08.66-1.61,1.02.25,1.38-1.19,1.61-1.45,1.81-.54-.63.49-1.12.18-1.97l-.89.18.49.42-.71.68-.07-.12c.14.24.28.48-.03.55-.1-.02-.29-.04-.27-.15l-.08.76c-.35-.69-.48.39-1.08-.1-1.49,1.72-.47,2.89-2.21,4.06.46-.11.85,1.04.5,1.47-.3.21-.49.21-.68-.09l.07.81c-1.46.34-1.08,1.44-1.92,2.46l-.29-.19c.21.57.32,1.15-.07,1.84l-.59-.37c-.77.74,1.09,1.16.36,1.99.7.22,1.25-.27,1.94-.13-.78-.03-1.22.98-.64.89,0,1.03-.22.65-.41.68l.27.68c-.22.66-.98-.03-1.31-.4.58.85-.14,1.4-.42,2.11l-.25-.37-.35.95c.42.76.3,1.64-.12,2.43l-.86-.73c-.59.52.28.36.42.54.16.49.08.79-.12.95-.19.11-.5.16-.79.26.84,1.07-2.03,1.74-.92,3.48Zm37.73-24.66l-.17.07c-.08-.29-.19-.49.17-.07Zm-2.47,7.06c0-1.01.31-.56.59-.53-.58.77-.52,1.36-1.15,1.97.23-.04.47.05.64.08-.18.28-.52.49-1,.37-.68-.75,1.6-2.02.93-1.88Zm-.81-17.03c.07.05.14.1.2.15h0s-.2-.15-.2-.15Zm.51,4.42c-.21.02-.34.09-.43.18.26-.02.48-.05.43-.18Zm-3.36,7.73c-.44.06-.44.49-.45.8.08-.12.28-.32.45-.8Zm-30.33,43.94c-.11-.28-.43-.86-.79-.44.3.28-.35.6.14.85-.02.02-.03.02-.05.04.36-.2.67-.37.7-.45Zm3.13-12.96c.39.09.8.32,1.11.23-.01.02-.03.05-.04.07.14-.05.26-.1.34-.04.1-.2.21-.41.12-.57-1.28-.2-1.44-.65-1.52.31Z"/><path class="cls-1" d="m75.08,193.83c0-.11.02-.19.01-.26-.01.07-.01.15-.01.26Z"/><path class="cls-1" d="m72.44,184.21c-.08-.03-.23.21-.41.49.17-.05.31-.18.41-.49Z"/><path class="cls-1" d="m104.33,127.21l.21.2.18-.62c-.69-.63-1.22-.46-1.9-.45.8.5.69,1,1.19,1.93l.31-1.06Z"/><path class="cls-1" d="m100.44,129.07c-.13.13-.48.44-.5.54l.4-.03c.04-.16.07-.32.1-.51Z"/><path class="cls-1" d="m99.8,137.86c.12-.1.23-.19.34-.32-.34-.05-.93.26-.34.32Z"/><path class="cls-1" d="m106.06,134.12c-.16-.08-.32-.16-.48-.26-.29.37-.15.77.34.78-.19-.24-.12-.26-.03-.3.09-.04.22-.07.18-.23Z"/><path class="cls-1" d="m99.49,139.11c.17.11.24.16.22.28-.02.13-.09.26-.17.38-.15.25-.29.49.05.67-.17-.33.67-1.24-.1-1.32Z"/><path class="cls-1" d="m106.77,140.27c.78-.15.26-.78.5-1.44-.06.61-.96,1.15-.5,1.44Z"/><path class="cls-1" d="m101.06,144.36c-.55-.07-.49-.38-.35-.75.17.14.42.23.5.4-.4-.64-.31-.69-.54-1.25-.42.55-.7,1.27-1.39,1.16.5.37,1.24.84,1.78.45Z"/><path class="cls-1" d="m106.58,141.45c.14-.15.33-.15.53-.32.19-.16.36-.35.41-.65-.4,0-1,.14-1.05.7-.2-.1-.39-.21-.58-.34-.57.35.86.08.69.62Z"/><path class="cls-1" d="m99.36,146l.33-.11c-.43-.47-.12-.99-.92-1.33,0,.58.27,1.13.59,1.45Z"/><path class="cls-1" d="m105.18,143.03l.89.13c.16-.53-.3.02-.51-.19.14-.15.24-.36.08-.49.09.61-.73-.02-.47.55Z"/><path class="cls-1" d="m106.06,145.06c.11.29.21.59.3.91l1.05-.62c-.27-1.05-.55-.09-1.35-.29Z"/><path class="cls-1" d="m105.36,146.06l-.18.07c.38.48.74,1.04,1.07,1.59-.37-.93-.28-.99-.88-1.66Z"/><path class="cls-1" d="m95.82,157.32c.3.27.99-.07.49-.02-.24-.24-1.03.25-.49.02Z"/><path class="cls-1" d="m103.52,157.65c-.39.23-.32,1.53-.3,2.12.09-.64.83-2.02.3-2.12Z"/><path class="cls-1" d="m103.23,160.01s0-.14,0-.24c-.01.1-.01.17,0,.24Z"/><path class="cls-1" d="m93.48,179.34c-.04.06-.08.13-.08.21.03-.07.05-.14.08-.21Z"/><path class="cls-1" d="m93.79,178.72c.39-.22.81-1,.56-1.38-.28.61-.57,1.12-.88,1.99.2-.24.67-.3.31-.61Z"/><path class="cls-1" d="m89.15,181.98c0-.3.3-.34.05-.62-.2-.07-.29.47-.05.62Z"/><path class="cls-1" d="m64.19,199.24c-.37.37-.38.85.22.87.22-.62-.21-.42-.22-.87Z"/><path class="cls-1" d="m64.24,201l-.3.03c-.19.13-.37.27-.56.45.28-.2.57-.34.86-.47Z"/><path class="cls-1" d="m75.13,204.22c.07.07.12.24.12.4.04-.33.05-.6-.12-.4Z"/><path class="cls-1" d="m75.22,204.78s.02-.11.02-.16c0,.05-.02.11-.02.16Z"/><path class="cls-1" d="m74.92,205.06l.25.18c0-.1.04-.28.06-.45-.03.15-.14.28-.31.27Z"/><path class="cls-1" d="m75.67,202.71c-.35.26-.72.51-1.08.73.11,1.12.75-1.01,1.34.23-.08-.33-.16-.65-.26-.96Z"/><path class="cls-1" d="m75.8,199.68c.31-.75-1.05-1.58-.03-1.9-.53-1.44-1.7.29-2.07-1.28-.28.71.22.95.7,1.12.48.18.97.32.68,1.16.63-.82.5.54.72.9Z"/><path class="cls-1" d="m74.08,199.93c.5.14.59-.74.25-.97-.06.22-.78.62-.25.97Z"/><path class="cls-1" d="m75.37,196.57c.13-.11.27-.23.4-.33l-.32-.1c-.03.12-.05.29-.08.43Z"/><path class="cls-1" d="m75.66,195.46l.56.3c-.23-.12-.13-.42-.56-.3Z"/><path class="cls-1" d="m76.8,193.22c.27-.43-1.01-1.06-.87-.04l.09-.21c.2.09.76-.36.78.26Z"/><path class="cls-1" d="m75.45,186.95c-.06.3.07.67.36.64l-.19-.86-.17.22Z"/><path class="cls-1" d="m72.15,186.73c-.85.18-.01.77-.35,1.28.23-.59.33-.51.35-1.28Z"/><path class="cls-1" d="m76.72,186.13c.32.26.06.58-.01.78.48-.05.42-.63.01-.78Z"/><path class="cls-1" d="m76.57,184.8c.36-.23.46.1.7-.07.43-.53.44-1.13.01-1.49-.37.11-1.34.22-1.73-.05.2.93,1.68,1.54.47,1.87l1.36.91c.3-.71-.95-.66-.81-1.16Z"/><path class="cls-1" d="m73.66,186.37l.53-.44c-.48.05-.52-.33-.65-.6-1.06.02.08.76.12,1.04Z"/><path class="cls-1" d="m76.44,179.79c-.04-.31-.08-.74-.13-.95-.03.08-.06.14-.09.25l.22.7Z"/><path class="cls-1" d="m76.85,179.2h.31c-.16-.22-.32-.4-.47-.63.05.23.11.38.17.63Z"/><path class="cls-1" d="m77.32,178.48l-.06.08c.06.16.13.31.2.45-.05-.17-.1-.34-.13-.53Z"/><path class="cls-1" d="m77.93,176.69l-.48.08c.05.28-.54.64.05.73-.15-.24.04-.73.42-.81Z"/><path class="cls-1" d="m68.34,166.97c.23.28.52.22.8.16l-.65-.52c.01.11.03.32-.16.36Z"/><path class="cls-1" d="m69.9,165.91l-.57-1.09c-.43.94.19,1.27.09,2.14.36-.29-.1-.95.26-1.34l.22.28Z"/><path class="cls-1" d="m77.82,150.89c.39.41.44.2.33.94.27-.93.87-1.48,1.55-2.31-.39-.1-.23-1.12-.43-.71-.23.37-.41.76-.6,1.14l-.16-.39c-.91.38.1.83-.7,1.34Z"/><path class="cls-1" d="m101.18,119.8c.29.02.49-.17.68-.36-.47-.52-.59.47-.68.36Z"/></g><g><path class="cls-1" d="m115.09,197.41c-.7-.34-.23.1-.15.52l.15-.52Z"/><path class="cls-1" d="m114.94,197.93c-.04.12-.06.25-.09.37.11-.1.12-.23.09-.37Z"/><path class="cls-1" d="m114.96,201.39c-.75-.65-.16-1.74-1.07-2.14-.42.93.1,2.21,1.07,2.14Z"/><path class="cls-1" d="m115.25,200.12h-.48c.28.17.56.35.85.51-.13-.17-.25-.34-.37-.51Z"/><path class="cls-1" d="m115.59,199.58l-.16.12c.22.32.44.62.67.92-.18-.34-.35-.68-.51-1.04Z"/><path class="cls-1" d="m115.43,204.01l-.38-.69c.38-.89.97.18,1.22-.41-.29-.9-1.38.11-1.53-1.14-.57.27.58,1.89-.36,1.99.06,1.07.54-.13,1.04.26Z"/><path class="cls-1" d="m135.96,243.77c-.02.05-.02.09-.03.13.07-.09.11-.16.03-.13Z"/><path class="cls-1" d="m143.13,251.63c.06.17.15.3.24.42.02-.1.03-.21.01-.31l-.25-.11Z"/><path class="cls-1" d="m130.83,237.92c.02-.2.02-.38,0-.54-.08.14-.1.31,0,.54Z"/><path class="cls-1" d="m161.34,254.32c.07.01.16.02.28,0,0,0,0-.02.01-.03l-.28-.07-.02.11Z"/><path class="cls-1" d="m156.48,257.14c.19.16.39.3.59.4-.29-.29-.47-.39-.59-.4Z"/><path class="cls-1" d="m128.9,233.98c.03.06.05.12.07.17,0-.07,0-.15,0-.25l-.07.07s0,0,0,0Z"/><path class="cls-1" d="m141.59,248.62c.03.14.06.23.12.29-.01-.13-.06-.2-.12-.29Z"/><path class="cls-1" d="m117.7,215.14c-.03.23.08.39.23.52.1-.17.08-.35-.23-.52Z"/><path class="cls-1" d="m119.03,219.44s0-.02-.01-.02c-.1.06-.07.06.01.02Z"/><path class="cls-1" d="m119.81,222.21s-.03-.03-.04-.04c-.07.06-.08.08.04.04Z"/><path class="cls-1" d="m117.93,215.66c-.26.46-1.38.89.01,1l.14-.14c-.21.36.4.63.53.94.11-.07.2-.13.28-.2-.03-.17-.06-.39-.07-.74.16-.46-.52-.55-.9-.85Z"/><path class="cls-1" d="m135.73,243.85c.19-.16-.06-.34,0,0h0Z"/><path class="cls-1" d="m133.06,241.06c.04.12.09.23.14.34-.01-.13-.03-.25-.14-.34Z"/><path class="cls-1" d="m127.52,228.15s-.01.05-.03.08c.13-.03.1-.07.03-.08Z"/><path class="cls-1" d="m133.35,241.71c-.06-.1-.1-.2-.15-.3,0,.11.03.22.15.3Z"/><path class="cls-1" d="m128.46,232.34s-.01.05,0,.07c.01-.02.02-.04,0-.07Z"/><path class="cls-1" d="m129.56,204.1c.26.12.12.46.21.72,1.02-.19-.78-.86.35-.79-.18-.18-.39-.24-.6-.29l-.38.81c.57.14-.02-.43.41-.45Z"/><path class="cls-1" d="m161.87,250.24l-.03.13c.33-.2.46-.16.51-.65-.66-.18-1.29.66-2.1.2.1.11.14.3.12.51.4-.43.99-.33,1.5-.2Z"/><path class="cls-1" d="m160.36,250.43s-.02.02-.04.03c-.06.05-.12.11-.16.16.03.1.03.2,0,.29.11-.12.18-.3.2-.48Z"/><path class="cls-1" d="m135.81,210.73c.07.1.13.19.18.27,0-.22-.08-.28-.18-.27Z"/><path class="cls-1" d="m148.99,264.49c-.13,0-.27,0-.39.02.15.06.28.04.39-.02Z"/><path class="cls-1" d="m162.92,257.47c-.04.12-.06.25-.07.38.02.07.05.13.08.22v-.6Z"/><path class="cls-1" d="m147.21,239.86c.91-.29-.15-.1.08-.76l-.64-.08c.07.39.37.61.55.84Z"/><path class="cls-1" d="m129.56,203.68s-.04.04-.07.05c.01,0,.02,0,.04,0l.03-.06Z"/><path class="cls-1" d="m139.64,230.15c-.01-.09-.02-.16-.04-.24-.01.07,0,.15.04.24Z"/><path class="cls-1" d="m160.84,253.14l.41,1.74.09-.56c-.51-.12.11-1.1-.5-1.18Z"/><path class="cls-1" d="m150.64,246.29l-.44.37c.4.08.62.26.75.45.07.1.1.2.12.29l.12.47c.18.71.4,1.43,1.41,1.8-.65,1.26-.12,1.48.43,1.65.55.18,1.11.31.59,1.58l.25-.16.18.63c.07.22.13.43.15.57l.23.96c.13.65.25,1.31.33,1.98.19,1.34.24,2.74.32,4.13.1,2.82.13,5.7.56,8.55l-.4-.02c-.28,3.1-.47,6.31-.48,9.65l12.45.72c.27-2.69-.19-5.07-.8-7.01-.62-1.96-1.38-3.6-2.07-5.06l-1.05-2.19c-.46-.93-.95-1.81-1.49-2.64-1.06-1.67-2.24-3.19-3.56-4.63-1.03-.53-1.2.56-2.15.25-.26-.3-.96-.85-.65-1.23.77.31.72-.3,1.05-.27-1.01-.85-2.12-2.4-3.56-2.57.19.37.37.74.54,1.1-.27-.02-.54-.17-.79-.35-.23-.17-.61-.44-.82-.57.37-.18-.06-1.17.45-1.08-1.91-.06-2.27-.27-2.66-.73-.35-.41-.68-.93-1.57-.85-.34.6-1.05,1.05-1.69,1.43-.68.36-1.19.7-2,.77l-.34-.63c.67.44.55-.8,1.27-.29-.4-.67-1.4-.66-1.95-1.33-.07.37-.36.7-.73.62-.31-.47.06-1.03-.36-1.45l.72.03c0-.63-.67-.32-1-.49.25-.51-.3-1.12.23-1.5-.89.22-.75-.25-1.58-.45.06.95-.69.35-.99.7.26.19.51.36.76.51-.56-1.15.35.23.95-.54.02.33-.37.51-.7.63-.33.12-.58.23-.18.51-.57-.22-.84-.5-1.13-.75-.29-.26-.61-.5-1.34-.82.64.57-.6.24-.56.79-.68-.86.11-.42.41-1.05-.36-.46-.03-.94-.92-1-.29-.97.68-.27.74-.89.72-.06.82,2.6,2.35,1.11.29.33,1.23.23,1.55.63-.11-.52,0-1.48-.78-1.72l-.98.68c-.33-.41-1.06-.04-1.2-.44.4-.02.6-.61.27-.93-.07.2.06.33-.14.4-.53-.66-1.28-.32-2.03-1.11.19.91-.02,1.24,0,2.22-.82.27-.42-.42-.76-.78.13,0,.21.08.27-.13l-.62-.23c-.27-1.14,1.1-.51.98-1.49.28-.89-.77-.55-.67-1.17-.05.07-.1.14-.14.19-.04-.1-.06-.18-.07-.24-.02.01-.03.02-.05.04-.4-.46-.66-1.06-1.29-.91.21-.2-.33-.43-.59-.5-.38-.17-1.41-.53-.77-1.44.01,0,.01.02.02.03-.24-.72-.23-1.38.14-1.39l-.33-1.18.78-.25c-.68-.87-1.06-.56-2.14-.87.09-.92-.85-1.98-1.34-2.34,0-.09-.06-.21-.19-.39l-.1.55c-.33-.8-.68-.52-.91-1.04-.02.14-.06.17-.07-.17-.03-.09-.06-.2-.08-.32.09,0,.13.11.14.25l.2-.21c.51-.98-.88-.77-.89-1.57.06.05.15.14.18.21.04-.47.86-1.46.15-1.34.05-.12-.14-.2-.36-.27v-.33c.01.13,0,.23,0,.33-.29-.09-.62-.14-.47-.23l-.26-1.04c.03-.23-.16-.44-.35-.61l.25-.29c-.19-.34,0-.42.1-.41.6-1.66-1.3-1.72-.85-3.42-.62-.07-.66.58-.93.73-.48-.06-1.12-.72-1.55-1.01.51-.87.53-2.97,1.69-3.02-.28-1.15-.54.57-1.09.13v-.14c0,.43-.25.86-.59,1.22-.54.28-1.05-.67-.98-1.04l.89-.05c-.63-.96-1.78-.34-2.82-.75.06-.96.95-.7,1.63-1.11l-.48-.82.62-.19c-.34-.52-.95-.49-.95-1.36.75.4.22-1.37,1.24-.8.08-.5-1.15-.29-.39-.75-.75-.12-.22.49-.36.78-.9.46-.73-.85-1.13-1.31.48-.18.68.19.83-.52-.41-.03-.81-.35-.45-.83-.62.17-.32-.68-.37-1.05-.02.44-.32,1.14-.93,1.02-.33-.25-.53-.49-.63-1.24l-.16.57c-1.08-.39.39-1.21-.13-2,.47.26.53.49,1.07.69-.4-.33-1.05-.99-1.51-1.54l.71-.98c-.48.04-.19-.83-.81-.66.15-1.03.96.51,1.43.48.08-1.27-1.29-.62-.68-2.01l.69.19c-.07-.39-.64-1.03-.37-1.17-.21.07-.06.23.02.46-1.29.16-1.44-1.41-2.64-.81l.09.51c-.51-.66-1.55-.87-1.32-1.6.24-.59.96,0,1.38.14-.18-.73-1.58-.06-1.77-.95-.04.52-.52.6-.94.44.1.54.23,1.63.69,1.26l.06-.22c.34-.08.56.14.77.21.24.66-.45.51-.65.73.19,1.14,1.29-.36,1.59.65l-.2.21c.49.37.76,1.11,1.59,1.02-.69.69.67,1.08.31,1.72-1.79.6-.36-1.79-1.54-2.07-.21.64-.95-.04-1.43-.11.43.45.86.92,1.28,1.4-.21.21-.98.95-.23,1.07v-.14c.4.61,1.09.23,1,.88-.14.13-.48.03-.62.02-.02.58.53.34.8.66-.02.58-.82-.07-.91.43.87.44.09,1.04.28,1.57.97-.5,1.99,1.8,2.59.38l1.06,1.11c-.42.56-1.7-.5-2.47.1l-.24-1.06c-1.25.52,1.44,1.97.2,3.06.1.58.25.38-.08,1.63l1.09-.52c-.1.62-.67.99-.87,1.08.17.3.23.6.28.91-.19-.03-.38-.09-.5-.27-.5.61-.23.66.15.7.36.13.42.49.52.83l-.52-.18c.16.18.37.4.58.36.05.14.12.27.23.37.17-.16.75-.59.89-1.17-.04,1.4.53,2.31-.03,3.7-.34.07-.9-.24-.89-.09.02.6.79.99,1.26.77.08.11.12.2.15.28-.24.2-.5.43-.45.71-.08.1-.13.22-.1.42.95-.14.88,1.05,1.37,1.12,0-.28-.12-.57-.26-.86.75.21,1.57.34,1.22.85-.86-.59-.6,1.2-1.3.08-.8,1.27.96.14.91,1.18l-.22.75c-.68.16-.69-.81-.87-.59l.24.37c-.64-.22-.9-1.86-1.96-2.55l.34,2.04c1.66,2.09,2.01,5.41,4.28,6.78-.02-.03-.04-.05-.05-.08.08,0,.2-.03.45-.11l-.12.16.65.18c-.39.7-.12,1.58-.26,2.5q.18-.62.63-.88c.67-.2.95-.26,1.03.49-.44.22-.62-.19-.74.46.1-.35.51-.28.71-.02-.11.5.12,1.14-.32,1.36-.2-.11-.12-.32-.11-.47-.2-.11-.06.88-.67.55l.45.6c-.17.57-.71.03-.86.3.85.96,2.13,1.01,2.94,1.83-.25.08-1.23.57-.94.44.1.92,1.91,1.06,2.45,1.85-.35.03-.41-.35-.69-.53,1.06,2.77,2.17,4.86,3.06,7.94l1.37-.02c-.05.36-.08.72-.11,1.09.36.76.83,1.44,1.38,2.05.27.31.57.59.9.87.33.28.58.46.88.67,1.15.78,2.35,1.37,3.72,2.09.85.47.07.98.32,1.51.24.17.49.3.73.41.26.11.56.22.81.28.51.12.95.13,1.37.1.83-.06,1.57-.25,2.45-.14-.33.27-.98,1.09-.26,1.33.2-.28.45-.74.78-.44l-.29.27c.21.58.7.23,1.06.61.2.07.34.1.52.08.28.07.6.1.93.13.68.04,1.45.01,2.29-.07.84.91-.91.81-.89,1.15-.34-.85-.56-.21-.93-.03.52,0,1.04.23.65.95.45.37.6.57,1.4.64-.39-.04-.26-.51.2-.56.14.55,1.19,1.34.35,1.9.47.51.9,1.08,1.27,1.68.18.3.36.6.51.91.15.31.27.57.5,1.07.79,1.76,1.47,3.33,1.92,4.68.64.31.08-.41.5-.27.85.5-.16.63.48,1.02l-.58-.08c.1.75,1.21,1.28,1.69,2.02-.61-.11-.56.46-.88-.04.03.12-.42.22-.91.26l9.86.57c.72-.31,1.56-.6,1.22-.83l-2.6.54c-.25-.03-.09-.73-.26-.67.51-.43,1.12-.96,1.13-1.27.66-.14.5.63.48,1.04,1.09.08.72-1.39,1.71-.77-.16-.9-.56.12-.96-.43l.25-.78-.38.6c-.31-.66-1.14-.91-.51-1.78l-1.04-.95c.87-.07.18-.67.39-1.15l.54.31c0-.64.14-.88.47-1.28.75.38-.2.58.52.75l.27-.7c-.49,0-.86-.47-1.17.03-.89-.68-1.64-1.05-1.54-2.7.85-.74.73.81,1.56.52.38-1.74-2.15-2.14-2.06-3.14.33-1.3-.44-1.21-.54-2.52.59.4.58-.95,1.09-1.23l.62.5c-.2-.4,0-.81.42-.71-.75.12-.83-1.71-1.3-2.61l-.64.23c-.3-.7-.82-1.63-.78-2.41-.4-1.09-.91-.74-1.79-1.44.48-.58,1.18-.68,1.91-.67-.26.37.04.85-.09,1.38.4.67.99,1.24,1.44,1.84.46.6.8,1.24.7,1.98,1.63.5-.25-.97.2-1.75.1,0,.13.06.16.11,0-.06,0-.12.02-.19.27.51.6,1.35,1.42,1.43-.25-.9-1.63-.48-1.09-1.68-.53-.76.59-1.62.61-2.17-.69-.47-1.92-.25-1.97-1.65l1,.42c-.33-1.57-1.4-.45-1.73-1.86.03.51-.97-.25-.75.68-.59-.33-.9-1.28-.91-2.08-.19-.15-.3.05-.6.11-.32.96.95,1.1.27,1.98l1.08.33c-.17.84-.92,1.07-1.38.71.08.2.25.35.12.54-1.39.43.32-.99-.95-.96.08.16.15.32.22.48-.85.42-1.09-.96-1.2-1.62.21-.83.13-1.55.76-1.82l.6.9c.35-.67-.72-1.21-.88-1.72.08-.07.12-.14.15-.22-.05.05-.1.08-.16.1,0-.13.04-.25.16-.39-.12-.48-.74-1.06-.68-1.58l-.56.24.35-.04c.12.45-.05,1.16-.59.97-.72-.88.34-1.43.76-1.83.96-.04.3.98.76,1.39.78-.58-.22-1.03.03-2.26,1.1.12.36,1.22,1.32,1.16-.09-.87-.84-.88-.88-1.86.48-.02.8.84,1.36.6l.1-.66c.5,1.4,1.12-.62,1.7.4.24-.64-1.01-.47-.64-1.43-.35.35-.92,1.19-1.53.59v-.92c.36-.51,1.32.55,1.54-.13l-.63-.8c-.27.13-.27.61-.75.47.12-.64-1.38-.45-2.05-.95-.2-.57-.34-1.01-.12-1.35-1.45-.94-2.33-2.26-3.64-2.68.92.28.83-.62.96-1.23.58.62,1.37.11,1.84-.29-.39-.38-1.37-.1-1.49.29-.15-.91-.88-.12-.73-1.05.04-.54.9-.33,1.12-.65-.38-.68-1.1.43-1.34-.4.13-.03.2.02.32-.13,0-.12-.05-.21-.12-.29-.08-.11-.2-.21-.33-.28-.25-.15-.54-.2-.78-.13.75-1.17-1.03-1.45.06-1.97-1.04-1.05-.44.53-.95.51-.76-.21-.97-1.34-1-1.72.21.28.67.36.7.75l.54-.71c-.51-1.83-2.18.11-2.56-1.68.86.46.68-.13,1.41-.11-.32-.11-.92-1.32-.96-.29-.32-.56-.46-1.01-.61-1.45-.6-.26-1.15-.6-1.78-.52-.47-.74-.43-1.62-.41-2.17-1.64-1.04-1.97-2.99-3.73-3.98l.06.14c-.87-1.2-.39,1.22-1.39.07.89-.53-.1-1.14-.04-1.86-.42-.85-1.17-1.36-1.85-1.84-.69-.48-1.35-.93-1.74-1.8.16-.14.42-.25.68-.02-.74-1.18-1.67-1.78-2.51-2.64l.12-.06c-.84-1.92-2.78-2.34-4.35-3.45.2.01.49-.24.67-.26-.56-.82-1.56-1.96-2.68-1.74-.12-1.49-.75-.29-1.09-1.98.07-.18.22-.02.31.02-.26-.72-.66-.99-1.07-1.57-1.5-.63-2.74-.02-3.6-1.6.99-.97.97.57,1.81-.13-.41-.09-.82-.13-.88-.7.6-.14.3-.18.81-.37.03-.49-2.02-.15-1.92-.24-.22.15-.25.34-.01.58-.92.23-1.13-1.26-1.87-1.71.14.23.43,1.07-.28,1.21-.44-1.08-1.75-.59-2.66-.97-.07-1.23,1.41,0,2.08-.73.19-.35.62-1.11,1.16-.98-.32-.83-1.36-.9-1.94-1.48l.25-.12c-.32-.42-.92-.79-1.42-1.22-.5-.41-.92-.85-.91-1.43l-.03.63c-.24-.1-.45-.68-1.1-.73.42-.18.43-1.07.91-.95-1.56.17-2-2.07-3.49-2.07.2-.45.85-.44,1.19-.49.19.74.04,1.1.74,1.21-.29-.57-.13-1.14.21-1.19-1.09-.19-2-1.42-2.95-1.39.25-.6.35-1.07,1.11-1.18-.52-.77-1-.38-1.43-.02-.43.36-.82.69-1.15-.36.42-1.13,1.22.6,1.08-.73.07.08.12.13.19.2,1.58-1.54-1.55-.34-1.84-1.48.97-.48.98.58,1.45-.45-.59-.97-2.24-.94-2.22-2.07l.48.03c-.29-.63-.43-1.94-.65-2.54.2-.08.19.02.28.13.13-1.24-.65-.38-.12-1.46l-.56-.18c-.29.53-.59,1.62.16,2.09-.75-.49-1.04,1.33-1.99,1.26l.39.03c-.52,1.06-.63,2.17-.61,3.28,0,.55.05,1.1.09,1.65.04.57.07,1.16.11,1.74,1.51,1.09.47,2.58,1.79,3.74,1.24-.28.34.17,1.13,1.27-.43-.57-.9.32-.85.8.4.1.64.33.89.56-.27.42-.4,2.39.64,2.54.02.9-.44.02-.75-.02-.41.59.75.35.5.79,0,0-.12.05-.22,0,.63,1.07.69,1.86,1.3,3.16,1.09-.53,1.1.91,1.82,1.17-.43.05.05.9.09,1.35l1.16.05c1.04.1.15,1.13,1.06,1.58l.03-.31c.69.29,1.25,2.08,1.21,3.01,2.93,1.48,4.32,3.27,5.64,5.28,1.31,2,2.54,4.13,4.93,5.91.53,0,.21-.64.81-.84.54.31.6.44,1.02.81-.13-.57-.35-.22-.07-.43l-.85-.33c.03-.09.12-.06.18-.24-.28-.11-.69-.16-.92-.46.6.13,1.32-.43,1.61.31-.13.05-.22.02-.41-.05.38.46.7.16.86.64.26.52.35.22.13.56l.86,1.51c1.34-.18,1.34,1.26,1.44,1.52-.69.43-.94-.6-1.78-.32v.83s.48-.43.48-.43l.46.71-.12.05c.25-.11.5-.21.48.1-.04.09-.11.27-.2.23l.66.18c-.72.21.21.51-.41.97,1.06,1.71,2.5,1.18,2.87,3.18.08-.45,1.28-.39,1.52.11.06.36-.02.53-.37.57l.75.27c-.36,1.44.79,1.58,1.24,2.81l-.31.16c.6.1,1.16.3,1.48.92l-.61.31c.11.95,1.53-.35,1.73.66.59-.43.54-1.13,1.04-1.62-.46.62.04,1.5.33,1.01.79.6.36.55.26.71l.68.2c.34.57-.67.71-1.15.75.99.06.9.92,1.16,1.56l-.42-.06.36.82c.39.1.71.32.93.62.24.32.33.62.45,1.12-.41-.08-.75-.03-1.12-.03-.18.7.41.05.64.12.99.78.55,1.27.41,2.06,1.78.87.4,3.35,2.02,3.29Zm-23.42-17.65l-.09.18c-.26-.22-.47-.32.09-.18Zm2.88,7.37c-.74-.71-.2-.62,0-.8.15.96.66,1.3.73,2.18.11-.2.34-.34.46-.45.1.32.05.71-.33,1.02-1.05.05-.55-2.57-.87-1.96Zm-10.96-15.21c.08.01.16.03.24.05h0s-.24-.05-.24-.05Zm2.34,4.36c-.17.13-.24.28-.26.45.21-.17.38-.32.26-.45Zm2.43,9.49c-.28.37.04.79.28,1.1-.03-.18-.05-.52-.28-1.1Zm39.69,44.32c.04.08.11.18.18.27l-5.53-.32c-.18-.19-.44-.3-.66-.11.02.01.04.03.06.04l6.74.39c-.2-.24.28-.64-.2-.82.02-.03.03-.03.05-.05-.33.28-.61.51-.63.6Zm-5.54-27.83c.39-.07.87,0,1.11-.23,0,.03,0,.06,0,.09.1-.11.19-.2.29-.18,0-.24.02-.5-.14-.61-1.25.32-1.6-.08-1.25.94Z"/><path class="cls-1" d="m165.45,259.59c-.03-.12-.04-.21-.07-.28,0,.08.03.17.07.28Z"/><path class="cls-1" d="m159.31,250.24c-.08,0-.12.3-.16.66.13-.11.2-.31.16-.66Z"/><path class="cls-1" d="m118.88,204.45l.22.22.17-.66c-.72-.72-1.26-.57-1.95-.57.85.58.75,1.15,1.28,2.12l.28-1.11Z"/><path class="cls-1" d="m115.01,206.37c-.13.15-.45.51-.45.65h.41s.04-.65.04-.65Z"/><path class="cls-1" d="m116.21,217.35l.08-.97c-.41-.19-.7,1-.08.97Z"/><path class="cls-1" d="m121.73,211.74l-.54-.34c-.23.49-.04,1.03.44,1-.39-.48.22-.2.1-.65Z"/><path class="cls-1" d="m116.82,219.74c.82.05-.06.98.69.94-.28-.17.06-1.12-.69-.94Z"/><path class="cls-1" d="m123.68,217.04c.63-.47-.13-.73-.11-1.31.12.44-.43,1.27.11,1.31Z"/><path class="cls-1" d="m120.39,223.72c-.54.13-.63-.24-.64-.69.21.08.48.09.62.25-.63-.54-.56-.62-.98-1.08-.19.66-.16,1.57-.84,1.7.63.24,1.53.49,1.84-.17Z"/><path class="cls-1" d="m124.15,218.28c.07-.5.49-.91.29-1.43-.34.2-.83.54-.56,1.13l-.68-.03c-.28.71.75-.47.95.33Z"/><path class="cls-1" d="m119.84,226.7l.18-.37c-.72-.46-.75-1.37-1.65-1.46.3.76.97,1.6,1.46,1.84Z"/><path class="cls-1" d="m123.69,220.8l.88-.19c-.08-.65-.27.14-.55-.02.07-.22.06-.5-.15-.58.35.66-.68.27-.19.79Z"/><path class="cls-1" d="m125.29,222.5l.63.65.73-.93c-.63-.79-.55.14-1.36.27Z"/><path class="cls-1" d="m125.05,223.65l-.13.14,1.67.72c-.77-.5-.71-.57-1.54-.86Z"/><path class="cls-1" d="m125.53,240.08c.41-.04.51-.93.27-.45-.35,0-.36,1.14-.27.45Z"/><path class="cls-1" d="m130.77,234.28c-.12.44.85,1.25,1.31,1.58-.43-.45-.87-1.87-1.31-1.58Z"/><path class="cls-1" d="m132.27,235.99s-.1-.08-.18-.14c.06.07.12.12.18.14Z"/><path class="cls-1" d="m144.4,250.49s.1.02.17,0c-.06,0-.11,0-.17,0Z"/><path class="cls-1" d="m143.92,250.41c-.16-.28-.77-.46-1.11-.21.49.14.9.31,1.59.29-.19-.08-.21-.47-.49-.08Z"/><path class="cls-1" d="m146.56,252.34c-.21.18-.3.01-.4.37-.02.18.4-.09.4-.37Z"/><path class="cls-1" d="m166.75,275.07c.22-.47.07-.75-.5-.64,0,.53.34.25.5.64Z"/><polygon class="cls-1" points="166.15 273.82 166.43 273.76 166.87 273.46 166.15 273.82"/><path class="cls-1" d="m167.05,270.5c.09.03.19.12.24.21-.07-.19-.15-.36-.24-.21Z"/><path class="cls-1" d="m167.33,270.81s-.02-.07-.03-.1c.01.03.02.07.03.1Z"/><path class="cls-1" d="m167.14,271.03l.3.04c-.04-.06-.08-.16-.12-.26.02.09-.02.19-.18.22Z"/><path class="cls-1" d="m167.17,269.48l-.87.64c.41.68.45-.76,1.36-.08l-.49-.55Z"/><path class="cls-1" d="m166.95,267.19c.27-.64-1.09-1.54-.08-1.92-.59-1.8-1.68.45-2.13-1.58-.46,1.94,2,.93,1.46,2.66.62-.84.51.55.75.83Z"/><path class="cls-1" d="m165.24,267.5c.51.1.55-.69.21-.94-.05.23-.76.63-.21.94Z"/><polygon class="cls-1" points="166.41 263.66 166.77 263.08 166.44 262.95 166.41 263.66"/><path class="cls-1" d="m166.49,261.52l.62.51c-.23-.17-.26-1-.62-.51Z"/><path class="cls-1" d="m166.9,258.39c.13-.57-1.28-.85-.84.22l.02-.26c.22.04.62-.63.82.04Z"/><path class="cls-1" d="m163.28,251.78c.09.36.39.73.63.58l-.58-.9-.05.32Z"/><path class="cls-1" d="m160.17,252.91c-.69.53.31.8.21,1.47-.03-.7.13-.67-.21-1.47Z"/><path class="cls-1" d="m164.02,250.28c.41.16.34.65.37.92.41-.27.06-.93-.37-.92Z"/><path class="cls-1" d="m163.34,249.14c.23-.36.46-.09.61-.35.18-.66-.06-1.26-.6-1.47-.29.26-1.14.76-1.61.64.58.87,2.18.84,1.2,1.64.54.09,1.07.17,1.61.24,0-.73-1.13-.18-1.21-.7Z"/><path class="cls-1" d="m161.37,251.9l.28-.71c-.41.25-.62-.11-.85-.31-.95.46.41.7.58,1.02Z"/><path class="cls-1" d="m160.95,243.87c-.25-.43-.54-.91-.83-1.31l.15.47c.23.26.46.58.67.84Z"/><path class="cls-1" d="m160.88,242.82l.26-.16c-.34-.3-.68-.57-1.02-.82.26.31.51.63.76.98Z"/><path class="cls-1" d="m160.48,241.21l.04.18c.22.21.44.46.65.69-.23-.3-.46-.6-.7-.87Z"/><path class="cls-1" d="m159.15,238.69l-.24.43c.27.2.22,1.03.69.65-.33-.14-.64-.74-.45-1.09Z"/><path class="cls-1" d="m145.56,238.3c.35,0,.5-.24.66-.48l-.79.17c.08.05.24.15.13.31Z"/><path class="cls-1" d="m145.88,236.57l-1.15-.13c.4.8,1.03.51,1.57,1.08.05-.43-.72-.46-.77-.93h.35Z"/><path class="cls-1" d="m135.89,223.88c.44-.34.26-.42.94-.24-.83-.34-1.25-.93-2-1.53-.13.36-1.06.31-.69.45l1,.5-.38.16c.24.82.78-.11,1.13.67Z"/><path class="cls-1" d="m115.06,185.05c.29.02.48-.18.68-.38-.48-.52-.58.48-.68.38Z"/></g></svg>