<?xml version="1.0" encoding="UTF-8"?><svg id="Layer_1" xmlns="http://www.w3.org/2000/svg" viewBox="0 0 175.6 414.75"><defs><style>.cls-1{fill:#84f39d;}</style></defs><g><path class="cls-1" d="m32.29,346.61c.05-.09.08-.17.12-.26-.11.09-.2.19-.12.26Z"/><path class="cls-1" d="m36.24,314.53c.18-.41.32-.84.44-1.25-.12.11-.24.26-.35.46l-.09.79Z"/><path class="cls-1" d="m33.73,367.18c-.08.46-.13.89-.17,1.27.12-.25.2-.63.17-1.27Z"/><path class="cls-1" d="m88.92,171.47c.04.09.11.18.21.24,0-.01.02-.03.04-.05l-.14-.41-.11.22Z"/><path class="cls-1" d="m43.21,278.67c.16-.52.3-1.03.39-1.49-.3.84-.4,1.26-.39,1.49Z"/><path class="cls-1" d="m34.4,378.73c0-.18-.02-.33-.02-.48-.03.16-.05.37-.06.6l.09-.1s0,0,0-.02Z"/><path class="cls-1" d="m33.08,324.8c.14-.44.25-.83.3-1.18-.14.4-.23.79-.3,1.18Z"/><path class="cls-1" d="m45.85,413.87s.04.08.06.11c.05-.1.05-.15-.06-.11Z"/><path class="cls-1" d="m32.51,346.76c-.25.08-.23.85,0,0h0Z"/><path class="cls-1" d="m32.58,357.02c.02-.34.04-.69.06-1.04-.06.33-.11.66-.06,1.04Z"/><path class="cls-1" d="m35.08,394.61c0-.07,0-.12.02-.19-.14-.03-.1.11-.02.19Z"/><path class="cls-1" d="m32.69,355.04l-.05.95c.05-.29.1-.59.05-.95Z"/><path class="cls-1" d="m34.45,383.2c0-.06.02-.11.02-.16-.02.03-.02.09-.02.16Z"/><path class="cls-1" d="m88.94,18.78c.39.73.23,1.29.37,2.02.69.64.41-.17.14-.9-.27-.73-.54-1.39.26-.34-.27-.71-.59-1.25-.92-1.74-.12.45-.23.89-.37,1.32.82,1.29-.09-1.04.51-.37Z"/><path class="cls-1" d="m93.18,162.89l-.15.3c.42-.12.48.11.99-1.07-.29-1.18-1.52.23-1.7-1.73-.02.36-.17.88-.38,1.35.68-.61,1.01.24,1.24,1.15Z"/><path class="cls-1" d="m91.94,161.74s-.03.02-.06.04c-.1.06-.18.13-.26.21-.07.26-.16.5-.27.69.2-.16.41-.52.59-.94Z"/><path class="cls-1" d="m97.32,42.44c.07.32.13.6.19.86.02-.46-.06-.7-.19-.86Z"/><path class="cls-1" d="m52.53,283.95c-.01.34-.02.68,0,.96.09-.49.07-.77,0-.96Z"/><path class="cls-1" d="m87.28,179.74c-.14.25-.27.51-.38.81-.04.18-.08.33-.13.55l.51-1.35Z"/><path class="cls-1" d="m90.42,121.39c.93.63-.08-.48.46-1.75l-.5-1.17c-.15,1.07,0,2.06.03,2.92Z"/><path class="cls-1" d="m88.83,17.72s-.05.02-.08.02c.02.03.03.05.06.08l.03-.1Z"/><path class="cls-1" d="m90.24,86.63c.05-.21.09-.39.14-.59-.06.12-.11.3-.14.59Z"/><path class="cls-1" d="m89.68,168.38l-1.36,4.26.61-1.18c-.26-.73,1.12-2.33.76-3.09Z"/><path class="cls-1" d="m88.64,138.97l-.63.19c.08.99-.18,2.33-.39,4.02l-.1.85-.12.74c-.09.49-.2,1-.31,1.51-.46,2.02-.96,4.16-.48,6.17-.19.33-.35.64-.49.93-.13.27-.24.48-.33.69-.17.42-.26.77-.3,1.08-.08.62.07,1.06.21,1.49.29.86.63,1.71-.82,3.8l.31-.08c-1.05,3.77-2.35,7.59-3.72,11.49-1.37,3.9-2.75,7.91-4.03,11.82-1.29,3.92-2.54,7.79-3.73,11.56-.59,1.88-1.17,3.75-1.74,5.59-.56,1.83-1.14,3.76-1.64,5.6l-.37-.16c-2.06,5.73-4.11,11.42-6.14,17.09-1.03,2.78-2.08,5.51-3.2,8.19l-.85,1.99-.89,2.04c-.64,1.43-1.25,2.87-1.84,4.31-2.38,5.75-4.46,11.54-6.48,17.3-1,2.86-2.01,5.73-3.01,8.6-.51,1.45-.99,2.8-1.51,4.19l-1.62,4.28c-.44,2.33.85,1.29.61,3.35-.32.82-.89,2.76-1.36,2.64.27-1.76-.44-.94-.44-1.58-.43,1.4-1.04,3-1.51,4.66-.1.38-.2.76-.3,1.13-.08.34-.15.67-.23,1-.13.66-.22,1.3-.23,1.9l1.1-1.72c.04.93-.51,2.28-.77,3.08-.22-.43-1.21.56-1.16-.18.07,2.63-.38,3.57-.91,4.37-.53.8-1.15,1.48-1.43,3.76.53.61.7,2.37.83,4.48.07,1.05.14,2.2.21,3.33.09,1.03.19,2.05.27,2.95l-.67,1.76c.44-2.42-.96-.14-.38-3.1-.8,2.41-.68,4.84-1.35,7.18.42-.4.83-.2.79.79-.47,1.44-1.16,1.44-1.55,3.12l-.09-1.75c-.71,1.03-.25,2.13-.37,3.19-.62.23-1.19,2.79-1.72,2.23.35,2.47-.23,3.23-.11,5.86.97-2.57.63.79,1.14.55l.22-3c-1.01,4.12.1-1.38-.87-1.21.76-1.88,1.11,2.93,1.51-.35-.09,1.98-.25,3.17-.37,4.38-.05.61-.1,1.22-.11,1.93,0,.71.03,1.56.12,2.52.07-2.33.57.51,1-.71-.29,2.96-.41.7-1.13,1.54-.17,1.61-.79,2.13-.29,3.72-.65,2.6-.66-.49-1.23.79-.26-.54.2-2.34.42-3.93.22-1.58.2-2.98-.88-2.74.13-1.45-.45-3.34-.08-5.41-.27.88-.68,1.95-.97,3.11-.3,1.14-.48,2.45-.35,3.43l1.17.24c-.16,1.57.6,2.01.34,3.15-.26-.66-.9.38-.98,1.7.22-.35.25-.87.44-.7-.24,2.43.5,2.88.35,5.86.61-2.4,1.04-2.84,1.85-5,.74.71-.1,1.59-.17,2.92-.09-.21-.07-.49-.29-.13l.21,1.46c-.73,2.98-1.15-.54-1.85,1.93-.45.86-.41,1.42-.33,1.94.07.53.19,1.02-.09,1.64.09-.08.18-.15.24-.22-.05.28-.09.48-.14.63.02,0,.04-.02.06-.01-.08,1.58-.37,3.31.2,3.84-.3.14-.08,1.43.06,1.99.15.95.73,3.15-.25,4.56,0-.04,0-.07,0-.11-.07,1.05-.11,2.06-.2,2.69-.09.58-.23.87-.42.67l-.02,3.16-.83-.28c.4,2.85.85,2.54,1.79,4.48-.37,2.1.18,5.72.56,7.1-.02.23,0,.59.07,1.16l.26-1.24c.08,2.28.5,1.98.58,3.49.06-.32.1-.36.02.48,0,.26,0,.53,0,.87-.09-.07-.1-.41-.07-.75l-.25.29c-.73,1.89.66,2.78.53,4.76-.05-.18-.13-.49-.14-.7-.13,1.11-1.14,2.81-.38,3.21-.06.26.12.64.33,1l-.04.83c0-.34.02-.6.04-.82.28.48.61.93.45,1.01l.21,2.84c-.04.55.17,1.27.37,1.84l-.26.53c.2,1.02.03,1.06-.09.96-.12.95-.09,1.77.04,2.52.14.75.38,1.44.61,2.14.23.69.5,1.39.71,2.17.21.78.34,1.64.41,2.67.76.57.52-1.08.77-1.28.6.47,1.61,2.52,2.24,3.43-.21,1.83.65,7.02-.66,6.55.85,3.06.37-1.15,1.2.26l.07.36c-.2-1.08-.08-2.01.15-2.72.51-.4,1.49,2.2,1.58,3.07l-1-.32c1.16,2.7,2.21,1.73,3.59,3.17.43,2.29-.74,1.29-1.3,2.01.34.75.69,1.5,1.05,2.24l-.6.23c.76,1.44,1.43,1.56,2.13,3.69-.61-.61-.41.22-.23.99.18.77.31,1.49-.56.65.38,1.26,1.64.95,1.16,1.91,1,.43-.19-1.12-.28-1.78.65-.87,1.64,2.17,2.55,3.35-.39.35-.99-.59-.49,1.1.51.13,1.29.96,1.34,2.05.56-.31,1.05,1.66,1.52,2.54-.45-1.03-.8-2.65.04-2.29.64.62,1.1,1.2,2.01,2.92l-.41-1.31c1.66.98.82,2.76,2.33,4.57-.85-.61-1.18-1.13-2.03-1.62.83.79,2.34,2.3,3.56,3.53.11.71.23,1.43.37,2.14.51-.08,1.31,1.8,1.83,1.4,1.19,2.21-1.85-1.07-2.35-1.02,1.56,2.76,2.33,1.33,3.55,4.23-.38-.11-.75-.23-1.12-.35.63.8,2.28,2.04,2.16,2.33.15-.15-.28-.44-.7-.91.67-.2,1.65.45,2.54,1,.9.53,1.73.95,2.03.33l-.93-.96c1.7,1.2,3.34,1.43,4.29,2.71.7,1.06-1.22.23-2,.03,1.49,1.26,2.11-.16,3.89,1.22-.86-.85-.39-1.1.38-.99-1.03-.76-2.93-2.63-2.92-1.9l.28.4c-.31.2-.93-.16-1.31-.25-1.37-1.14-.23-1-.34-1.42-2.01-2.13-1.1.86-3.03-1.08l-.07-.43c-.59-.34-1.22-.9-1.83-1.32-.59-.44-1.15-.76-1.58-.64-.12-1.47-2.25-2.27-2.61-3.68.7-.65,1.34.33,2.08,1.52.73,1.19,1.62,2.59,2.53,2.82-.68-1.31,1.23,0,1.93.12-1.2-.88-2.4-1.8-3.54-2.81-.03-.44-.06-2.03-1.09-2.29l.17.31c-1.21-1.32-1.57-.49-2.24-1.92,0-.3.52-.07.7-.04-.65-1.28-1.02-.75-1.68-1.47-.63-1.3,1.04.19.57-.93-1.5-1.02-1.22-2.32-1.98-3.53-.64,1.1-4.08-4.33-3.39-1.12l-2.31-2.76c-.02-1.22,2.46,1.44,2.8.15l1.29,2.45c.93-1.02-3.53-4.7-3.04-7.05-.6-1.35-.65-.91-1.16-3.67l-.91.91c-.32-1.43.12-2.1.29-2.24-.39-.74-.62-1.45-.84-2.2.23.13.49.35.72.79.24-1.22-.08-1.43-.55-1.66-.48-.44-.73-1.29-1-2.15l.68.63c-.27-.48-.6-1.08-.82-1.07-.12-.35-.25-.69-.43-.99-.12.29-.61,1.08-.49,2.41-.62-3.33-1.61-5.79-1.54-8.89.36,0,1.13,1.05,1.07.68-.26-1.45-1.33-2.8-1.78-2.52-.13-.31-.23-.55-.3-.76.2-.35.37-.81.24-1.45.06-.18.08-.44-.03-.91-1.07-.16-1.31-2.89-1.86-3.35.07.64.27,1.39.5,2.15-.88-.93-1.87-1.75-1.56-2.74,1.06,1.93.45-2.41,1.43.62.66-2.43-1.1-.94-1.18-3.35l.19-1.59c.72.11.78,2.36.98,1.96-.11-.33-.19-.68-.28-1.02.33.48.65,1.68,1.03,3.05.42,1.35.9,2.87,1.64,3.88-.18-.77-.34-1.56-.46-2.35-.14-.79-.29-1.57-.38-2.37-1.07-2.86-1.6-6.29-2.02-9.64-.43-3.35-.8-6.63-1.72-9.28l.03.23c-.07-.09-.2-.13-.47-.19l.16-.25-.58-1.04c.57-1.25.59-3.54,1-5.51q-.37,1.24-.87,1.39c-.7-.21-1-.38-.83-2.22.49-.04.53,1.08.85-.28-.21.7-.58.1-.68-.69.27-1.04.25-2.76.73-2.81.16.47.01.86-.05,1.19.16.47.34-1.96.82-.56l-.24-1.86c.35-1.11.68.69.92.24-.5-3.08-1.75-4.68-2.29-7.38.27.1,1.36.04,1.04.04.18-1.75-1.22-4.08-1.06-6.48.29.38.07,1.24.18,1.95.47-3.5,1.15-6.85,1.68-10.25.53-3.2,1.3-6.36,2.26-9.86l-.89-1.99c.32-.61.63-1.2.94-1.74,1.53-6.91,2.09-12.47,3.05-19.53.33-2.19,1.01-1.17,1.5-2.15.24-1.2.35-2.21.38-3.09.02-.78-.01-1.48-.04-2.18-.05-1.4-.12-2.82.32-5,.18.68.85,1.91,1.38.1-.22-.43-.66-.78-.13-1.9l.16.69c.78-.93.62-2.09,1.48-4.3.57-2.01.93-4.1,1.06-6.16l.04-.77v-.67c0-.45,0-.9,0-1.34,0-.9-.04-1.79-.07-2.67,1.22-3.34,1.02.73,1.47.16-1.13,2.22-.31,1.68-.09,2.29.04-1.3.36-2.88,1.33-3.25.55-1.74.87-2.52,1.01-4.46-.07.98-.75,1.58-.79.63.79-1.33,1.89-5.22,2.76-4.69,2.85-8.69,6.25-18.07,9.83-26.85.13-1.67-.65,1.05-.65.1.28-2.41,1.02-1.56,1.27-3.48l.2.92c.58-1.26.94-2.62,1.25-4.07.34-1.49.57-2.99.87-4.37.4.67,1.35-1.94.81.36.42-1.3,3.63-1.83,3.49-3.04l-2.98.49c-.21-.16.64-1.89.41-1.77.9-.93,1.98-2.09,2.26-2.86.76-.15-.09,1.75-.52,2.81.97.55,2.01-3.36,2.37-1.45.68-2.36-.65.13-.52-1.38l.94-1.92-.9,1.42c.29-1.78-.28-2.63,1.07-4.64l-.22-2.64c.89.05.72-1.62,1.31-2.74l.27.91c.5-1.58.85-2.14,1.47-3.01.42,1.12-.65,1.36-.09,1.96l.82-1.64c-.47-.15-.46-1.36-1.16-.23-.33-1.88-.76-3,.65-6.94,1.4-1.52.05,2.16,1.08,1.68.86-2,.78-3.42.6-4.64-.18-1.25-.46-2.29,0-3.49,1.36-3.01.57-3.07,1.53-6.24.22,1.18,1.28-2.03,1.98-2.45l.17,1.43c.13-1.02.63-1.87.94-1.47-.79-.05.59-4.32.9-6.6l-.74.19c.31-1.77.63-4.24,1.35-5.99.62-2.73-.12-2.3-.16-4.57.92-.96,1.55-.63,2.12-.03-.55.62-.74,1.88-1.3,3-.51,3.54.02,6.58-1.33,9.87,1.07,1.94.52-2.34,1.56-3.82.08.08.07.2.05.33.05-.15.09-.27.17-.4-.18,1.27-.55,3.32.13,3.89.47-2.08-1.07-1.94.36-4.26.15-2,1.81-3.14,2.26-4.23-.18-1.41-1.39-1.83-.2-4.81l.43,1.6c1.1-3.45-.73-2.01.31-5.22-.45,1.11-.5-1.35-1.19.79-.12-1.2.51-3.57,1.28-5.27,0-.5-.26-.18-.53-.35-1.16,1.78-.34,3.26-1.68,4.59l.5,1.63c-.9,1.69-1.69,1.64-1.71.43-.12.52-.13,1-.41,1.32-1.48-.13,1.17-1.99.19-2.98l-.3,1.3c-1.07.27.14-3.2.69-4.81.98-1.72,1.62-3.38,2.31-3.33l-.44,2.59c.91-1.15.62-3.3,1.03-4.76.12-.07.22-.2.31-.36-.08.06-.15.09-.21.07.12-.3.27-.56.49-.76.37-1.29.41-3.3.88-4.48l-.63.02.3.24c-.28,1.2-1.03,2.72-1.26,1.72.2-2.76,1.43-3.06,2.08-3.61.8.81-.55,2.66-.57,4.1,1.09-.61.75-2.75,1.86-5.44.8,1.28-.65,3.29.12,4.09.67-2.24.06-3.1.76-5.27.2.19.2.85.24,1.43.04.58.08,1.21.4,1.18l.29-.76.28-.68c-.14.85-.15,1.35-.06,1.53.09.19.27.11.46,0,.38-.22.82-.54.64,1.02.34-.67.25-1.28.16-1.81-.08-.53-.12-1.14.39-2.01-.54.43-1.62,1.76-1.65-.11l.73-2.01c.66-.77.59,2.4,1.28,1.13l.13-2.3c-.31.02-.68,1.07-.95.31.59-1.25-.69-2.4-.88-4.06.11-.62.21-1.24.33-1.66.1-.32.26-.58.46-.71-.22-1.31.18-3.14.19-5.32,0-1.19-.21-2.15-.41-2.94-.2-.79-.4-1.42-.58-1.96.28.76.56.73.79.42.12-.15.24-.35.37-.52.14-.23.29-.58.44-.82-.02.26-.01.49,0,.7.01.23.07.24.12.35.11.18.26.31.42.39.33.17.72.12,1.02.07-.03-.21-.1-.33-.21-.44-.05-.06-.11-.06-.17-.17-.06-.1-.12-.2-.18-.27-.26-.31-.58-.4-.77-.1.65-2.07-.47-1.54.44-3.4.51-1.23.83.77,1.25.38.39-2.46-1.03-.8-.46-3.53.11.17.12.43.32.23.38-1.51.03-3.29-.44-3.63.33-.4.47-.96.54-1.43.06-.47.05-.94.03-1.36-.04-.84-.08-1.46.52-1.31-.32-3.44-.65.51-1.07-.17-.53-1.41-.1-4.02.09-4.83.03.85.35,1.63.17,2.45l.83-.73c.59-4.28-1.88-2.72-1.16-6.86.43,2.13.63.71,1.22,1.77-.21-.64.03-3.88-.61-1.92.07-1.56.22-2.64.37-3.71-.32-1.38-.55-2.88-1.09-3.68.09-2.18.68-3.79,1.04-4.83-.3-2.29-.19-4.49-.09-6.72.05-1.14.1-2.18.12-3.29.02-1.11,0-2.25-.11-3.46l-.06.35c.29-3.73-1.17,1.62-.99-2.27,1,.56.77-2.32,1.34-3.61.31-2.46.11-4.66-.19-6.82-.16-1.09-.32-2.17-.48-3.27-.08-.54-.17-1.18-.21-1.66-.04-.48-.06-.98-.04-1.5.22,0,.5.24.64,1-.13-3.08-.5-5.68-.72-8.75l.14.12c.19-2.49-.09-4.96-.71-7.48-.15-.63-.33-1.26-.52-1.9-.2-.67-.43-1.31-.65-1.94-.46-1.19-.93-2.4-1.41-3.65.25.36.65.34.88.61-.29-1.29-.72-2.87-1.18-4.2-.13-.37-.26-.74-.39-1.09-.16-.41-.33-.8-.51-1.15-.36-.7-.76-1.27-1.16-1.65-.17-1.75-.49-2.21-.83-2.76-.32-.52-.83-1.31-1.01-2.94.09-.25.28.24.41.42-.35-1.6-.85-2.69-1.35-4.46-.97-1.81-1.86-2.97-2.7-4.24-.86-1.28-1.56-2.69-2.61-5.3.56-.44,1.03.32,1.45,1.13.42.82.78,1.68,1.31,1.54-.64-.93-1.25-1.7-1.66-3.28.91.63.4.04,1.15.42-.09-.63-1-1.65-1.87-2.39-.83-.67-1.61-1.15-1.55-1.18-.26.09-.19.48.36,1.35-1.34-.66-2.67-4.27-4.17-6.06.37.65,1.42,2.86.38,2.43-1.42-2.86-3.08-3.02-4.63-4.66-.8-2.78,2.02,1.27,2.62.3.06-.59.21-1.92,1.1-1.11-.52-1.12-1.13-1.94-1.75-2.71-.32-.41-.58-.71-.93-1.21-.33-.47-.65-.95-.95-1.48l.28-.05c-1.52-3.04-4.23-5.76-5.17-8.54l.47,1.5c-.41-.42-1.19-1.98-2.16-2.52.46-.14-.38-2.29.43-1.7-1.03-.29-2.26-1.84-3.6-3.35-1.33-1.51-2.77-2.97-3.86-3.18-.31-.94.61-.77,1.05-.76,1.33,1.79,1.52,2.57,2.69,3.16-1.1-1.48-1.68-2.76-1.24-2.75-.47-.22-1.03-.59-1.6-.99-.54-.38-1.11-.82-1.66-1.24-1.1-.84-2.13-1.6-2.76-1.64-.45-1.27-1.03-2.36-.17-2.5-3.72-3.79-.13,3.53-3.92-1.11-1.17-2.58,2.46,1.42.26-1.65l.53.46c-.22-3.34-2.28-.58-4.19-3.01.56-.99,1.95,1.17,1.19-.95-1.98-2-4.04-1.98-5.49-4.34l.62.06c-1.16-1.27-2.79-4.23-3.67-5.73.14-.17.24.06.45.32-1.17-3.02-1.14-.93-1.67-3.62l-.05-.03-9.55-5.48,5.18,6.67.54.69c.04-.22.08-.47.12-.74l1.25-9.13,1.87,8.28c.32,1.41,1.03,3.41,2.2,4.38-.68-.58-.65.16-.57,1.02.08.86.22,1.84-.39,1.72l.49.1c.29,1.17.75,2.37,1.38,3.55.62,1.17,1.32,2.3,2.07,3.47,1.5,2.32,3.19,4.69,4.79,7.1,3.14,2.1,3.6,5.06,6.63,7.58,1.31-.34.68.34,2.8,2.76-1.15-1.27-.86.4-.4,1.36.62.32,1.14.89,1.66,1.46,0,.39.33,1.56.82,2.76.48,1.19,1.12,2.41,1.84,2.87.57,1.92-.56-.22-1-.46-.17.99,1.2,1.16,1.13,1.94,0,0-.13.03-.28-.12,1.43,2.64,1.92,4.4,3.09,7.35.3-.07.56.07.8.32.24.26.47.7.7,1.15.46.91.94,1.97,1.49,2.53-.59-.24.54,1.9.84,2.81l1.69,1.04c1.56,1.07.81,2.33,2.29,3.97l-.09-.56c.56.57,1.26,1.89,1.7,3.16.43,1.25.64,2.6.61,3.4,1.84,2.95,2.97,6.14,4.14,9.2.3.78.6,1.54.89,2.3.3.73.6,1.45.9,2.17.53,1.33.97,2.62,1.28,3.89.16.65.28,1.24.4,1.93.15.79.32,1.56.49,2.32.32,1.44.66,2.92,1,4.45.15.72.3,1.44.41,2.13.11.74.23,1.49.35,2.27.22,1.64.44,3.37.69,5.21.46.96.55-.78,1.16-.05.28,1.56.26,1.92.4,3.38.22-1.32-.17-1.07.18-.94l-.53-2.18c.08-.11.14.12.29-.1-.18-.72-.5-1.55-.54-2.48.46,1.29,1.39,1.58,1.21,3.47-.14-.13-.2-.37-.32-.85.06,1.54.5,1.58.36,2.78-.08,1.45.17,1.08-.2,1.3-.03,1.51-.03,3.05.02,4.63.34.54.58,1.15.72,1.72.12.52.19,1.04.16,1.53-.01.98-.25,1.81-.27,2.14-.83-.39-.48-2.69-1.44-3.5-.13.5-.25.98-.39,1.47h.65c.02.68.02,1.37.01,2.06l-.13-.11c.27.22.53.47.34,1.02-.08.1-.25.31-.3.08.15.49.27.99.41,1.5-.69-.87-.18,1.34-.95,1.13-.18,2.48,0,4.14.13,5.73.12,1.6.14,3.13-.44,5.53.38-.78,1.18,1.58,1.04,3.06-.19.83-.36,1.04-.66.51l.39,1.89c-1.2,2.36-.43,4.67-.84,8.13l-.34-.18c.4,1.28.72,2.67.6,4.59l-.68-.35c-.48,2.36,1.43,1.8.99,4.4.73-.01,1.1-1.65,1.8-1.91-.74.61-.85,3.41-.32,2.76.3,2.6-.02,1.8-.2,2.02l.44,1.52c-.04,1.82-.96.58-1.37-.09.79,1.7.23,3.56.11,5.49l-.33-.78-.13,2.54c.14.41.25.87.33,1.35.08.46.13,1.05.15,1.46.03.9-.09,1.87-.34,2.81-.27-.47-.56-.93-.85-1.36-.6,1.23.28.69.41,1.05.25,2.16-.51,2.61-1.21,3.74.11.98,0,1.96-.2,2.96l-.17.75c-.03.09-.07.36-.1.55l-.09.6c-.1.77-.15,1.45-.2,2.01-.08,1.12-.17,1.83-.21,2.06,0,.07,0,.07,0,.12,0,.09.01.2.03.32.03.24.09.54.2.89Zm-53.25,254.65l.09-.38c.28.78.51,1.21-.09.38Zm-1.55-21.05c.5,2.49,0,1.72-.25,1.92.14-2.49-.23-3.85-.02-6.04-.17.36-.43.44-.58.56,0-.87.17-1.75.64-2.07,1.03,1.02-.29,6.74.22,5.63Zm13.44,44.89c-.1-.05-.2-.12-.3-.2h0s.3.2.3.2Zm-4.56-11.51c.15-.23.16-.56.11-.95-.17.3-.3.58-.11.95Zm-3.25-23.93c.36-.59.15-1.87,0-2.79-.01.44-.08,1.23,0,2.79Zm30.54-150.1c-.13.76-.31,2.25.46,1.14-.08-.71.91-1.63.62-2.31.05-.06.06-.07.09-.1-.58.59-1.07,1.07-1.17,1.28Zm19.63-70.93c.35.23.63.87,1.01.6-.02.06-.06.13-.08.2.18-.15.32-.27.37-.11.23-.56.47-1.15.45-1.59-1.21-.5-1.11-1.76-1.75.91Z"/><path class="cls-1" d="m87.67,185.99c.06-.28.14-.49.17-.66-.05.18-.11.38-.17.66Z"/><path class="cls-1" d="m91.36,160.19c-.07-.07-.35.59-.71,1.39.2-.13.43-.51.71-1.39Z"/><path class="cls-1" d="m44.56,409.97c.56-.05.81.89,1.01,1.96-.27-.3-.59-.45-.81-.89.95,1.6.9,1.75,1.58,3.03-.07-1.48-.46-3.63.26-3.61-.81-.88-1.94-1.93-2.04-.5Z"/><path class="cls-1" d="m43.97,403.11c-.03.25-.06.49-.08.76,1.04,1.5,1.45,3.7,2.51,4.37-.32-.98-.76-2.07-1.21-3.02-.45-.95-.92-1.77-1.22-2.12Z"/><path class="cls-1" d="m39.43,410.43l-1.01-1.95-.44,1.9c1.07,2.32.57-.05,1.45.05Z"/><path class="cls-1" d="m39.21,407.72l.09-.28c-.75-.9-1.5-1.73-2.26-2.73.57.91.83,1.36,1.1,1.73.27.38.53.7,1.07,1.28Z"/><path class="cls-1" d="m39.49,367.88c-.4-.35-.79,1.59-.4.75.34.35.71-2.24.4-.75Z"/><path class="cls-1" d="m32.66,376.05c.24-.95-.46-3.97-.78-5.29.26,1.57.27,5.54.78,5.29Z"/><path class="cls-1" d="m31.75,370.22c.03.11.07.3.13.54-.04-.24-.08-.41-.13-.54Z"/><path class="cls-1" d="m34.79,313.22c.02-.14.01-.28-.02-.42,0,.14.02.27.02.42Z"/><path class="cls-1" d="m34.75,314.58c-.3.86-.42,2.69-.06,3.08.08-1.46.2-2.72.1-4.43-.07.62-.51,1.32-.03,1.36Z"/><path class="cls-1" d="m37.25,301.95c.1.76-.19,1.74.22,1.55.22-.38.13-1.98-.22-1.55Z"/><path class="cls-1" d="m76.58,223.05c.61-1.12.69-1.87.05-1.73-.45,1.33.12.71-.05,1.73Z"/><polygon class="cls-1" points="77.04 219.77 77.36 219.7 78.03 219.06 77.04 219.77"/><path class="cls-1" d="m80.55,211.91c.07.09.09.33.07.56.08-.48.14-.89-.07-.56Z"/><path class="cls-1" d="m80.57,212.72c.02-.07.03-.16.04-.24-.01.08-.03.17-.04.24Z"/><path class="cls-1" d="m80.23,213.19l.25.19c0-.14.05-.41.09-.66-.05.22-.17.44-.35.47Z"/><path class="cls-1" d="m81.46,209.53l-1.33,1.26c-.14,1.73,1.03-1.68,1.37.19l-.03-1.45Z"/><path class="cls-1" d="m83.07,204.1c.78-1.42.21-4,1.45-4.53.86-4.41-1.91.45-.74-4.5-1.96,4.41,1.13,2.92-.75,6.82,1.25-1.77.03,1.48.03,2.22Z"/><path class="cls-1" d="m81.21,204.27c.4.41,1.09-1.48.97-2.17-.24.53-1.23,1.26-.97,2.17Z"/><polygon class="cls-1" points="85.36 195.66 86.14 194.48 85.94 194.04 85.36 195.66"/><path class="cls-1" d="m87.09,190.81l.17,1.43c-.09-.48.53-2.36-.17-1.43Z"/><path class="cls-1" d="m89.88,184.21c.55-1.12-.42-2.58-.9-.01l.22-.55c.16.21,1.03-.99.68.56Z"/><path class="cls-1" d="m92.7,167.81c-.27.82-.4,1.85-.08,1.76l.4-2.36-.33.6Z"/><path class="cls-1" d="m89.43,167.21c-1.01.52-.56,2.12-1.28,3.52.67-1.64.72-1.4,1.28-3.52Z"/><path class="cls-1" d="m94.58,165.5c.16.72-.33,1.63-.55,2.19.54-.15.87-1.78.55-2.19Z"/><path class="cls-1" d="m95.28,161.7c.51-.69.41.28.77-.25.77-1.57,1.1-3.38.84-4.42-.44.38-1.5.78-1.76.01-.26,2.7.89,4.42-.57,5.41l.82,2.55c.79-2.04-.55-1.87-.1-3.3Z"/><path class="cls-1" d="m91.24,166.22l.85-1.23c-.53.15-.32-.91-.28-1.67-1.11.09-.4,2.11-.57,2.91Z"/><path class="cls-1" d="m97.64,147.1l.13-1.61.04-.8c0-.17,0-.34.02-.53l-.08.34c-.02.11-.05.2-.08.4,0,.74,0,1.47-.02,2.2Z"/><path class="cls-1" d="m98.29,145.1l.31-.05c-.01-.26-.05-.34-.08-.47-.02-.13-.05-.26-.07-.41-.04-.29-.07-.61-.08-.96-.04.35-.07.67-.08.96,0,.15,0,.28,0,.42v.19s0,.32,0,.32Z"/><path class="cls-1" d="m99.14,142.65l-.13.32c-.04.55-.06,1.03-.04,1.43.01-.48.07-1.06.17-1.75Z"/><path class="cls-1" d="m99.98,134.94c-.13.17-.27.35-.4.55.09.37.05,1.04.03,1.67-.02.62-.03,1.18.28,1.08-.07-.54-.12-1.34-.13-1.98,0-.64.05-1.12.22-1.33Z"/><path class="cls-1" d="m89.85,114.98c.29.54.55.22.82-.11l-.76-.85c.04.25.11.75-.06.96Z"/><path class="cls-1" d="m91.08,111.41l-.86-2.2c-.13,2.53.55,2.88.68,5.09.27-.94-.34-2.24-.11-3.42l.29.53Z"/><path class="cls-1" d="m91.62,68.05c.57.1.45-.35.99,1.09-.13-.51-.27-.98-.38-1.45-.1-.47-.23-1.09-.31-1.63-.18-1.13-.3-2.29-.47-3.6-.31.48-1.1-1.42-.85-.43.2.96.42,1.94.65,2.93l-.43-.4c-.09,1.08.13,1.42.34,1.75.11.17.23.35.32.62.09.28.16.68.15,1.13Z"/></g><g><path class="cls-1" d="m104.51,291.36c.02-.46-.05-.48-.2-.31-.16.19-.39.58-.65.88l.85-.56Z"/><path class="cls-1" d="m103.66,291.93l-.55.47c.21-.07.39-.25.55-.47Z"/><path class="cls-1" d="m100.24,297.46c-.06-.79.26-1.57.57-2.27.17-.35.31-.68.4-1.01.11-.32.16-.64.09-.97-.63.58-1.16,1.51-1.35,2.35-.22.84-.1,1.59.28,1.9Z"/><path class="cls-1" d="m101.49,295.55l-.35-.35c.04.5.14.99.22,1.46l.14-1.11Z"/><path class="cls-1" d="m102.25,294.9l-.23.09c-.14.66-.22,1.33-.28,1.98.13-.69.29-1.39.51-2.07Z"/><path class="cls-1" d="m98.97,302.3c.02-.5.03-.99.07-1.49.85-1.26.7,1.02,1.28.19.14-.88-.16-1.09-.41-1.36-.25-.27-.5-.6-.1-1.71-.32.01-.55.93-.75,1.78-.2.85-.4,1.62-.83,1.37-.55,1.95.54.17.75,1.23Z"/><path class="cls-1" d="m145.39,293.5c.05-.06.08-.12.12-.18-.11.06-.2.13-.12.18Z"/><path class="cls-1" d="m143.27,272.18c.02-.31,0-.61-.04-.89-.07.11-.12.24-.15.4l.19.49Z"/><path class="cls-1" d="m143.62,307.51c-.22.25-.42.48-.57.7.19-.1.4-.29.57-.7Z"/><path class="cls-1" d="m63.41,251.64c-.02-.08-.07-.17-.15-.26,0,0-.03.01-.04.02l.06.36.14-.12Z"/><path class="cls-1" d="m133.51,250.99c-.27-.25-.54-.49-.81-.67.42.44.66.62.81.67Z"/><path class="cls-1" d="m139.72,314.54c.07-.1.13-.19.2-.28-.09.07-.2.17-.32.29h.11s0,0,0-.01Z"/><path class="cls-1" d="m143.16,279.29c.02-.34.04-.63.01-.88-.04.3-.04.59-.01.88Z"/><path class="cls-1" d="m106.06,323.76c.26.36.55.58.87.71-.12-.28-.34-.55-.87-.71Z"/><path class="cls-1" d="m113.33,329s-.03-.01-.05-.02c-.01.12.02.12.05.02Z"/><path class="cls-1" d="m118.76,331.46s-.07,0-.11,0c.05.1.08.12.11,0Z"/><path class="cls-1" d="m106.93,324.47c.31.76-.28,1.88,1.33,1.47l-.04-.26c.27.62,1.29.72,1.87,1.07.01-.14,0-.27-.02-.41-.26-.22-.62-.48-1.1-.98-.47-.71-1.25-.57-2.04-.89Z"/><path class="cls-1" d="m145.62,293.63c-.25.04-.22.61,0,0h0Z"/><path class="cls-1" d="m145.24,300.72c.07-.22.14-.43.19-.66-.09.21-.19.4-.19.66Z"/><path class="cls-1" d="m131.86,321.47s.08-.01.12-.01c-.05-.13-.11-.07-.12.01Z"/><path class="cls-1" d="m145.58,299.45c-.04.21-.09.41-.15.61.09-.18.16-.37.15-.61Z"/><path class="cls-1" d="m137.64,316.84s.07-.04.1-.06c-.03,0-.06.03-.1.06Z"/><path class="cls-1" d="m27.64,357.69c-.11-.57.24-.89.34-1.42-.86-1.2-.04,2.46-.8.72,0,.53.11.95.24,1.34l.82-.75c-.31-1.04-.28.69-.61.11Z"/><path class="cls-1" d="m58.11,256.32l.19-.16c-.4-.07-.42-.26-1.09.39.05.96,1.43.43,1.21,1.9.09-.25.33-.56.6-.82-.73.18-.88-.57-.91-1.31Z"/><path class="cls-1" d="m59.03,257.63s.03,0,.06,0c.1,0,.19-.02.28-.05.11-.16.24-.3.37-.4-.2.04-.47.22-.71.46Z"/><path class="cls-1" d="m29.5,339.09c.04-.12.07-.24.11-.34-.17.17-.18.25-.11.34Z"/><path class="cls-1" d="m142.53,245.47c.29.26.58.52.81.73-.36-.47-.61-.65-.81-.73Z"/><path class="cls-1" d="m66.82,246.11c.2-.11.39-.24.58-.39.09-.11.17-.2.28-.33l-.86.72Z"/><path class="cls-1" d="m51.52,286.64c-.68-.76-.07.34-.9.95l.16.95c.41-.64.52-1.34.73-1.9Z"/><path class="cls-1" d="m27.36,358.38s.05,0,.08,0c0-.02-.01-.04-.02-.07l-.06.06Z"/><path class="cls-1" d="m44.65,309.88c-.08.13-.14.24-.21.37.07-.07.14-.18.21-.37Z"/><path class="cls-1" d="m62.22,253.63l1.93-2.65-.74.65c.11.64-1.39,1.3-1.19,2Z"/><path class="cls-1" d="m57.74,274.87l.63.02c.43-3.32,3.71-5.54,3.59-8.53,3.72-2.17-.19-3.1,3.25-5.07l-.3-.06c.82-1.19,1.71-2.36,2.58-3.54l1.35-1.76.68-.88.6-.73c1.63-1.9,3.55-3.6,5.71-5.22,2.15-1.62,4.5-3.17,6.9-4.81,1.14-.79,2.26-1.57,3.38-2.34,1.07-.73,2.1-1.41,3.11-2.04l.16.37c1.73-.78,3.42-1.33,5.08-1.71.83-.16,1.66-.32,2.49-.38.41-.06.83-.05,1.25-.09h1.37c4.8.02,8.99-.34,12.45.1.87.1,1.66.26,2.43.45l.56.15.75.23,1.51.48c1.97.65,3.75,1.3,5.25,2.08,1.52.78,2.82,1.7,4.05,2.87l2.18,2.18,2.31,2.35c1.43.9,1.36-.41,2.68.28.21.23.57.58.83.92.17.26.21.47.02.63-.33-.17-.5-.09-.65,0-.14.09-.21.25-.42.17l.14.13.07.08.13.15c.07.11.15.21.21.33.13.22.21.45.32.71.2.49.48,1.2,1.03,1.89.05-.5.12-.95.18-1.36.43.36.58,1.35.76,1.98-.39-.16-.75.96-1.07.47,1.4,1.69,1.54,2.46,1.5,3.19-.03.74-.19,1.46.69,2.84,1.48.12,3.97,3.34,5.71,5.39l.1,1.36c-.57-1.66-.9.35-1.57-1.71.25,1.83,1.32,3.2,1.56,4.85.24-.4.68-.44,1.01.16.08,1.03-.55,1.29-.37,2.39l-.66-.98c-.32.86.46,1.28.65,1.93-.51.29-.38,1.97-1.04,1.77.96,1.46.58,2.12,1.32,3.99.32-2.08.8.41,1.24.12l-.5-2.17c0,3.11-.22-1-1.14-.62.28-1.43,1.79,1.71,1.37-.58.84,2.71.39,3.48,1.86,6.42-.6-1.82.68.21.75-.84.58,2.25-.19.64-.61,1.5.34,1.21-.11,1.54.65,2.17-.12.65-.34.58-.51.45-.18-.13-.39-.29-.59-.03-.32-.25-.1-.64-.4-1.82-.29-1.14-.71-2.38-1.67-1.84-.28-1.17-1.28-2.47-1.42-4-.06.68-.19,1.54-.19,2.51,0,.94.17,2.06.63,2.91l1.17-.2c.36,1.27,1.19,1.21,1.18,1.75-.2-.1-.38.01-.52.15-.13.15-.22.27-.17.42.17-.09.12-.22.33-.19.07.29.26.57.44.96.04.11.09.18.12.34.03.16.06.34.07.53.04.38.05.81,0,1.36.31-.85.59-1.38.86-1.83.26-.36.54-.69.8-1.24.42.15.44.38.35.65-.09.29-.29.55-.33,1.03-.08-.17-.07-.37-.28-.12l.2,1.11c-.75,2.12-1.14-.49-1.86,1.25-.91,1.13.09,1.77-.46,2.65.09-.05.18-.1.24-.15-.05.21-.09.35-.14.46.02,0,.04,0,.06,0-.08,1.16-.36,2.35.2,2.78-.3.07-.1.99.02,1.39.13.66.54,2.32-.66,2.99,0-.03.01-.05.01-.07-.44,1.33-1.04,2.26-1.28,1.88-.27.68-.57,1.34-.87,1.96l-.69-.47c-.42,1.83.07,1.82.31,3.39-.99,1.1-1.83,3.42-2.09,4.39-.1.12-.24.32-.42.68.24-.18.49-.35.72-.54-.86,1.31-.41,1.39-1,2.25.19-.14.24-.14-.2.28-.12.14-.24.28-.4.45-.04-.09.11-.27.28-.44h-.33c-1.43.49-.76,1.85-1.87,2.7.06-.12.16-.32.25-.42-.65.46-2.22.48-1.91,1.18-.18.06-.26.35-.31.65l-.47.31c.18-.13.33-.23.46-.3-.07.41-.09.85-.25.75-.49.42-.98.83-1.49,1.22-.36.18-.59.5-.81.82l-.43-.1c-.47.39-.6.22-.58.1-1.19.08-1.9.59-2.75,1.21-.43.31-.84.62-1.42.93-.69.39-1.32.73-2.06.95-.12.77,1,.28,1.27.47-.18.64-1.19,1.88-1.65,2.52-.69,0-1.71.12-2.48-.26-.19-.06-.34-.19-.48-.28-.15-.09-.28-.21-.38-.34-.19-.24-.24-.5-.13-.77-.71-.11-.65.05-.46.32.19.27.51.58.07.73l-.19-.07c.57.22,1.03.58,1.38.99.1.28-.24.53-.76.6-.5.09-1.12-.01-1.38-.15.19-.25.36-.51.52-.78-.89,0-1.36.26-1.79.62-.43.36-.8.8-1.59.96-1.47-.98-.22-1.31-.24-2.15-.54-.16-1.07-.35-1.61-.56l.31-.57c-1.03-.37-1.57.01-2.75-1.04,1.27.11-1.62-1.79.13-1.61-.6-.66-1.47.24-1.31-.7-.85.23.36.69.62,1.12-.29,1.01-1.79-.65-2.71-1.12.27-.44.88-.03.23-1.05-.44.15-1.2-.15-1.34-.96-.46.46-1.03-.87-1.42-1.4.37.66.81,1.76.06,1.79-.6-.26-1.07-.57-1.88-1.71.11.32.25.63.38.94-1.54-.36-.75-2.01-1.89-3.19.69.38.96.72,1.68.93-.68-.43-1.92-1.38-2.76-2.33.04-.56.11-1.12.2-1.66-.52.06-.58-1.41-1.17-1.17-.21-1.74,1.2,1,1.75.89-.25-1.01-.62-1.29-.97-1.59-.3-.31-.62-.65-.38-1.73l.75.44c-.07-.31-.26-.74-.41-1.12-.12-.38-.2-.71-.06-.77-.21.04-.06.33.01.72-.65-.04-1.07-.73-1.37-1.38-.33-.64-.6-1.26-1.25-1.09-.02.33,0,.66.01.99-.44-1.45-1.31-2.59-.8-3.77.47-.88.86.68,1.21,1.19.12-1.38-1.45-1.19-1.17-2.92-.29.89-.75.69-1.04.09-.22,1.01-.5,3.21.07,2.82l.14-.37c.34.1.46.66.64.93.03,1.39-.57.68-.83.97-.03,1.22.36,1.24.7,1.22.36-.02.7-.06.86.97l-.2.32c.5.94,1.03,2.39,1.89,2.36-.54,1.15,1.15,1.97,1.11,3.03-.78.52-1.19-.28-1.46-1.31-.3-1.02-.43-2.24-1.07-2.68-.06,1.18-1.06-.36-1.57-.78.52,1.16,1.15,2.22,1.84,3.22-.14.34-.59,1.72.34,2.01l-.08-.27c.81,1.19,1.35.45,1.69,1.63-.06.25-.5.08-.65.06.42,1.06.86.58,1.38,1.11.48,1.01-.97-.03-.61.85,1.34.66,1.06,1.79,1.85,2.65.26-.53,1.25.1,2.1.47.84.39,1.5.54,1.02-.6.76.43,1.54.83,2.32,1.18.24.96-2.3-.03-2.39,1.09-.5-.51-1.01-1-1.48-1.54-.37.59.57,1.28,1.64,1.97,1.06.72,2.27,1.38,2.44,2.41.92.7.74.37,2.22,2.09l.32-1.21c.79.81.79,1.55.73,1.77.62.27,1.14.58,1.69.91-.23.08-.52.12-.92-.02.48,1,.85.9,1.29.71.57-.06,1.23.27,1.95.54-.27.06-.54.12-.81.17.47.09,1.09.15,1.2-.03.3.11.62.16.92.17-.15-.26-.46-1.05-1.3-1.71,1.16.7,2.35,1.08,3.56,1.34,1.2.25,2.54.4,4.07.44.04.4-1.14,1.08-.76,1.04.81-.05,1.57-.47,2.02-.92.46-.44.62-.88.43-1.06.25-.19.41-.31.56-.41.35.12.78.22,1.25-.05.17.02.38-.03.7-.21-.13-.49.27-.93.66-1.25.2-.16.36-.27.52-.39.2-.14.35-.28.4-.42-.21.06-.5.17-.67.26-.17.08-.37.23-.58.38.15-.48.2-.9.44-1.25.23-.35.53-.55.93-.47-1.12,1.24,1.92.13-.04,1.42,2.01.32.36-1.13,2.2-1.62.44-.06.89-.13,1.35-.23.09.35-.33.7-.72.95-.39.25-.74.4-.55.45l.74-.5c-.27.45-1.21.99-2.11,1.52-.44.27-.97.59-1.12.79-.26.26-.58.64-.83,1.06.52-.3,1-.56,1.28-.63l.09-.03.19-.07.4-.15.85-.32c.95-.71,2.23-1.45,3.56-2.45.33-.24.66-.51.98-.78.33-.28.64-.56.88-.79.53-.48,1.03-.98,1.52-1.49,1.95-2.02,3.54-4.24,4.17-6.42l-.09.16c-.01-.1-.09-.2-.27-.4l.25-.06.05-.98c1.07-.42,2.14-1.86,3.32-2.98-.84.65-.84.64-1.34.46-.5-.51-.68-.77.21-1.87.44.21.02.98.85.24-.46.37-.54-.22-.32-.79.65-.56,1.25-1.75,1.71-1.57-.03.4-.32.6-.49.8-.04.4,1.05-1.2.94-.02.17-.46.31-.95.46-1.42.72-.65.37.78.75.56.66-2.48-.03-4.08.21-6.21.23.16,1.28.47.98.36.75-1.56-.33-3.73-.08-5.52.26.32.01.97.05,1.55.77-2.72,1.27-5.18,1.87-7.52.15-.58.31-1.16.47-1.73.17-.61.33-1.01.56-1.89.2-.8.35-1.73.37-2.72.02-.98-.08-1.93-.13-2.62-.48-.38-.95-.67-1.41-.97.15-.45.31-.86.48-1.29-.08-2.33-.22-4.7-.77-7.26-.57-2.65-1.49-4.94-2.49-7.46-.6-1.56.42-1.2.46-2.05-1.13-3.49-2.66-3.81-4.1-6.81.49.3,1.67.66,1.19-.67-.4-.13-.93-.1-1.07-1.01l.48.3c.18-.93-.56-1.52-.9-3.09-.47-1.25-1.09-2.72-2.15-4.25-1.05-1.53-2.58-2.82-4.07-3.45-1.83-1.97,1.07-.64.88-1.17.11.18.29.43.42.6.14.17.25.32.34.43.19.22.33.32.45.35.24.07.4-.13.73-.01-.54-.48-1.16-.99-1.59-1.45-.34-.36-.54-.77-.44-1.23-1.03-.95-1.45-1.42-2.82-2.02.69.3.8,1.02.08.82-.61-1-2.9-2.84-2.07-3.43-.66-.62-1.34-1.25-2.02-1.88-.76-.66-1.54-1.33-2.39-1.93-1.68-1.24-3.53-2.29-5.38-3.15-1.85-.86-3.69-1.53-5.46-2.14l-1.31-.44-.65-.21-.77-.23c-1.05-.32-2.1-.53-3.14-.71-1.46.28,1.01.37.19.61-2.07.35-1.52-.59-3.14-.22.23-.17.46-.33.69-.48-2.36-.32-4.74.68-6.76,1.22.33-.63-1.69-.49,0-.89-1.01.12-2.26-2.63-2.99-2.05l1.15,2.56c-.05.26-1.42.13-1.28.3-.86-.49-1.87-1.08-2.43-1.08-.27-.65,1.12-.52,1.92-.52.07-1.09-2.62-.67-1.51-1.68-1.6.18.23.56-.73.97-.4-.08-1.13-.15-1.73-.21.47.11.99.23,1.41.35-1.5.35-1.98,1.16-4.03.78-.66.42-1.28.91-1.87,1.37-.37-.8-1.5.14-2.54.24l.49-.7c-1.36.39-1.91.43-2.86.42.51-.99,1.28-.23,1.4-1.02-.53.08-1.07.15-1.59.25.16.46-.62,1.16.51,1.06-1.03,1.36-1.46,2.26-4.46,3.68-.85-.02-.59-.37-.22-.78.38-.4.88-.85.41-1.07-1.69.64-2.35,1.67-2.81,2.6-.45.94-.7,1.81-1.54,2.28-2.25,1.07-1.64,1.61-3.65,3.02.32-.91-1.75.46-2.44.28l.47-1.04c-.52.57-1.24.81-1.3.34.56.54-2.24,2.47-3.38,3.89l.65.32c-.93,1.02-2.08,2.57-3.23,3.47-1.38,1.68-.62,1.75-1.15,3.43-1.03.3-1.51-.2-1.87-.9.63-.24,1.14-1.13,1.96-1.68,1.48-2.37,2.3-4.86,4.67-6.29-.02-1.99-1.37,1.26-2.75,1.73-.03-.1.02-.19.09-.27-.1.07-.18.14-.29.19.64-.82,1.77-2.02,1.49-2.83-1.24,1.19.03,1.98-2.02,2.83-.89,1.35-2.69,1.36-3.48,2.01-.33,1.23.55,2.07-1.31,3.94l.05-1.47c-.99,1.18-.94,1.67-.87,2.13.07.45.11.91-.6,1.9.59-.65.23,1.2,1.2-.15-.08.95-1.05,2.46-2.02,3.42-.09.37.21.23.42.46,1.34-.88.85-2.27,2.28-2.76-.06-.47-.14-.92-.17-1.42,1.17-.99,1.86-.59,1.63.32.2-.35.33-.7.64-.82.64.37.27.6-.17.91-.43.31-.95.7-.58,1.25l.5-.85c.98.22-.66,2.31-1.43,3.31-1.17.9-2.02,1.89-2.64,1.58l.83-1.74c-1,.51-1.12,2.19-1.75,3.09-.12,0-.23.06-.35.14.08-.01.15,0,.21.03-.16.18-.34.31-.58.37-.57.79-1,2.21-1.67,2.86l.57.23-.22-.29c.49-.74,1.47-1.54,1.48-.73-.72,1.91-1.92,1.62-2.63,1.74-.54-.89,1.06-1.66,1.35-2.68-1.11.02-1.19,1.67-2.82,3.11-.43-1.25,1.31-2.04.77-2.93-1.05,1.34-.69,2.08-1.83,3.47-.28-.44.59-1.94.03-2.16l-.85.82c1.44-2.43-1.34-.25-.37-2.25-.92.66-.07,1.68-1.4,2.61.59-.13,1.89-.71,1.49.7l-1.09,1.21c-.77.32-.05-1.99-.95-1.31l-.57,1.63c.29.1.83-.51.93.13-.77.68.19,1.96.02,3.16-.46.78-.87,1.37-1.33,1.48-.34,2.42-1.69,4.96-1.86,7.2.11-1.54-.96-.42-1.73.17.6-1.54-.21-1.97-.82-2.14-.38.95.23,1.98.73,1.66-1.08,1.35.09,1.33-1.13,2.39-.71.73-.64-.83-1.1-.68-.81,1.65.83.94-.19,2.65-.07-.15-.03-.33-.26-.26-.63.89-.67,2.14-.33,2.53-1.59.57-1.11,3.01-2.13,2.36-.65,2.54.75-.12.95.52.1,1.18-1.01,2.84-1.39,3.35.2-.61.08-1.28.49-1.78l-.98.21c-1.66,2.86,1.03,2.56-.63,5.26.1-1.66-.43-.71-.73-1.66.04.53-.96,2.78.12,1.57-.45,1.09-.83,1.82-1.21,2.55,0,1.09-.12,2.24.25,2.97-.53,1.55-1.41,2.56-1.95,3.23-.27,3.47-1.95,6.33-2.05,9.96l.1-.25c-.7,2.68,1.32-.97.73,1.83-.93-.58-1.01,1.55-1.72,2.35-.59,1.67-.69,3.18-.81,4.66-.11,1.49-.25,2.85-.89,4.51-.21-.06-.42-.32-.33-.98-.78,2.53-.86,4.6-1.16,6.89l-.11-.11c-.31.9-.49,1.8-.58,2.7-.05.45-.07.9-.08,1.35-.01.53,0,1.15.05,1.66.2,2.13.64,3.47.58,4.44-.1-.18-.48-.28-.6-.41-.14.33-.45,1.19-.73,2.51-.13.66-.23,1.45-.2,2.18.01.36.05.71.12,1.02.07.23.16.42.27.59-1.12,2.18.21,1.49-.88,4.32-.19.16-.16-.29-.19-.49-.4,1.4-.32,2.42-.49,3.85.58,3.2,1.87,3.98,1.5,7.65-1.39.2-.36-2.26-1.46-2.34.24.74.53,1.37.21,2.39-.55-.61-.34-.13-.85-.55-.37.79,1.48,3.13,1.36,3.11.27.04.41-.23.35-.96.86.84.16,3.62.58,5.39,0-.58.2-2.41.88-1.75-.21,2.4,1.19,3.12,1.83,4.73-.47,2.22-1.27-1.53-2.2-1.07-.33.39-1.06,1.33-1.49.42-.08,2.01.85,3.39,1.23,5.14l-.28-.02c.33,2.48,1.86,4.96,1.61,7.1l.16-1.14c.21.38.32,1.63.98,2.23-.46,0-.62,1.66-1.09,1.07.8.43,1.28,1.78,1.74,3.15.5,1.36.98,2.73,1.8,3.18-.21.72-.91.34-1.27.22-.22-1.56-.02-2.14-.77-2.83.28,1.28.11,2.3-.25,2.17,1.15,1.1,2.25,4.03,3.31,4.41-.2,1.03-.18,1.97-1,1.86,1.57,3.7,1.69-2.51,2.95,1.76-.1,2.16-1.54-1.61-.94,1.15l-.27-.46c-1.24,2.54,1.75.95,2.43,3.12-.9.64-1.24-1.27-1.44.49.98,1.94,2.74,2.16,3.17,4.27l-.54-.15c.28.62.63,1.59,1.07,2.56.47,1.04,1.05,1.92,1.38,2.4-.15.16-.21,0-.39-.18.44,1.08.58,1.13.75,1.24.14.09.29.19.11.92.2.08.38.17.57.28.14-.4.21-.98,0-1.61-.21-.64-.65-1.27-1.25-1.66.6.38.61-.22.63-.92,0-.71.1-1.46.64-1.39l-.43-.05c-.02-1.78-.17-3.62-.59-5.64-.38-1.95-.85-3.97-1.17-6.01-1.78-2.18-.79-4.33-2.14-6.83-1.31-.15-.37-.45-1.09-2.74.41,1.21.95-.04.96-.85-.4-.39-.61-.93-.83-1.47.32-.55.83-3.64-.14-4.61.2-1.49.44.28.74.56.55-.67-.65-1.09-.29-1.63,0,0,.14,0,.22.15-.33-2.18-.15-3.52-.2-5.82-1.24-.08-.63-2.22-1.14-3.21.41.31.38-1.33.58-1.99l-.97-1.19c-.81-1.2.46-1.73.01-3.3l-.21.39c-.4-1.16.29-4.23.95-5.37-.59-2.68-.76-5.07-.67-7.31.03-1.12.15-2.2.28-3.27.07-.53.16-1.06.24-1.59l.14-.79c.05-.26.1-.56.14-.69.19-.67.53-1.37.96-2.52.21-.57.43-1.17.62-2.01.18-.78.29-1.56.35-2.29.12-1.46.1-2.71.16-3.64.04-.54.08-1.1.12-1.68.04-.65.07-1.31.11-1.99-.29-.75-.67.46-1.15-.16-.02-1.14.06-1.39.17-2.41-.44.86-.02.77-.34.61l.16,1.6c-.1.07-.11-.11-.3.02.06.54.24,1.18.12,1.85-.23-.99-1.1-1.36-.61-2.66.11.12.13.29.17.65.19-1.09-.23-1.2.11-1.99.33-.98.02-.77.43-.85.3-1.02.62-2.02.95-3.01-.4-.84-.24-1.7.04-2.45.28-.73.67-1.3.77-1.55.73.49-.17,2.18.46,3.09l.8-1.03-.62-.19.49-1.61.1.12c-.21-.24-.42-.49-.12-.87.1-.05.31-.18.31,0l-.12-1.24c.52.81.39-.99,1.12-.67,1.12-3.71-.08-5.02,1.64-8.08-.47.46-.97-1.29-.61-2.27.31-.54.52-.64.72-.21l-.09-1.4c1.55-1.36,1.18-3.12,2.21-5.35l.3.21c-.15-.97-.2-1.99.32-3.24l.58.43c.94-1.42-1.01-1.63-.03-3.23-.7-.22-1.42.76-2.12.73.82-.2,1.57-2.03.92-1.76.3-1.84.42-1.2.64-1.29-.03-.39-.04-.78-.06-1.17.48-1.21,1.04-.06,1.27.52-.33-1.39.63-2.44,1.25-3.65l.1.63.78-1.61c-.09-1.29.5-2.82,1.39-4.08l.46,1.33c.88-.76-.09-.63-.12-.95.26-1.71.99-1.77,1.86-2.33.24-2.85,3.71-4.04,3.53-6.7Zm74.83,46.66h.26c-.3.41-.45.7-.26,0Zm9.24-10.75c-.55,1.7-.67.99-.96.97,1.11-1.33,1.27-2.32,2.19-3.54-.28.14-.53.07-.7.07.29-.51.73-.97,1.26-.97.3.54-.33,1.56-.97,2.33-.63.78-1.25,1.33-.82,1.14Zm-26.22,19.73c.1-.04.2-.07.31-.1h.01s-.32.1-.32.1Zm10.73-.33c.25.1.54.05.84-.05-.3-.11-.56-.2-.84.05Zm15.65-10.59c.59-.1,1.14-.98,1.49-1.64-.24.26-.7.69-1.49,1.64Zm-38.19-90.4c.55-.17,1.58-.59.62-.87-.45.36-1.33-.22-1.7.31-.05-.02-.06-.03-.09-.04.55.32,1.01.58,1.17.6Zm-42.81,29.87c-.28-.3-.41-.87-.8-.82.03-.03.08-.07.11-.11-.19.04-.34.07-.36-.06-.31.32-.64.65-.71.97,1,.83.67,1.71,1.77.02Z"/><path class="cls-1" d="m68.76,241.36c-.16.16-.3.26-.4.37.11-.09.24-.21.4-.37Z"/><path class="cls-1" d="m59.26,258.98c.05.08.44-.28.91-.73-.2.02-.48.2-.91.73Z"/><path class="cls-1" d="m101.89,305.45c.04.17.09.33.13.49.12-.33.26-.66.39-.98-.37-1.65-.88-1.81-1.49-2.29.46,1.59.09,2.52.38,4.46.17-.57.37-1.13.59-1.68Z"/><path class="cls-1" d="m97.61,306.43c-.17.2-.57.73-.59,1.05l.41.27c.06-.45.1-.9.18-1.32Z"/><path class="cls-1" d="m107.45,327.67c-.45-.5-.9-.99-1.3-1.52-.34-.08-.19.37.13.82.34.43.86.84,1.16.7Z"/><path class="cls-1" d="m106.81,317.41c-.29-.12-.55-.27-.83-.41.13.82.82,1.58,1.28,1.41-.81-.62.05-.36-.45-1Z"/><path class="cls-1" d="m111.59,330.54c.88-.37,1.49,1.25,2.2.79-.57-.04-1.74-1.4-2.2-.79Z"/><path class="cls-1" d="m114.43,323.65c-.02-.44-.28-.64-.65-.82-.37-.18-.84-.35-1.14-.69.29.22.61.67.92,1.03.3.35.59.62.87.49Z"/><path class="cls-1" d="m122.46,331.85c-.08.56-1.08.55-2.06.26.36-.13.6-.34,1.05-.41-1.68.27-1.8.13-3.1.05.56.37,1.33.71,1.99.99.63.3,1.15.54,1,.88.59-.21,1.21-.56,1.56-.9.32-.34.25-.65-.44-.88Z"/><path class="cls-1" d="m116.51,324.79c-.6-.58-.75-1.26-1.61-1.75-.06.41-.08,1.08.96,1.58l-.68.35c.7.94.07-.94,1.32-.19Z"/><path class="cls-1" d="m129.08,330.82l-.66.1c-.22.31-.5.6-.86.88-.4.31-.87.61-1.32.87-.9.52-1.78.83-2.3,1.32,1.27-.16,2.6-.79,3.59-1.53.51-.37.77-.65,1.04-.93.25-.27.41-.51.52-.7Z"/><path class="cls-1" d="m119.6,327.41l.38-.83c-.94-.4-.01.31-.43.41-.25-.21-.65-.44-.93-.36,1.21.28-.17.74.97.78Z"/><path class="cls-1" d="m122.74,326.78c.3-.16.55-.37.76-.61-.33-.21-.62-.47-.84-.77-.34.23-.33.34-.25.54.08.21.33.42.33.83Z"/><path class="cls-1" d="m124.12,326.97l.19.1c.27-.65.61-1.44.97-2.24-.38.59-.57.9-.75,1.17-.17.28-.26.5-.41.97Z"/><path class="cls-1" d="m148.53,310.53c-.23-.42-1.3.74-.64.34.16.41,1.48-1.24.64-.34Z"/><path class="cls-1" d="m139.46,312.09c.61-.36,1.16-2.42,1.31-3.32-.29,1.03-1.81,3.17-1.31,3.32Z"/><path class="cls-1" d="m140.84,308.41c-.01.07-.04.21-.07.37.05-.16.07-.27.07-.37Z"/><path class="cls-1" d="m141.49,271.98c-.04-.09-.09-.17-.17-.22.06.08.11.14.17.22Z"/><path class="cls-1" d="m141.92,272.75c.03.6.49,1.63.93,1.71-.35-.77-.67-1.58-1.36-2.48.15.38-.02.92.44.77Z"/><path class="cls-1" d="m139.35,264.44c.4.36.51,1,.81.72.06-.31-.68-1.11-.81-.72Z"/><path class="cls-1" d="m95.62,226.36c-1.13-.08-1.75.2-1.37.7,1.21-.19.5-.42,1.37-.7Z"/><polygon class="cls-1" points="92.9 227.43 92.7 227.19 91.91 226.93 92.9 227.43"/><path class="cls-1" d="m85.62,228.96c.01-.1.14-.27.3-.41-.35.24-.63.46-.3.41Z"/><path class="cls-1" d="m86.1,228.44c-.06.03-.13.07-.18.11.06-.04.13-.08.18-.11Z"/><path class="cls-1" d="m86.62,228.41l-.04-.31c-.09.09-.29.21-.48.33.18-.1.39-.14.52-.02Z"/><path class="cls-1" d="m83.62,229.8c.54.05,1.07.1,1.6.17,1.11-.99-1.65.3-.78-1.13l-.82.96Z"/><path class="cls-1" d="m79.7,232.3c-1.21.42-1.92,2.53-2.99,2.02-2.4,2.26,1.57.97-1.3,3.39,3.24-1.56.34-2.6,3.33-3.91-1.68.35.62-1,.96-1.5Z"/><path class="cls-1" d="m81.1,233.44c-.1-.54-1.44.24-1.65.78.41-.19,1.42,0,1.65-.78Z"/><polygon class="cls-1" points="74.52 236.28 73.45 236.54 73.42 236.96 74.52 236.28"/><path class="cls-1" d="m71.2,238.38l.48-1.08c-.14.39-1.41,1.25-.48,1.08Z"/><path class="cls-1" d="m66.28,241.4c-.9.56-.65,2.16.73.51l-.4.28c-.04-.24-1.23.19-.33-.79Z"/><path class="cls-1" d="m59.39,252.92c.38-.51.66-1.22.36-1.27l-.75,1.58.4-.32Z"/><path class="cls-1" d="m62.25,254.59c1,0,.86-1.35,1.73-2.12-.87.96-.88.76-1.73,2.12Z"/><path class="cls-1" d="m57.3,253.9c-.02-.58.57-1.06.87-1.38-.51-.09-1.09.97-.87,1.38Z"/><path class="cls-1" d="m56,256.37c-.59.29-.32-.36-.75-.12-.99.81-1.63,1.94-1.62,2.77.47-.08,1.51.06,1.6.71.79-1.79.06-3.47,1.57-3.61l-.3-2.16c-1.06,1.18.18,1.56-.49,2.41Z"/><path class="cls-1" d="m60.45,254.64l-.98.58c.51.09.13.78-.04,1.32,1.02.36.74-1.38,1.02-1.9Z"/><polygon class="cls-1" points="50.86 265.9 49.98 267.95 50.39 267.35 50.86 265.9"/><polygon class="cls-1" points="49.86 266.97 49.57 266.87 49.23 268.63 49.86 266.97"/><path class="cls-1" d="m48.41,268.84l.17-.21.41-1.27c-.19.5-.39.98-.57,1.48Z"/><path class="cls-1" d="m46.07,272.87l.58-.17c.15-.56,1.11-1.34.53-1.52-.05.53-.64,1.54-1.11,1.68Z"/><path class="cls-1" d="m50.41,291c-.15-.45-.47-.34-.79-.22l.51.82c.02-.18.07-.53.29-.6Z"/><path class="cls-1" d="m48.4,292.93l.33,1.74c.68-1.63.14-2.08.54-3.58-.48.52-.22,1.59-.71,2.29l-.16-.45Z"/><path class="cls-1" d="m40.43,323.32c-.52-.25-.51.12-.64-1.12,0,.42-.01.82-.05,1.21-.03.37-.08.73-.13,1.1-.11.74-.24,1.51-.33,2.41.39-.25.8,1.15.75.45l-.03-2.01.33.35c.65-1.29-.47-.98.11-2.4Z"/><path class="cls-1" d="m39.43,405.86c-.32-.09-.46.23-.6.56.73,1.1.45-.78.6-.56Z"/></g><g><path class="cls-1" d="m64.79,218.09c.15-.74-.13-.21-.43-.11l.43.11Z"/><path class="cls-1" d="m64.36,217.99l-.29-.08c.08.11.19.11.29.08Z"/><path class="cls-1" d="m61.75,217.4c.66-.45,1.3.37,1.67-.5-.27-.25-.59-.33-.91-.27-.31.08-.6.33-.76.77Z"/><path class="cls-1" d="m62.59,218.07l.12-.46c-.19.22-.4.44-.62.66l.51-.21Z"/><path class="cls-1" d="m62.97,218.53l-.07-.17c-.3.14-.62.25-.95.38.35-.07.69-.11,1.02-.21Z"/><path class="cls-1" d="m59.86,216.55c.2.03.41.05.61.06.38.77-.62.72-.36,1.24.79.21.62-1.18,1.47-.79.05-.57-1.44-.35-1.03-1.23-.62-.51-.2.53-.7.72Z"/><path class="cls-1" d="m32.94,188.31s.03-.08.04-.12c-.08.07-.13.14-.04.12Z"/><path class="cls-1" d="m28.75,177.61c.05-.17.07-.33.07-.48-.08.07-.15.15-.2.24l.13.24Z"/><path class="cls-1" d="m37.42,193.92c-.03.19-.04.35-.03.49.09-.13.12-.29.03-.49Z"/><path class="cls-1" d="m27.73,144.12c-.07,0-.16,0-.28.04,0,0,0,.02-.01.03l.29.04v-.1Z"/><path class="cls-1" d="m24.34,165.49c-.04-.19-.1-.37-.19-.52.04.31.1.46.19.52Z"/><path class="cls-1" d="m39.07,197.45c-.02-.06-.04-.1-.06-.15-.01.06-.02.14,0,.22l.07-.06h0Z"/><path class="cls-1" d="m28.44,181.35c.03-.16.04-.3.01-.4-.04.15-.03.28-.01.4Z"/><path class="cls-1" d="m52.36,210.77c-.08-.18-.23-.23-.4-.23,0,.18.09.29.4.23Z"/><path class="cls-1" d="m49.68,208.33s.01,0,.02.01c.07-.09.05-.08-.02-.01Z"/><path class="cls-1" d="m48.3,206.53s.03.01.04.02c.05-.07.05-.09-.04-.02Z"/><path class="cls-1" d="m51.96,210.53c.01-.48.76-1.43-.41-.72l-.06.18c.03-.38-.57-.23-.79-.39-.07.11-.12.21-.15.3.09.11.19.26.34.51.07.43.65.12,1.08.11Z"/><path class="cls-1" d="m33.18,188.26c-.21.13.01.33,0,0h0Z"/><path class="cls-1" d="m35.48,191.02c-.03-.11-.06-.21-.1-.32,0,.12,0,.23.1.32Z"/><path class="cls-1" d="m40.18,202.81s.01-.05.02-.08c-.13.04-.09.08-.02.08Z"/><path class="cls-1" d="m35.26,190.41c.05.09.08.19.12.29,0-.11,0-.21-.12-.29Z"/><path class="cls-1" d="m39.39,198.91s.02-.04.01-.06c-.01.02-.02.04-.01.06Z"/><path class="cls-1" d="m61.86,184.62c-.23-.04-.11-.39-.21-.59-.88.41.7.58-.28.79.15.12.34.12.53.12l.3-.81c-.5,0,.03.38-.35.5Z"/><path class="cls-1" d="m27.61,148.02v-.14c-.28.25-.43.24-.37.75.69.07,1.15-.87,2.03-.6-.12-.08-.19-.26-.21-.46-.32.48-.91.51-1.45.44Z"/><path class="cls-1" d="m29.06,147.58s.02-.02.03-.04c.05-.06.1-.12.13-.18-.04-.09-.06-.18-.04-.28-.1.13-.14.32-.12.49Z"/><path class="cls-1" d="m55.28,178.8c-.06-.09-.11-.18-.16-.25,0,.21.06.27.16.25Z"/><path class="cls-1" d="m34.77,164.47c.1.1.21.19.31.27-.08-.16-.19-.23-.31-.27Z"/><path class="cls-1" d="m26.02,141.37c.04-.11.05-.22.06-.34-.02-.06-.05-.11-.08-.18l.02.52Z"/><path class="cls-1" d="m42.68,154.47c-.83.46.15.06,0,.71l.61-.06c-.11-.34-.43-.47-.62-.65Z"/><path class="cls-1" d="m61.88,184.99s.04-.04.06-.06c-.01,0-.02,0-.03,0l-.02.06Z"/><path class="cls-1" d="m50.84,162.28c0,.07.01.13.02.2.02-.06.02-.12-.02-.2Z"/><path class="cls-1" d="m28.31,145.13c-.19-.51-.37-1.01-.53-1.54l-.06.53c.5.05-.02,1.02.59,1.01Z"/><path class="cls-1" d="m39.55,149.47l.39-.44c-1.89-.62-1.39-2.92-3.38-2.89.4-1.23-.09-1.19-.63-1.16-.52.04-1.09.07-.64-.97l-.23.18c-.35-.79-.62-1.58-.8-2.34-.05-.2-.09-.38-.11-.53l-.08-.55-.17-1.34c-.13-.99-.26-2.11-.53-3.39-.28-1.27-.68-2.72-1.58-4.35l-8.25,4.72s-.23.14-.75.29c-.14.04-.34.1-.51.14l-.68.15c-.39.08-.26.03-.27.05l.03.04c.09.16.18.69.33,1.51h-.4c0,.33,0,.74.03,1.19.03.47.1.97.19,1.45.2,1.1.37,1.94.44,2.56.08.62.1,1.11.09,1.8-.03,2.41.25,4.66.54,6.66.3,2.01.61,3.79.73,5.41l.17,2.97c.08,1.11.18,2.2.3,3.29.49.8,1.28.16,1.83.81.02.31.18,1-.3,1.09-.37-.56-.74-.14-.96-.32.21,1.01-.08,2.41.69,3.16l.46-.86c.33.28.27.85.3,1.17-.34-.06-.92.54-1.13.3,1.95,1.48-.33,1.59.65,2.97,1.38-.02,2.92,1.55,4.17,2.48l-.17.72c-.22-.83-.94.27-1.16-.78-.14.97.64,1.61.65,2.47.28-.25.72-.32.95-.04-.04.54-.68.76-.59,1.35l-.56-.44c-.38.51.35.65.52.98-.51.26-.38,1.12-1.03,1.14.95.57.57.87,1.29,1.65.3-1.11.78.05,1.2-.18l-.49-.94c0,1.43-.21-.41-1.11-.06.26-.74,1.75.45,1.33-.56.8,1.09.48,1.6,1.66,2.73-.43-.77.65-.03.78-.56.36,1.02-.24.36-.72.87.2.56-.22.94.62,1.23.05,1.01-.73.11-.93.7-.76-.12-.11-2.84-2.03-1.97-.17-.48-1.15-.98-1.29-1.66-.11.63-.49,1.89.23,2.53l1.14-.32c.22.6,1.03.46,1.07.9-.4-.11-.73.46-.47.9.11-.19,0-.37.22-.38.39.83,1.2.66,1.79,1.56-.03-.92.24-1.22.44-2.15.85-.08.31.49.57.89-.13-.03-.19-.11-.29.08l.55.32c.06,1.12-1.17.32-1.21,1.29-.42.84.68.63.5,1.21.06-.06.12-.12.16-.17.03.1.04.18.04.24.02-.01.03-.02.05-.03.33.48.52,1.05,1.15.94-.23.17.27.42.52.5.36.18,1.32.55.61,1.38-.01,0,0-.02-.02-.03.18.67.11,1.29-.25,1.29l.23,1.1-.78.23c.62.81,1,.52,2.04.79-.14.84.71,1.8,1.17,2.1,0,.08.05.19.16.35l.13-.5c.27.71.63.46.83.92.03-.13.06-.16.06.15.02.08.04.17.05.29-.09,0-.12-.1-.12-.22l-.21.19c-.57.88.81.67.76,1.38-.05-.05-.14-.12-.16-.19-.07.42-.96,1.3-.25,1.19-.05.12.13.19.34.26v.31c-.02-.12-.01-.22,0-.31.28.08.61.14.46.22l.23.98c-.04.22.15.42.34.57l-.24.29c.19.32,0,.4-.09.4-.53,1.67,1.36,1.56,1.12,3.27.62-.03.56-.67.81-.84.49,0,1.19.5,1.66.67-.4.91.12,2.9-.96,3.28.63,1.04.35-.7,1.01-.43l.04.14c-.13-.41.01-.89.25-1.31.46-.4,1.15.32,1.19.65l-.82.33c.87.68,1.77-.28,2.82-.33.22.82-.65.97-1.14,1.59.24.17.48.36.73.52l-.48.43c.52.31,1.03,0,1.4.73-.84.02.42,1.26-.72,1.29.18.47,1.13-.34.7.44.69-.29-.05-.53-.06-.84.56-.83,1.02.33,1.58.47-.31.41-.66.21-.43.88.35-.2.84-.18.8.4.41-.49.61.34.86.59-.23-.35-.36-1.06.19-1.33.4-.01.67.05,1.14.53l-.17-.52c1.03-.39.33,1.13,1.17,1.37-.5.12-.67,0-1.19.18.49,0,1.35.04,2,.12l.04,1.16c.32-.34.63.45.97-.1.5.81-.99.31-1.32.63.71.96,1.29-.44,1.7.93l-.61.35c.3.21,1.09.26.99.55.1-.19-.1-.2-.29-.31.8-1.01,1.87-.05,2.32-1.31l-.37-.28c.74.1,1.54-.57,1.83.07.22.55-.59.73-.97.94.59.35,1.05-1.13,1.7-.76-.3-.34-.05-.75.27-1-.36-.2-1.03-.78-1.12-.21l.09.18c-.17.3-.43.33-.61.44-.54-.24,0-.66,0-.94-.77-.62-.65,1.16-1.45.72l.02-.29c-.55.09-1.18-.21-1.71.42.09-.95-1.11-.28-1.21-.97.96-1.62,1.28.99,2.29.36-.23-.57.69-.65,1.06-.94-.55,0-1.12,0-1.69-.04.03-.28.17-1.3-.42-.88l.07.1c-.61-.15-.92.58-1.2.07.03-.19.34-.34.44-.42-.29-.42-.57.12-.93.07-.29-.42.65-.49.45-.89-.88.26-.59-.66-.98-.91-.5.99-2.42-.11-2.21,1.3-.46-.08-.94-.15-1.4-.25.09-.66,1.62-.57,1.96-1.48l.68.63c.36-.56-.13-.7-.67-.9-.53-.21-1.1-.49-.8-1.23-.3-.37-.36-.16-.5-1.26l-.75.93c-.14-.53.25-1.09.4-1.25-.24-.15-.38-.34-.5-.57.18-.07.35-.1.51-.02.28-.69.04-.6-.31-.46-.35.06-.5-.19-.66-.42l.5-.08c-.18-.07-.41-.16-.59-.04-.08-.09-.17-.16-.29-.2-.12.19-.56.75-.53,1.28-.31-1.14-1.02-1.71-.67-3.02.31-.15.87-.07.85-.19-.09-.46-.85-.56-1.27-.26-.08-.07-.13-.13-.17-.19.21-.23.43-.47.38-.68.07-.1.11-.21.08-.36-.91.33-.89-.68-1.36-.66,0,.23.13.46.28.67-.73-.04-1.54-.03-1.21-.52.84.37.56-1.1,1.25-.27.77-1.18-.94.03-.89-.87l.22-.66c.66-.21.65.6.83.38l-.22-.28c.6.11.86,1.41,1.9,1.71-.13-.5-.25-1.01-.35-1.53-.79-.69-1.21-1.75-1.66-2.77-.12-.26-.22-.49-.37-.77-.14-.28-.3-.55-.47-.8-.34-.5-.76-.92-1.29-1.22.01.02.03.05.05.07-.07,0-.2.03-.45.11l.12-.15-.63-.15c.42-.65.22-1.44.4-2.28q-.21.57-.67.81c-.66.2-.96.26-.98-.42.44-.21.59.15.75-.43-.12.32-.52.26-.69.04.14-.45-.04-1.02.4-1.23.19.09.09.29.07.42.19.1.12-.79.69-.51l-.39-.52c.22-.51.69-.04.87-.29-.75-.83-2-.84-2.69-1.57.25-.07,1.25-.52.96-.39,0-.8-1.73-.92-2.14-1.63.34-.02.35.31.6.47-.65-2.45-1.41-4.33-1.13-6.73l-1.24-.19.54-.76c.05-1.1-.25-2.29-.67-3.31-.42-1.04-.97-2.01-1.44-3.12-.26-.69.64-.63.85-1.05-.3-1.59-1.62-1.64-2.24-3.05.38.12,1.4.22,1.29-.41-.34-.04-.86,0-.76-.44l.38.12c.4-.48-.15-.72-.11-1.51-.32-1.31-1.35-2.37-2.75-3.26-.09-1.2,1.21-.07,1.41-.34-.27.88.29.53.7.64-.39-.37-.67-.86.09-1.2-.14-.58-.14-.84-.76-1.36.31.26-.08.57-.48.34.21-.52-.24-1.73.78-1.75-.11-.68-.19-1.39-.23-2.1-.02-.44-.05-.89-.07-1.34-.03-.46-.07-.92-.1-1.38-.15-1.83-.37-3.56-.58-5.12-.58-.46-.15.43-.55.18-.76-.69.27-.65-.33-1.19l.57.19c-.02-.9-1.11-1.72-1.65-2.55.62.1.49-.7.88-.03-.12-.42,2.65-.93,2.08-1.18-.86.13-1.73.28-2.59.45-.26-.02-.1-.58-.27-.53.25-.15.53-.41.75-.67.21-.26.36-.5.35-.68.65-.21.54.72.52,1.18,1.1.13.68-1.69,1.69-.97-.22-1.14-.55.18-.98-.48.06-.33.12-.66.16-1-.09.27-.2.53-.3.79-.39-.8-1.23-.96-.79-2.06-.41-.29-.82-.55-1.23-.79.83-.27.01-.71.1-1.18l.6.15c-.16-.58-.07-.82.16-1.23.81.13-.06.53.67.5l.1-.66c-.48.12-.94-.16-1.12.32-.24-.07-.47-.16-.67-.2-.63-.03-1.1-.04-1.07-1.07.41-.33.6-.15.79.04.19.21.38.38.79.27.16-.56-.39-1.2-1.01-1.65-.62-.49-1.26-.82-1.36-1.48-.07-1.08-.51-1.46-.94-1.83l-4.47,2.6c.19.07.41.16.57.49-.63-.03-.34.78-.82,1.12-.22-.05-.44-.1-.66-.12.25.17.11.48-.31.53.72-.31,1.01.9,1.52,1.56l.61-.27c.34.51.91,1.24.89,1.93.42.93.94.59,1.82,1.15-.47.56-1.15.71-1.88.75.25-.36-.06-.78.04-1.26-.83-1.12-2.36-1.77-2.3-2.87-1.65-.07.34.63-.08,1.34-.1,0-.14-.03-.16-.07,0,.05,0,.09-.02.15-.28-.38-.66-.94-1.48-.83.3.57,1.65.08,1.16,1.07.57.55-.54,1.37-.54,1.84.7.37,1.92.06,2.02,1.39l-1.01-.33c.4,1.49,1.44.37,1.86,1.7-.07-.48.98.12.69-.72.6.26,1,1.09,1.07,1.83.2.11.29-.09.58-.19.26-.92-1.03-.88-.42-1.79-.36-.05-.72-.12-1.09-.2.1-.84.85-1.08,1.32-.79-.09-.17-.27-.3-.14-.48,1.35-.51-.26.94.99.79l-.25-.42c.83-.46,1.11.75,1.29,1.31-.16.78-.03,1.41-.62,1.75-.23-.23-.44-.48-.66-.73-.3.68.79.96,1.02,1.44-.07.07-.1.15-.12.23.04-.05.09-.1.15-.13.02.12,0,.25-.1.4.2.44.9.83.94,1.31l.49-.36-.32.13c-.2-.38-.16-1.06.39-1.01.83.59-.06,1.36-.39,1.84-.91.3-.49-.82-1.01-1.09-.64.72.42.92.45,2.09-1.08.2-.62-1.01-1.53-.73.29.82,1.02.62,1.27,1.49-.45.17-.95-.54-1.43-.17l.06.64c-.81-1.17-.92.89-1.74.07-.06.68,1.09.2.96,1.16.25-.42.61-1.34,1.32-.97l.18.81c-.22.54-1.35-.08-1.41.57l.74.49c.23-.19.14-.6.62-.63,0,.57,1.39-.03,2.05.15.22.36.35.66.15.99.67.18,1.16.52,1.67.89.52.39,1.04.76,1.67.91-.89-.2-.82.63-.93,1.24-.58-.57-1.35-.03-1.81.38.38.35,1.36.03,1.46-.36.19.89.86.06.8,1.02.03.57-.88.39-1.06.73.53.74,1.05-.51,1.49.38-.13.04-.22,0-.3.16.18.54.89.69,1.32.47-.58,1.23,1.12,1.09.16,1.8,1.09.73.36-.58.84-.67.73.03,1.05,1.01,1.12,1.36-.23-.2-.66-.19-.73-.54l-.43.76c.66,1.57,2.04-.57,2.57,1-.85-.24-.63.26-1.32.4.31.03.98,1.02.93.07.35.45.53.83.7,1.21.58.12,1.13.32,1.71.12.51.59.53,1.41.57,1.93,1.4.41,1.56,2.21,3.7,3.17l-.1-.14c.62.61.66.27.68-.08.05-.34.09-.68.78-.14-.83.68.57,1.24.84,1.96.89.76,1.69.87,2.31.97.6.09,1.09.17,1.21.67-.13.17-.29.36-.43.31l.11.18s.14.16.21.22c.16.15.33.27.5.4.34.25.7.48,1.03.78l-.11.07c.59,1.55,2.28,1.74,3.74,2.74-.19,0-.47.26-.65.29.48.75,1.49,1.85,2.6,1.57.23,1.5.74.24,1.32,1.94-.04.2-.22.04-.33,0,.38.72.93,1,1.44,1.52,1.32.16,2.42-.67,3.24.58-.86,1.08-.88-.31-1.61.52.36-.01.73-.08.79.42-.52.26-.26.22-.71.5-.05.44,1.8-.31,1.71-.2.2-.18.23-.35,0-.52.83-.39,1.02.91,1.71,1.18-.12-.18-.4-.88.26-1.13.42.89,1.62.26,2.5.48.06,1.11-1.33.18-1.98.95-.18.34-.59,1.07-1.09,1.05.28.68,1.25.6,1.81,1.05l-.24.14c.6.69,2.17.99,2.07,2l.07-.54c.23.06.39.56,1.02.55-.41.18-.5.95-.95.88,1.53-.25,1.74,1.66,3.19,1.65-.25.39-.88.38-1.22.42-.11-.62.08-.94-.59-1.01.22.47,0,.96-.33,1,1.04.13,1.77,1.19,2.71,1.21-.33.51-.47.92-1.24.98.42.7.94.39,1.41.09.47-.3.88-.57,1.1.38-.55,1-1.14-.61-1.15.6l-.16-.19c-1.75,1.18,1.48.3,1.58,1.33-1.03.28-.86-.55-1.51.21.38.82,1.99,1.06,1.72,2.03l-.46-.11c.13.58-.03,1.74.06,2.33-.21.03-.18-.05-.24-.17-.37,1.1.55.45-.17,1.36l.52.26c.37-.45.88-1.36.25-1.92.63.57,1.31-.96,2.22-.71l-.37-.1c1.49-1.64,1.49-3.79,1.59-6.02-1.35-1.05-.16-2.38-1.37-3.53-1.24.22-.32-.17-1.01-1.2.39.53.91-.29.89-.75-.39-.09-.61-.32-.84-.53.29-.4.48-2.27-.55-2.37-.02-.86.44-.04.74,0,.41-.58-.74-.31-.49-.74,0,0,.12-.06.22-.01-.63-1.01-.73-1.79-1.32-2.93-1.06.61-1.09-.74-1.79-.92.42-.1-.08-.84-.14-1.26l-1.12.08c-1.01.04-.21-1.05-1.12-1.37v.3c-.69-.19-1.36-1.81-1.44-2.71-.75-.24-1.4-.5-1.99-.78-.29-.14-.57-.28-.84-.44-.23-.13-.42-.25-.61-.4-.76-.58-1.33-1.34-1.87-2.16-1.08-1.65-1.99-3.63-4.5-5.3-.53.04-.18.66-.75.88-.54-.27-.63-.39-1.06-.72.18.56.37.19.11.42l.86.25c-.03.09-.12.07-.17.25.28.09.69.11.92.39-.59-.09-1.27.52-1.58-.18.12-.06.21-.04.4.02-.4-.42-.69-.09-.88-.55-.3-.48-.37-.18-.19-.53-.36-.48-.67-.9-1.14-1.41-1.45.32-1.95-1.01-2.18-1.22.49-.67,1.19.28,2.06-.13l-.42-.9-.33.56-.81-.58.1-.09c-.21.18-.41.37-.52.08,0-.1,0-.29.1-.29-.23.03-.45.06-.65.1.53-.49-.32-.36.07-1.03-.54-.46-.82-.34-1.06-.28-.27.02-.59-.1-.67-.9-.09.41-1.12.62-1.36.18-.06-.32.01-.5.35-.58l-.74-.17c.12-.73-.13-1.12-.54-1.52-.18-.16-.36-.32-.57-.5-.17-.16-.35-.36-.48-.62l.27-.21c-.57.02-1.12-.05-1.48-.57l.55-.41c-.2-.86-1.41.63-1.69-.26-.51.52-.4,1.16-.82,1.71.37-.67-.18-1.38-.41-.86-.8-.39-.39-.43-.32-.6l-.66-.04c-.38-.45.56-.79,1.01-.93-.94.15-.95-.66-1.26-1.19l.41-.04-.43-.68c-.77,0-1.28-.54-1.47-1.25l1.03-.26c.09-.67-.41.03-.61.04-.83-.27-.42-.81-.22-1.44-.75-.15-.79-.86-.83-1.5-.06-.66-.08-1.19-1.03-1.3Zm.92,52.86l.08-.17c.26.2.47.28-.08.17Zm-2.44-6.68c.69.62.16.56-.05.72-.1-.87-.57-1.16-.59-1.97-.13.19-.35.32-.48.42-.08-.29,0-.64.39-.94,1.04-.06.38,2.33.73,1.76Zm11.2,11.69c-.07.03-.15.05-.22.07h0s.23-.07.23-.07Zm-2.94-2.69c.15-.16.2-.3.21-.44-.19.19-.33.36-.21.44Zm-2.26-7.9c.3-.34,0-.73-.21-1,.02.16.01.47.21,1Zm-13.17-50.31c.16.24.58.65.86.25-.35-.18.24-.55-.28-.7.02-.02.03-.03.05-.04-.33.23-.6.42-.62.49Zm.34.01c-.37.15-.84.19-1.04.44,0-.02,0-.05,0-.08-.09.12-.16.22-.26.22.03.22.06.46.23.53,1.16-.57,1.54-.31,1.08-1.11Z"/><path class="cls-1" d="m23.44,139.86c.04.09.05.16.08.21-.01-.06-.04-.13-.08-.21Z"/><path class="cls-1" d="m30.11,147.54c.08-.02.07-.3.05-.63-.11.13-.15.32-.05.63Z"/><path class="cls-1" d="m57.42,218.92h-.3s.35.58.35.58c1.02-.04,1.25-.58,1.66-1.11-.94.31-1.28-.16-2.25-.42.16.33.35.63.54.95Z"/><path class="cls-1" d="m58.79,214.84c0-.18.03-.65-.05-.74l-.27.3c.1.14.21.3.32.44Z"/><path class="cls-1" d="m52.69,208.35l.29.72c.39-.11.2-1.09-.29-.72Z"/><path class="cls-1" d="m50.92,215.72l.61-.08c-.1-.51-.54-.79-.9-.47.58.12-.06.28.29.55Z"/><path class="cls-1" d="m51.49,207.04c-.71.37-.19-.71-.82-.33.27-.01.23.83.82.33Z"/><path class="cls-1" d="m46.53,212.49c-.33.71.45.59.73,1.08-.34-.32-.24-1.31-.73-1.08Z"/><path class="cls-1" d="m47.5,205.52c.48-.28.61,0,.7.34-.21.01-.46.1-.62.02.67.22.63.29,1.1.5.04-.59-.12-1.26.49-1.6-.6.04-1.48.12-1.67.74Z"/><path class="cls-1" d="m45.56,211.58c.15.48-.04,1.05.38,1.42.21-.34.48-.85-.01-1.26l.63-.27c-.04-.75-.47.75-1,.11Z"/><path class="cls-1" d="m47.71,203.01l-.15.34c.7.18.82.86,1.65.65-.35-.46-1.02-.92-1.5-.99Z"/><path class="cls-1" d="m45.08,209.11l-.77.47c.29.58.21-.22.52-.17,0,.22.11.48.32.48-.54-.48.54-.48-.08-.79Z"/><path class="cls-1" d="m43.09,208l-.76-.49-.49,1.08c.83.65.49-.27,1.25-.59Z"/><path class="cls-1" d="m43.07,206.84l.1-.17c-.58-.11-1.18-.24-1.76-.39.83.37.8.44,1.65.55Z"/><path class="cls-1" d="m42.76,191.85c-.4.04-.57.85-.29.41.34-.02.43-1.03.29-.41Z"/><path class="cls-1" d="m37.26,197.23c.15-.4-.77-1.1-1.19-1.4.39.41.75,1.68,1.19,1.4Z"/><path class="cls-1" d="m35.89,195.71s.1.07.17.12c-.06-.06-.11-.1-.17-.12Z"/><path class="cls-1" d="m27.04,177.73s-.06-.08-.14-.11c.05.04.09.07.14.11Z"/><path class="cls-1" d="m27.38,178.11c-.04.33.35.86.78.85-.32-.41-.55-.8-1.11-1.23.1.19-.11.52.34.38Z"/><path class="cls-1" d="m26.4,173.75c.3.16.26.51.6.33.13-.17-.39-.55-.6-.33Z"/><path class="cls-1" d="m33.69,142.06c.11-.6-.11-.87-.63-.63.12.59.39.21.63.63Z"/><polygon class="cls-1" points="32.81 140.81 33.07 140.68 33.42 140.28 32.81 140.81"/><path class="cls-1" d="m33.11,138.43c.09,0,.19,0,.25.02-.08-.02-.16-.07-.25-.02Z"/><path class="cls-1" d="m33.4,138.45h-.04s.04,0,.04,0Z"/><path class="cls-1" d="m33.22,138.49l.3-.05s-.08,0-.12,0c.02,0-.02.01-.18.04Z"/><path class="cls-1" d="m33.19,137.94c-.28.15-.56.3-.84.41.44.29.42-.4,1.35-.13-.17-.06-.34-.18-.51-.28Z"/><path class="cls-1" d="m32.78,135.37c.07-.52-.33-1.15-.72-1.75-.38-.59-.73-1.12-.48-1.7-.11-.14-.21-.26-.26-.3l-9.68,5.61c.33.04.7-.15,1.03-.34.34-.18.66-.39,1.03.06.04-.64-.5-.47-.97-.32l7.53-4.37c.56.07,1.31.32,1.5,1.88.07-.82.26-.64.5-.14.22.48.37,1.18.52,1.36Z"/><path class="cls-1" d="m31.14,136.02c.26.04.37-.21.36-.51-.02-.32-.17-.7-.39-.86.05.41-.57,1.05.02,1.38Z"/><polygon class="cls-1" points="22.13 137.54 21.85 137.91 22.19 137.88 22.13 137.54"/><path class="cls-1" d="m22.29,138.7c-.22-.07-.44-.11-.65-.16.25.02.34.54.65.16Z"/><path class="cls-1" d="m22.05,140.95c-.11.46,1.3.55.83-.26v.21c-.23,0-.6.56-.83.06Z"/><path class="cls-1" d="m26.02,146.72c-.12-.32-.43-.63-.66-.46.21.27.43.51.64.76l.03-.3Z"/><path class="cls-1" d="m28.99,145.25c.64-.58-.37-.68-.31-1.3.07.63-.06.61.31,1.3Z"/><path class="cls-1" d="m25.43,148.21c-.42-.09-.41-.54-.45-.79-.38.31.03.87.45.79Z"/><path class="cls-1" d="m26.38,149.41c-.14.43-.44.17-.52.48,0,.76.4,1.32.98,1.39.21-.33.91-1.02,1.4-1.02-.75-.66-2.35-.39-1.56-1.4-.56-.02-1.12-.06-1.69-.11.2.88,1.2.12,1.4.66Z"/><path class="cls-1" d="m27.88,146.34l-.2.68c.37-.3.62.02.89.19.87-.6-.49-.62-.68-.87Z"/><polygon class="cls-1" points="29.8 153.61 30.59 154.31 30.45 154.01 29.8 153.61"/><polygon class="cls-1" points="29.9 154.34 29.67 154.54 30.57 154.86 29.9 154.34"/><polygon class="cls-1" points="30.21 155.42 30.18 155.29 29.62 154.96 30.21 155.42"/><path class="cls-1" d="m31.3,157.34l.24-.42c-.26-.16-.17-.91-.63-.52.31.08.58.6.39.94Z"/><path class="cls-1" d="m44.42,155.55c-.33.08-.45.33-.58.58l.73-.33c-.08-.03-.24-.09-.16-.26Z"/><path class="cls-1" d="m44.3,157.2l1.1-.11c-.46-.66-1.02-.26-1.6-.67,0,.4.73.27.82.7l-.33.08Z"/><path class="cls-1" d="m54.56,166.11c-.34.45-.12.47-.92.47.5.06.95.24,1.41.5l.34.21c.09.06.18.12.27.18.18.12.38.25.59.38.07-.38,1.03-.42.63-.53-.36-.14-.74-.26-1.11-.38l.35-.21c-.18-.39-.5-.41-.71-.34-.24.06-.49.11-.86-.26Z"/><path class="cls-1" d="m74.08,199.91c-.28-.06-.51.07-.74.2.34.52.68-.3.74-.2Z"/></g><g><path class="cls-1" d="m98.58,134.25c.71.25.23-.09.16-.41l-.16.41Z"/><path class="cls-1" d="m98.74,133.85l.11-.28c-.12.07-.14.17-.11.28Z"/><path class="cls-1" d="m99.47,131.28c.23.34.13.65.07.94-.04.29-.04.56.37.77.54-.53.47-1.38-.43-1.71Z"/><path class="cls-1" d="m98.78,132.1l.46.13c-.22-.2-.43-.41-.64-.63l.19.5Z"/><path class="cls-1" d="m98.32,132.44l.18-.06c-.14-.3-.24-.61-.36-.93.05.33.1.66.18.99Z"/><path class="cls-1" d="m100.27,129.39l-.03.61c-.77.39-.73-.58-1.25-.32-.19.76,1.23.58.82,1.44.6.05.32-1.44,1.22-1.06.49-.64-.53-.18-.75-.67Z"/><path class="cls-1" d="m125.66,102.51s.08.03.12.04c-.07-.08-.14-.13-.12-.04Z"/><path class="cls-1" d="m135.02,97.59c.17.03.32.02.47,0-.08-.07-.16-.13-.26-.16l-.21.16Z"/><path class="cls-1" d="m120.46,106.6c-.19-.04-.35-.06-.49-.06.13.09.28.13.49.06Z"/><path class="cls-1" d="m143,115.59c-.05-.05-.13-.1-.24-.15,0,0-.02,0-.03,0l.2.2.07-.06Z"/><path class="cls-1" d="m145.79,86.35c.07-.02.13-.06.2-.14-.09,0-.15.05-.2.14Z"/><path class="cls-1" d="m116.87,108.25c.05-.02.1-.04.15-.07-.06,0-.14-.01-.22,0l.07.07h0Z"/><path class="cls-1" d="m131.6,97.76c.14.01.26.02.35-.02-.13-.03-.24-.01-.35.02Z"/><path class="cls-1" d="m105.17,121.49c.17-.1.19-.26.17-.42-.18.02-.28.13-.17.42Z"/><path class="cls-1" d="m107,118.52s0,.01,0,.02c.1.06.08.04,0-.02Z"/><path class="cls-1" d="m108.32,117.41s0,.03-.01.04c.06.05.08.06.01-.04Z"/><path class="cls-1" d="m105.34,121.07c.48-.06,1.53.51.63-.52l-.19-.03c.38-.03.13-.6.25-.86-.12-.05-.22-.07-.32-.09-.09.11-.22.24-.44.43-.41.13,0,.65.07,1.07Z"/><path class="cls-1" d="m125.73,102.74c-.13-.2-.31.01,0,0h0Z"/><path class="cls-1" d="m123.28,104.93c.1-.02.2-.05.3-.08-.11,0-.22-.01-.3.08Z"/><path class="cls-1" d="m111.82,109.79s.04.01.07.02c-.05-.13-.08-.09-.07-.02Z"/><path class="cls-1" d="m123.84,104.74c-.08.04-.17.07-.26.1.1,0,.19,0,.26-.1Z"/><path class="cls-1" d="m115.42,108.69s.05.01.06,0c-.02-.01-.04-.01-.06,0Z"/><path class="cls-1" d="m106.05,142.84c.2-.2.47.06.74.06.19-1.01-1.07.41-.61-.61-.23.1-.36.28-.48.46l.63.63c.33-.48-.4-.14-.28-.54Z"/><path class="cls-1" d="m140.29,117.73l.11-.07c-.37-.08-.46-.18-.79.1.4.53,1.39.38,1.74,1.17-.01-.13.08-.28.21-.39-.57.02-.96-.4-1.27-.81Z"/><path class="cls-1" d="m141.56,118.54s.03,0,.05,0c.08,0,.15,0,.22,0,.04-.08.1-.14.18-.18-.16,0-.32.07-.44.18Z"/><path class="cls-1" d="m113.75,140.23c.1,0,.19-.02.27-.03-.18-.1-.24-.07-.27.03Z"/><path class="cls-1" d="m141.26,103.17c-.06.22-.13.43-.18.61.05-.13.11-.35.18-.61Z"/><path class="cls-1" d="m143.11,112.74c.09-.06.16-.14.22-.22,0-.06,0-.11.02-.18l-.24.41Z"/><path class="cls-1" d="m140.74,134.17c-.57-.78-.06.19-.78.19l.09.65c.37-.21.5-.59.68-.85Z"/><path class="cls-1" d="m105.65,142.7s.02.05.03.08c0-.01.01-.02.02-.03l-.05-.05Z"/><path class="cls-1" d="m131.47,142.98c-.09,0-.16,0-.24.01.06.02.14.02.24-.01Z"/><path class="cls-1" d="m142.79,116.61l.58-1.33-.37.31c.36.36-.66.63-.21,1.02Z"/><path class="cls-1" d="m145.3,128.62l.56.15c-.1-1.04.45-1.76.9-2.5.44-.73.83-1.51.3-2.4,2.59-.92-1.13-1.84,1.18-2.7l-.28-.06c.62-1.26,1.26-2.54,1.89-3.82l.92-1.94c.16-.35.28-.6.45-1.03.16-.4.33-.81.46-1.21.28-.81.51-1.61.69-2.39.09-.39.17-.78.24-1.16.03-.15.09-.48.13-.79l.12-.93c.31-2.49.34-4.88.33-7.04l.42-.19.32-2.16c.14-.75.13-1.39.19-2.1.04-.68,0-1.28,0-1.92-.04-.56-.08-1.16-.14-1.68-.12-1.06-.26-1.96-.4-2.86l-.21-1.41c-.04-.56-.11-1.05-.1-1.74-2.27-.33-4.09-.59-5.17-.84-.28-.06-.5-.12-.69-.18-.19-.06-.38-.15-.26-.06.07.1-.03.18-.23.23-.14.04-.33.06-.56.06-.34.39-.43,1.21-.79,1.82-.08.04-.38.26-.24-.33.33-.41.31-.85.45-1.08-.18.06-.41-.06-.68-.13-.27-.07-.59-.07-.91.41l.21.86c-.26.43-.51.26-.63.25.15-.51.15-1.58.31-1.84-.61,1.29-.66,1.14-.72.61-.06-.49-.03-1.28-.58-.7-.36,1.66-.95,3.32-2.39,4.98-.43,1.72-.83,2.53-1.17,3.46-.34.89-.63,1.53-.87,2.12-.15.07-.29.14-.44.23-.14.12-.21.42-.32.65.08-.31.14-.55.18-.76.03-.23.1-.27.11-.4.05-.21.02-.38,0-.56-.03-.37-.06-.74.74-1.75-.35.29-.68.67-.97,1.07-.18.12-.22.62-.31,1.01l-.11.6c-.02.08-.03.25-.07.26l-.11.07c-.28.19-.56.37-.85.52-.14.08-.29.15-.44.21-.14.06-.2.07-.31.09.28.24.43.66.21.93-.52.04-.83-.56-1.41-.37l.35-.63c-.57-.29-.55.43-1,.74-.41-.42-.93-.29-1.11-.89-.2.93-.58.62-1.11,1.36.97.25.08.76.33,1.17l.75-.54c-1.28.12.34-.25-.14-1.09.67.19-.08,1.75.71,1.25-.85.89-1.28.58-2.25,1.83.7-.48.09.64.61.74-.95.43-.37-.21-.91-.65-.52.26-.92-.16-1.1.7-.94.11-.18-.71-.75-.87.01-.37.68-.45,1.21-.66.57-.22.98-.56.46-1.48.46-.21.71-1.17,1.26-1.35-.56-.07-1.59-.42-2.21.36l.42,1.11c-.59.28-.33,1.05-.76,1.13.06-.4-.51-.7-.89-.42.19.1.34-.01.38.2-.73.43-.5,1.22-1.28,1.83.86-.06,1.16.19,2.06.34.16.84-.43.33-.79.61.01-.13.09-.19-.1-.28l-.26.56c-1.05.1-.4-1.14-1.31-1.16-.81-.39-.53.68-1.08.51.06.05.12.11.16.16-.09.03-.16.04-.22.04.01.02.02.03.03.05-.41.33-.93.5-.81,1.12-.17-.23-.37.26-.44.5-.15.34-.49,1.29-1.26.53,0-.01.02,0,.03-.02-.62.13-1.17,0-1.17-.35l-.98.1-.18-.8c-.84.54-.63.97-.97,1.99-.86-.18-1.9.68-2.2,1.16-.09,0-.2.05-.36.17l.51.11c-.72.29-.46.64-.91.86.13.02.16.06-.15.07-.08.03-.17.05-.29.07-.01-.09.09-.13.21-.14l-.2-.2c-.94-.5-.63.86-1.35.89.04-.06.11-.15.17-.18-.43-.03-1.43-.8-1.24-.11-.12-.04-.17.15-.2.36l-.3.02c.11-.02.21-.02.29-.01-.04.28-.04.61-.14.47l-.89.31c-.21-.02-.37.18-.49.37l-.3-.22c-.25.19-.34,0-.35-.09-1.4-.59-1.19,1.23-2.77.83,0,.61.59.63.75.89,0,.47-.52,1.12-.72,1.56-.42-.23-1.12-.31-1.77-.41-.65-.12-1.26-.26-1.41-.83-1.16.61.7.37.35,1.04l-.14.04c.43-.12.91.05,1.3.33.35.48-.39,1.11-.73,1.15l-.29-.84c-.75.86.19,1.79.3,2.81-.77.21-.98-.62-1.63-1.08-.17.27-.34.52-.48.81l-.49-.42c-.28.57.11,1.1-.51,1.55-.21-.78-1.1.58-1.38-.48-.41.22.57,1-.26.71.42.61.48-.12.78-.17.91.4-.09,1-.13,1.55-.45-.24-.33-.6-.93-.29.26.31.33.78-.25.81.55.33-.23.63-.43.89.3-.25.97-.46,1.33.03.08.38.06.65-.34,1.16l.48-.23c.54.95-1.06.45-1.16,1.27-.19-.47-.09-.65-.35-1.13.07.46.16,1.3.16,1.93l-1.13.15c.39.28-.37.64.21.92-.74.55-.42-.93-.79-1.21-.86.75.61,1.21-.71,1.69l-.41-.55c-.19.29-.13,1.06-.43.98.2.08.19-.11.27-.3,1.09.7.24,1.77,1.54,2.14l.24-.38c0,.73.68,1.46.09,1.78-.53.24-.77-.54-1.02-.89-.28.59,1.21.96.88,1.61.31-.31.74-.09,1.01.22.2-.36.71-1.07.13-1.12l-.17.1c-.31-.15-.36-.41-.48-.57.21-.54.66-.04.94-.05.53-.79-1.23-.56-.84-1.36h.28c-.16-.54.08-1.17-.6-1.62.94,0,.15-1.09.81-1.26,1.71.78-.81,1.33-.08,2.24.55-.26.71.61,1.04.95-.07-.54-.11-1.09-.15-1.65.28,0,1.32.05.82-.49l-.09.08c.07-.61-.69-.83-.22-1.16.19.01.38.29.48.38.37-.32-.2-.54-.2-.9.37-.33.57.58.93.34-.37-.82.57-.65.76-1.07-1.04-.36-.28-2.36-1.62-1.97v-1.38c.65,0,.84,1.48,1.78,1.68l-.5.75c1.2.57.26-2.07,1.84-1.77.3-.35.11-.41,1.13-.73-.35-.2-.7-.39-1.06-.57.47-.19,1.04.14,1.22.26.07-.2.21-.32.37-.41.09.16.16.31.14.44.63.27.5.08.31-.24-.12-.31.08-.42.24-.55l.14.46c.03-.15.06-.36-.05-.53.07-.06.13-.13.15-.24-.16-.13-.72-.61-1.19-.6,1.01-.23,1.55-.83,2.77-.35.12.32.02.86.13.85.42-.03.58-.77.33-1.22.08-.07.14-.12.2-.15.2.23.42.48.65.44.09.08.2.13.36.1-.25-.92.79-.87.8-1.35-.24,0-.49.12-.72.26.09-.73.12-1.53.61-1.2-.43.85,1.13.57.22,1.27,1.22.76.02-.94.97-.93.24.06.47.12.72.17.23.66-.69.72-.45.9l.32-.25c-.15.66-1.64.96-2.04,1.98.55-.1,1.11-.21,1.73-.36.44-.42.99-.8,1.58-1.17.48-.32.98-.59,1.46-.88.96-.58,1.82-1.17,2.25-2.22-.02.01-.04.03-.06.05,0-.07-.05-.19-.14-.44l.14.12.08-.61c.62.41,1.32.23,2.07.47-.51-.24-.51-.24-.75-.7-.21-.66-.27-.95.36-.95.19.45-.13.57.4.77-.29-.14-.25-.53-.04-.68.42.17.93.04,1.12.49-.09.18-.26.06-.37.03-.08.17.71.19.46.72l.47-.33c.45.27.03.68.24.88.67-.61.94-1.89,1.7-2.55.05.26.45,1.28.34.98.85.01,1.04-1.72,1.75-2.14.02.34-.32.35-.48.6,2.51-.66,4.34-1.57,6.73-1.48l.05-1.24.79.48c1.18-.09,2.34-.52,3.49-1.25.39-.28.78-.57,1.18-.85l.34-.24c.12-.08.25-.17.26-.21.09-.1.18-.19.29-.29.27-.21.35.7.5.97.16-.03.25-.26.36-.61.15-.54.33-1.37.54-2-.11.59-.29,1.96-.23,1.86.07-.48.18-1.24.2-1.1l-.1.58c-.06.64.07-.18.11-.06.6-1.86,1.17-3.66,1.73-5.4.15-.2-.06.5-.28,1.28-.23.78-.47,1.6-.52,1.82.06-.59-.23.62-.46,1.47.23-.76.47-1.41,0,.33.11-.26.1-.2.58-1.69-.24.74.02-.2.32-1.17-.1.5.37-.75-.47,1.92.01-.03.02-.06.04-.09.12-.29.22-.54.29-.77.04-.11.06-.21.09-.31v-.07s.02-.03.02-.03v.05s-.01.19-.01.19c-.02.51.02,1.03.12,1.39.6-1.07.2-.61.61-1.39.8-1.29-.35,1.02.29.02l-.63,1.14c-.02.23.26-.14.63-.58.37-.45.83-.96,1.14-1.2l.02-.02c-.73,1.09-.59,1.26-1.04,1.63.07,0-.72,1.3-1.44,2.41-.72,1.12-1.37,2.04-1.04,1.58,1.02-1.44,2.04-2.94,3.06-4.5.3-.43.11.14.31-.17-.61,1.04-1.33,2.11-1.34,2.19-.77.99-.58.62-.56.5-1.28,1.77-.84,1.27-2,2.73.21-.24.65-.84,1.12-1.39l-.28.41.43-.58c.37-.39,1.31-1.36.59-.4.4-.36.79-.68,1.17-.95-.97.95-.2.38-.43.73l-.6.44c.02.12-.15.32-.5.65-.83.57.21-.26-.58.35-.1.1-.19.19-.28.28.54-.41.95-.61,1.28-.95.98-.59,1.79-.93,1.65-.17-.91.65-.76.07-1.66.63-.21.27.36.13.95.12.59-.03,1.2.02,1.12.27-.43.63.37.54.3,1.29-.51-.39-.71.57-1.29.65l-.51-.48c.12.32-.16.54-.54.38.77.1.46,1.34.62,2.03l.66.07c.08.56.24,1.34-.13,1.89-.11.92.51.93.93,1.84-.69.16-1.33-.13-1.96-.5.4-.11.36-.56.68-.86-.08-.61-.33-1.32-.58-1.82-.22-.52-.37-.99-.09-1.42-1.44-.8.02.68-.66.95-.09-.04-.11-.08-.11-.12-.02.04-.03.07-.08.09-.08-.36-.19-.96-.95-1.24.01.53,1.44.82.57,1.25.07.15.04.26-.05.35-.1.11-.26.2-.43.27-.34.14-.73.23-.85.39.42.59,1.61,1.05,1.03,1.91l-.68-.73c-.42,1.06,1.03.96.61,1.95.23-.31.68.66.97,0,.32.5.11,1.27-.34,1.71.07.19.27.14.54.28.82-.38-.18-1.18.84-1.35l-.73-.77c.54-.44,1.29-.23,1.51.26.02-.18-.05-.36.15-.42,1.39.41-.74.5.33,1.14l.06-.44c.95.16.41,1.24.14,1.74-.64.43-1.01.9-1.66.68l.04-.89c-.67.2-.11,1.12-.32,1.56-.1,0-.18.01-.25.04.07,0,.13.01.19.04-.07.08-.18.14-.36.15-.2.38-.06,1.13-.43,1.4l.58.2-.29-.19c.18-.35.73-.7,1.03-.24.03.99-1.12.69-1.68.66-.77-.56.36-.78.24-1.33-.95-.12-.44.79-1.37,1.36-.78-.74.44-.95-.34-1.51-.45.59.13,1.06-.42,1.64-.38-.28-.12-.97-.69-1.17l-.46.32c.43-1.1-1.23-.33-1.08-1.26-.55.22.51.88-.33,1.17.47.03,1.4-.08,1.52.62-.18.16-.36.3-.54.45-.55.02-.7-1.03-1.24-.85l.04.71c.28.11.55-.1.84.26-.45.19.77,1.07.95,1.69-.19.32-.38.54-.76.48.34,1.24-.31,2.23-.09,3.43-.18-.84-.87-.54-1.44-.52.27-.62-.53-1.15-1.06-1.44-.12.38.54,1.14.91,1.15-.7.33.27.76-.59.87-.48.12-.65-.7-1.01-.8-.44.54.82.83.17,1.32-.07-.11-.06-.19-.24-.25-.4.21-.34.83-.03,1.2-1.23-.42-.71,1.06-1.56.22-.41.97.59.31.78.74.13.68-.73.96-1.03,1.01.15-.21.06-.6.37-.65l-.76-.4c-1.26.51.83,1.88-.56,2.27.15-.75-.29-.6-.49-1.23.03.29-.83.78.03.83-.38.27-.7.39-1.04.49-.08.51-.25.98-.08,1.55-.56.37-1.3.23-1.77.14-.67,1.32-2.33,1.27-3.17,2.64l.12-.02c-1.04.52,1.05.63.04,1.28-.44-.94-.98-.17-1.6-.42-1.49.33-1.75,1.97-3.26,2.02-.09-.19-.14-.46.07-.6-1.04.21-1.66.76-2.5,1.12l-.02-.13c-1.66-.1-2.45,1.34-3.81,2.17.07-.17-.05-.53-.01-.7-.81.09-2.01.41-2.21,1.47-1.24-.6-.47.51-2.01.05-.13-.14.06-.2.13-.27-.71-.09-1.1.17-1.75.29-1.12,1.13-.96,2.47-2.69,2.77-.62-1.24.84-.73.46-1.76-.23.36-.39.74-.96.62.05-.61-.08-.34-.09-.88-.49-.19-.81,1.92-.85,1.8.09.25.27.33.57.16-.02.94-1.54.77-2.17,1.46.26-.11,1.16-.23,1.15.5-1.15.22-.89,1.59-1.31,2.44-1.2-.07.12-1.38-.49-2.16-.32-.23-1.07-.71-.84-1.26-.97.28-1.2,1.35-1.83,1.98l-.12-.25c-1.01.73-1.42,2.43-2.54,2.57l.62-.05c-.07.26-.59.51-.56,1.2-.23-.4-1.22-.15-1.16-.68.4,1.52-1.59,2.57-1,3.98-.48-.04-.73-.63-.89-.93.63-.45,1.01-.41.9-1.11-.45.45-1.04.51-1.21.21.17,1.1-.58,2.42-.1,3.26-.63.03-1.1.2-1.57-.41-.45.89.17,1.08.69,1.26.54.18.98.35.34,1.15-1.18.29-.19-1.36-1.22-.47l.06-.27c-2.16-.4.67,1.4.01,2.22-.96-.47-.18-1.09-1.25-.87-.18.52-.01,1.08.13,1.6.14.52.22.97-.15,1.36l-.33-.35c-.26.6-.96,1.86-1.03,2.69-.21,0-.16-.11-.18-.27-.35.73-.18.99-.11,1.11.04.07.07.13.05.25-.01.11-.07.27-.23.59.18.1.37.2.55.29.26-.59.76-1.68.42-2.46.21.42.61.21,1.03.05.42-.17.94-.27,1.3,0l-.3-.22c.96-.39,1.72-.81,2.4-1.34.72-.51,1.36-1.09,2.14-1.57-.14-1.55,1.52-1.13,1.8-2.48-.75-1.01-.02-.34.54-1.23-.29.49.6.72.96.64-.08-.36.02-.62.12-.85.46.15,1.86.33,1.81-.65.73-.02.11.41.15.7.56.38.12-.69.53-.45,0,0,.07.12.05.2.73-.56,1.37-.57,2.27-.92-.54-1.1.59-.87.77-1.45.06.41.69.14,1.05.23l.07-1.05c.15-.92.89.17,1.34-.49l-.24-.13c.3-.55,1.83-.41,2.54.01,3.46-3.99,7.56-1.3,12.35-4.32.16-.49-.51-.44-.49-1.05.44-.37.57-.38,1.02-.63-.55-.09-.3.24-.4-.09l-.54.65c-.07-.06-.01-.13-.16-.26-.18.21-.35.57-.68.65.3-.49.02-1.36.75-1.34.01.13-.05.2-.17.35.51-.17.34-.57.81-.54.53-.05.29-.24.53.08l1.59-.3c.15-1.31,1.47-.89,1.74-.94.26.78-.76.74-.71,1.61l.79.23-.29-.58.79-.26.02.13c-.05-.27-.09-.53.2-.45.08.06.24.17.18.25l.31-.61c.06.75.54-.1.87.6,1.83-.71,1.46-2.17,3.42-2.27-.43-.14-.28-1.29.2-1.48.35-.02.51.08.54.42l.3-.72c1.42.43,1.62-.7,2.85-1.22l.17.3c.1-.62.28-1.18.88-1.58l.36.59c.98-.25-.47-1.49.51-1.84-.51-.52-1.2-.37-1.74-.82.66.39,1.47-.24.93-.45.45-.86.46-.44.65-.37l.06-.7c.47-.44.84.5.97.97-.13-.98.71-1.1,1.28-1.55l.06.43.71-.62c-.03-.83.46-1.51,1.18-1.95l.42,1.02c.75-.13-.08-.43-.12-.65.15-.99.79-.74,1.51-.81,0-.88.73-1.23,1.39-1.63.67-.39,1.26-.84.96-1.73Zm-33.03-18.55l.17.07c-.16.27-.19.46-.17-.07Zm6.41-2.91c-.64.69-.57.17-.74-.05.88-.11,1.2-.58,2.02-.57-.18-.13-.3-.36-.4-.5.3-.07.66.01.93.43.01,1.02-2.38.3-1.82.68Zm-10.94,11.02c-.04-.07-.07-.14-.1-.2h0s.1.2.1.2Zm2.35-2.49c.14.16.27.23.41.25-.17-.2-.33-.37-.41-.25Zm7.87-2.56c.34.28.65-.01.88-.23-.14.02-.42.02-.88.23Zm27.03-12.82c-.18.1-.66.6-1.01,1.33.41-.5-.29.71.32-.09-.03.05-.04.06-.06.1.39-.67.72-1.27.74-1.35Zm-1.23,19.23c-.35-.19-.67-.53-.99-.54.02-.02.04-.03.06-.05-.15,0-.27,0-.33-.07-.15.15-.32.3-.26.47,1.16.57,1.19,1.03,1.53.19Z"/><path class="cls-1" d="m141.57,110.4c0,.08-.03.13-.02.18.01-.05.02-.1.02-.18Z"/><path class="cls-1" d="m142.25,119.31c.07.05.28-.11.52-.32-.17,0-.34.07-.52.32Z"/><path class="cls-1" d="m97.74,127.15l-.03-.28c-.18.11-.36.23-.53.36.14.96.66,1.15,1.22,1.54-.36-.88.06-1.23.24-2.17l-.9.56Z"/><path class="cls-1" d="m101.92,128.24c.19,0,.65-.02.73-.11l-.33-.24-.4.35Z"/><path class="cls-1" d="m107.62,121.41l-.67.42c.17.37,1.12,0,.67-.42Z"/><path class="cls-1" d="m100.1,120.71l.17.57c.48-.15.69-.6.32-.91-.02.56-.29-.02-.49.34Z"/><path class="cls-1" d="m108.66,120c-.56-.57.46-.02-.05-.56.11.2-.58.08.05.56Z"/><path class="cls-1" d="m102.35,116.18c-.74-.2-.43.5-.85.82.22-.35,1.19-.4.85-.82Z"/><path class="cls-1" d="m109.2,116.77c.24.5,0,.59-.3.63-.02-.2-.09-.45-.02-.59-.19.62-.26.56-.4.98.5.11,1.08.06,1.38.68-.06-.57-.09-1.43-.67-1.7Z"/><path class="cls-1" d="m103.19,114.93c-.26.13-.54.19-.8.3-.13.05-.26.11-.38.2-.13.09-.23.2-.27.29.36.16.93.3,1.31-.36l.35.6c.78-.23-.86-.32-.21-1.04Z"/><path class="cls-1" d="m111.6,117.25l-.33-.18c-.24.68-.91.72-.72,1.55.41-.27.93-.89,1.05-1.37Z"/><path class="cls-1" d="m105.81,114.14l-.46-.78c-.64.31.22.21.15.53-.23,0-.52.13-.52.36.52-.6.49.53.83-.11Z"/><path class="cls-1" d="m107.09,112.18l.55-.71c-.33-.2-.67-.41-1.03-.59-.74.78.23.51.48,1.3Z"/><path class="cls-1" d="m108.23,112.27l.15.12.47-1.68c-.38.78-.46.73-.62,1.57Z"/><path class="cls-1" d="m122.24,112.04c-.04-.4-.76-.63-.37-.32.02.34.91.52.37.32Z"/><path class="cls-1" d="m117.05,106.41c.41.13,1.17-.81,1.51-1.24-.45.39-1.8.79-1.51,1.24Z"/><path class="cls-1" d="m118.7,105.01s-.08.1-.14.17c.07-.06.12-.11.14-.17Z"/><path class="cls-1" d="m134.61,95.93s.07-.07.07-.15c-.03.05-.05.09-.07.15Z"/><path class="cls-1" d="m134.31,96.32c-.32,0-.79.48-.75.92.43-.42.74-.69,1.05-1.31-.16.13-.51-.04-.3.39Z"/><path class="cls-1" d="m140.82,87.16c-.12.15-.24.24-.38.3-.08.32-.16.62-.24.88-.07.2-.13.37-.18.52-.1.3-.13.53-.08.69.05-.03.12-.17.21-.36.08-.19.18-.62.28-.98.3-.23.53-.69.39-1.05Z"/><path class="cls-1" d="m141.31,106.11c-.24.29-.06.14.57-.51,0-.09-.38.35-.57.51Z"/><path class="cls-1" d="m142,105.59l-.31.31-.48.48c.26-.25.53-.51.8-.79Z"/><path class="cls-1" d="m141.05,106.77c-.06.03-.16.09-.26.14.08-.04.17-.07.26-.14Z"/><path class="cls-1" d="m140.75,106.93l.04-.02-.04.02Z"/><path class="cls-1" d="m140.95,106.79l-.33.21s.08-.04.13-.07c-.02,0,.02-.02.2-.14Z"/><path class="cls-1" d="m140.94,106.92c.31-.16.62-.35.93-.55-.45.16-.48.35-1.46.79.18-.09.35-.17.53-.24Z"/><path class="cls-1" d="m141.17,107.05c-.15.06.12.05.3.08.17.03.25.1-.27.12.25.11.67.17,1.08.19.2.01.4.02.57.07.08.03.16.06.22.12.06.05.11.14.12.35.1-.18.13-.27.13-.33,0-.06-.05-.12-.12-.16-.14-.09-.38-.14-.62-.18-.48-.09-.96-.09-.65-.27-.66.2-.5-.03-.75,0Z"/><path class="cls-1" d="m142.95,106.57c-.53.11-.6.31-.26.33.06-.06.82-.36.26-.33Z"/><polygon class="cls-1" points="141.53 107.67 141.08 107.96 141.39 108.12 141.53 107.67"/><path class="cls-1" d="m141.06,108.98l-.5-.46c.21.17.04.64.5.46Z"/><path class="cls-1" d="m139.88,110.46c-.13.08.08.37.33.49.24.14.56.06.51-.27l-.09.12c-.19-.1-.74.05-.74-.34Z"/><path class="cls-1" d="m140.08,116.01c.13-.24.08-.6-.2-.65l-.02.79.22-.14Z"/><path class="cls-1" d="m143.19,117.14c.86.07.2-.69.64-1.06-.36.48-.44.37-.64,1.06Z"/><path class="cls-1" d="m138.67,116.34c-.24-.31.08-.51.2-.66-.47-.09-.55.41-.2.66Z"/><path class="cls-1" d="m138.49,117.52c-.4.09-.41-.23-.69-.15-.54.32-.71.82-.41,1.27.38.02,1.33.24,1.62.6.07-.87-1.19-1.86.06-1.76l-1.07-1.18c-.46.51.74.85.48,1.23Z"/><path class="cls-1" d="m141.66,117.03l-.62.23c.47.09.42.44.46.72,1.02.3.11-.69.15-.95Z"/><path class="cls-1" d="m137.23,121.78c-.06.29-.12.59-.19.88l.19-.22v-.66Z"/><polygon class="cls-1" points="136.67 122.11 136.39 121.98 136.56 122.82 136.67 122.11"/><polygon class="cls-1" points="135.92 122.71 136.01 122.65 136.03 122.08 135.92 122.71"/><path class="cls-1" d="m134.83,124.11l.46.11c.02-.24.67-.35.13-.63.08.27-.22.61-.59.52Z"/><path class="cls-1" d="m139.59,136.35c-.08-.35-.35-.43-.63-.53l.34.75c.04-.1.11-.29.29-.22Z"/><path class="cls-1" d="m137.78,136.47l.04,1.19c.76-.58.37-1.15.83-1.83-.43.07-.32.84-.8.99l-.07-.34Z"/><path class="cls-1" d="m124.87,145.41c-.21-.52-.32-.36,0-.96-.51.69-1.15.91-1.9,1.4.3.24-.02,1.09.22.79l.73-.77.05.41c.83.04.11-.77.91-.87Z"/><path class="cls-1" d="m89.86,160.49c-.19-.21-.46-.23-.74-.22-.03.73.75.07.74.22Z"/></g></svg>